<svg width="48" height="48" viewBox="0 0 48 48" fill="none" xmlns="http://www.w3.org/2000/svg">
<path fill-rule="evenodd" clip-rule="evenodd" d="M22.2648 4.07392C21.1844 4.17722 20.9269 4.459 20.8024 5.67462C20.7031 6.64379 20.5119 7.21093 20.0504 7.90497C19.2324 9.13528 17.993 9.79612 16.5199 9.78736C15.2824 9.78002 14.3455 9.43456 13.4094 8.64058C12.7215 8.05703 12.2912 7.92029 11.8613 8.14853C11.424 8.38076 10.3872 9.31446 9.306 10.4497C7.93033 11.894 7.85695 12.2891 8.77927 13.2855C9.55506 14.1237 9.93229 15.1023 9.93229 16.277C9.93229 18.6688 8.27341 20.369 5.66141 20.6541C4.73558 20.7553 4.43118 20.8963 4.26121 21.303C3.90273 22.1608 3.91704 26.072 4.28067 26.6269C4.46666 26.9107 5.11773 27.2005 5.57162 27.2014C6.74574 27.2038 8.01997 27.8264 8.82382 28.7903C9.56327 29.6769 9.90056 30.7036 9.8296 31.8515C9.75958 32.9839 9.45824 33.6934 8.63485 34.6637C7.87782 35.5559 7.89095 35.8917 8.72113 36.8817C9.33101 37.609 10.591 38.872 11.2218 39.3884C11.9589 39.9918 12.4477 39.9729 13.1768 39.3127C13.998 38.5691 14.9618 38.155 16.028 38.0877C17.3263 38.0057 18.3907 38.3927 19.3113 39.2814C20.1716 40.1118 20.5894 41.0556 20.6862 42.3872C20.7459 43.2096 20.8445 43.4547 21.2051 43.6775C21.8694 44.088 25.9091 44.1142 26.5972 43.7124C26.9784 43.4898 27.1071 43.1911 27.1961 42.3223C27.2953 41.3531 27.4866 40.786 27.9481 40.0919C28.766 38.8616 30.0054 38.2008 31.4785 38.2095C32.716 38.2169 33.653 38.5624 34.5891 39.3563C35.277 39.9399 35.7073 40.0766 36.1371 39.8484C36.7913 39.501 39.3891 36.9582 39.69 36.3708C39.9648 35.8342 39.835 35.3767 39.2192 34.7115C38.4325 33.8615 38.0662 32.896 38.0662 31.6727C38.0662 30.4225 38.5103 29.406 39.434 28.542C40.2708 27.7593 41.1297 27.402 42.3903 27.312C43.5708 27.2277 43.7922 26.9984 43.9229 25.7243C44.085 24.1455 43.978 21.767 43.7276 21.3851C43.5191 21.0667 43.0897 20.8686 42.4493 20.795C41.0143 20.6302 40.3289 20.326 39.4639 19.4695C38.4916 18.5067 38.0871 17.4685 38.1689 16.1454C38.2379 15.0271 38.5504 14.2917 39.3636 13.3332C40.1206 12.441 40.1075 12.1052 39.2773 11.1152C38.6674 10.3879 37.4074 9.12489 36.7767 8.60854C36.0515 8.01476 35.5303 8.02656 34.8618 8.65168C34.3898 9.09317 33.7172 9.49317 33.0744 9.71477C32.3808 9.9538 30.9797 9.96959 30.3338 9.74564C28.9827 9.27711 27.9019 8.13666 27.488 6.74272C27.42 6.51361 27.3409 6.00375 27.3122 5.60969C27.2521 4.78242 27.1543 4.54245 26.7838 4.3135C26.3303 4.03329 23.9889 3.90912 22.2648 4.07392ZM25.6013 12.5988C29.991 13.1599 33.8079 16.4565 35.0583 20.7668C35.5655 22.5153 35.6494 24.539 35.2884 26.3194C35.0659 27.4169 34.4685 29.0009 34.0175 29.6892C33.8992 29.8697 33.8777 29.8505 31.3794 27.3535L28.8605 24.8359L29.0072 24.4095C29.8569 21.9402 29.2839 19.2118 27.5221 17.3373C25.7714 15.4747 23.4859 14.721 20.9905 15.1835C20.1593 15.3375 19.9354 15.5269 19.9354 16.0763C19.9354 16.3537 20.0299 16.464 21.7329 18.177C23.7861 20.2422 23.6227 19.9297 23.4146 21.3932C23.2608 22.475 23.1474 22.8918 22.9941 22.9386C22.7172 23.0233 21.4666 23.216 20.8726 23.2656L20.2459 23.3179L18.469 21.5532C17.4918 20.5826 16.5938 19.7514 16.4736 19.7061C16.014 19.5328 15.582 19.8927 15.4486 20.5603C14.9525 23.0427 15.6852 25.4672 17.4475 27.1738C18.703 28.3895 20.1921 29.0398 21.9283 29.1305C22.9036 29.1815 23.629 29.0905 24.5253 28.8051L25.1324 28.6118L27.6528 31.1299C29.0391 32.5149 30.1617 33.6827 30.1476 33.7252C30.1015 33.8634 28.4331 34.6664 27.6723 34.9165C23.196 36.3882 18.3493 35.0651 15.3006 31.5394C11.1346 26.7213 11.6523 19.4548 16.4574 15.3009C19.0093 13.095 22.1719 12.1604 25.6013 12.5988Z" fill="white"/>
<mask id="mask0_4169_17971" style="mask-type:alpha" maskUnits="userSpaceOnUse" x="4" y="4" width="40" height="40">
<path fill-rule="evenodd" clip-rule="evenodd" d="M22.2648 4.07392C21.1844 4.17722 20.9269 4.459 20.8024 5.67462C20.7031 6.64379 20.5119 7.21093 20.0504 7.90497C19.2324 9.13528 17.993 9.79612 16.5199 9.78736C15.2824 9.78002 14.3455 9.43456 13.4094 8.64058C12.7215 8.05703 12.2912 7.92029 11.8613 8.14853C11.424 8.38076 10.3872 9.31446 9.306 10.4497C7.93033 11.894 7.85695 12.2891 8.77927 13.2855C9.55506 14.1237 9.93229 15.1023 9.93229 16.277C9.93229 18.6688 8.27341 20.369 5.66141 20.6541C4.73558 20.7553 4.43118 20.8963 4.26121 21.303C3.90273 22.1608 3.91704 26.072 4.28067 26.6269C4.46666 26.9107 5.11773 27.2005 5.57162 27.2014C6.74574 27.2038 8.01997 27.8264 8.82382 28.7903C9.56327 29.6769 9.90056 30.7036 9.8296 31.8515C9.75958 32.9839 9.45824 33.6934 8.63485 34.6637C7.87782 35.5559 7.89095 35.8917 8.72113 36.8817C9.33101 37.609 10.591 38.872 11.2218 39.3884C11.9589 39.9918 12.4477 39.9729 13.1768 39.3127C13.998 38.5691 14.9618 38.155 16.028 38.0877C17.3263 38.0057 18.3907 38.3927 19.3113 39.2814C20.1716 40.1118 20.5894 41.0556 20.6862 42.3872C20.7459 43.2096 20.8445 43.4547 21.2051 43.6775C21.8694 44.088 25.9091 44.1142 26.5972 43.7124C26.9784 43.4898 27.1071 43.1911 27.1961 42.3223C27.2953 41.3531 27.4866 40.786 27.9481 40.0919C28.766 38.8616 30.0054 38.2008 31.4785 38.2095C32.716 38.2169 33.653 38.5624 34.5891 39.3563C35.277 39.9399 35.7073 40.0766 36.1371 39.8484C36.7913 39.501 39.3891 36.9582 39.69 36.3708C39.9648 35.8342 39.835 35.3767 39.2192 34.7115C38.4325 33.8615 38.0662 32.896 38.0662 31.6727C38.0662 30.4225 38.5103 29.406 39.434 28.542C40.2708 27.7593 41.1297 27.402 42.3903 27.312C43.5708 27.2277 43.7922 26.9984 43.9229 25.7243C44.085 24.1455 43.978 21.767 43.7276 21.3851C43.5191 21.0667 43.0897 20.8686 42.4493 20.795C41.0143 20.6302 40.3289 20.326 39.4639 19.4695C38.4916 18.5067 38.0871 17.4685 38.1689 16.1454C38.2379 15.0271 38.5504 14.2917 39.3636 13.3332C40.1206 12.441 40.1075 12.1052 39.2773 11.1152C38.6674 10.3879 37.4074 9.12489 36.7767 8.60854C36.0515 8.01476 35.5303 8.02656 34.8618 8.65168C34.3898 9.09317 33.7172 9.49317 33.0744 9.71477C32.3808 9.9538 30.9797 9.96959 30.3338 9.74564C28.9827 9.27711 27.9019 8.13666 27.488 6.74272C27.42 6.51361 27.3409 6.00375 27.3122 5.60969C27.2521 4.78242 27.1543 4.54245 26.7838 4.3135C26.3303 4.03329 23.9889 3.90912 22.2648 4.07392ZM25.6013 12.5988C29.991 13.1599 33.8079 16.4565 35.0583 20.7668C35.5655 22.5153 35.6494 24.539 35.2884 26.3194C35.0659 27.4169 34.4685 29.0009 34.0175 29.6892C33.8992 29.8697 33.8777 29.8505 31.3794 27.3535L28.8605 24.8359L29.0072 24.4095C29.8569 21.9402 29.2839 19.2118 27.5221 17.3373C25.7714 15.4747 23.4859 14.721 20.9905 15.1835C20.1593 15.3375 19.9354 15.5269 19.9354 16.0763C19.9354 16.3537 20.0299 16.464 21.7329 18.177C23.7861 20.2422 23.6227 19.9297 23.4146 21.3932C23.2608 22.475 23.1474 22.8918 22.9941 22.9386C22.7172 23.0233 21.4666 23.216 20.8726 23.2656L20.2459 23.3179L18.469 21.5532C17.4918 20.5826 16.5938 19.7514 16.4736 19.7061C16.014 19.5328 15.582 19.8927 15.4486 20.5603C14.9525 23.0427 15.6852 25.4672 17.4475 27.1738C18.703 28.3895 20.1921 29.0398 21.9283 29.1305C22.9036 29.1815 23.629 29.0905 24.5253 28.8051L25.1324 28.6118L27.6528 31.1299C29.0391 32.5149 30.1617 33.6827 30.1476 33.7252C30.1015 33.8634 28.4331 34.6664 27.6723 34.9165C23.196 36.3882 18.3493 35.0651 15.3006 31.5394C11.1346 26.7213 11.6523 19.4548 16.4574 15.3009C19.0093 13.095 22.1719 12.1604 25.6013 12.5988Z" fill="white"/>
</mask>
<g mask="url(#mask0_4169_17971)">
<path d="M35.4725 23.9667C35.052 30.8421 31.2619 35.0193 24.4198 35.0193C17.5777 35.0193 13.3672 30.0709 13.3672 23.9667C13.3672 17.8625 18.3156 12.9141 24.4198 12.9141C30.524 12.9141 30.8414 23.4737 35.4725 23.9667Z" fill="#ED1556"/>
<path d="M35.4725 23.9667C35.052 30.8421 31.2619 35.0193 24.4198 35.0193C17.5777 35.0193 13.3672 30.0709 13.3672 23.9667C13.3672 17.8625 18.3156 12.9141 24.4198 12.9141C30.524 12.9141 30.8414 23.4737 35.4725 23.9667Z" fill="#ED1556"/>
</g>
</svg>
