<svg width="48" height="48" viewBox="0 0 48 48" fill="none" xmlns="http://www.w3.org/2000/svg">
<path fill-rule="evenodd" clip-rule="evenodd" d="M19.3745 16.4589C16.2336 16.7033 12.8789 17.8342 10.4439 19.4697C8.71189 20.6332 7.10787 22.236 6.05786 23.8526C3.95022 27.0977 3.45341 30.8327 4.63536 34.5465C5.1091 36.035 6.11922 37.8726 7.07255 38.9803L7.44135 39.4089L7.18429 39.7012C4.88729 42.3139 4.13431 43.2005 4.07078 43.3678C3.86571 43.9071 4.12229 44.5782 4.63312 44.8389C4.94432 44.9976 5.08739 45.0001 13.88 45.0001C23.4271 45.0001 23.7581 44.9884 25.3423 44.5925C31.4497 43.0664 36.3733 38.4516 37.5137 33.1848C38.1087 30.4364 37.7651 27.7942 36.472 25.1744C35.7602 23.7325 35.0827 22.8132 33.7559 21.4894C32.5594 20.2954 31.659 19.6051 30.2687 18.8156C27.1113 17.0227 23.1486 16.1654 19.3745 16.4589ZM14.6833 28.2924C15.5211 28.7024 15.9667 29.4414 15.9667 30.4212C15.9667 31.1036 15.8004 31.56 15.3753 32.0442C14.7236 32.7864 13.4755 33.0147 12.551 32.5608C11.2672 31.9303 10.8284 30.3358 11.6027 29.1149C12.2418 28.1072 13.5764 27.7509 14.6833 28.2924ZM21.9728 28.2924C22.8106 28.7024 23.2563 29.4414 23.2563 30.4212C23.2563 31.1036 23.0899 31.56 22.6649 32.0442C22.0131 32.7864 20.765 33.0147 19.8405 32.5608C18.5568 31.9303 18.118 30.3358 18.8922 29.1149C19.5313 28.1072 20.8659 27.7509 21.9728 28.2924ZM29.2624 28.2924C30.1002 28.7024 30.5458 29.4414 30.5458 30.4212C30.5458 31.1036 30.3794 31.56 29.9544 32.0442C29.3027 32.7864 28.0545 33.0147 27.1301 32.5608C25.8463 31.9303 25.4075 30.3358 26.1818 29.1149C26.8209 28.1072 28.1555 27.7509 29.2624 28.2924Z" fill="white"/>
<path fill-rule="evenodd" clip-rule="evenodd" d="M27.5453 4.0772C21.2099 4.72116 15.8251 8.62343 14.1847 13.7594C14.051 14.1779 13.9154 14.661 13.8833 14.833C13.8306 15.1151 13.8398 15.1413 13.9764 15.1014C15.2791 14.7202 16.3403 14.461 17.1451 14.3276C21.7909 13.5568 26.3399 14.1984 30.389 16.1957C32.4546 17.2145 33.8317 18.1807 35.3721 19.6917C38.2743 22.5384 39.8437 25.8356 40.1645 29.7602L40.2185 30.421H42.154C44.3502 30.421 44.4965 30.3877 44.8266 29.8119C45.0388 29.4417 45.0568 29.0652 44.8785 28.7204C44.8072 28.5825 44.1021 27.7182 43.3116 26.7997L41.8744 25.1297L42.1905 24.7706C43.3507 23.4525 44.3659 21.3573 44.7821 19.4218C45.0334 18.2535 45.0334 16.1543 44.7821 14.9859C43.5158 9.09757 37.983 4.70498 31.0299 4.06759C30.0083 3.97395 28.5207 3.97803 27.5453 4.0772Z" fill="#ED1556"/>
</svg>
