<svg width="48" height="48" viewBox="0 0 48 48" fill="none" xmlns="http://www.w3.org/2000/svg">
<path fill-rule="evenodd" clip-rule="evenodd" d="M9.16321 4.13769C8.96611 4.22949 8.71963 4.41259 8.61541 4.54457C8.44669 4.75812 7.90373 6.27589 7.6366 7.28044C7.43572 8.036 7.86981 8.78036 8.68685 9.08161C9.10521 9.23582 39.9505 19.03 40.0179 19.03C40.0395 19.03 40.0573 24.1572 40.0573 30.4237C40.0573 41.6112 40.0604 41.8239 40.2317 42.1733C40.3277 42.369 40.552 42.6276 40.7303 42.748C41.0522 42.9652 41.0704 42.9669 43.3019 42.9936C44.538 43.0084 45.6786 42.9966 45.8367 42.9674C46.1946 42.9014 46.7231 42.4489 46.8805 42.0739C46.9784 41.8405 46.9992 39.4864 46.9992 28.6348V15.4788L46.8015 15.0934C46.4324 14.374 46.3674 14.3542 44.2031 14.3L42.298 14.2523L26.2613 9.14611C17.4411 6.33777 10.0664 4.02435 9.87313 4.00536C9.64765 3.98313 9.39317 4.03065 9.16321 4.13769ZM12.1011 5.67664C12.3621 5.81107 12.5532 6.14111 12.5532 6.45741C12.5532 6.72994 12.0771 8.21796 11.9075 8.47588C11.5462 9.02507 10.6497 8.91646 10.3876 8.29183C10.2559 7.97798 10.2606 7.92459 10.4858 7.17279C10.6158 6.73861 10.7836 6.25392 10.8584 6.09569C11.0899 5.6068 11.6191 5.42834 12.1011 5.67664ZM17.3975 7.35186C17.7009 7.50817 17.927 7.9617 17.8567 8.2731C17.7163 8.89536 17.255 10.1461 17.114 10.2866C16.5846 10.8138 15.6288 10.4163 15.6288 9.66904C15.6288 9.31651 16.0738 7.9217 16.2922 7.58974C16.5349 7.22067 16.9636 7.12842 17.3975 7.35186ZM22.9325 9.19337C23.2313 9.46258 23.2294 9.86482 22.9249 10.8215C22.6046 11.8278 22.3202 12.2034 21.8786 12.2034C21.4782 12.2034 21.1887 12.0366 21.0371 11.7186C20.8591 11.3449 20.8581 11.3551 21.1674 10.3569C21.4458 9.45821 21.7397 8.99794 22.0684 8.94551C22.3361 8.9028 22.7381 9.01807 22.9325 9.19337ZM28.2019 10.8717C28.4093 11.0563 28.4757 11.1894 28.4757 11.4207C28.4757 11.8486 27.9568 13.4657 27.7637 13.6398C27.1858 14.1607 26.2613 13.7926 26.2613 13.0417C26.2613 12.5249 26.7671 11.0772 27.0335 10.8311C27.3513 10.5379 27.8461 10.5551 28.2019 10.8717ZM33.3164 12.3859C33.5677 12.5 33.8183 12.8963 33.8183 13.1795C33.8183 13.5905 33.1943 15.2684 32.9925 15.4001C32.6276 15.6383 32.3046 15.6456 31.973 15.4232C31.4929 15.1013 31.4578 14.7877 31.7854 13.7443C31.9349 13.2681 32.1197 12.7835 32.196 12.6675C32.424 12.3209 32.9061 12.1998 33.3164 12.3859ZM38.5445 14.0479C38.8785 14.1639 39.0907 14.4709 39.0907 14.8382C39.0907 14.991 38.9713 15.5016 38.8252 15.9728C38.6186 16.6396 38.5003 16.8794 38.2912 17.0546C37.9214 17.3646 37.5199 17.3543 37.1668 17.0257C36.7816 16.6672 36.7812 16.4139 37.1647 15.2173C37.5186 14.113 37.8712 13.8142 38.5445 14.0479Z" fill="#ED1556"/>
<path fill-rule="evenodd" clip-rule="evenodd" d="M9.87394 16.7902C8.92334 17.0903 8.00411 17.8337 7.56896 18.6539C7.42081 18.9333 6.9369 20.0479 6.49367 21.131C6.05044 22.214 5.65185 23.1367 5.608 23.1813C5.55914 23.231 5.18613 23.1673 4.64606 23.0171C3.20522 22.6163 2.56903 22.7479 2.19135 23.5249C1.95866 24.0037 1.93186 25.4153 2.14583 25.9255C2.4163 26.5703 3.12095 27.0763 3.75425 27.0804C4.00161 27.082 4.03851 27.1071 3.9828 27.2355C3.70196 27.883 3.3648 28.9488 3.17288 29.7955L2.94468 30.8019L2.91076 35.997L2.87675 41.192L3.11076 41.6683C3.26805 41.9887 3.46216 42.2221 3.70311 42.3809L4.06154 42.6172H5.92074H7.78003L8.14303 42.3666C8.36992 42.21 8.5896 41.9491 8.7287 41.6711C8.93573 41.2574 8.95128 41.1386 8.95128 39.9744V38.7225H19.2763H29.6013V39.9944C29.6013 41.6659 29.7825 42.1143 30.6118 42.4955C30.9136 42.6342 31.1975 42.6573 32.6196 42.659C34.4836 42.6612 34.6511 42.6211 35.1697 42.0495C35.3695 41.8291 35.5023 41.5675 35.5671 41.2665C35.6882 40.7041 35.697 32.5818 35.5778 31.3622C35.447 30.0233 35.0794 28.5265 34.5644 27.2355C34.5136 27.1082 34.5531 27.082 34.7983 27.0804C35.4738 27.076 36.2642 26.4603 36.4501 25.7938C36.5842 25.3125 36.5664 23.9812 36.4211 23.6349C36.3539 23.4748 36.2056 23.2556 36.0915 23.148C35.6285 22.7107 35.1081 22.6763 33.933 23.0054C33.489 23.1298 33.0719 23.2315 33.0061 23.2315C32.9321 23.2315 32.5198 22.3381 31.9255 20.8903C30.8737 18.3275 30.6485 17.9573 29.777 17.3563C29.5112 17.173 29.0587 16.943 28.7714 16.8452C28.2593 16.671 28.0731 16.6675 19.2373 16.6733C12.2149 16.6779 10.1478 16.7037 9.87394 16.7902ZM27.712 18.3444C28.289 18.6502 28.665 19.0523 28.9264 19.6431C29.7177 21.4312 31.7102 26.4141 31.7102 26.6048C31.7102 26.7525 31.6013 26.9458 31.4115 27.1349L31.1127 27.4324H19.3246C8.9823 27.4324 7.50508 27.4162 7.27995 27.3003C6.97125 27.1412 6.84234 26.9235 6.84234 26.5611C6.84234 26.4119 7.50033 24.6953 8.31069 22.7302C9.61437 19.5689 9.81832 19.1318 10.1297 18.8307C10.5305 18.4433 10.825 18.2749 11.2991 18.1621C11.4865 18.1176 15.0406 18.0893 19.452 18.0973L27.2727 18.1115L27.712 18.3444ZM12.7777 31.4982C12.9903 31.71 12.9934 31.7346 12.9934 33.2525C12.9934 34.7704 12.9903 34.795 12.7777 35.0068L12.562 35.2217H9.6982H6.83435L6.61871 35.0068C6.40606 34.795 6.40298 34.7704 6.40298 33.2525C6.40298 31.7346 6.40606 31.71 6.61871 31.4982L6.83435 31.2833H9.6982H12.562L12.7777 31.4982ZM31.846 31.4982C32.0586 31.71 32.0617 31.7346 32.0617 33.2525C32.0617 34.7704 32.0586 34.795 31.846 35.0068L31.6303 35.2217H28.7665H25.9026L25.687 35.0068C25.4744 34.795 25.4713 34.7704 25.4713 33.2525C25.4713 31.7346 25.4744 31.71 25.687 31.4982L25.9026 31.2833H28.7665H31.6303L31.846 31.4982Z" fill="white"/>
</svg>
