<svg width="48" height="48" viewBox="0 0 48 48" fill="none" xmlns="http://www.w3.org/2000/svg">
<path fill-rule="evenodd" clip-rule="evenodd" d="M23.8583 20.2839C23.5689 20.4547 23.487 20.5855 22.6904 22.1479L21.8338 23.8284L20.002 24.095C18.0637 24.3771 17.8231 24.4513 17.5587 24.8487C17.3692 25.1335 17.3126 25.4729 17.3928 25.8431C17.4572 26.1409 17.5889 26.2928 18.8249 27.4948L20.186 28.8185L19.8816 30.6103C19.6979 31.6906 19.595 32.4962 19.6223 32.6391C19.6808 32.9464 20.0552 33.3904 20.3623 33.5168C20.8533 33.7188 21.0406 33.6616 22.8166 32.7669L24.5027 31.9175L26.1799 32.7669C27.951 33.6638 28.1398 33.7214 28.6373 33.5168C28.9444 33.3904 29.3188 32.9464 29.3773 32.6391C29.4045 32.4963 29.3017 31.6916 29.1185 30.6134L28.8146 28.8247L30.1628 27.5023C31.3138 26.3734 31.5231 26.1344 31.5939 25.8682C31.6925 25.4978 31.6529 25.2065 31.4609 24.8914C31.194 24.4533 30.9767 24.3831 28.9976 24.095L27.1658 23.8284L26.3084 22.1465C25.5022 20.5651 25.432 20.4537 25.1341 20.2818C24.7119 20.0382 24.2734 20.0389 23.8583 20.2839Z" fill="#ED1556"/>
<path fill-rule="evenodd" clip-rule="evenodd" d="M14.9552 5.05521C14.3963 5.23549 14.0238 5.56106 13.7869 6.07617C13.6554 6.36227 13.6372 6.55072 13.6358 7.6407L13.6342 8.87995L11.3766 8.91241C9.31283 8.94205 9.07717 8.95824 8.63087 9.10144C8.03555 9.29241 7.3555 9.72872 6.94532 10.1829C6.57575 10.592 6.17519 11.3916 6.07344 11.923C6.02469 12.1777 5.99929 16.8801 6.00002 25.5126C6.0012 40.1129 5.97161 39.2028 6.47399 40.0873C6.79137 40.6461 7.37583 41.2215 7.94334 41.534C8.84598 42.031 7.73043 41.9996 24.4997 41.9996C41.2689 41.9996 40.1534 42.031 41.056 41.534C41.6235 41.2215 42.208 40.6461 42.5254 40.0873C43.0278 39.2026 42.9982 40.1201 42.9993 25.4456C43.0005 10.9128 43.0278 11.8307 42.5685 10.9368C42.1366 10.0964 41.3037 9.40142 40.3685 9.10144C39.9223 8.95831 39.6865 8.94205 37.6309 8.91248L35.3815 8.88017L35.3514 7.64077C35.3258 6.58751 35.2988 6.35258 35.1711 6.07617C34.8666 5.41671 34.3037 5.05283 33.5149 5.00548C32.6538 4.9538 32.0347 5.26744 31.6515 5.94938C31.442 6.32208 31.4376 6.35302 31.4123 7.61222L31.3865 8.89528H24.4559H17.5252L17.5236 7.64836C17.5222 6.55065 17.504 6.36256 17.3724 6.07617C17.051 5.3771 16.5341 5.05203 15.6898 5.01806C15.387 5.00584 15.0564 5.02254 14.9552 5.05521ZM38.7977 27.852L38.779 37.8454H24.4997H10.2203L10.2017 27.852L10.1831 17.8586H24.4997H38.8163L38.7977 27.852Z" fill="white"/>
</svg>
