<svg width="48" height="48" viewBox="0 0 48 48" fill="none" xmlns="http://www.w3.org/2000/svg">
<circle cx="24" cy="24" r="21.5" stroke="#ED1556" stroke-width="3"/>
<path d="M12 31.8591V29.7224L18.6886 21.9033C19.0141 21.512 19.25 21.1519 19.3965 20.8232C19.543 20.4788 19.6162 20.0953 19.6162 19.6727C19.6162 18.9213 19.3965 18.3108 18.9571 17.8412C18.5177 17.3715 17.8912 17.1367 17.0775 17.1367C16.752 17.1367 16.4346 17.1837 16.1254 17.2776C15.8162 17.3715 15.5396 17.5203 15.2955 17.7238C15.0676 17.9273 14.8805 18.1934 14.734 18.5221C14.5876 18.8508 14.5143 19.25 14.5143 19.7196H12.0244C12.0244 19.0152 12.1465 18.3734 12.3906 17.7942C12.651 17.1994 13.0008 16.6984 13.4402 16.2914C13.8959 15.8844 14.433 15.5714 15.0514 15.3522C15.6698 15.1174 16.3451 15 17.0775 15C17.8261 15 18.5096 15.1096 19.128 15.3287C19.7464 15.5479 20.2753 15.861 20.7147 16.268C21.1541 16.675 21.4958 17.168 21.7399 17.7472C21.984 18.3264 22.1061 18.9761 22.1061 19.6961C22.1061 20.4319 21.9678 21.0658 21.6911 21.5981C21.4145 22.1146 21.0076 22.686 20.4706 23.3122L15.0269 29.7224H22.1061V31.8591H12Z" fill="white"/>
<path d="M35 27.2099C35 27.9613 34.8617 28.6344 34.585 29.2293C34.3246 29.8085 33.9666 30.3094 33.5109 30.732C33.0553 31.139 32.5182 31.4521 31.8998 31.6713C31.2977 31.8904 30.6549 32 29.9714 32C29.2879 32 28.6369 31.8904 28.0185 31.6713C27.4164 31.4521 26.8875 31.139 26.4318 30.732C25.9761 30.3094 25.6181 29.8085 25.3577 29.2293C25.0973 28.6344 24.9671 27.9613 24.9671 27.2099V19.7901C24.9671 19.0387 25.0973 18.3734 25.3577 17.7942C25.6181 17.1994 25.9761 16.6984 26.4318 16.2914C26.8875 15.8688 27.4164 15.5479 28.0185 15.3287C28.6369 15.1096 29.2879 15 29.9714 15C30.6549 15 31.2977 15.1096 31.8998 15.3287C32.5182 15.5479 33.0553 15.8688 33.5109 16.2914C33.9666 16.6984 34.3246 17.1994 34.585 17.7942C34.8617 18.3734 35 19.0387 35 19.7901V27.2099ZM32.5101 19.8605C32.5101 19.0465 32.2823 18.389 31.8266 17.8881C31.3872 17.3872 30.7688 17.1367 29.9714 17.1367C29.1739 17.1367 28.5555 17.3872 28.1161 17.8881C27.6767 18.389 27.457 19.0465 27.457 19.8605V27.1395C27.457 27.9535 27.6767 28.611 28.1161 29.1119C28.5555 29.6128 29.1739 29.8633 29.9714 29.8633C30.7688 29.8633 31.3872 29.6128 31.8266 29.1119C32.2823 28.611 32.5101 27.9535 32.5101 27.1395V19.8605Z" fill="white"/>
</svg>
