<svg width="48" height="48" viewBox="0 0 48 48" fill="none" xmlns="http://www.w3.org/2000/svg">
<path fill-rule="evenodd" clip-rule="evenodd" d="M1.59783 7.20156C0.756957 7.76226 0.812469 8.92056 1.70538 9.4456C1.97341 9.6032 2.20116 9.62695 3.70417 9.65363L5.40054 9.68378L8.54021 17.9698L11.6799 26.2558L11.6778 28.2643L11.6757 30.2726L12.2326 30.1548C13.0225 29.9875 14.8814 29.9974 15.7396 30.1733C17.2003 30.4729 18.4122 31.0165 19.5842 31.8981C21.2061 33.118 22.3284 34.7597 22.9626 36.8401C23.1919 37.5922 23.2067 37.7428 23.2067 39.3305C23.2067 40.9195 23.1921 41.0682 22.9621 41.8209C22.8276 42.2612 22.5788 42.9157 22.4092 43.2755C22.2396 43.6352 22.1009 43.9454 22.1009 43.9648C22.1009 43.9842 24.7673 44 28.0263 44C31.2853 44 33.9518 43.9833 33.9518 43.9629C33.9518 43.9425 33.8778 43.7524 33.7875 43.5404C33.6972 43.3285 33.5468 42.8549 33.4534 42.488C33.2215 41.5777 33.2222 39.6814 33.4546 38.8043C33.834 37.3729 34.5303 36.1262 35.5248 35.098L36.0945 34.5089L32.9515 32.7269C31.2228 31.7468 27.4798 29.6241 24.6337 28.0098C21.7875 26.3954 19.3015 24.9954 19.1092 24.8987C18.7948 24.7405 18.5188 24.7182 16.3719 24.6774C15.0588 24.6525 13.9638 24.6115 13.9386 24.5863C13.9133 24.5611 12.4926 20.8439 10.7815 16.326C9.0702 11.808 7.58938 7.94094 7.49065 7.73255C7.15268 7.0194 7.07008 7.00037 4.31551 7.00001C1.95291 6.99966 1.89402 7.00402 1.59783 7.20156ZM29.466 27.6395C29.5215 27.6949 31.6462 28.9208 34.1874 30.3637L38.8079 32.9872L39.5653 32.8451C39.9819 32.7669 40.4751 32.7033 40.6614 32.7036L41 32.7042L40.9733 30.5759C40.948 28.5736 40.9353 28.4326 40.7589 28.1967C40.6558 28.0586 40.4352 27.8657 40.2688 27.7679C39.9768 27.5962 39.7815 27.5891 34.6657 27.5644C30.7171 27.5453 29.3908 27.5645 29.466 27.6395Z" fill="white"/>
<path fill-rule="evenodd" clip-rule="evenodd" d="M13.0538 33.0252C10.8113 33.2002 8.7013 34.6171 7.6844 36.6307C7.16012 37.669 7 38.3418 7 39.5069C7 40.6778 7.15885 41.3392 7.70082 42.4251C8.05827 43.1414 8.22991 43.3638 8.98699 44.0911C9.74406 44.8184 9.97558 44.9833 10.7211 45.3267C11.8515 45.8474 12.5399 46 13.7588 46C14.9851 46 15.6753 45.8462 16.7979 45.3224C17.5365 44.9779 17.7845 44.8011 18.532 44.0861C19.2895 43.3614 19.4584 43.143 19.8167 42.4251C20.3587 41.3392 20.5175 40.6778 20.5175 39.5069C20.5175 38.3421 20.3575 37.6693 19.8334 36.6307C18.5885 34.1639 16.0132 32.7942 13.0538 33.0252ZM40.9299 35.6395C39.0194 35.8348 37.3031 37.0765 36.5481 38.8096C35.2779 41.7253 37.0143 45.0544 40.2349 45.8782C40.8491 46.0353 42.2966 46.0312 42.9258 45.8706C45.6241 45.1816 47.397 42.5512 46.9235 39.939C46.4267 37.1986 43.8388 35.3421 40.9299 35.6395ZM14.5337 38.4451C14.8927 38.6866 15.073 39.0416 15.073 39.5069C15.073 40.2738 14.557 40.7695 13.7588 40.7695C12.9605 40.7695 12.4445 40.2738 12.4445 39.5069C12.4445 38.4498 13.6387 37.8428 14.5337 38.4451Z" fill="#ED1556"/>
</svg>
