<svg width="48" height="48" viewBox="0 0 48 48" fill="none" xmlns="http://www.w3.org/2000/svg">
<path d="M5.33398 14.6673L14.5423 5.33398L22.6673 14.6673H5.33398Z" fill="#ED1556"/>
<path fill-rule="evenodd" clip-rule="evenodd" d="M8.54475 8.17829L2.71201 13.6906L2.68901 14.9328L2.66602 16.1752H3.50143H4.33685V30.7522V45.3292H6.00334H7.66984V43.6585V41.9877H10.2112H12.7527V43.6602V45.3327L14.3983 45.31L16.044 45.2874L16.0652 36.9547L16.0865 28.622H18.5442H21.0018V36.9756V45.3292H22.6267H24.2515V36.9756V28.622H27.9178H31.5841L31.5794 30.7313L31.5747 32.8406L31.0148 33.108C28.8409 34.1462 27.7599 36.8576 28.5834 39.2066C29.3431 41.3735 31.6425 42.8056 33.8646 42.4957C35.9599 42.2036 37.6061 40.7332 38.1238 38.6914C38.6848 36.4792 37.4922 34.0152 35.3745 33.0109L34.9171 32.7939V30.708V28.622H38.4584H41.9997V36.9756V45.3292H43.6662H45.3327L45.3313 34.2398C45.3296 21.9307 45.3552 22.5201 44.7731 21.3544C44.3397 20.4865 43.4334 19.5803 42.583 19.1648C41.3974 18.5856 41.6142 18.5977 32.4602 18.5977H24.2469L24.2701 17.4073L24.2932 16.2169L25.1056 16.1931L25.918 16.1692V14.9326V13.6961L20.3658 8.35723C17.312 5.42078 14.7155 2.93901 14.5956 2.84211L14.3775 2.66602L8.54475 8.17829ZM17.8217 10.5365L20.1694 12.792L17.2526 12.8139C15.6484 12.826 13.0243 12.826 11.4214 12.8139L8.50692 12.792L11.4419 10.0256L14.3768 7.25923L14.9254 7.77014C15.2272 8.05115 16.5305 9.296 17.8217 10.5365ZM20.9817 20.7488L21.0032 25.2806H14.3366H7.66984V20.7274V16.1742L14.315 16.1956L20.9602 16.2169L20.9817 20.7488ZM27.8345 23.6099V25.2806H26.043H24.2515V23.6656C24.2515 22.7773 24.2765 22.0254 24.3071 21.9949C24.3376 21.9642 25.1437 21.9391 26.0986 21.9391H27.8345V23.6099ZM34.8337 23.6099V25.2806H33.0006H31.1675V23.6099V21.9391H33.0006H34.8337V23.6099ZM41.1248 22.1554C41.3081 22.2514 41.5706 22.4894 41.708 22.6844C41.9514 23.0293 41.9588 23.0687 41.9853 24.1597L42.0126 25.2806H40.0896H38.1667V23.6041V21.9276L39.4791 21.9543C40.616 21.9773 40.8361 22.0042 41.1248 22.1554ZM12.7527 30.2927V31.9634H10.2112H7.66984V30.2927V28.622H10.2112H12.7527V30.2927ZM12.7527 36.9756V38.6463H10.2112H7.66984V36.9756V35.3049H10.2112H12.7527V36.9756ZM33.8978 36.0189C34.5851 36.3068 34.9541 36.9073 34.9005 37.6506C34.7679 39.4878 32.2153 39.7779 31.7038 38.0139C31.5473 37.4743 31.6022 37.1113 31.9155 36.6161C32.322 35.9735 33.1756 35.7164 33.8978 36.0189Z" fill="white"/>
</svg>
