<svg width="48" height="48" viewBox="0 0 48 48" fill="none" xmlns="http://www.w3.org/2000/svg">
<path fill-rule="evenodd" clip-rule="evenodd" d="M21.1683 4.52062C20.7468 5.44549 20.6403 5.9736 20.6429 7.1286C20.6453 8.25049 20.7561 8.80145 21.1461 9.6317C21.267 9.88914 21.3351 10.1103 21.2974 10.1233C20.7836 10.3009 18.6064 12.2382 18.3389 12.756C18.1975 13.0298 18.4989 16.5986 18.7501 17.6246C18.984 18.5802 19.4553 19.7883 19.903 20.5804C20.3701 21.4066 21.5816 22.6854 22.2313 23.0379C23.8129 23.8959 25.3617 23.6188 26.7955 22.2212C27.9507 21.0953 28.7696 19.545 29.253 17.5695C29.4146 16.9085 29.7419 13.8535 29.7419 13.0049C29.7419 12.8126 29.5852 12.6127 28.8165 11.8251C28.2016 11.1951 27.6882 10.7487 27.2867 10.4949C26.9543 10.2847 26.6729 10.1067 26.6613 10.0991C26.6498 10.0916 26.7232 9.91332 26.8245 9.70285C27.2273 8.86611 27.3608 8.22294 27.3587 7.1286C27.3565 5.97211 27.2471 5.42991 26.8327 4.52062C26.6502 4.1204 26.5427 3.96542 26.4758 4.00636C26.2842 4.12385 24.792 5.15478 24.7309 5.21185C24.6964 5.24417 24.7357 5.40769 24.8182 5.57535C25.3367 6.62828 25.1745 8.35952 24.4878 9.1021C24.0882 9.53425 23.9128 9.53425 23.5132 9.1021C22.8265 8.35952 22.6643 6.62828 23.1828 5.57535C23.2653 5.40769 23.3046 5.24417 23.2701 5.21185C23.209 5.15478 21.7168 4.12385 21.5252 4.00636C21.4583 3.96542 21.3508 4.1204 21.1683 4.52062Z" fill="#ED1556"/>
<path fill-rule="evenodd" clip-rule="evenodd" d="M11.4217 9.04601L9.9121 10.6116L12.0592 12.8373L14.2064 15.063L14.7294 14.1092C15.0171 13.5845 15.2889 13.109 15.3334 13.0525C15.3956 12.9734 15.1545 12.6801 14.288 11.7809L13.1617 10.6119L13.8768 9.86804L14.5918 9.12405L13.8014 8.30226C13.3666 7.85031 12.993 7.48047 12.9711 7.48047C12.9492 7.48047 12.252 8.18501 11.4217 9.04601ZM34.1986 8.30226L33.4082 9.12405L34.1232 9.86804L34.8383 10.6119L33.712 11.7809C32.8455 12.6801 32.6044 12.9734 32.6666 13.0525C32.7111 13.109 32.9829 13.5845 33.2706 14.1092L33.7936 15.063L35.9408 12.8373L38.0879 10.6116L36.5783 9.04601C35.748 8.18501 35.0508 7.48047 35.0289 7.48047C35.007 7.48047 34.6334 7.85031 34.1986 8.30226ZM7.00242 17.4511V19.5945L9.24988 20.6319C10.4859 21.2024 11.5523 21.6849 11.6196 21.7041C11.7174 21.7321 11.8051 21.5329 12.0589 20.7065C12.2333 20.1387 12.3594 19.6339 12.3391 19.5847C12.3189 19.5356 11.6208 19.1784 10.788 18.7909L9.27382 18.0865L9.27133 16.6971L9.26876 15.3078H8.13559H7.00242V17.4511ZM38.7298 16.6971L38.7284 18.0865L38.1443 18.3525C37.8231 18.4989 37.1147 18.8266 36.5701 19.0808L35.5797 19.5429L35.921 20.6541C36.1086 21.2653 36.2714 21.7776 36.2828 21.7926C36.2942 21.8077 37.3513 21.3243 38.6317 20.7187L40.9598 19.6173L40.9799 17.4626L41 15.3078H39.8656H38.7312L38.7298 16.6971ZM15.8234 17.0073C14.411 20.1401 13.3381 24.0582 12.8429 27.8922C12.6628 29.287 12.6642 32.1587 12.8457 33.3889C13.188 35.71 13.7855 37.4275 14.8199 39.0637C15.8164 40.64 17.3155 41.9785 19.0229 42.8166C21.7627 44.1613 24.7106 44.3637 27.5699 43.4032C29.915 42.6154 31.9885 40.9942 33.2527 38.9598C34.2174 37.4074 34.8152 35.655 35.1534 33.3889C35.339 32.1449 35.3379 29.2923 35.1513 27.8706C34.644 24.0064 33.6006 20.1794 32.2108 17.0855C31.8242 16.2251 31.7109 16.1424 31.7051 16.7167C31.7011 17.1082 31.4419 18.2754 31.1663 19.1432C29.8188 23.3859 26.8508 26.052 23.7006 25.8492C22.7833 25.7902 22.2443 25.6399 21.3882 25.2047C19.0917 24.0368 17.321 21.4224 16.5156 18.0102C16.394 17.4947 16.2939 16.9311 16.2933 16.7578C16.291 16.1509 16.1838 16.2079 15.8234 17.0073ZM8.89104 26.653L7.04019 27.4239L7.02009 29.5845L7 31.7452H8.13438H9.26876V30.3864V29.0277L9.88762 28.7622L10.5066 28.4968L10.6365 27.4232C10.708 26.8328 10.7892 26.2428 10.8168 26.1122C10.8446 25.9815 10.839 25.8764 10.8045 25.8784C10.7701 25.8805 9.909 26.2291 8.89104 26.653ZM37.1832 26.1122C37.2108 26.2428 37.292 26.8328 37.3635 27.4232L37.4934 28.4968L38.1124 28.7622L38.7312 29.0277V30.3864V31.7452H39.8656H41L40.9799 29.578L40.9598 27.4109L39.109 26.6429C38.091 26.2206 37.2299 25.8749 37.1955 25.8748C37.161 25.8748 37.1554 25.9815 37.1832 26.1122ZM9.15393 36.5997L7.64598 38.1636L9.15544 39.729C9.98568 40.59 10.6999 41.2945 10.7426 41.2945C10.8408 41.2945 12.2906 39.7917 12.2906 39.69C12.2906 39.6485 11.9773 39.2887 11.5946 38.8904L10.8986 38.1663L11.1474 37.9003L11.3963 37.6343L11.2103 37.0183C11.1081 36.6796 10.9634 36.1206 10.8888 35.7762C10.8142 35.4318 10.7326 35.1244 10.7075 35.0929C10.6824 35.0615 9.98326 35.7395 9.15393 36.5997ZM37.2757 35.0823C37.2537 35.1195 37.0938 35.7092 36.9203 36.3927L36.6047 37.6353L36.8531 37.9008L37.1014 38.1663L36.4054 38.8904C36.0227 39.2887 35.7094 39.6498 35.7094 39.6929C35.7094 39.7944 37.1618 41.2945 37.2602 41.2945C37.3014 41.2945 38.0145 40.59 38.8448 39.7288L40.3545 38.1631L38.8351 36.5888C37.9994 35.7229 37.2977 35.045 37.2757 35.0823Z" fill="white"/>
</svg>
