<svg width="48" height="48" viewBox="0 0 48 48" fill="none" xmlns="http://www.w3.org/2000/svg">
<path fill-rule="evenodd" clip-rule="evenodd" d="M7.58594 2.90234V3.80469H5.78125H3.97656V5.09375V6.38281H4.62109C4.97559 6.38281 5.26562 6.40825 5.26562 6.43936C5.26562 6.89766 5.84459 10.5821 5.96894 10.9158C6.16049 11.4292 6.81663 12.1951 7.27777 12.4435L7.58594 12.6094V23.8906V35.1719H6.83321H6.0804L5.65595 39.2969L5.23142 43.4219H3.61571H2V44.7109V46H24H46V44.7109V43.4219H44.1953H42.3906V41.4023V39.3828H43.207H44.0234V38.0938V36.8047H42.3477H40.6719V35.4297V34.0547H42.3477H44.0234V32.7656V31.4766H42.3477H40.6719V30.1875V28.8984H42.3477H44.0234V27.6094V26.3203H42.3477H40.6719V25.4609V24.6016H39.3828H38.0938V25.4609V26.3203H29.4141H20.7344V25.3727V24.4251L19.4668 24.4489L18.1992 24.4727L18.1748 25.3965L18.1504 26.3203H16.4346H14.7188V27.6094V28.8984H16.4375H18.1562V30.1875V31.4766H16.4375H14.7188V32.7656V34.0547H16.4375H18.1562V35.4297V36.8047H16.4375H14.7188V38.0938V39.3828H15.5781H16.4375V41.4023V43.4219H14.5039C13.4404 43.4219 12.5703 43.4075 12.5703 43.3901C12.5703 43.295 11.7923 35.8441 11.7504 35.5371L11.7004 35.1719H10.9323H10.1641V23.9167V12.6615L10.6343 12.3607C11.1366 12.0394 11.5422 11.5553 11.8153 10.9508C11.9272 10.703 12.0767 9.87901 12.2593 8.5016L12.5346 6.42578L13.197 6.40069L13.8594 6.37559V5.09014V3.80469H12.0117H10.1641V2.90234V2H8.875H7.58594V2.90234ZM38.0938 30.1875V31.4766H29.4141H20.7344V30.1875V28.8984H29.4141H38.0938V30.1875ZM38.0938 35.4301V36.8055L29.4355 36.7836L20.7773 36.7617L20.7537 35.4082L20.73 34.0547H29.4119H38.0938V35.4301ZM39.8125 41.4023V43.4219H29.4141H19.0156V41.4023V39.3828H29.4141H39.8125V41.4023Z" fill="white"/>
<path d="M7.58594 3.80469V2.90234V2H8.875H10.1641V2.90234V3.80469H12.0117H13.8594V5.09014V6.37559L13.197 6.40069L12.5346 6.42578L12.2593 8.5016C12.0767 9.87901 11.9272 10.703 11.8153 10.9508C11.5422 11.5553 11.1366 12.0394 10.6343 12.3607L10.1641 12.6615V23.9167V35.1719H10.9323H11.7004L11.7504 35.5371C11.7923 35.8441 12.5703 43.295 12.5703 43.3901L5.23142 43.4219L5.65595 39.2969L6.0804 35.1719H6.83321H7.58594V23.8906V12.6094L7.27777 12.4435C6.81663 12.1951 6.16049 11.4292 5.96894 10.9158C5.84459 10.5821 5.26562 6.89766 5.26562 6.43936C5.26562 6.40825 4.97559 6.38281 4.62109 6.38281H3.97656V5.09375V3.80469H5.78125H7.58594Z" fill="#ED1556"/>
</svg>
