<svg width="48" height="48" viewBox="0 0 48 48" fill="none" xmlns="http://www.w3.org/2000/svg">
<path fill-rule="evenodd" clip-rule="evenodd" d="M19.7368 4.19206C19.2392 4.29342 18.6462 4.41355 18.4191 4.459L18.0061 4.54167V5.26682V5.99197H19.4221H20.8381V4.99219C20.8381 4.23951 20.8138 3.99433 20.7398 4.0001C20.6858 4.00433 20.2344 4.09069 19.7368 4.19206ZM18.0227 8.04921L18.0455 8.72213H19.4221H20.7988L20.8215 8.04921L20.8443 7.37628H19.4221H18L18.0227 8.04921ZM18.0586 10.1193C18.0297 10.1474 18.0061 10.4589 18.0061 10.8114V11.4523H19.4221H20.8381V10.7601V10.068H19.4746C18.7246 10.068 18.0874 10.0911 18.0586 10.1193ZM18.0061 13.4903V14.144H19.5847C21.0515 14.144 21.1605 14.1345 21.1222 14.0094C21.0995 13.9354 21.0404 13.6413 20.9908 13.3557L20.9007 12.8366H19.4534H18.0061V13.4903ZM18.1938 15.8362C18.2217 16.0072 18.2823 16.3194 18.3285 16.5299L18.4125 16.9126H20.2547C21.2678 16.9126 22.0968 16.8863 22.0968 16.8542C22.0968 16.822 21.9739 16.5192 21.8236 16.1813L21.5505 15.5668L19.8466 15.546L18.1429 15.5252L18.1938 15.8362ZM18.8741 18.2777C18.8756 18.3094 19.0261 18.6123 19.2085 18.9506L19.5401 19.5659L21.7625 19.5864C22.9847 19.5976 23.9848 19.577 23.9848 19.5406C23.9848 19.5041 23.9104 19.4085 23.8195 19.3281C23.7286 19.2477 23.4916 18.9654 23.293 18.7009L22.9318 18.22H20.9016C19.785 18.22 18.8727 18.246 18.8741 18.2777ZM20.6021 21.0481C20.6021 21.0809 20.8772 21.375 21.2135 21.7018L21.8249 22.2961H24.6869H27.5488L26.8485 21.8682C26.4633 21.6328 26.0175 21.3387 25.8578 21.2145L25.5673 20.9887H23.0848C21.7193 20.9887 20.6021 21.0154 20.6021 21.0481ZM24.4961 23.9906C25.7001 24.5589 27.0062 24.8899 28.3115 24.9573L29.1375 25L30.5511 24.3745C31.3286 24.0305 31.9806 23.7337 31.9998 23.7147C32.0192 23.6958 30.1972 23.6833 27.9509 23.6869L23.8668 23.6934L24.4961 23.9906Z" fill="#ED1556"/>
<path fill-rule="evenodd" clip-rule="evenodd" d="M13.5938 5.65624C10.0529 6.37296 9.90661 6.42294 9.13843 7.17936C8.68861 7.6223 8.34931 8.22334 8.21049 8.82314C8.16461 9.02126 8.13061 10.4316 8.12943 12.1812L8.12756 15.1977H8.34735C8.68572 15.1977 9.73239 15.4911 10.2858 15.741C11.4108 16.249 12.6678 17.3422 13.2731 18.3392C14.0483 19.616 14.342 20.7723 14.2828 22.3143C14.2411 23.4005 14.0469 24.1985 13.6181 25.0452C12.451 27.3499 10.0959 28.8197 7.5218 28.8501L6.72064 28.8596V29.5408V30.2219H12.3101H17.8995L19.3048 30.9225L20.7101 31.6231H31.0006H41.2911L41.2465 30.4749C41.1778 28.7087 40.8259 27.6354 39.9288 26.456C39.0222 25.2643 37.0811 24.15 35.9117 24.15C35.7647 24.15 34.4955 24.6758 32.7039 25.479L29.7395 26.8081L28.8406 26.7671C26.4544 26.6583 24.0245 25.7776 22.0795 24.3167C21.8216 24.1229 21.2989 23.6647 20.918 23.2982C19.0607 21.5113 17.922 19.4659 17.3334 16.859C17.1653 16.1143 17.1598 15.9386 17.1345 10.5465L17.1085 5L16.9365 5.00732C16.8419 5.01129 15.3377 5.30336 13.5938 5.65624ZM15.7093 8.27254V8.97619L15.0254 8.95369L14.3415 8.93119L14.3189 8.25004L14.2963 7.5689H15.0028H15.7093V8.27254ZM15.7093 10.9941V11.6947H15.0058H14.3024V11.046C14.3024 10.6892 14.3258 10.3739 14.3545 10.3454C14.3831 10.3168 14.6997 10.2935 15.058 10.2935H15.7093V10.9941ZM15.7093 13.7576V14.4193H15.0058H14.3024V13.7576V13.0959H15.0058H15.7093V13.7576ZM8.12756 19.3713V22.2002L7.50976 23.1314C6.76339 24.2565 6.72064 24.4189 6.72064 26.1305C6.72064 27.5781 6.67905 27.4973 7.42363 27.4973C9.79492 27.4973 11.8754 25.9958 12.663 23.7159C13.5914 21.0283 12.2069 18.0372 9.52026 16.9263C9.20565 16.7962 8.76364 16.6566 8.53791 16.6161L8.12756 16.5424V19.3713ZM6.72064 32.9854V34.3477H10.5115H14.3024V33.686V33.0243H15.4571H16.6118L18.2705 33.686L19.9291 34.3477H30.5988H41.2684V33.686V33.0243H30.8719H20.4756L19.0703 32.3237L17.665 31.6231H12.1929H6.72064V32.9854ZM8.8125 38.493L8.79194 41.237L6.83788 41.2759C4.65723 41.3194 4.53834 41.3459 4.21928 41.8601C3.76868 42.5862 4.03709 43.508 4.79948 43.8529C5.1069 43.992 5.76987 43.9972 23.2942 43.9988C43.434 44.0007 41.9959 44.0381 42.7994 43.4912C43.2196 43.2053 43.5797 42.7648 43.8152 42.249C43.9367 41.9829 43.9617 41.6685 43.987 40.0872C44.0153 38.3144 44.0094 38.2222 43.8464 37.887C43.3707 36.9082 41.8613 36.9024 41.3967 37.8776C41.3013 38.0777 41.2683 38.3732 41.2679 39.0302C41.2675 40.0358 41.1914 40.3916 40.9043 40.7314C40.5383 41.1647 40.3277 41.2239 39.0212 41.261L37.8293 41.2949V38.5219V35.7489H36.4223H35.0154V38.5131V41.2772L30.5406 41.2571L26.0658 41.237L26.0453 38.493L26.0247 35.7489H24.6579H23.2911V38.5129V41.277L17.4484 41.257L11.6058 41.237L11.5852 38.493L11.5647 35.7489H10.1989H8.83305L8.8125 38.493Z" fill="white"/>
</svg>
