<svg width="48" height="48" viewBox="0 0 48 48" fill="none" xmlns="http://www.w3.org/2000/svg">
<path fill-rule="evenodd" clip-rule="evenodd" d="M29.841 0.0933886C30.8692 0.292932 32.1014 1.21359 32.5597 2.12473C32.944 2.88845 33.0312 3.39186 32.9911 4.6161C32.9587 5.60867 32.9181 5.83956 32.6919 6.31998C32.3464 7.05342 31.9077 7.57858 31.2947 7.99242C30.4106 8.5893 30.1025 8.65791 28.0382 8.71828L26.1686 8.77292L26.1435 17.3865L26.1183 26H23.7572H21.3961V17.3622V8.7244H19.9304C18.1512 8.7244 17.483 8.5595 16.6066 7.90429C15.4893 7.06895 15 6.00397 15 4.40792C15 3.33159 15.159 2.63329 15.5568 1.96245C15.8612 1.44914 16.5164 0.820614 17.0709 0.509944C17.9565 0.0138044 18.2607 -0.00832393 24.0529 0.00157557C27.0025 0.00662237 29.6071 0.0479674 29.841 0.0933886ZM18.3724 3.31587C18.12 3.56481 18.0996 3.64265 18.0996 4.35697C18.0996 5.07129 18.12 5.14912 18.3724 5.39807L18.6452 5.6672L23.8627 5.69398C28.443 5.71747 29.1201 5.70204 29.4066 5.56791C29.8275 5.37099 29.957 5.07526 29.957 4.31135C29.957 3.79056 29.9175 3.64615 29.7077 3.40021C29.5705 3.23939 29.3602 3.08847 29.2403 3.0647C29.1203 3.04082 26.6873 3.02714 23.8337 3.03403L18.6452 3.04674L18.3724 3.31587Z" fill="#ED1556"/>
<path fill-rule="evenodd" clip-rule="evenodd" d="M37.4346 26.2019C38.0523 26.4875 38.5669 27.0393 38.7932 27.6588C38.9783 28.1652 38.9866 28.4373 38.9866 33.994V39.7999H23.9971H9.00757L9.03473 33.8164C9.06159 27.898 9.06421 27.8285 9.2716 27.4356C9.55038 26.9077 10.031 26.4494 10.5654 26.2021C10.9974 26.0021 11.1359 26 24 26C36.8601 26 37.0028 26.0022 37.4346 26.2019ZM32.7978 30.733C32.6604 30.838 32.4581 31.0472 32.3481 31.1981C32.1564 31.4609 32.1481 31.5973 32.1481 34.4692C32.1481 37.4481 32.1494 37.4681 32.374 37.7904C32.9982 38.6864 34.2752 38.6502 34.888 37.7191C35.1023 37.3936 35.1066 37.3304 35.1066 34.5104C35.1066 31.7412 35.0987 31.6194 34.8957 31.2497C34.4911 30.5125 33.4285 30.2508 32.7978 30.733ZM26.3897 30.736C26.2491 30.8426 26.034 31.0803 25.9118 31.2642C25.6907 31.5968 25.6897 31.6143 25.7178 34.5501C25.7448 37.3717 25.755 37.5139 25.9502 37.7818C26.5865 38.6553 27.8155 38.6553 28.4518 37.7818C28.6465 37.5146 28.6574 37.3696 28.6847 34.6535C28.7005 33.087 28.6895 31.7082 28.6605 31.5895C28.583 31.2734 28.1279 30.7568 27.7879 30.5989C27.4043 30.4208 26.7163 30.4883 26.3897 30.736ZM20.12 30.6633C19.8619 30.7912 19.6423 31.002 19.5031 31.2554C19.2914 31.6412 19.2877 31.7065 19.3155 34.5752C19.3427 37.3712 19.3531 37.5141 19.5482 37.7818C20.1845 38.6553 21.4135 38.6553 22.0498 37.7818C22.244 37.5154 22.2554 37.3671 22.2836 34.7528C22.2999 33.2409 22.2873 31.8601 22.2555 31.6841C22.1835 31.2849 21.7752 30.778 21.3858 30.6044C20.965 30.4167 20.5814 30.4346 20.12 30.6633ZM13.7243 30.6648C12.9367 31.0643 12.9455 31.0234 12.9137 34.3916C12.8857 37.3609 12.8866 37.3767 13.1081 37.7132C13.7248 38.6502 14.9998 38.6892 15.626 37.7904C15.8475 37.4726 15.8525 37.4119 15.8815 34.735C15.8978 33.2329 15.8852 31.8601 15.8535 31.6841C15.7814 31.2849 15.3731 30.778 14.9838 30.6044C14.562 30.4163 14.1777 30.4348 13.7243 30.6648ZM38.9691 44.4606C38.9353 46.1851 38.8958 46.317 38.2703 46.7952C38.0026 46.9998 37.991 47 24 47C10.009 47 9.99736 46.9998 9.72974 46.7952C9.10418 46.317 9.0647 46.1851 9.03094 44.4606L9 42.8786H24H39L38.9691 44.4606Z" fill="white"/>
</svg>
