<svg width="48" height="48" viewBox="0 0 48 48" fill="none" xmlns="http://www.w3.org/2000/svg">
<path fill-rule="evenodd" clip-rule="evenodd" d="M22.2291 22.3647C22.2634 24.8032 22.3183 25.0141 23.052 25.5294C23.3851 25.7633 23.5417 25.8093 24.0051 25.8093C24.4684 25.8093 24.625 25.7633 24.9581 25.5294C25.6918 25.0141 25.7467 24.8032 25.781 22.3647L25.8109 20.2305H24.0051H22.1992L22.2291 22.3647Z" fill="#ED1556"/>
<path fill-rule="evenodd" clip-rule="evenodd" d="M22.8729 0.131095C21.4244 0.5223 20.2969 1.61082 19.8495 3.04946C19.7113 3.49433 19.6642 3.91715 19.6642 4.71466V5.78367H18.8298H17.9956L15.003 8.78572L12.0104 11.7878H11.1285C9.65874 11.7878 8.62865 12.2167 7.74087 13.1983C6.88188 14.1479 6.48438 15.5696 6.74504 16.7599L6.87848 17.3697H24.0064H41.1343L41.2641 16.713C41.5094 15.473 41.0849 14.0614 40.1763 13.0957C39.3199 12.1857 38.3176 11.7878 36.8815 11.7878H35.9958L33.0064 8.78572L30.0169 5.78367H29.191H28.3651L28.3262 4.54064C28.2947 3.53598 28.2465 3.19431 28.0745 2.75911C27.6383 1.65464 26.6284 0.65317 25.5444 0.249958C24.7884 -0.0312032 23.6598 -0.0813937 22.8729 0.131095ZM11.3959 20.3079C11.4552 20.4033 16.1723 33.159 16.1723 33.224C16.1723 33.25 15.599 33.2712 14.8983 33.2712H13.6242V34.6784V36.0856H18.107H22.5898V38.8012V41.517L21.9999 41.2441C21.1364 40.8446 20.3943 40.6825 19.4282 40.6825C18.0678 40.6825 16.8331 41.0893 15.806 41.8758C15.273 42.284 14.3786 43.2703 14.38 43.4483C14.3807 43.5298 16.553 44.9041 16.6811 44.9041C16.7059 44.9041 16.9533 44.6784 17.2308 44.4026C17.9288 43.7087 18.5888 43.4643 19.617 43.5187C20.5379 43.5675 21.1341 43.8391 21.729 44.4806C22.3774 45.1799 22.5295 45.6154 22.5726 46.8977L22.6097 48H24.0054H25.4011L25.4382 46.8977C25.4813 45.6154 25.6333 45.1799 26.2818 44.4806C26.8766 43.8391 27.4729 43.5675 28.3938 43.5187C29.422 43.4643 30.0819 43.7087 30.7799 44.4026C31.0575 44.6784 31.3078 44.9041 31.3362 44.9041C31.4671 44.9041 33.6299 43.5329 33.6307 43.4494C33.6321 43.293 32.8385 42.3818 32.3463 41.9744C31.8014 41.5235 30.7872 41.0268 30.0019 40.8262C29.2794 40.6416 27.8837 40.642 27.1631 40.8269C26.8538 40.9062 26.3353 41.094 26.0108 41.2441L25.421 41.517V38.8012V36.0856H29.9038H34.3865V34.6784V33.2712H33.1125C32.4117 33.2712 31.8384 33.25 31.8384 33.224C31.8384 33.159 36.5555 20.4033 36.6149 20.3079C36.6411 20.2656 34.8595 20.231 32.6557 20.231H28.6488L28.6078 22.5529C28.572 24.5752 28.5417 24.9504 28.3723 25.461C27.8311 27.0917 26.3963 28.3093 24.6843 28.5903C22.5377 28.9428 20.342 27.581 19.6385 25.461C19.4691 24.9504 19.4387 24.5752 19.403 22.5529L19.362 20.231H15.3551C13.1512 20.231 11.3696 20.2656 11.3959 20.3079Z" fill="white"/>
</svg>
