<svg width="48" height="48" viewBox="0 0 48 48" fill="none" xmlns="http://www.w3.org/2000/svg">
<path fill-rule="evenodd" clip-rule="evenodd" d="M5 16.2247V18.4495H24.5H44V16.2247V14H24.5H5V16.2247ZM7.64971 21.0265C7.67234 21.2202 8.15732 25.4667 8.72747 30.4631L9.76409 39.5474L10.6765 39.5845C11.3543 39.612 11.5189 39.6361 11.3167 39.6781C10.3342 39.8821 9.56094 40.9806 9.67071 42.0163C9.79532 43.1917 10.7124 43.9939 11.9316 43.9939C12.8572 43.9939 13.5662 43.5811 13.9491 42.8194C14.5728 41.5781 13.9889 40.1662 12.6681 39.7218C12.2784 39.5907 12.3069 39.5893 15.5308 39.587L18.7871 39.5845V30.1294V20.6742H13.1978H7.60858L7.64971 21.0265ZM21.0723 30.1294V39.5845H24.5H27.9277V30.1294V20.6742H24.5H21.0723V30.1294ZM30.2129 30.1294V39.5845L33.4692 39.587C36.6931 39.5893 36.7216 39.5907 36.3319 39.7218C34.3825 40.3776 34.267 42.9991 36.1504 43.8393C36.6311 44.0536 37.5057 44.0536 37.9863 43.8393C39.3144 43.2468 39.7512 41.6349 38.8953 40.4847C38.6274 40.1246 38.0804 39.7606 37.6833 39.6781C37.4811 39.6361 37.6457 39.612 38.3235 39.5845L39.2359 39.5474L40.2725 30.4631C40.8427 25.4667 41.3277 21.2202 41.3503 21.0265L41.3914 20.6742H35.8022H30.2129V30.1294Z" fill="white"/>
<path fill-rule="evenodd" clip-rule="evenodd" d="M21.2098 8V11H24.5H27.7902V8V5H24.5H21.2098V8ZM9.8216 9.24675L9 11H14.0082H19.0164V9.24675V7.49351H14.8298H10.6431L9.8216 9.24675ZM29.9836 9.24675V11H34.9918H40L39.1784 9.24675L38.3569 7.49351H34.1702H29.9836V9.24675Z" fill="#ED1556"/>
</svg>
