<svg width="48" height="48" viewBox="0 0 48 48" fill="none" xmlns="http://www.w3.org/2000/svg">
<path fill-rule="evenodd" clip-rule="evenodd" d="M10.8476 2.07729C9.88205 2.2687 8.86732 3.05319 8.37644 3.98798C8.10158 4.51134 6.63185 8.50765 6.36089 9.46809C5.86264 11.2348 6.67436 13.0769 8.30534 13.8808C8.63257 14.042 12.9647 15.6737 17.9323 17.5066C24.8558 20.0613 27.0804 20.8492 27.4615 20.8819C28.1382 20.94 37.5277 20.1064 38.0827 19.939C38.6863 19.7569 39.4692 19.1998 39.8601 18.6744C40.2045 18.2114 40.6712 17.1152 40.8965 16.2401C40.9836 15.9017 41.0154 15.4983 40.9932 15.0156C40.965 14.4046 40.9154 14.2009 40.6654 13.6699C40.3277 12.9524 39.7522 12.3148 39.1395 11.9794C38.7061 11.7421 13.8324 2.51646 12.7233 2.18165C12.0526 1.97914 11.4982 1.94836 10.8476 2.07729ZM15.9814 8.71732C18.5374 9.66287 18.8154 9.81963 18.9702 10.4027C19.1769 11.182 18.5606 11.993 17.7619 11.993C17.4911 11.993 12.6009 10.184 12.3391 9.98691C12.2252 9.90121 12.0603 9.65664 11.9728 9.44345C11.8354 9.10839 11.8274 9.00974 11.9137 8.71732C12.1106 8.05023 12.6902 7.66673 13.3198 7.78699C13.4868 7.81895 14.6845 8.23761 15.9814 8.71732ZM6.62158 15.9743C6.62158 15.99 6.51104 16.3266 6.37597 16.7223C6.03715 17.7148 5.93515 18.4273 6.03856 19.0789C6.21713 20.2043 7.00904 21.3109 7.99618 21.8141C8.26557 21.9515 13.2775 23.8352 19.1338 26.0004L29.7816 29.937L30.5362 29.9734C31.3701 30.0134 31.9487 29.8884 32.5598 29.5362C33.0206 29.2704 33.6772 28.6188 33.9366 28.1696C34.2007 27.7121 35.9628 22.8082 35.8749 22.7752C35.8386 22.7617 35.7993 22.7548 33.9366 22.9284C29.7484 23.319 28.4464 23.3381 27.5256 23.0225C25.8439 22.4459 7.54185 16.3373 7.18488 16.1553C6.80545 15.962 6.62158 15.9028 6.62158 15.9743ZM19.6157 30.9298C19.591 32.8656 19.5794 32.9954 19.4026 33.3313C19.1094 33.8882 18.7477 34.2533 18.2374 34.5077L17.7666 34.7423L14.3485 34.7669L10.9304 34.7913V33.9225C10.9304 32.9415 10.7829 32.2411 10.4578 31.6779C9.78013 30.504 8.5942 29.7898 7.31157 29.783C6.75822 29.7801 6.50176 29.9097 6.17097 30.3594C6.00168 30.5895 6.00011 30.6549 6.00011 37.3915C6.00011 44.1281 6.00168 44.1935 6.17097 44.4236C6.50176 44.8733 6.75822 45.0029 7.31157 45C8.5942 44.9932 9.78013 44.279 10.4578 43.1051C10.7915 42.527 10.9304 41.8449 10.9304 40.7846V39.8399L14.6385 39.8106C18.1521 39.7828 18.3813 39.7716 19.0095 39.5965C21.4843 38.9064 23.4436 37.0258 24.2644 34.5527C24.5127 33.8045 24.6014 33.0919 24.6021 31.8381L24.6027 30.7001L22.2204 29.826C20.9102 29.3453 19.794 28.9366 19.7399 28.9177C19.6665 28.8922 19.6352 29.399 19.6157 30.9298Z" fill="white"/>
<path fill-rule="evenodd" clip-rule="evenodd" d="M42.6875 19.3585C42.0971 20.5117 41.1617 21.4274 39.9475 22.0405L39.1311 22.4528L38.2131 25.0911C37.7081 26.5421 37.2286 27.9078 37.1475 28.1259L37 28.5224L38.3145 29.6085C39.0374 30.2059 39.7278 30.7615 39.8487 30.8432C40.3263 31.1659 41.1504 30.9675 41.4481 30.4581C41.6179 30.1676 44.9086 20.792 44.9872 20.3749C45.023 20.1844 44.9851 19.9917 44.858 19.7185C44.6115 19.1888 44.2448 19 43.462 19H42.871L42.6875 19.3585Z" fill="#ED1556"/>
</svg>
