<svg width="48" height="48" viewBox="0 0 48 48" fill="none" xmlns="http://www.w3.org/2000/svg">
<path fill-rule="evenodd" clip-rule="evenodd" d="M3 24.5V45H23.5H44V24.5V4H23.5H3V24.5ZM22.2988 7.64355V8.88477H19.8965H17.4941V10.9478V13.0108L18.6953 14.21L19.8965 15.4091V16.5611V17.7131L25.0015 24.1053L30.1064 30.4975L31.8692 30.5017L33.6319 30.5059L34.8311 29.3047C36.0019 28.1319 36.0383 28.1035 36.3715 28.1035H36.7129V30.5059V32.9082H39.1553H41.5977V37.7529V42.5977H33.1494H24.7012V41.3564V40.1152H27.1035H29.5059V38.0522V35.9892L28.3047 34.79L27.1035 33.5909V32.4389V31.2869L21.9985 24.8947L16.8936 18.5025L15.1308 18.4983L13.3681 18.4941L12.1689 19.6953C10.9981 20.8681 10.9617 20.8965 10.6285 20.8965H10.2871V18.4941V16.0918H7.84473H5.40234V11.2471V6.40234H13.8506H22.2988V7.64355ZM41.5977 18.4541V30.5059H40.3564H39.1152V28.1035V25.7012H37.0522H34.9892L33.79 26.9023L32.5909 28.1035H31.9371H31.2834L26.7911 22.488L22.2988 16.8725V15.6203V14.3681L21.0977 13.1689C19.9249 11.9981 19.8965 11.9617 19.8965 11.6285V11.2871H22.2988H24.7012V8.84473V6.40234H33.1494H41.5977V18.4541Z" fill="white"/>
<path d="M16.75 33.1862V30.3571H14.875V31.6618L13 30L7 35.3571H8.5V40H11.875V36.4286H14.125V40H17.5V35.3571H19L16.75 33.1862Z" fill="#ED1556"/>
</svg>
