<svg width="288" height="208" viewBox="0 0 288 208" fill="none" xmlns="http://www.w3.org/2000/svg">
<g clip-path="url(#clip0_81_4675)">
<path d="M0 16C0 7.16345 7.16344 0 16 0H352V344H16C7.16345 344 0 336.837 0 328V16Z" fill="#5D5FEF"/>
<circle cx="16.5" cy="9.5" r="53" stroke="#5BC2E7"/>
<path d="M33.7 33H36V47H33.7V40.94H27.7V47H25.4V33H27.7V38.74H33.7V33ZM46.5784 37H48.7384V47H46.5784V45.56C45.7651 46.6933 44.5984 47.26 43.0784 47.26C41.7051 47.26 40.5318 46.7533 39.5584 45.74C38.5851 44.7133 38.0984 43.4667 38.0984 42C38.0984 40.52 38.5851 39.2733 39.5584 38.26C40.5318 37.2467 41.7051 36.74 43.0784 36.74C44.5984 36.74 45.7651 37.3 46.5784 38.42V37ZM41.1584 44.3C41.7584 44.9 42.5118 45.2 43.4184 45.2C44.3251 45.2 45.0784 44.9 45.6784 44.3C46.2784 43.6867 46.5784 42.92 46.5784 42C46.5784 41.08 46.2784 40.32 45.6784 39.72C45.0784 39.1067 44.3251 38.8 43.4184 38.8C42.5118 38.8 41.7584 39.1067 41.1584 39.72C40.5584 40.32 40.2584 41.08 40.2584 42C40.2584 42.92 40.5584 43.6867 41.1584 44.3ZM64.1361 47H61.6761L58.2761 42.38V47H56.1561V42.42L52.7561 47H50.2961L54.1961 41.9L50.4961 37H52.9561L56.1561 41.38V37H58.2761V41.4L61.4761 37H63.9361L60.2361 41.9L64.1361 47ZM75.8897 37V47H73.7897V40.42L70.9097 45H70.6497L67.7897 40.44V47H65.6897V37H67.8897L70.7897 41.62L73.6897 37H75.8897ZM85.625 37H87.285V47H85.165V40.64L80.045 47H78.385V37H80.505V43.34L85.625 37ZM97.4313 37V39.08H94.1713V47H92.0113V39.08H88.7313V37H97.4313ZM100.202 42.92C100.362 43.68 100.729 44.2667 101.302 44.68C101.876 45.08 102.576 45.28 103.402 45.28C104.549 45.28 105.409 44.8667 105.982 44.04L107.762 45.08C106.776 46.5333 105.316 47.26 103.382 47.26C101.756 47.26 100.442 46.7667 99.4422 45.78C98.4422 44.78 97.9422 43.52 97.9422 42C97.9422 40.5067 98.4355 39.26 99.4222 38.26C100.409 37.2467 101.676 36.74 103.222 36.74C104.689 36.74 105.889 37.2533 106.822 38.28C107.769 39.3067 108.242 40.5533 108.242 42.02C108.242 42.2467 108.216 42.5467 108.162 42.92H100.202ZM100.182 41.16H106.062C105.916 40.3467 105.576 39.7333 105.042 39.32C104.522 38.9067 103.909 38.7 103.202 38.7C102.402 38.7 101.736 38.92 101.202 39.36C100.669 39.8 100.329 40.4 100.182 41.16ZM124.043 37V47H121.883V39.04H117.303V47H115.143V37H124.043ZM131.269 47.26C129.802 47.26 128.556 46.7533 127.529 45.74C126.502 44.7267 125.989 43.48 125.989 42C125.989 40.52 126.502 39.2733 127.529 38.26C128.556 37.2467 129.802 36.74 131.269 36.74C132.749 36.74 133.996 37.2467 135.009 38.26C136.036 39.2733 136.549 40.52 136.549 42C136.549 43.48 136.036 44.7267 135.009 45.74C133.996 46.7533 132.749 47.26 131.269 47.26ZM129.049 44.26C129.649 44.86 130.389 45.16 131.269 45.16C132.149 45.16 132.889 44.86 133.489 44.26C134.089 43.66 134.389 42.9067 134.389 42C134.389 41.0933 134.089 40.34 133.489 39.74C132.889 39.14 132.149 38.84 131.269 38.84C130.389 38.84 129.649 39.14 129.049 39.74C128.449 40.34 128.149 41.0933 128.149 42C128.149 42.9067 128.449 43.66 129.049 44.26ZM146.912 44.96H148.252V49.68H146.132V47H139.272V49.68H137.152V44.96H138.372C138.985 44.0933 139.292 42.8867 139.292 41.34V37H146.912V44.96ZM140.752 44.96H144.792V38.98H141.412V41.34C141.412 42.7667 141.192 43.9733 140.752 44.96ZM157.255 37V39.08H153.995V47H151.835V39.08H148.555V37H157.255ZM165.637 41.86C166.624 42.3133 167.117 43.08 167.117 44.16C167.117 45 166.83 45.6867 166.257 46.22C165.697 46.74 164.89 47 163.837 47H158.717V37H163.437C164.464 37 165.257 37.26 165.817 37.78C166.39 38.2867 166.677 38.9467 166.677 39.76C166.677 40.7067 166.33 41.4067 165.637 41.86ZM163.277 38.84H160.777V41.06H163.277C164.157 41.06 164.597 40.6867 164.597 39.94C164.597 39.2067 164.157 38.84 163.277 38.84ZM163.637 45.12C164.544 45.12 164.997 44.7267 164.997 43.94C164.997 43.5933 164.877 43.3267 164.637 43.14C164.397 42.94 164.064 42.84 163.637 42.84H160.777V45.12H163.637ZM170.573 42.92C170.733 43.68 171.1 44.2667 171.673 44.68C172.247 45.08 172.947 45.28 173.773 45.28C174.92 45.28 175.78 44.8667 176.353 44.04L178.133 45.08C177.147 46.5333 175.687 47.26 173.753 47.26C172.127 47.26 170.813 46.7667 169.813 45.78C168.813 44.78 168.313 43.52 168.313 42C168.313 40.5067 168.807 39.26 169.793 38.26C170.78 37.2467 172.047 36.74 173.593 36.74C175.06 36.74 176.26 37.2533 177.193 38.28C178.14 39.3067 178.613 40.5533 178.613 42.02C178.613 42.2467 178.587 42.5467 178.533 42.92H170.573ZM170.553 41.16H176.433C176.287 40.3467 175.947 39.7333 175.413 39.32C174.893 38.9067 174.28 38.7 173.573 38.7C172.773 38.7 172.107 38.92 171.573 39.36C171.04 39.8 170.7 40.4 170.553 41.16ZM186.174 36.74C187.547 36.74 188.721 37.2533 189.694 38.28C190.667 39.2933 191.154 40.5333 191.154 42C191.154 43.48 190.667 44.7267 189.694 45.74C188.721 46.7533 187.547 47.26 186.174 47.26C184.654 47.26 183.487 46.7 182.674 45.58V51H180.514V37H182.674V38.44C183.487 37.3067 184.654 36.74 186.174 36.74ZM183.574 44.3C184.174 44.9 184.927 45.2 185.834 45.2C186.741 45.2 187.494 44.9 188.094 44.3C188.694 43.6867 188.994 42.92 188.994 42C188.994 41.08 188.694 40.32 188.094 39.72C187.494 39.1067 186.741 38.8 185.834 38.8C184.927 38.8 184.174 39.1067 183.574 39.72C182.974 40.32 182.674 41.08 182.674 42C182.674 42.92 182.974 43.6867 183.574 44.3ZM201.521 44.96H202.861V49.68H200.741V47H193.881V49.68H191.761V44.96H192.981C193.594 44.0933 193.901 42.8867 193.901 41.34V37H201.521V44.96ZM195.361 44.96H199.401V38.98H196.021V41.34C196.021 42.7667 195.801 43.9733 195.361 44.96ZM211.855 37H213.515V47H211.395V40.64L206.275 47H204.615V37H206.735V43.34L211.855 37ZM223.662 37V39.08H220.402V47H218.242V39.08H214.962V37H223.662ZM229.483 40.4C230.55 40.4 231.423 40.7067 232.103 41.32C232.783 41.92 233.123 42.7133 233.123 43.7C233.123 44.6733 232.783 45.4667 232.103 46.08C231.423 46.6933 230.55 47 229.483 47H225.123V37H227.283V40.4H229.483ZM229.503 45.06C229.93 45.06 230.283 44.9333 230.563 44.68C230.857 44.4267 231.003 44.1 231.003 43.7C231.003 43.2867 230.857 42.96 230.563 42.72C230.283 42.4667 229.93 42.34 229.503 42.34H227.283V45.06H229.503ZM31.34 69H33.5V79H31.34V75.62C30.54 75.9133 29.7 76.06 28.82 76.06C27.58 76.06 26.6 75.7533 25.88 75.14C25.16 74.5267 24.8 73.6267 24.8 72.44V69H26.96V72.24C26.96 73.44 27.6733 74.04 29.1 74.04C29.94 74.04 30.6867 73.8867 31.34 73.58V69ZM43.6617 69V71.08H40.4017V79H38.2417V71.08H34.9617V69H43.6617ZM49.4527 79.26C47.986 79.26 46.7393 78.7533 45.7127 77.74C44.686 76.7267 44.1727 75.48 44.1727 74C44.1727 72.52 44.686 71.2733 45.7127 70.26C46.7393 69.2467 47.986 68.74 49.4527 68.74C50.9327 68.74 52.1793 69.2467 53.1927 70.26C54.2193 71.2733 54.7327 72.52 54.7327 74C54.7327 75.48 54.2193 76.7267 53.1927 77.74C52.1793 78.7533 50.9327 79.26 49.4527 79.26ZM47.2327 76.26C47.8327 76.86 48.5727 77.16 49.4527 77.16C50.3327 77.16 51.0727 76.86 51.6727 76.26C52.2727 75.66 52.5727 74.9067 52.5727 74C52.5727 73.0933 52.2727 72.34 51.6727 71.74C51.0727 71.14 50.3327 70.84 49.4527 70.84C48.5727 70.84 47.8327 71.14 47.2327 71.74C46.6327 72.34 46.3327 73.0933 46.3327 74C46.3327 74.9067 46.6327 75.66 47.2327 76.26ZM61.3258 79.26C59.7924 79.26 58.5391 78.7667 57.5658 77.78C56.6058 76.78 56.1258 75.5067 56.1258 73.96C56.1258 72.2667 56.3791 70.96 56.8858 70.04C57.3924 69.1067 58.4191 68.26 59.9658 67.5C60.2191 67.38 60.5924 67.2067 61.0858 66.98C61.5924 66.7533 61.9391 66.5933 62.1258 66.5C62.3124 66.3933 62.5458 66.2467 62.8258 66.06C63.1058 65.86 63.3124 65.6533 63.4458 65.44C63.5791 65.2133 63.6858 64.9467 63.7658 64.64L65.5258 65.66C65.4724 65.9533 65.3858 66.2267 65.2658 66.48C65.1458 66.72 64.9724 66.9467 64.7458 67.16C64.5191 67.3733 64.3191 67.5467 64.1458 67.68C63.9858 67.8133 63.7124 67.9733 63.3258 68.16C62.9391 68.3467 62.6524 68.48 62.4658 68.56C62.2924 68.64 61.9591 68.78 61.4658 68.98C60.5858 69.3267 59.9391 69.6867 59.5258 70.06C59.1258 70.42 58.8458 70.8733 58.6858 71.42C59.4858 70.5133 60.5724 70.06 61.9458 70.06C63.1191 70.06 64.1391 70.48 65.0058 71.32C65.8858 72.16 66.3258 73.2467 66.3258 74.58C66.3258 75.94 65.8591 77.06 64.9258 77.94C64.0058 78.82 62.8058 79.26 61.3258 79.26ZM61.3058 77.24C62.1458 77.24 62.8324 76.9933 63.3658 76.5C63.8991 75.9933 64.1658 75.3533 64.1658 74.58C64.1658 73.7933 63.8991 73.1467 63.3658 72.64C62.8458 72.1333 62.1658 71.88 61.3258 71.88C60.5791 71.88 59.9058 72.12 59.3058 72.6C58.7058 73.0667 58.4058 73.6933 58.4058 74.48C58.4058 75.28 58.6858 75.94 59.2458 76.46C59.8058 76.98 60.4924 77.24 61.3058 77.24ZM72.3934 72.4C73.4601 72.4 74.3334 72.7067 75.0134 73.32C75.6934 73.92 76.0334 74.7133 76.0334 75.7C76.0334 76.6733 75.6934 77.4667 75.0134 78.08C74.3334 78.6933 73.4601 79 72.3934 79H68.0334V69H70.1934V72.4H72.3934ZM77.2334 69H79.3934V79H77.2334V69ZM72.4134 77.06C72.8401 77.06 73.1934 76.9333 73.4734 76.68C73.7668 76.4267 73.9134 76.1 73.9134 75.7C73.9134 75.2867 73.7668 74.96 73.4734 74.72C73.1934 74.4667 72.8401 74.34 72.4134 74.34H70.1934V77.06H72.4134ZM93.6406 69H95.8006V79H93.6406V75.02H89.0606V79H86.9006V69H89.0606V72.98H93.6406V69ZM106.227 69H108.387V79H106.227V77.56C105.414 78.6933 104.247 79.26 102.727 79.26C101.354 79.26 100.18 78.7533 99.2069 77.74C98.2335 76.7133 97.7469 75.4667 97.7469 74C97.7469 72.52 98.2335 71.2733 99.2069 70.26C100.18 69.2467 101.354 68.74 102.727 68.74C104.247 68.74 105.414 69.3 106.227 70.42V69ZM100.807 76.3C101.407 76.9 102.16 77.2 103.067 77.2C103.974 77.2 104.727 76.9 105.327 76.3C105.927 75.6867 106.227 74.92 106.227 74C106.227 73.08 105.927 72.32 105.327 71.72C104.727 71.1067 103.974 70.8 103.067 70.8C102.16 70.8 101.407 71.1067 100.807 71.72C100.207 72.32 99.9069 73.08 99.9069 74C99.9069 74.92 100.207 75.6867 100.807 76.3ZM116.985 69H119.145V79H116.985V75.62C116.185 75.9133 115.345 76.06 114.465 76.06C113.225 76.06 112.245 75.7533 111.525 75.14C110.805 74.5267 110.445 73.6267 110.445 72.44V69H112.605V72.24C112.605 73.44 113.318 74.04 114.745 74.04C115.585 74.04 116.331 73.8867 116.985 73.58V69ZM129.586 69H131.746V79H129.586V77.56C128.773 78.6933 127.606 79.26 126.086 79.26C124.713 79.26 123.54 78.7533 122.566 77.74C121.593 76.7133 121.106 75.4667 121.106 74C121.106 72.52 121.593 71.2733 122.566 70.26C123.54 69.2467 124.713 68.74 126.086 68.74C127.606 68.74 128.773 69.3 129.586 70.42V69ZM124.166 76.3C124.766 76.9 125.52 77.2 126.426 77.2C127.333 77.2 128.086 76.9 128.686 76.3C129.286 75.6867 129.586 74.92 129.586 74C129.586 73.08 129.286 72.32 128.686 71.72C128.086 71.1067 127.333 70.8 126.426 70.8C125.52 70.8 124.766 71.1067 124.166 71.72C123.566 72.32 123.266 73.08 123.266 74C123.266 74.92 123.566 75.6867 124.166 76.3ZM141.904 69V71.08H138.644V79H136.484V71.08H133.204V69H141.904ZM147.725 72.4C148.792 72.4 149.665 72.7067 150.345 73.32C151.025 73.92 151.365 74.7133 151.365 75.7C151.365 76.6733 151.025 77.4667 150.345 78.08C149.665 78.6933 148.792 79 147.725 79H143.365V69H145.525V72.4H147.725ZM147.745 77.06C148.172 77.06 148.525 76.9333 148.805 76.68C149.099 76.4267 149.245 76.1 149.245 75.7C149.245 75.2867 149.099 74.96 148.805 74.72C148.525 74.4667 148.172 74.34 147.745 74.34H145.525V77.06H147.745ZM165.051 73.86C166.038 74.3133 166.531 75.08 166.531 76.16C166.531 77 166.244 77.6867 165.671 78.22C165.111 78.74 164.304 79 163.251 79H158.131V69H162.851C163.878 69 164.671 69.26 165.231 69.78C165.804 70.2867 166.091 70.9467 166.091 71.76C166.091 72.7067 165.744 73.4067 165.051 73.86ZM162.691 70.84H160.191V73.06H162.691C163.571 73.06 164.011 72.6867 164.011 71.94C164.011 71.2067 163.571 70.84 162.691 70.84ZM163.051 77.12C163.958 77.12 164.411 76.7267 164.411 75.94C164.411 75.5933 164.291 75.3267 164.051 75.14C163.811 74.94 163.478 74.84 163.051 74.84H160.191V77.12H163.051ZM172.647 72.4C173.714 72.4 174.587 72.7067 175.267 73.32C175.947 73.92 176.287 74.7133 176.287 75.7C176.287 76.6733 175.947 77.4667 175.267 78.08C174.587 78.6933 173.714 79 172.647 79H168.287V69H170.447V72.4H172.647ZM177.487 69H179.647V79H177.487V69ZM172.667 77.06C173.094 77.06 173.447 76.9333 173.727 76.68C174.021 76.4267 174.167 76.1 174.167 75.7C174.167 75.2867 174.021 74.96 173.727 74.72C173.447 74.4667 173.094 74.34 172.667 74.34H170.447V77.06H172.667ZM191.055 69V79H188.895V71.04H184.315V79H182.155V69H191.055ZM202.001 69V79H199.841V71.08H196.501V74.8C196.501 76.3867 196.154 77.5133 195.461 78.18C194.767 78.8467 193.781 79.12 192.501 79V76.98C193.114 77.0867 193.574 76.96 193.881 76.6C194.187 76.24 194.341 75.6067 194.341 74.7V69H202.001ZM212.438 69H214.598V79H212.438V77.56C211.624 78.6933 210.458 79.26 208.938 79.26C207.564 79.26 206.391 78.7533 205.418 77.74C204.444 76.7133 203.958 75.4667 203.958 74C203.958 72.52 204.444 71.2733 205.418 70.26C206.391 69.2467 207.564 68.74 208.938 68.74C210.458 68.74 211.624 69.3 212.438 70.42V69ZM207.018 76.3C207.618 76.9 208.371 77.2 209.278 77.2C210.184 77.2 210.938 76.9 211.538 76.3C212.138 75.6867 212.438 74.92 212.438 74C212.438 73.08 212.138 72.32 211.538 71.72C210.938 71.1067 210.184 70.8 209.278 70.8C208.371 70.8 207.618 71.1067 207.018 71.72C206.418 72.32 206.118 73.08 206.118 74C206.118 74.92 206.418 75.6867 207.018 76.3ZM224.755 69V71.08H221.495V79H219.335V71.08H216.055V69H224.755ZM233.055 69H235.355L231.515 79.32C231.048 80.5867 230.395 81.5333 229.555 82.16C228.715 82.7867 227.741 83.0667 226.635 83V80.98C227.315 81.02 227.861 80.88 228.275 80.56C228.701 80.2533 229.041 79.7533 229.295 79.06L229.355 78.92L225.155 69H227.455L230.495 76.28L233.055 69ZM32.9 101V103.08H29.64V111H27.48V103.08H24.2V101H32.9ZM40.0216 100.74C41.3949 100.74 42.5682 101.253 43.5416 102.28C44.5149 103.293 45.0016 104.533 45.0016 106C45.0016 107.48 44.5149 108.727 43.5416 109.74C42.5682 110.753 41.3949 111.26 40.0216 111.26C38.5016 111.26 37.3349 110.7 36.5216 109.58V115H34.3616V101H36.5216V102.44C37.3349 101.307 38.5016 100.74 40.0216 100.74ZM37.4216 108.3C38.0216 108.9 38.7749 109.2 39.6816 109.2C40.5882 109.2 41.3416 108.9 41.9416 108.3C42.5416 107.687 42.8416 106.92 42.8416 106C42.8416 105.08 42.5416 104.32 41.9416 103.72C41.3416 103.107 40.5882 102.8 39.6816 102.8C38.7749 102.8 38.0216 103.107 37.4216 103.72C36.8216 104.32 36.5216 105.08 36.5216 106C36.5216 106.92 36.8216 107.687 37.4216 108.3ZM54.8792 101H57.0392V111H54.8792V109.56C54.0659 110.693 52.8992 111.26 51.3792 111.26C50.0059 111.26 48.8326 110.753 47.8592 109.74C46.8859 108.713 46.3992 107.467 46.3992 106C46.3992 104.52 46.8859 103.273 47.8592 102.26C48.8326 101.247 50.0059 100.74 51.3792 100.74C52.8992 100.74 54.0659 101.3 54.8792 102.42V101ZM49.4592 108.3C50.0592 108.9 50.8126 109.2 51.7192 109.2C52.6259 109.2 53.3792 108.9 53.9792 108.3C54.5792 107.687 54.8792 106.92 54.8792 106C54.8792 105.08 54.5792 104.32 53.9792 103.72C53.3792 103.107 52.6259 102.8 51.7192 102.8C50.8126 102.8 50.0592 103.107 49.4592 103.72C48.8592 104.32 48.5592 105.08 48.5592 106C48.5592 106.92 48.8592 107.687 49.4592 108.3ZM66.2969 101H68.4569V111H66.2969V107.02H61.7169V111H59.5569V101H61.7169V104.98H66.2969V101ZM76.5831 105.88C77.6498 106.36 78.1831 107.153 78.1831 108.26C78.1831 109.113 77.8365 109.827 77.1431 110.4C76.4498 110.973 75.4831 111.26 74.2431 111.26C72.2298 111.26 70.8698 110.46 70.1631 108.86L71.9231 107.82C72.2831 108.82 73.0631 109.32 74.2631 109.32C74.8231 109.32 75.2631 109.207 75.5831 108.98C75.9031 108.74 76.0631 108.427 76.0631 108.04C76.0631 107.693 75.9365 107.42 75.6831 107.22C75.4298 107.007 75.0765 106.9 74.6231 106.9H73.2031V105H74.2631C74.7031 105 75.0431 104.9 75.2831 104.7C75.5365 104.487 75.6631 104.2 75.6631 103.84C75.6631 103.493 75.5231 103.213 75.2431 103C74.9631 102.773 74.5898 102.66 74.1231 102.66C73.1231 102.66 72.4298 103.1 72.0431 103.98L70.2831 102.98C71.0298 101.487 72.2965 100.74 74.0831 100.74C75.2031 100.74 76.0898 101.027 76.7431 101.6C77.4098 102.16 77.7431 102.847 77.7431 103.66C77.7431 104.66 77.3565 105.4 76.5831 105.88ZM87.8675 101H90.0275V111H87.8675V109.56C87.0542 110.693 85.8875 111.26 84.3675 111.26C82.9942 111.26 81.8208 110.753 80.8475 109.74C79.8742 108.713 79.3875 107.467 79.3875 106C79.3875 104.52 79.8742 103.273 80.8475 102.26C81.8208 101.247 82.9942 100.74 84.3675 100.74C85.8875 100.74 87.0542 101.3 87.8675 102.42V101ZM82.4475 108.3C83.0475 108.9 83.8008 109.2 84.7075 109.2C85.6142 109.2 86.3675 108.9 86.9675 108.3C87.5675 107.687 87.8675 106.92 87.8675 106C87.8675 105.08 87.5675 104.32 86.9675 103.72C86.3675 103.107 85.6142 102.8 84.7075 102.8C83.8008 102.8 83.0475 103.107 82.4475 103.72C81.8475 104.32 81.5475 105.08 81.5475 106C81.5475 106.92 81.8475 107.687 82.4475 108.3ZM101.385 111H98.8052L94.7052 106.38V111H92.5452V101H94.7052V105.42L98.5852 101H101.225L96.8252 105.9L101.385 111ZM111.438 108.96H113.078V113.68H110.958V111H102.838V101H104.998V108.96H109.278V101H111.438V108.96ZM122.07 101H123.73V111H121.61V104.64L116.49 111H114.83V101H116.95V107.34L122.07 101ZM133.477 101H135.137V111H133.017V104.64L127.897 111H126.237V101H128.357V107.34L133.477 101Z" fill="white"/>
<rect x="24" y="136" width="127" height="40" rx="12" fill="#191B1F"/>
<path d="M55.605 150.9V160H54.11V152.33H50.405V160H48.91V150.9H55.605ZM60.4056 160.169C59.4522 160.169 58.6419 159.84 57.9746 159.181C57.3072 158.522 56.9736 157.712 56.9736 156.75C56.9736 155.788 57.3072 154.978 57.9746 154.319C58.6419 153.66 59.4522 153.331 60.4056 153.331C61.3676 153.331 62.1779 153.66 62.8366 154.319C63.5039 154.978 63.8376 155.788 63.8376 156.75C63.8376 157.712 63.5039 158.522 62.8366 159.181C62.1779 159.84 61.3676 160.169 60.4056 160.169ZM58.9626 158.219C59.3526 158.609 59.8336 158.804 60.4056 158.804C60.9776 158.804 61.4586 158.609 61.8486 158.219C62.2386 157.829 62.4336 157.339 62.4336 156.75C62.4336 156.161 62.2386 155.671 61.8486 155.281C61.4586 154.891 60.9776 154.696 60.4056 154.696C59.8336 154.696 59.3526 154.891 58.9626 155.281C58.5726 155.671 58.3776 156.161 58.3776 156.75C58.3776 157.339 58.5726 157.829 58.9626 158.219ZM70.5732 158.674H71.4442V161.742H70.0662V160H65.6072V161.742H64.2292V158.674H65.0222C65.4208 158.111 65.6202 157.326 65.6202 156.321V153.5H70.5732V158.674ZM66.5692 158.674H69.1952V154.787H66.9982V156.321C66.9982 157.248 66.8552 158.033 66.5692 158.674ZM77.2967 153.5V154.852H75.1777V160H73.7737V154.852H71.6417V153.5H77.2967ZM82.7447 156.659C83.3861 156.954 83.7067 157.452 83.7067 158.154C83.7067 158.7 83.5204 159.146 83.1477 159.493C82.7837 159.831 82.2594 160 81.5747 160H78.2467V153.5H81.3147C81.9821 153.5 82.4977 153.669 82.8617 154.007C83.2344 154.336 83.4207 154.765 83.4207 155.294C83.4207 155.909 83.1954 156.364 82.7447 156.659ZM81.2107 154.696H79.5857V156.139H81.2107C81.7827 156.139 82.0687 155.896 82.0687 155.411C82.0687 154.934 81.7827 154.696 81.2107 154.696ZM81.4447 158.778C82.0341 158.778 82.3287 158.522 82.3287 158.011C82.3287 157.786 82.2507 157.612 82.0947 157.491C81.9387 157.361 81.7221 157.296 81.4447 157.296H79.5857V158.778H81.4447ZM85.9533 157.348C86.0573 157.842 86.2956 158.223 86.6683 158.492C87.041 158.752 87.496 158.882 88.0333 158.882C88.7786 158.882 89.3376 158.613 89.7103 158.076L90.8673 158.752C90.226 159.697 89.277 160.169 88.0203 160.169C86.963 160.169 86.1093 159.848 85.4593 159.207C84.8093 158.557 84.4843 157.738 84.4843 156.75C84.4843 155.779 84.805 154.969 85.4463 154.319C86.0876 153.66 86.911 153.331 87.9163 153.331C88.8696 153.331 89.6496 153.665 90.2563 154.332C90.8716 154.999 91.1793 155.81 91.1793 156.763C91.1793 156.91 91.162 157.105 91.1273 157.348H85.9533ZM85.9403 156.204H89.7623C89.667 155.675 89.446 155.277 89.0993 155.008C88.7613 154.739 88.3626 154.605 87.9033 154.605C87.3833 154.605 86.95 154.748 86.6033 155.034C86.2566 155.32 86.0356 155.71 85.9403 156.204ZM96.0937 153.331C96.9864 153.331 97.749 153.665 98.3817 154.332C99.0144 154.991 99.3307 155.797 99.3307 156.75C99.3307 157.712 99.0144 158.522 98.3817 159.181C97.749 159.84 96.9864 160.169 96.0937 160.169C95.1057 160.169 94.3474 159.805 93.8187 159.077V162.6H92.4147V153.5H93.8187V154.436C94.3474 153.699 95.1057 153.331 96.0937 153.331ZM94.4037 158.245C94.7937 158.635 95.2834 158.83 95.8727 158.83C96.462 158.83 96.9517 158.635 97.3417 158.245C97.7317 157.846 97.9267 157.348 97.9267 156.75C97.9267 156.152 97.7317 155.658 97.3417 155.268C96.9517 154.869 96.462 154.67 95.8727 154.67C95.2834 154.67 94.7937 154.869 94.4037 155.268C94.0137 155.658 93.8187 156.152 93.8187 156.75C93.8187 157.348 94.0137 157.846 94.4037 158.245ZM106.069 158.674H106.94V161.742H105.562V160H101.103V161.742H99.7253V158.674H100.518C100.917 158.111 101.116 157.326 101.116 156.321V153.5H106.069V158.674ZM102.065 158.674H104.691V154.787H102.494V156.321C102.494 157.248 102.351 158.033 102.065 158.674ZM112.787 153.5H113.866V160H112.488V155.866L109.16 160H108.081V153.5H109.459V157.621L112.787 153.5ZM120.461 153.5V154.852H118.342V160H116.938V154.852H114.806V153.5H120.461ZM124.245 155.71C124.938 155.71 125.506 155.909 125.948 156.308C126.39 156.698 126.611 157.214 126.611 157.855C126.611 158.488 126.39 159.003 125.948 159.402C125.506 159.801 124.938 160 124.245 160H121.411V153.5H122.815V155.71H124.245ZM124.258 158.739C124.535 158.739 124.765 158.657 124.947 158.492C125.137 158.327 125.233 158.115 125.233 157.855C125.233 157.586 125.137 157.374 124.947 157.218C124.765 157.053 124.535 156.971 124.258 156.971H122.815V158.739H124.258Z" fill="white"/>
<circle cx="264" cy="221" r="96" fill="#5BC2E7"/>
<circle cx="250" cy="111" r="8" fill="#5BC2E7"/>
</g>
<defs>
<clipPath id="clip0_81_4675">
<path d="M0 16C0 7.16344 7.16344 0 16 0H272C280.837 0 288 7.16344 288 16V208H0V16Z" fill="white"/>
</clipPath>
</defs>
</svg>
