<svg width="48" height="48" viewBox="0 0 48 48" fill="none" xmlns="http://www.w3.org/2000/svg">
<path d="M25.1318 10H35.0004L39.0004 24L35.0004 37L25.1325 37.066L25.1318 10Z" fill="#ED1556"/>
<path fill-rule="evenodd" clip-rule="evenodd" d="M16.3963 4.09064C14.9529 4.36445 13.5426 5.11275 12.4939 6.16123C11.1811 7.47359 10.4273 9.18009 10.3287 11.0631L10.2831 11.9332L9.60955 12.0994C7.01945 12.7383 4.90389 14.8341 4.18997 17.4686C3.93728 18.4009 3.93657 20.1783 4.18848 21.1064C4.40431 21.9013 4.84309 22.8634 5.29008 23.5214L5.61594 24.001L5.29008 24.4807C4.84309 25.1387 4.40431 26.1007 4.18848 26.8957C3.93657 27.8237 3.93728 29.6012 4.18997 30.5335C4.90389 33.1679 7.01945 35.2638 9.60955 35.9027L10.2831 36.0689L10.3287 36.939C10.383 37.9766 10.5827 38.7946 10.9973 39.6792C11.9728 41.7603 13.6971 43.2001 15.9398 43.8063C16.8919 44.0637 18.5804 44.0647 19.5395 43.8084C20.3795 43.584 21.6129 42.9817 22.298 42.4615L22.8263 42.0604V24.001V5.94163L22.298 5.54053C21.6154 5.02223 20.3729 4.41131 19.5787 4.20345C18.7526 3.98729 17.2263 3.93315 16.3963 4.09064ZM28.957 4.08383C27.6813 4.32729 26.497 4.8858 25.4688 5.72884L25.1768 5.96831L25.1753 10.4863L25.1739 15.0042H26.4461H27.7182L27.9065 14.5935C28.1387 14.0867 28.9148 13.2984 29.4198 13.0561C30.8707 12.36 32.4068 12.6055 33.5116 13.7099C34.0642 14.2624 34.3696 14.8549 34.5032 15.6342C34.749 17.0671 33.9971 18.5778 32.7028 19.2513C31.6014 19.8246 30.5385 19.8393 29.426 19.2966C28.9074 19.0436 28.1375 18.2662 27.9065 17.7619L27.7182 17.3512H26.4461H25.1739V20.0894V22.8275H28.0112H30.8484L31.0367 22.4168C31.2689 21.91 32.045 21.1217 32.55 20.8794C34.0009 20.1833 35.5371 20.4288 36.6418 21.5332C37.1944 22.0857 37.4998 22.6782 37.6335 23.4575C37.883 24.9126 37.1016 26.4445 35.7678 27.1144C34.71 27.6459 33.6383 27.6477 32.5562 27.1199C32.0376 26.8669 31.2678 26.0895 31.0367 25.5853L30.8484 25.1745H28.0112H25.1739V27.9127V30.6508H26.4461H27.7182L27.9065 30.2401C28.1387 29.7333 28.9148 28.945 29.4198 28.7027C30.8707 28.0066 32.4068 28.2521 33.5116 29.3566C34.0642 29.909 34.3696 30.5015 34.5032 31.2809C34.749 32.7137 33.9971 34.2244 32.7028 34.898C31.6014 35.4712 30.5385 35.4859 29.426 34.9433C28.9074 34.6903 28.1375 33.9128 27.9065 33.4086L27.7182 32.9978H26.4461H25.1739L25.1753 37.5158L25.1768 42.0338L25.4688 42.2732C26.3155 42.9675 27.3853 43.5156 28.4607 43.8063C29.011 43.9551 29.3219 43.9861 30.2605 43.9861C31.1992 43.9861 31.5101 43.9551 32.0604 43.8063C34.2997 43.201 36.0278 41.7614 36.9946 39.6961C37.4095 38.8095 37.6173 37.9629 37.6712 36.9389L37.7171 36.0686L38.3853 35.8994C41.0207 35.2322 43.0846 33.1857 43.8136 30.5166C44.0629 29.6036 44.062 27.8176 43.8117 26.8957C43.5959 26.1007 43.1571 25.1387 42.7101 24.4807L42.3843 24.001L42.7101 23.5214C43.1588 22.8609 43.596 21.8989 43.8077 21.1064C44.0587 20.1671 44.0602 18.3867 43.8107 17.4686C43.0944 14.8322 40.9806 12.7382 38.3907 12.0994L37.7171 11.9332L37.6712 11.0631C37.4985 7.7841 35.2588 5.03342 32.0826 4.19954C31.293 3.99222 29.7383 3.93472 28.957 4.08383ZM30.4766 15.1655C30.1462 15.3399 29.8693 15.8015 29.8693 16.1777C29.8693 16.3103 29.9402 16.5576 30.0268 16.7274C30.204 17.0745 30.6548 17.3512 31.0431 17.3512C31.6385 17.3512 32.2169 16.773 32.2169 16.1777C32.2169 15.7895 31.9401 15.3388 31.5929 15.1617C31.2073 14.9651 30.8542 14.9663 30.4766 15.1655ZM33.6068 22.9889C33.2764 23.1632 32.9995 23.6248 32.9995 24.001C32.9995 24.1336 33.0704 24.3809 33.157 24.5507C33.3342 24.8978 33.785 25.1745 34.1733 25.1745C34.5616 25.1745 35.0124 24.8978 35.1896 24.5507C35.2762 24.3809 35.3471 24.1336 35.3471 24.001C35.3471 23.6128 35.0704 23.1621 34.7231 22.985C34.3376 22.7884 33.9844 22.7896 33.6068 22.9889ZM30.4766 30.8122C30.1462 30.9865 29.8693 31.4481 29.8693 31.8243C29.8693 32.2125 30.146 32.6632 30.4933 32.8404C30.6631 32.927 30.9105 32.9978 31.0431 32.9978C31.4314 32.9978 31.8822 32.7211 32.0594 32.374C32.146 32.2042 32.2169 31.9569 32.2169 31.8243C32.2169 31.4361 31.9401 30.9854 31.5929 30.8083C31.2073 30.6117 30.8542 30.6129 30.4766 30.8122Z" fill="white"/>
</svg>
