<svg width="48" height="48" viewBox="0 0 48 48" fill="none" xmlns="http://www.w3.org/2000/svg">
<rect x="5" y="5" width="17.4167" height="6.33333" rx="1" fill="#ED1556"/>
<rect x="5" y="20.834" width="17.4167" height="6.33333" rx="1" fill="white"/>
<rect x="5" y="36.666" width="17.4167" height="6.33333" rx="1" fill="white"/>
<rect x="15.292" y="12.916" width="17.4167" height="6.33333" rx="1" fill="#ED1556"/>
<path d="M5 13.916C5 13.3637 5.44772 12.916 6 12.916H11.125C11.6773 12.916 12.125 13.3637 12.125 13.916V18.2493C12.125 18.8016 11.6773 19.2493 11.125 19.2493H6C5.44772 19.2493 5 18.8016 5 18.2493V13.916Z" fill="white"/>
<path d="M35.875 13.916C35.875 13.3637 36.3227 12.916 36.875 12.916H42C42.5523 12.916 43 13.3637 43 13.916V18.2493C43 18.8016 42.5523 19.2493 42 19.2493H36.875C36.3227 19.2493 35.875 18.8016 35.875 18.2493V13.916Z" fill="white"/>
<rect x="15.292" y="28.75" width="17.4167" height="6.33333" rx="1" fill="white"/>
<path d="M5 29.75C5 29.1977 5.44772 28.75 6 28.75H11.125C11.6773 28.75 12.125 29.1977 12.125 29.75V34.0833C12.125 34.6356 11.6773 35.0833 11.125 35.0833H6C5.44772 35.0833 5 34.6356 5 34.0833V29.75Z" fill="#ED1556"/>
<path d="M35.875 29.75C35.875 29.1977 36.3227 28.75 36.875 28.75H42C42.5523 28.75 43 29.1977 43 29.75V34.0833C43 34.6356 42.5523 35.0833 42 35.0833H36.875C36.3227 35.0833 35.875 34.6356 35.875 34.0833V29.75Z" fill="#ED1556"/>
<rect x="25.583" y="5" width="17.4167" height="6.33333" rx="1" fill="white"/>
<rect x="25.583" y="20.834" width="17.4167" height="6.33333" rx="1" fill="#ED1556"/>
<rect x="25.583" y="36.666" width="17.4167" height="6.33333" rx="1" fill="#ED1556"/>
</svg>
