<svg width="288" height="56" viewBox="0 0 288 56" fill="none" xmlns="http://www.w3.org/2000/svg">
<path fill-rule="evenodd" clip-rule="evenodd" d="M122.662 0H130.292V3.08099H122.662V0ZM123.4 0.739437V2.34155H129.553V0.739437H123.4ZM233.265 1.31403L262.604 15.6795L261.243 18.4384L259.845 17.749V20.6549H258.073V55.2606H207.94V20.6303H206.537V17.7244L205.136 18.4153L203.805 15.6523L211.435 11.9445V6.26056H221.993V6.80348L233.265 1.31403ZM221.254 7H212.173V12.4076L204.79 15.9955L205.477 17.4227L207.275 16.5362V19.8908H208.678V54.5211H257.334V19.9155H259.106V16.5608L260.908 17.4489L261.614 16.0177L233.264 2.13668L221.254 7.98526V7ZM54.1938 1.31417L64.8504 6.50752V6.26056H75.0395V6.63028H75.384V11.6986L83.5335 15.6792L82.1721 18.4384L80.7739 17.749V20.6549H79.0019V55.2852H28.8689V20.6549H27.4661V17.749L26.0647 18.44L24.7341 15.6774L54.1938 1.31417ZM74.6457 7H65.5888V7.68967L54.1938 2.13654L25.7188 16.0198L26.4063 17.4473L28.2044 16.5608V19.9155H29.6072V54.5458H78.2635V19.9155H80.0355V16.5608L81.8368 17.4489L82.5428 16.018L74.6457 12.1606V7ZM136.888 1.3142L166.227 15.6795L164.866 18.4384L163.467 17.749V20.6549H161.671V26.7414L188.546 32.6569V38.4753H186.799V55.2359H161.671V55.2606H111.538V20.6303H110.135V17.7244L108.734 18.4153L107.403 15.6521L112.202 13.3246V7.34507H121.751V8.6735L122.613 8.24879V3.62324H130.292V4.51237L136.888 1.3142ZM160.932 54.5211V54.4965H186.06V37.7359H187.808V33.2515L160.932 27.336V19.9155H162.729V16.5608L164.53 17.4489L165.236 16.0177L136.887 2.1365L129.553 5.69185V4.36268H123.351V8.70895L121.013 9.86172V8.08451H112.941V13.7881L108.388 15.9958L109.075 17.4227L110.873 16.5362V19.8908H112.276V54.5211H160.932ZM64.6536 2.61268H75.4333V5.69366H64.6536V2.61268ZM65.3919 3.35211V4.95423H74.6949V3.35211H65.3919ZM211.385 2.61268H222.165V5.69366H211.385V2.61268ZM212.124 3.35211V4.95423H221.427V3.35211H212.124ZM112.178 3.72183H121.678V6.80282H112.178V3.72183ZM112.916 4.46127V6.06338H120.939V4.46127H112.916ZM54.1943 3.90208L65.5888 9.48047V11.2394H63.9535L54.1931 6.49857L44.1873 11.3134H42.3312V9.67708L54.1943 3.90208ZM136.863 3.90208L148.258 9.48047V11.2394H146.622L136.862 6.49857L126.856 11.3134H125V9.67708L136.863 3.90208ZM233.265 3.90208L244.66 9.48047V11.2394H243.024L233.264 6.49857L223.258 11.3134H221.402V9.67708L233.265 3.90208ZM43.0696 10.1398V10.5739H44.0191L54.1946 5.67749L64.1231 10.5H64.8504V9.94206L54.1933 4.72469L43.0696 10.1398ZM125.738 10.1398V10.5739H126.688L136.863 5.67749L146.792 10.5H147.519V9.94206L136.862 4.72468L125.738 10.1398ZM222.14 10.1398V10.5739H223.09L233.265 5.67749L243.194 10.5H243.921V9.94206L233.264 4.72468L222.14 10.1398ZM124.951 5.96479H129.027L124.951 7.93389V5.96479ZM125.689 6.70423V6.75626L125.797 6.70423H125.689ZM54.1945 8.26526L60.3008 11.2394H58.9438V12.8415H60.8388V35.9641L60.2473 35.5169C56.4685 32.6608 51.1682 32.7331 47.4863 35.7306L46.9486 36.1683L48.0967 37.3182C48.4374 37.0086 48.7995 36.7312 49.1539 36.4749L49.7392 36.0516V48.0141H31.2316V32.1655H45.2846V44.8592H46.8843V12.9155H48.9762V10.7854L54.1945 8.26526ZM58.2054 11.0411V13.581H60.1005V34.5093C56.3143 32.0191 51.3327 32.082 47.6226 34.7001V13.6549H49.7146V11.2498L54.1931 9.08685L58.2054 11.0411ZM136.863 8.26526L142.97 11.2394H141.613V12.8415H143.508V25.2148H140.801V17.5493H137.404V16.7359H135.804V17.5493H132.408V25.2148H129.553V12.9155H131.645V10.7854L136.863 8.26526ZM140.874 11.0411V13.581H142.769V24.4754H141.539V16.8099H138.143V15.9965H135.066V16.8099H131.67V24.4754H130.292V13.6549H132.383V11.2498L136.862 9.08685L140.874 11.0411ZM233.29 8.26526L239.396 11.2394H238.039V12.8415H239.91V30.588H237.079V22.8732H233.782V22.0599H232.182V22.8732H228.712V30.5634H225.98V12.9155H228.072V10.7854L233.29 8.26526ZM237.301 11.0411V13.581H239.171V29.8486H237.818V22.1338H234.52V21.3204H231.443V22.1338H227.973V29.8239H226.718V13.6549H228.81V11.2498L233.289 9.08685L237.301 11.0411ZM67.3929 8.60211H73.0706V11.3887L67.3929 8.60211ZM70.5773 9.34155L72.3322 10.2029V9.34155H70.5773ZM213.773 8.60211H220.021L213.773 11.659V8.60211ZM214.511 9.34155V10.4748L216.827 9.34155H214.511ZM114.91 10.0563V9.68662H119.438V10.6324L114.565 13.0144V10.0563H114.91ZM115.303 10.4261V11.8307L118.177 10.4261H115.303ZM67.1639 10.253L79.8111 16.4401H78.4604V18.3134H77.4201L77.6336 17.8858L67.1639 12.802V10.253ZM77.7221 16.2411V17.107L67.9022 12.3388V11.4371L77.7221 16.2411ZM149.857 10.253L162.505 16.4401H161.154V18.3134H160.114L160.327 17.8858L149.857 12.802V10.253ZM160.416 16.2411V17.107L150.596 12.3388V11.4371L160.416 16.2411ZM246.235 10.253L258.882 16.4401H257.531V18.3134H256.491L256.704 17.8858L246.235 12.802V10.253ZM256.793 16.2411V17.107L246.973 12.3388V11.4371L256.793 16.2411ZM40.7315 10.4504V12.9755L29.8041 18.2358V16.4401H28.4767L40.7315 10.4504ZM30.5425 16.2533V17.06L39.9932 12.5105V11.6341L30.5425 16.2533ZM123.425 10.4504V12.9755L112.498 18.2358V16.4401H111.17L123.425 10.4504ZM113.236 16.2533V17.06L122.687 12.5105V11.6341L113.236 16.2533ZM219.827 10.4504V12.9755L208.9 18.2358V16.4401H207.572L219.827 10.4504ZM209.638 16.2533V17.06L219.089 12.5105V11.6341L209.638 16.2533ZM229.081 16.0704C229.081 13.919 230.821 12.1761 232.969 12.1761C235.118 12.1761 236.858 13.919 236.858 16.0704C236.858 18.2218 235.118 19.9648 232.969 19.9648C230.821 19.9648 229.081 18.2218 229.081 16.0704ZM232.969 12.9155C231.229 12.9155 229.819 14.3274 229.819 16.0704C229.819 17.8134 231.229 19.2254 232.969 19.2254C234.71 19.2254 236.12 17.8134 236.12 16.0704C236.12 14.3274 234.71 12.9155 232.969 12.9155ZM62.4385 12.8169H63.6062L74.9241 18.3134H73.6612V19.9155H76.7376V30.588H73.6612V22.8732H70.3633V22.0599H68.7636V22.8732H65.2934V30.5634H62.4385V12.8169ZM72.9229 18.1633L63.4366 13.5563H63.1769V29.8239H64.5551V22.1338H68.0253V21.3204H71.1017V22.1338H74.3996V29.8486H75.9993V20.6549H72.9229V18.1633ZM145.107 12.8169H146.275L157.593 18.3134H156.33V19.9155H159.407V30.588H156.355V22.8732H153.032V22.0599H151.433V22.8732H147.962V30.5634H145.107V12.8169ZM155.592 18.1633L146.106 13.5563H145.846V29.8239H147.224V22.1338H150.694V21.3204H153.771V22.1338H157.093V29.8486H158.668V20.6549H155.592V18.1633ZM241.509 12.8169H242.677L253.995 18.3134H252.732V19.9155H255.809V30.588H252.732V22.8732H249.41V22.0599H247.81V22.8732H244.34V30.5634H241.509V12.8169ZM251.994 18.1633V20.6549H255.07V29.8486H253.47V22.1338H250.148V21.3204H247.072V22.1338H243.601V29.8239H242.248V13.5563H242.508L251.994 18.1633ZM44.5359 12.9155H45.26V30.588H42.5035V22.8979H39.181V22.0845H37.5813V22.8979H34.1357V30.588H31.1824V19.9155H34.5295V17.7359L44.5359 12.9155ZM44.5216 13.7429V29.8486H43.2418V22.1585H39.9193V21.3451H36.8429V22.1585H33.3974V29.8486H31.9207V20.6549H35.2678V18.2007L44.5216 13.7429ZM127.229 12.9155H127.953V30.588H125.197V22.8979H121.875V22.0845H120.275V22.8979H116.829V30.588H113.876V19.9155H117.223V17.7359L127.229 12.9155ZM127.215 13.7429V29.8486H125.935V22.1585H122.613V21.3451H119.536V22.1585H116.091V29.8486H114.614V20.6549H117.961V18.2007L127.215 13.7429ZM223.607 12.9155H224.331V30.2183H224.011V30.588H221.624V22.8979H218.276V22.0845H216.677V22.8979H213.231V30.588H210.278V19.9155H213.6V17.7359L223.607 12.9155ZM223.593 29.8486V13.7429L214.339 18.2007V20.6549H211.016V29.8486H212.493V22.1585H215.938V21.3451H219.015V22.1585H222.362V29.8486H223.593ZM232.969 15.257C232.528 15.257 232.157 15.6141 232.157 16.0704C232.157 16.5121 232.514 16.8838 232.969 16.8838C233.43 16.8838 233.782 16.5317 233.782 16.0704C233.782 15.6338 233.405 15.257 232.969 15.257ZM231.419 16.0704C231.419 15.1957 232.131 14.5176 232.969 14.5176C233.813 14.5176 234.52 15.2254 234.52 16.0704C234.52 16.9401 233.838 17.6232 232.969 17.6232C232.096 17.6232 231.419 16.9104 231.419 16.0704ZM52.3726 15.9965H55.449V16.8099H55.8452L58.8207 18.5707V30.4401H48.9516V18.5697L51.9525 16.8099H52.3726V15.9965ZM53.1109 16.7359V17.5493H52.1528L49.69 18.9936V29.7007H58.0824V18.9927L55.6434 17.5493H54.7106V16.7359H53.1109ZM52.6191 19.1514H55.2291L56.5073 19.9007V28.0986H51.3143V19.8981L52.6191 19.1514ZM52.8152 19.8908L52.0526 20.3272V27.3592H55.7689V20.3247L55.0289 19.8908H52.8152ZM134.008 19.1514H139.201V25.2148H134.008V19.1514ZM134.746 19.8908V24.4754H138.462V19.8908H134.746ZM35.76 24.4754H40.953V30.5634H35.76V24.4754ZM36.4984 25.2148V29.8239H40.2147V25.2148H36.4984ZM66.8686 24.4754H72.0615V43.257H66.8686V24.4754ZM67.6069 25.2148V42.5176H71.3232V25.2148H67.6069ZM118.454 24.4754H123.647V30.5634H118.454V24.4754ZM119.192 25.2148V29.8239H122.908V25.2148H119.192ZM149.562 24.4754H154.755V43.257H149.562V24.4754ZM150.3 25.2148V42.5176H154.017V25.2148H150.3ZM214.831 24.4754H220.024V30.5634H214.831V24.4754ZM215.569 25.2148V29.8239H219.286V25.2148H215.569ZM230.311 24.4754H235.504V43.257H230.311V24.4754ZM231.05 25.2148V42.5176H234.766V25.2148H231.05ZM245.939 24.4754H251.132V30.588H245.939V24.4754ZM246.678 25.2148V29.8486H250.394V25.2148H246.678ZM129.553 26.8169H132.408V30.588H129.553V26.8169ZM130.292 27.5563V29.8486H131.67V27.5563H130.292ZM134.008 26.8169H139.201V30.5634H134.008V26.8169ZM134.746 27.5563V29.8239H138.462V27.5563H134.746ZM140.776 26.8169H143.508V30.588H140.776V26.8169ZM141.514 27.5563V29.8486H142.769V27.5563H141.514ZM160.957 28.9946L186.257 34.5547V36.1585H160.957V28.9946ZM161.695 29.9139V35.419H185.519V35.1495L161.695 29.9139ZM11.7641 36.5775C11.7641 33.1198 14.5874 30.2923 18.04 30.2923C21.4926 30.2923 24.3158 33.1198 24.3158 36.5775C24.3158 39.5117 22.2927 41.9795 19.5659 42.6653V52.2782H23.1591V55.3592H12.9209V52.2782H16.5141V42.6653C13.7873 41.9795 11.7641 39.5117 11.7641 36.5775ZM18.04 31.0317C14.9952 31.0317 12.5025 33.5281 12.5025 36.5775C12.5025 39.256 14.4167 41.4986 16.9557 42.0072L17.2524 42.0666V53.0176H13.6592V54.6197H22.4208V53.0176H18.8275V42.0666L19.1243 42.0072C21.6633 41.4986 23.5775 39.256 23.5775 36.5775C23.5775 33.5281 21.0848 31.0317 18.04 31.0317ZM82.6689 36.5775C82.6689 33.1198 85.4922 30.2923 88.9448 30.2923C92.3973 30.2923 95.2206 33.1198 95.2206 36.5775C95.2206 39.5088 93.201 41.9762 90.5199 42.664V52.2782H94.0885V55.3592H83.8503V52.2782H87.4189V42.6653C84.6921 41.9795 82.6689 39.5117 82.6689 36.5775ZM88.9448 31.0317C85.9 31.0317 83.4073 33.5281 83.4073 36.5775C83.4073 39.256 85.3215 41.4986 87.8605 42.0072L88.1572 42.0666V53.0176H84.5886V54.6197H93.3502V53.0176H89.7816V42.0677L90.077 42.0074C92.5663 41.4996 94.4823 39.2577 94.4823 36.5775C94.4823 33.5281 91.9896 31.0317 88.9448 31.0317ZM192.287 36.5775C192.287 33.1198 195.11 30.2923 198.563 30.2923C202.016 30.2923 204.839 33.1198 204.839 36.5775C204.839 39.5103 202.817 41.9778 200.113 42.6646V52.2782H203.682V55.3592H193.468V52.2782H197.037V42.6653C194.31 41.9795 192.287 39.5117 192.287 36.5775ZM198.563 31.0317C195.518 31.0317 193.025 33.5281 193.025 36.5775C193.025 39.256 194.94 41.4986 197.479 42.0072L197.775 42.0666V53.0176H194.207V54.6197H202.944V53.0176H199.375V42.0672L199.671 42.0073C202.185 41.4991 204.1 39.2568 204.1 36.5775C204.1 33.5281 201.608 31.0317 198.563 31.0317ZM275.448 36.5775C275.448 33.1198 278.272 30.2923 281.724 30.2923C285.177 30.2923 288 33.1198 288 36.5775C288 39.5088 285.98 41.9762 283.299 42.664V52.2782H286.868V55.3592H276.63V52.2782H280.198V42.6653C277.471 41.9795 275.448 39.5117 275.448 36.5775ZM281.724 31.0317C278.679 31.0317 276.187 33.5281 276.187 36.5775C276.187 39.256 278.101 41.4986 280.64 42.0072L280.937 42.0666V53.0176H277.368V54.6197H286.13V53.0176H282.561V42.0677L282.856 42.0074C285.346 41.4996 287.262 39.2577 287.262 36.5775C287.262 33.5281 284.769 31.0317 281.724 31.0317ZM31.9699 32.9049V47.2746H49.0009V37.5181C48.7733 37.7011 48.5546 37.8923 48.3513 38.0959L48.0902 38.3574L47.6226 37.8891V45.5986H44.5462V32.9049H31.9699ZM62.4385 32.1655H65.2934V44.8345H73.6612V32.1655H76.6884V48.0141H58.107V36.0124L58.6705 36.3617C59.1107 36.6346 59.5325 36.9577 59.9227 37.3171L60.8388 36.3997V44.8592H62.4385V32.1655ZM60.1005 38.1848L59.9282 38.3574L59.6672 38.0959C59.4085 37.8368 59.1326 37.5958 58.8453 37.378V47.2746H75.9501V32.9049H74.3996V45.5739H64.5551V32.9049H63.1769V45.5986H60.1005V38.1848ZM113.901 32.1655H127.978V33.1268H129.578V32.1655H143.532V33.1268H145.132V32.1655H147.987V44.8345H156.355V32.1655H159.382V36.1585H159.234V48.0141H140.801V35.5669H132.408V48.0141H113.901V32.1655ZM158.644 35.419V32.9049H157.093V45.5739H147.249V32.9049H145.87V33.8662H142.794V32.9049H130.316V33.8662H127.24V32.9049H114.639V47.2746H131.67V34.8275H141.539V47.2746H158.496V35.419H158.644ZM210.302 32.1655H224.38V44.8592H225.98V32.1655H228.712V44.8345H237.079V32.1655H239.91V44.8592H241.509V37.8622L244.364 36.6321V48.0141H210.302V32.1655ZM211.041 32.9049V47.2746H243.626V37.7552L242.248 38.3491V45.5986H239.171V32.9049H237.818V45.5739H227.973V32.9049H226.718V45.5986H223.642V32.9049H211.041ZM241.509 32.1655H255.784V35.912H255.314L248.671 33.0606L241.509 36.1271V32.1655ZM250.183 32.9049H255.046V34.9921L250.183 32.9049ZM247.157 32.9049H242.248V35.0067L247.157 32.9049ZM18.04 33.3732C16.275 33.3732 14.8405 34.8098 14.8405 36.5775C14.8405 38.3451 16.275 39.7817 18.04 39.7817C19.805 39.7817 21.2394 38.3451 21.2394 36.5775C21.2394 34.8098 19.805 33.3732 18.04 33.3732ZM14.1022 36.5775C14.1022 34.4014 15.8672 32.6338 18.04 32.6338C20.2128 32.6338 21.9778 34.4014 21.9778 36.5775C21.9778 38.7535 20.2128 40.5211 18.04 40.5211C15.8672 40.5211 14.1022 38.7535 14.1022 36.5775ZM88.9694 33.3732C87.2044 33.3732 85.7699 34.8098 85.7699 36.5775C85.7699 38.3451 87.2044 39.7817 88.9694 39.7817C90.7344 39.7817 92.1689 38.3451 92.1689 36.5775C92.1689 34.8098 90.7344 33.3732 88.9694 33.3732ZM85.0316 36.5775C85.0316 34.4014 86.7966 32.6338 88.9694 32.6338C91.1422 32.6338 92.9072 34.4014 92.9072 36.5775C92.9072 38.7535 91.1422 40.5211 88.9694 40.5211C86.7966 40.5211 85.0316 38.7535 85.0316 36.5775ZM198.563 33.3732C196.798 33.3732 195.364 34.8098 195.364 36.5775C195.364 38.3451 196.798 39.7817 198.563 39.7817C200.328 39.7817 201.762 38.3451 201.762 36.5775C201.762 34.8098 200.328 33.3732 198.563 33.3732ZM194.625 36.5775C194.625 34.4014 196.39 32.6338 198.563 32.6338C200.736 32.6338 202.501 34.4014 202.501 36.5775C202.501 38.7535 200.736 40.5211 198.563 40.5211C196.39 40.5211 194.625 38.7535 194.625 36.5775ZM281.724 33.3732C279.959 33.3732 278.525 34.8098 278.525 36.5775C278.525 38.3451 279.959 39.7817 281.724 39.7817C283.489 39.7817 284.924 38.3451 284.924 36.5775C284.924 34.8098 283.489 33.3732 281.724 33.3732ZM277.786 36.5775C277.786 34.4014 279.551 32.6338 281.724 32.6338C283.897 32.6338 285.662 34.4014 285.662 36.5775C285.662 38.7535 283.897 40.5211 281.724 40.5211C279.551 40.5211 277.786 38.7535 277.786 36.5775ZM36.8675 34.1127H39.9439V34.8521H43.2911V45.5986H33.422V34.8521H36.8675V34.1127ZM37.6059 34.8521V35.5915H34.1603V44.8592H42.5527V35.5915H39.2056V34.8521H37.6059ZM119.536 34.1127H122.613V34.8521H125.96V45.5986H116.091V34.8521H119.536V34.1127ZM120.275 34.8521V35.5915H116.829V44.8592H125.222V35.5915H121.875V34.8521H120.275ZM127.24 34.1127H130.316V36.75H127.24V34.1127ZM127.978 34.8521V36.0106H129.578V34.8521H127.978ZM142.769 34.1127H145.846V36.75H142.769V34.1127ZM143.508 34.8521V36.0106H145.107V34.8521H143.508ZM215.938 34.1127H219.015V34.8521H222.362V45.5986H212.493V34.8521H215.938V34.1127ZM216.677 34.8521V35.5915H213.231V44.8592H221.624V35.5915H218.276V34.8521H216.677ZM248.671 34.7838L250.285 35.5915H247.059L248.671 34.7838ZM252.732 36.5089L255.759 37.8129V48.0141H252.732V36.5089ZM253.47 37.6319V47.2746H255.021V38.2998L253.47 37.6319ZM127.24 36.8732H130.316V44.2183H127.24V36.8732ZM127.978 37.6127V43.4789H129.578V37.6127H127.978ZM142.769 36.8732H145.846V44.2183H142.769V36.8732ZM143.508 37.6127V43.4789H145.107V37.6127H143.508ZM35.76 37.169H40.953V43.257H35.76V37.169ZM36.4984 37.9085V42.5176H40.2147V37.9085H36.4984ZM51.3143 37.169H56.5073V48.0141H51.3143V37.169ZM52.0526 37.9085V47.2746H55.7689V37.9085H52.0526ZM118.454 37.169H123.647V43.257H118.454V37.169ZM119.192 37.9085V42.5176H122.908V37.9085H119.192ZM134.008 37.169H139.201V48.0141H134.008V37.169ZM134.746 37.9085V47.2746H138.462V37.9085H134.746ZM214.831 37.169H220.024V43.257H214.831V37.169ZM215.569 37.9085V42.5176H219.286V37.9085H215.569ZM245.939 37.169H251.157V48.0141H245.939V37.169ZM246.678 37.9085V47.2746H250.419V37.9085H246.678ZM160.982 37.7606H184.51V52.919H181.384V40.8908H163.738V52.919H160.982V37.7606ZM161.72 38.5V52.1796H163V40.1514H182.123V52.1796H183.772V38.5H161.72ZM165.313 42.493H179.809V52.919H165.313V42.493ZM166.052 43.2324V52.1796H179.071V43.2324H166.052ZM0 49.7148C0 46.2571 2.82329 43.4296 6.27585 43.4296C9.75402 43.4296 12.5517 46.2581 12.5517 49.7148C12.5517 53.1725 9.72841 56 6.27585 56C2.82329 56 0 53.1725 0 49.7148ZM6.27585 44.169C3.23106 44.169 0.738335 46.6655 0.738335 49.7148C0.738335 52.7641 3.23106 55.2606 6.27585 55.2606C9.32064 55.2606 11.8134 52.7641 11.8134 49.7148C11.8134 46.6645 9.34425 44.169 6.27585 44.169ZM95.1468 49.7148C95.1468 46.2571 97.9701 43.4296 101.423 43.4296C104.901 43.4296 107.698 46.2581 107.698 49.7148C107.698 53.1725 104.875 56 101.423 56C97.9701 56 95.1468 53.1725 95.1468 49.7148ZM101.423 44.169C98.3779 44.169 95.8851 46.6655 95.8851 49.7148C95.8851 52.7641 98.3779 55.2606 101.423 55.2606C104.467 55.2606 106.96 52.7641 106.96 49.7148C106.96 46.6645 104.491 44.169 101.423 44.169ZM263.118 49.7148C263.118 46.2571 265.941 43.4296 269.394 43.4296C272.846 43.4296 275.67 46.2571 275.67 49.7148C275.67 53.1725 272.846 56 269.394 56C265.941 56 263.118 53.1725 263.118 49.7148ZM269.394 44.169C266.349 44.169 263.856 46.6655 263.856 49.7148C263.856 52.7641 266.349 55.2606 269.394 55.2606C272.439 55.2606 274.931 52.7641 274.931 49.7148C274.931 46.6655 272.439 44.169 269.394 44.169ZM127.24 44.4155H130.316V47.0282H127.24V44.4155ZM127.978 45.1549V46.2887H129.578V45.1549H127.978ZM142.769 44.4155H145.846V47.0282H142.769V44.4155ZM143.508 45.1549V46.2887H145.107V45.1549H143.508ZM6.27585 46.5106C4.51084 46.5106 3.0764 47.9471 3.0764 49.7148C3.0764 51.4824 4.51084 52.919 6.27585 52.919C8.04416 52.919 9.49991 51.4791 9.49991 49.7148C9.49991 47.9504 8.04416 46.5106 6.27585 46.5106ZM2.33806 49.7148C2.33806 47.5388 4.10307 45.7711 6.27585 45.7711C8.44532 45.7711 10.2382 47.5355 10.2382 49.7148C10.2382 51.8941 8.44532 53.6585 6.27585 53.6585C4.10307 53.6585 2.33806 51.8908 2.33806 49.7148ZM101.423 46.5106C99.6576 46.5106 98.2232 47.9471 98.2232 49.7148C98.2232 51.4824 99.6576 52.919 101.423 52.919C103.192 52.919 104.644 51.4792 104.622 49.7194L104.622 49.7171V49.7148C104.622 47.9471 103.188 46.5106 101.423 46.5106ZM97.4849 49.7148C97.4849 47.5388 99.2499 45.7711 101.423 45.7711C103.595 45.7711 105.359 47.5376 105.36 49.7126V49.7148H104.991L105.36 49.7102L105.36 49.7126C105.386 51.8953 103.59 53.6585 101.423 53.6585C99.2499 53.6585 97.4849 51.8908 97.4849 49.7148ZM269.394 46.5106C267.629 46.5106 266.194 47.9471 266.194 49.7148C266.194 51.4824 267.629 52.919 269.394 52.919C271.163 52.919 272.615 51.4792 272.593 49.7194L272.593 49.7171V49.7148C272.593 47.9471 271.159 46.5106 269.394 46.5106ZM265.456 49.7148C265.456 47.5388 267.221 45.7711 269.394 45.7711C271.566 45.7711 273.331 47.5376 273.332 49.7126V49.7148H272.963L273.332 49.7102L273.332 49.7126C273.358 51.8953 271.562 53.6585 269.394 53.6585C267.221 53.6585 265.456 51.8908 265.456 49.7148ZM31.207 49.6162H76.6884V52.9437H31.207V49.6162ZM31.9453 50.3556V52.2042H75.9501V50.3556H31.9453ZM113.901 49.6162H159.234V52.9437H113.901V49.6162ZM114.639 50.3556V52.2042H158.496V50.3556H114.639ZM210.302 49.6162H255.784V52.9437H210.302V49.6162ZM211.041 50.3556V52.2042H255.046V50.3556H211.041Z" fill="#007BFB"/>
</svg>
