<svg width="600" height="127" viewBox="0 0 600 127" fill="none" xmlns="http://www.w3.org/2000/svg">
<path d="M231.63 104.675C227.212 104.675 223.491 108.396 223.491 112.814C223.491 117.233 227.212 120.954 231.63 120.954C236.049 120.954 239.77 117.233 239.77 112.814C239.77 108.396 236.049 104.675 231.63 104.675ZM231.63 126.535C224.189 126.535 218.142 120.489 218.142 113.047C218.142 105.605 224.189 99.5586 231.63 99.5586C239.072 99.5586 245.119 105.605 245.119 113.047C245.119 120.489 239.072 126.535 231.63 126.535Z" fill="#00557B"/>
<path d="M13.4884 104.675C9.06976 104.675 5.34883 108.396 5.34883 112.814C5.34883 117.233 9.06976 120.954 13.4884 120.954C17.907 120.954 21.6279 117.233 21.6279 112.814C21.6279 108.396 17.907 104.675 13.4884 104.675ZM13.4884 126.535C6.0465 126.535 0 120.489 0 113.047C0 105.605 6.0465 99.5586 13.4884 99.5586C20.9302 99.5586 26.9767 105.605 26.9767 113.047C26.9767 120.489 20.9302 126.535 13.4884 126.535Z" fill="#00557B"/>
<path d="M40.4647 74.675C36.0461 74.675 32.3252 78.3959 32.3252 82.8145C32.3252 87.2331 36.0461 90.9541 40.4647 90.9541C44.8833 90.9541 48.6042 87.2331 48.6042 82.8145C48.6042 78.3959 44.8833 74.675 40.4647 74.675ZM40.4647 96.3029C33.0228 96.3029 26.9763 90.2564 26.9763 82.8145C26.9763 75.3727 33.0228 69.3262 40.4647 69.3262C47.9066 69.3262 53.9531 75.3727 53.9531 82.8145C53.9531 90.2564 47.9066 96.3029 40.4647 96.3029Z" fill="#00557B"/>
<path d="M51.3913 124.907H37.6704V93.7441H43.0193V119.558H51.3913V124.907Z" fill="#00557B"/>
<path d="M40.4617 119.559H29.5315V124.907H40.4617V119.559Z" fill="#00557B"/>
<path d="M203.021 74.675C198.602 74.675 194.882 78.3959 194.882 82.8145C194.882 87.2331 198.602 90.9541 203.021 90.9541C207.44 90.9541 211.161 87.2331 211.161 82.8145C211.161 78.3959 207.44 74.675 203.021 74.675ZM203.021 96.3029C195.579 96.3029 189.533 90.2564 189.533 82.8145C189.533 75.3727 195.579 69.3262 203.021 69.3262C210.463 69.3262 216.509 75.3727 216.509 82.8145C216.509 90.2564 210.463 96.3029 203.021 96.3029Z" fill="#00557B"/>
<path d="M213.952 124.907H200.231V93.7441H205.58V119.558H213.952V124.907Z" fill="#00557B"/>
<path d="M203.023 119.559H192.092V124.907H203.023V119.559Z" fill="#00557B"/>
<path d="M454.189 74.675C449.77 74.675 446.049 78.3959 446.049 82.8145C446.049 87.2331 449.77 90.9541 454.189 90.9541C458.607 90.9541 462.328 87.2331 462.328 82.8145C462.328 78.3959 458.84 74.675 454.189 74.675ZM454.189 96.3029C446.747 96.3029 440.7 90.2564 440.7 82.8145C440.7 75.3727 446.747 69.3262 454.189 69.3262C461.63 69.3262 467.677 75.3727 467.677 82.8145C467.677 90.2564 461.63 96.3029 454.189 96.3029Z" fill="#00557B"/>
<path d="M465.112 124.907H451.623V93.7441H456.972V119.558H465.112V124.907Z" fill="#00557B"/>
<path d="M454.186 119.559H443.256V124.907H454.186V119.559Z" fill="#00557B"/>
<path d="M176.742 108.162H68.137V113.511H176.742V108.162Z" fill="#00557B"/>
<path d="M143.023 26.5352H137.674V102.814H143.023V26.5352Z" fill="#00557B"/>
<path d="M103.254 68.3965H68.835V73.7453H103.254V68.3965Z" fill="#00557B"/>
<path d="M149.997 68.3965H140.927V73.7453H149.997V68.3965Z" fill="#00557B"/>
<path d="M176.741 68.3965H166.973V73.7453H176.741V68.3965Z" fill="#00557B"/>
<path d="M117.438 62.5806H127.671V45.1387L125.345 43.7433H119.764L117.438 45.1387V62.5806ZM133.02 67.9294H112.09V42.1154L118.369 38.3945H126.741L133.02 42.1154V67.9294Z" fill="#00557B"/>
<path d="M117.438 108.163H127.671V84.9073H117.438V108.163ZM133.02 113.512H112.09V79.791H133.02V113.512Z" fill="#00557B"/>
<path d="M107.446 26.5352H102.097V102.814H107.446V26.5352Z" fill="#00557B"/>
<path d="M81.8613 68.1626H92.0938V55.837H81.8613V68.1626ZM97.4427 73.5114H76.5125V50.7207H97.4427V73.5114Z" fill="#00557B"/>
<path d="M153.256 97.2323H163.488V55.837H153.256V97.2323ZM168.837 102.581H147.907V50.7207H168.837V102.581Z" fill="#00557B"/>
<path d="M81.8615 97.2329H92.0941V84.9073H81.8615V97.2329ZM97.4429 102.582H76.5127V79.791H97.4429V102.582Z" fill="#00557B"/>
<path d="M146.977 124.908H66.0471V41.6523H71.3959V119.559H146.977V124.908Z" fill="#00557B"/>
<path d="M179.3 124.908H143.021V119.559H173.951V41.6523H179.3V124.908Z" fill="#00557B"/>
<path d="M125.345 36.5352H119.996V41.1863H125.345V36.5352Z" fill="#00557B"/>
<path d="M89.7639 48.8613H84.415V53.5125H89.7639V48.8613Z" fill="#00557B"/>
<path d="M89.7639 77.9297H84.415V82.5809H89.7639V77.9297Z" fill="#00557B"/>
<path d="M161.162 48.8613H155.813V53.5125H161.162V48.8613Z" fill="#00557B"/>
<path d="M136.508 85.837C129.066 78.3951 116.741 78.3951 109.299 85.837L105.578 82.116C115.113 72.5811 130.694 72.5811 140.229 82.116L136.508 85.837Z" fill="#00557B"/>
<path d="M171.159 6.07031H148.136V11.4192H171.159V6.07031Z" fill="#00557B"/>
<path d="M183.485 45.6053H166.973V40.2565H178.136V35.8379H183.485V45.6053Z" fill="#00557B"/>
<path d="M79.069 45.6053H63.0225V35.8379H68.3713V40.2565H79.069V45.6053Z" fill="#00557B"/>
<path d="M112.093 29.5583H91.6274V20.0234H96.9763V24.2095H112.093V29.5583Z" fill="#00557B"/>
<path d="M171.163 28.1623H165.814V19.5577H153.954V19.7903H148.605V14.4414H171.163V28.1623Z" fill="#00557B"/>
<path d="M153.951 29.3258H133.253V23.977H148.602V19.791H153.951V29.3258Z" fill="#00557B"/>
<path d="M59.3031 40.2562L56.9775 35.3724L123.257 3.04688L189.536 35.3724L187.21 40.2562L123.257 9.0934L59.3031 40.2562Z" fill="#00557B"/>
<path d="M70.234 44.4422L67.9084 39.7911L123.257 13.0469L178.141 39.7911L175.815 44.4422L123.257 19.0934L70.234 44.4422Z" fill="#00557B"/>
<path d="M563.719 108.163H573.952V84.9073H563.719V108.163ZM579.3 113.512H558.37V79.791H579.3V113.512Z" fill="#00557B"/>
<path d="M585.58 86.7673L569.068 79.7905L552.789 86.7673L550.696 81.8835L569.068 73.9766L587.673 81.8835L585.58 86.7673Z" fill="#00557B"/>
<path d="M587.205 108.162H478.6V113.511H587.205V108.162Z" fill="#00557B"/>
<path d="M553.486 26.5352H548.137V102.814H553.486V26.5352Z" fill="#00557B"/>
<path d="M513.721 68.3965H479.302V73.7453H513.721V68.3965Z" fill="#00557B"/>
<path d="M560.468 68.3965H551.398V73.7453H560.468V68.3965Z" fill="#00557B"/>
<path d="M587.203 68.3965H577.436V73.7453H587.203V68.3965Z" fill="#00557B"/>
<path d="M517.909 26.5352H512.56V102.814H517.909V26.5352Z" fill="#00557B"/>
<path d="M492.324 68.1626H502.557V55.837H492.324V68.1626ZM507.906 73.5114H486.976V50.7207H507.906V73.5114Z" fill="#00557B"/>
<path d="M563.719 68.3953H573.952V56.0697H563.719V68.3953ZM579.3 73.5115H558.37V50.4883H579.3V73.5115Z" fill="#00557B"/>
<path d="M492.325 97.2329H502.557V84.9073H492.325V97.2329ZM507.906 102.582H486.976V79.791H507.906V102.582Z" fill="#00557B"/>
<path d="M557.44 124.908H476.743V41.6523H481.859V119.559H557.44V124.908Z" fill="#00557B"/>
<path d="M589.767 124.908H553.488V119.559H584.419V41.6523H589.767V124.908Z" fill="#00557B"/>
<path d="M500.227 48.8613H494.878V53.5125H500.227V48.8613Z" fill="#00557B"/>
<path d="M500.227 77.9297H494.878V82.5809H500.227V77.9297Z" fill="#00557B"/>
<path d="M571.625 48.8613H566.276V53.5125H571.625V48.8613Z" fill="#00557B"/>
<path d="M524.651 68.3965H515.581V73.7453H524.651V68.3965Z" fill="#00557B"/>
<path d="M551.398 68.3965H541.631V73.7453H551.398V68.3965Z" fill="#00557B"/>
<path d="M527.677 97.2323H537.909V55.837H527.677V97.2323ZM543.258 102.581H522.328V50.7207H543.258V102.581Z" fill="#00557B"/>
<path d="M535.816 48.8613H530.467V53.5125H535.816V48.8613Z" fill="#00557B"/>
<path d="M507.44 6.07031H484.417V11.4192H507.44V6.07031Z" fill="#00557B"/>
<path d="M593.948 45.6053H577.436V40.2565H588.599V35.8379H593.948V45.6053Z" fill="#00557B"/>
<path d="M489.532 45.6053H473.486V35.8379H478.834V40.2565H489.532V45.6053Z" fill="#00557B"/>
<path d="M522.56 29.5583H502.095V20.0234H507.444V24.2095H522.56V29.5583Z" fill="#00557B"/>
<path d="M490.002 28.1623H484.653V14.4414H507.211V19.7903H501.862V19.5577H490.002V28.1623Z" fill="#00557B"/>
<path d="M564.418 29.3258H543.72V23.977H559.069V19.791H564.418V29.3258Z" fill="#00557B"/>
<path d="M469.766 40.2562L467.44 35.3724L533.72 3.04688L599.999 35.3724L597.673 40.2562L533.72 9.0934L469.766 40.2562Z" fill="#00557B"/>
<path d="M480.697 44.4422L478.371 39.7911L533.72 13.0469L588.604 39.7911L586.278 44.4422L533.72 19.0934L480.697 44.4422Z" fill="#00557B"/>
<path d="M533.019 33.2786C531.624 33.2786 530.228 34.4415 530.228 36.0694C530.228 37.4647 531.391 38.86 533.019 38.86C534.414 38.86 535.81 37.6973 535.81 36.0694C535.81 34.4415 534.647 33.2786 533.019 33.2786ZM533.019 43.9763C528.6 43.9763 524.879 40.2554 524.879 35.8368C524.879 31.4182 528.6 27.6973 533.019 27.6973C537.438 27.6973 541.158 31.4182 541.158 35.8368C541.158 40.2554 537.438 43.9763 533.019 43.9763Z" fill="#00557B"/>
<path d="M366.275 108.162H257.67V113.511H366.275V108.162Z" fill="#00557B"/>
<path d="M332.556 26.5352H327.207V75.8374H332.556V26.5352Z" fill="#00557B"/>
<path d="M296.975 78.1621H291.626V82.5808H296.975V78.1621Z" fill="#00557B"/>
<path d="M332.556 78.1621H327.207V82.5808H332.556V78.1621Z" fill="#00557B"/>
<path d="M296.975 101.652H291.626V106.071H296.975V101.652Z" fill="#00557B"/>
<path d="M332.556 101.652H327.207V106.071H332.556V101.652Z" fill="#00557B"/>
<path d="M296.975 84.4434H291.626V99.5596H296.975V84.4434Z" fill="#00557B"/>
<path d="M332.556 84.4434H327.207V99.5596H332.556V84.4434Z" fill="#00557B"/>
<path d="M330 68.3965H258.372V73.7453H330V68.3965Z" fill="#00557B"/>
<path d="M339.534 68.3965H330.464V73.7453H339.534V68.3965Z" fill="#00557B"/>
<path d="M366.278 68.3965H356.51V73.7453H366.278V68.3965Z" fill="#00557B"/>
<path d="M306.975 68.3959H317.208V44.675H306.975V68.3959ZM322.557 73.5122H301.626V39.3262H322.557V73.5122Z" fill="#00557B"/>
<path d="M306.975 108.163H317.208V84.9073H306.975V108.163ZM322.557 113.512H301.626V79.791H322.557V113.512Z" fill="#00557B"/>
<path d="M296.975 26.5352H291.626V75.8374H296.975V26.5352Z" fill="#00557B"/>
<path d="M271.398 68.1626H281.631V55.837H271.398V68.1626ZM286.98 73.5114H266.05V50.7207H286.98V73.5114Z" fill="#00557B"/>
<path d="M342.793 97.2323H353.025V55.837H342.793V97.2323ZM358.374 102.581H337.444V50.7207H358.374V102.581Z" fill="#00557B"/>
<path d="M271.399 97.2329H281.631V84.9073H271.399V97.2329ZM286.98 102.582H266.05V79.791H286.98V102.582Z" fill="#00557B"/>
<path d="M336.51 124.908H255.58V41.6523H260.929V119.559H336.51V124.908Z" fill="#00557B"/>
<path d="M368.837 124.908H332.558V119.559H363.489V41.6523H368.837V124.908Z" fill="#00557B"/>
<path d="M314.882 36.5352H309.533V41.1863H314.882V36.5352Z" fill="#00557B"/>
<path d="M279.297 48.8613H273.948V53.5125H279.297V48.8613Z" fill="#00557B"/>
<path d="M279.297 77.9297H273.948V82.5809H279.297V77.9297Z" fill="#00557B"/>
<path d="M350.699 48.8613H345.351V53.5125H350.699V48.8613Z" fill="#00557B"/>
<path d="M276.98 8.39648H256.98V13.7454H276.98V8.39648Z" fill="#00557B"/>
<path d="M373.022 45.6053H356.51V40.2565H367.673V35.8379H373.022V45.6053Z" fill="#00557B"/>
<path d="M268.602 45.6053H252.555V35.8379H257.904V40.2565H268.602V45.6053Z" fill="#00557B"/>
<path d="M301.63 29.5583H281.165V20.0234H286.513V24.2095H301.63V29.5583Z" fill="#00557B"/>
<path d="M262.557 30.4885H257.208V16.7676H277.441V24.2095H272.092V22.1165H262.557V30.4885Z" fill="#00557B"/>
<path d="M296.979 0.0234375H281.165V5.37225H296.979V0.0234375Z" fill="#00557B"/>
<path d="M286.273 20.0244H280.924V8.39648H296.97V16.0709H291.622V13.7454H286.273V20.0244Z" fill="#00557B"/>
<path d="M343.484 29.3258H322.786V23.977H338.135V19.791H343.484V29.3258Z" fill="#00557B"/>
<path d="M248.836 40.2562L246.51 35.3724L312.79 3.04688L379.069 35.3724L376.743 40.2562L312.79 9.0934L248.836 40.2562Z" fill="#00557B"/>
<path d="M259.767 44.4422L257.441 39.7911L312.79 13.0469L367.674 39.7911L365.348 44.4422L312.79 19.0934L259.767 44.4422Z" fill="#00557B"/>
<path d="M415.816 121.65H410.467V97.2316H378.839V121.65H373.49V91.8828H415.816V121.65Z" fill="#00557B"/>
<path d="M430.463 86.3022H366.045V80.9534H425.115V78.8604L365.347 65.8371L366.51 60.4883L430.463 74.6743V86.3022Z" fill="#00557B"/>
<path d="M368.602 119.325H421.16V86.3019H368.602V119.325ZM426.509 124.674H363.253V80.9531H426.509V124.674Z" fill="#00557B"/>
<path d="M330.464 56.0703H294.185V61.4192H330.464V56.0703Z" fill="#00557B"/>
</svg>
