<svg width="80" height="80" viewBox="0 0 80 80" fill="none" xmlns="http://www.w3.org/2000/svg">
<circle cx="40" cy="40" r="38.75" fill="#003852" stroke="#0099E0" stroke-width="2.5"/>
<path fill-rule="evenodd" clip-rule="evenodd" d="M37.7188 21.2024C37.4693 21.3343 37.2469 21.5492 37.0795 21.8198C36.861 22.1731 36.8228 22.3227 36.8228 22.8261C36.8228 23.3295 36.861 23.479 37.0795 23.8323C37.2469 24.103 37.4693 24.3178 37.7188 24.4497C38.0891 24.6457 38.1698 24.6522 40.2152 24.6522H42.3288V27.4348V30.2174H40.4663C38.1832 30.2174 37.8332 30.2803 37.3339 30.7803C36.8794 31.2355 36.7718 31.6602 36.7718 32.9991V33.9462L32.452 33.9763L28.1323 34.0063L27.3676 34.2433C24.8431 35.0259 23.0139 36.8583 22.2566 39.3634C22.0745 39.9655 22.0623 40.1876 22.032 43.4565L22 46.913H25.6957H29.3913V44.1304V41.3478H33.0815H36.7718V42.3755C36.7718 43.6754 36.906 44.1699 37.3739 44.5932C37.5613 44.7628 37.8639 44.943 38.0463 44.9937C38.2652 45.0546 40.3897 45.0862 44.2887 45.0864L50.1991 45.087L50.6706 44.8478C51.0645 44.648 51.1812 44.5311 51.3808 44.1366C51.6057 43.6917 51.6195 43.5975 51.6195 42.5044V41.3443L53.4647 41.3678L55.3098 41.3913L55.3332 43.2391L55.3567 45.087H57.1783H59V37.6522V30.2174H57.1766H55.3532V32.087V33.9565H53.4864H51.6195L51.619 32.8913C51.6185 31.6233 51.5353 31.2736 51.1265 30.8204C50.6452 30.2869 50.285 30.2174 48.0003 30.2174H46.0625V27.4348V24.6522L48.1681 24.6503C50.023 24.6486 50.3155 24.6293 50.6246 24.4887C51.9563 23.883 51.9563 21.7692 50.6246 21.1635C50.295 21.0135 49.9045 21.0037 44.1876 21.0019L38.1016 21L37.7188 21.2024ZM24.6993 49.833C23.5977 51.0543 22.8107 52.1278 22.3779 53C22.0723 53.6158 22.0543 53.6985 22.0543 54.4828C22.0543 55.2663 22.0726 55.3505 22.3778 55.9689C22.7733 56.7703 23.3509 57.3382 24.1622 57.723C24.7085 57.9823 24.8074 58 25.7029 58C26.6131 58 26.6888 57.9857 27.2512 57.7085C28.6127 57.0372 29.5073 55.5422 29.3663 54.1737C29.2538 53.0822 28.0703 51.249 26.3208 49.4565C25.9823 49.1097 25.6835 48.8261 25.6565 48.8261C25.6297 48.8261 25.199 49.2792 24.6993 49.833Z" fill="white"/>
<path d="M37.0809 21.8198C37.2483 21.5492 37.4707 21.3343 37.7202 21.2024L38.1029 21L44.189 21.0019C49.9059 21.0037 50.2963 21.0135 50.6259 21.1635C51.9576 21.7692 51.9576 23.883 50.6259 24.4887C50.3168 24.6293 50.0244 24.6486 48.1695 24.6503L46.0639 24.6522V27.4348V30.2174H42.3302V27.4348V24.6522H40.2165C38.1712 24.6522 38.0905 24.6457 37.7202 24.4497C37.4707 24.3178 37.2483 24.103 37.0809 23.8323C36.8623 23.479 36.8242 23.3295 36.8242 22.8261C36.8242 22.3227 36.8623 22.1731 37.0809 21.8198Z" fill="#ED1556"/>
</svg>
