<svg width="40" height="40" viewBox="0 0 40 40" fill="none" xmlns="http://www.w3.org/2000/svg">
<path d="M18.5773 22.484L18.5743 22.484C18.4181 22.3914 18.2707 22.2845 18.1341 22.1647L18.137 22.1676C18.102 22.1385 18.07 22.1079 18.0379 22.0773C17.9271 21.9738 17.8251 21.863 17.7332 21.7449L17.7289 21.7391C17.6983 21.6997 17.6749 21.6574 17.6458 21.6181C17.6166 21.5787 17.5671 21.5087 17.5321 21.4504L12 12L21.4227 17.5146L21.4257 17.5146C21.5822 17.6073 21.7296 17.7147 21.8659 17.8353L21.863 17.8324C21.898 17.8615 21.93 17.8921 21.9621 17.9213C22.0718 18.0244 22.1732 18.136 22.2653 18.2551L22.2697 18.2609C22.3003 18.3003 22.3251 18.3411 22.3528 18.3819C22.3805 18.4227 22.4315 18.4913 22.4665 18.5496L28 28L18.5773 22.484Z" fill="white"/>
<mask id="mask0_4767_101835" style="mask-type:alpha" maskUnits="userSpaceOnUse" x="12" y="12" width="16" height="16">
<path d="M18.5773 22.484L18.5743 22.484C18.4181 22.3914 18.2707 22.2845 18.1341 22.1647L18.137 22.1676C18.102 22.1385 18.07 22.1079 18.0379 22.0773C17.9271 21.9738 17.8251 21.863 17.7332 21.7449L17.7289 21.7391C17.6982 21.6997 17.6749 21.6574 17.6458 21.6181C17.6166 21.5787 17.5671 21.5087 17.5321 21.4504L12 12L21.4227 17.5146L21.4257 17.5146C21.5822 17.6073 21.7296 17.7147 21.8659 17.8353L21.863 17.8324C21.898 17.8615 21.93 17.8921 21.9621 17.9213C22.0718 18.0244 22.1732 18.136 22.2653 18.2551L22.2697 18.2609C22.3003 18.3003 22.3251 18.3411 22.3528 18.3819C22.3805 18.4227 22.4315 18.4913 22.4665 18.5496L28 28L18.5773 22.484Z" fill="white"/>
</mask>
<g mask="url(#mask0_4767_101835)">
<path d="M4 13.2588L13.6975 3.56132L25.1429 14.8581L15.4286 24.5724L4 13.2588Z" fill="#ED1556"/>
</g>
</svg>
