<svg width="52" height="52" viewBox="0 0 52 52" fill="none" xmlns="http://www.w3.org/2000/svg">
<path d="M13.2719 38.7279C6.24287 31.6989 6.24287 20.3011 13.2719 13.2721C20.3009 6.24308 31.6987 6.24308 38.7277 13.2721C45.7567 20.3011 45.7567 31.6989 38.7277 38.7279C31.6987 45.7569 20.3009 45.7569 13.2719 38.7279ZM15.4112 36.5886C21.2586 42.436 30.7399 42.437 36.5884 36.5886C42.4368 30.7401 42.4368 21.2599 36.5884 15.4114C30.7409 9.56401 21.2597 9.56295 15.4112 15.4114C9.5638 21.2588 9.56274 30.7401 15.4112 36.5886ZM23.2071 26.8241L23.2049 26.822C23.1586 26.6409 23.1291 26.4559 23.1169 26.2694V26.2737C23.1127 26.227 23.1116 26.1814 23.1106 26.1358C23.1052 25.9798 23.1116 25.825 23.1307 25.6723L23.1318 25.6648C23.1381 25.6139 23.1519 25.5662 23.1593 25.5163C23.1668 25.4665 23.1816 25.3795 23.1986 25.3116L26.0496 14.4102L28.8933 25.2788L28.8954 25.2809C28.9418 25.4623 28.9709 25.6476 28.9824 25.8345V25.8303C28.9866 25.877 28.9877 25.9226 28.9898 25.9671C28.9946 26.122 28.9872 26.277 28.9675 26.4306L28.9665 26.4381C28.9601 26.489 28.9484 26.5367 28.9389 26.5865C28.9293 26.6364 28.9166 26.7234 28.8996 26.7913L26.0496 37.6938L23.2071 26.8241Z" fill="white"/>
</svg>
