<svg width="80" height="80" viewBox="0 0 80 80" fill="none" xmlns="http://www.w3.org/2000/svg">
<circle cx="40" cy="40" r="38.75" fill="#003852" stroke="#0099E0" stroke-width="2.5"/>
<path fill-rule="evenodd" clip-rule="evenodd" d="M32.5214 34.2097C32.5542 35.4849 32.6001 35.9654 32.7411 36.5095C33.46 39.2835 35.57 41.4089 38.3059 42.1151C39.1654 42.3369 40.9964 42.312 41.875 42.0665C44.519 41.3276 46.5548 39.2265 47.2589 36.5095C47.3999 35.9654 47.4458 35.4849 47.4786 34.2097L47.5201 32.5977H40H32.4799L32.5214 34.2097ZM44.7917 43.6086C43.289 44.4766 41.9297 44.8328 40.0833 44.8423C38.2428 44.8519 36.8854 44.5266 35.4281 43.7269C35.0448 43.5166 34.7167 43.3445 34.6989 43.3445C34.6812 43.3445 34.6667 43.7238 34.6667 44.1875V45.0304L37.3279 46.7237C38.7916 47.655 40.013 48.417 40.042 48.417C40.0711 48.417 41.2923 47.6567 42.7558 46.7275L45.4167 45.0379V44.1483C45.4167 43.6589 45.4073 43.2614 45.3958 43.2651C45.3844 43.2687 45.1125 43.4233 44.7917 43.6086ZM29.9583 46.5571C28.7852 46.8697 27.7688 47.1915 27.5 47.3355C26.8436 47.687 25.8404 48.7552 25.5155 49.4487C24.9993 50.5502 25 50.5415 25 56.0042C25 60.8175 25.0053 60.987 25.1678 61.3154C25.2758 61.5339 25.4527 61.7165 25.6645 61.8279C25.9717 61.9896 26.1524 62.001 28.4133 62.001H30.8333V58.4296C30.8333 55.0927 30.8438 54.8372 30.9914 54.5385C31.1575 54.2026 31.6808 53.8334 31.9905 53.8334H32.1667V49.9215C32.1667 46.8455 32.1444 46.0112 32.0625 46.0169C32.0052 46.0209 31.0583 46.2639 29.9583 46.5571ZM47.9167 49.9215C47.9167 53.3864 47.9313 53.8334 48.045 53.8334C48.3414 53.8334 48.8355 54.1885 48.9989 54.5189C49.1591 54.8429 49.1667 55.0199 49.1667 58.4296V62.001H51.5867C53.8476 62.001 54.0283 61.9896 54.3355 61.8279C54.5473 61.7165 54.7243 61.5339 54.8323 61.3154C54.9947 60.987 55 60.8175 55 56.0042C55 50.5453 55 50.5451 54.4876 49.4589C54.1287 48.698 53.2372 47.7475 52.5192 47.3603C52.1224 47.1462 51.3778 46.9044 49.9738 46.5337C48.8822 46.2455 47.9728 46.0097 47.9529 46.0097C47.933 46.0097 47.9167 47.77 47.9167 49.9215ZM34.6667 50.9433V53.8334H40.0417H45.4167V50.9433V48.0533L45.2292 48.1783C45.126 48.2471 44.0118 48.9576 42.753 49.7572C40.5867 51.1334 40.4418 51.2112 40.0447 51.2112C39.6475 51.2112 39.5022 51.1332 37.3333 49.7563C36.0729 48.956 34.9573 48.2456 34.8542 48.1774L34.6667 48.0533V50.9433Z" fill="white"/>
<path fill-rule="evenodd" clip-rule="evenodd" d="M39.3974 18.1583C38.8177 18.4741 38.7507 18.7456 38.7507 20.7752C38.7507 22.8224 38.8162 23.081 39.4152 23.3963C39.8317 23.6155 40.1697 23.6155 40.5862 23.3963C41.1851 23.081 41.2507 22.8224 41.2507 20.7752C41.2507 19.1716 41.2349 18.9741 41.0829 18.6666C40.7754 18.0447 40.0227 17.8177 39.3974 18.1583ZM35.4226 20.1907C33.1996 21.5998 31.7066 23.9844 31.3291 26.7289L31.2315 27.4382H30.9044C30.202 27.4382 29.584 28.0418 29.584 28.7278C29.584 29.1544 29.8787 29.6497 30.2485 29.8444C30.5723 30.0148 30.7208 30.0174 40.0007 30.0174C49.2805 30.0174 49.429 30.0148 49.7528 29.8444C50.1226 29.6497 50.4173 29.1544 50.4173 28.7278C50.4173 28.0418 49.7993 27.4382 49.0969 27.4382H48.7698L48.6722 26.7289C48.2952 23.9879 46.8056 21.6107 44.5753 20.1907L43.7923 19.6922L43.7422 21.3944C43.6887 23.2104 43.6615 23.363 43.2465 24.1662C42.7387 25.149 41.7249 25.8785 40.5868 26.0799C38.7769 26.4001 37.0185 25.257 36.3939 23.3544C36.3473 23.2126 36.2867 22.3305 36.2591 21.3944L36.209 19.6922L35.4226 20.1907ZM33.334 59.2058V62H40.0007H46.6673V59.2058V56.4117H40.0007H33.334V59.2058Z" fill="#ED1556"/>
</svg>
