<svg width="48" height="48" viewBox="0 0 48 48" fill="none" xmlns="http://www.w3.org/2000/svg">
<path fill-rule="evenodd" clip-rule="evenodd" d="M16.5 40.3333V42.6667H15.25H14V43.8333V45H24H34V43.8333V42.6667H32.75H31.5V40.3333V38H24H16.5V40.3333Z" fill="#ED1556"/>
<path fill-rule="evenodd" clip-rule="evenodd" d="M11.3132 4.83673V6.67347H8.15657H5L5.029 11.6327L5.05799 16.5918L5.28585 17.4063C5.56364 18.3988 6.19065 19.6676 6.76883 20.4072C7.98906 21.9679 9.76159 23.1339 11.6151 23.5951L12.3402 23.7755L12.7016 24.4732C13.7196 26.4393 15.2811 28.1287 17.1859 29.3254C17.8644 29.7517 19.3017 30.4333 19.8653 30.5961L20.2225 30.6993V32.8496V35H24.0047H27.787V32.8517V30.7033L28.232 30.567C28.4767 30.4921 29.0346 30.2622 29.4717 30.0561C31.9733 28.8765 34.0628 26.8777 35.3079 24.4732L35.6693 23.7755L36.4139 23.5931C39.1888 22.9131 41.598 20.7064 42.5394 17.9824C42.9571 16.7742 42.999 16.158 42.9995 11.2245L43 6.67347H39.8481H36.6963V4.83673V3H24.0047H11.3132V4.83673ZM40.4756 12.4082C40.4724 15.9557 40.4288 16.4464 40.0252 17.4791C39.6022 18.5616 38.8811 19.496 37.9364 20.1857C37.4149 20.5664 36.6252 20.9989 36.5625 20.9381C36.5444 20.9205 36.5685 20.413 36.6162 19.8102C36.6637 19.2074 36.6918 17.1163 36.6784 15.1633L36.6542 11.6122H24.0047H11.3553L11.331 15.1633C11.3177 17.1163 11.3458 19.2074 11.3933 19.8102C11.441 20.413 11.464 20.9216 11.4445 20.9405C11.3748 21.0082 10.4105 20.4553 9.90439 20.0577C8.67592 19.0922 7.87467 17.7201 7.61849 16.1429C7.57024 15.8462 7.532 14.1817 7.53166 12.3673L7.53099 9.12245H24.0047H40.4785L40.4756 12.4082ZM25.6386 14.3052C28.0829 14.9384 29.7123 16.6411 30.1888 19.06C30.7297 21.8054 29.3209 24.53 26.7362 25.7374C25.7877 26.1805 25.1979 26.3025 24.0047 26.3025C22.7768 26.3025 22.1999 26.1775 21.1869 25.6918C18.2359 24.2767 16.9605 20.9936 18.1598 17.8992C18.9031 15.9811 20.6073 14.6243 22.786 14.2158C23.5101 14.0801 24.9427 14.125 25.6386 14.3052Z" fill="white"/>
<path fill-rule="evenodd" clip-rule="evenodd" d="M22.9538 16.6618C22.0766 16.9435 21.1751 17.6257 20.7507 18.329C20.1008 19.4062 20.0638 20.8378 20.6567 21.9666C20.8711 22.3748 21.5102 23.0437 21.9363 23.3059C23.042 23.9865 24.605 24.039 25.8306 23.4367C26.342 23.1854 27.0953 22.4557 27.3563 21.9588C27.9414 20.8448 27.9023 19.3965 27.2582 18.329C26.9383 17.7988 26.1784 17.1477 25.5391 16.8561C25.0369 16.6269 24.8736 16.5943 24.1305 16.5753C23.6008 16.5618 23.1657 16.5937 22.9538 16.6618Z" fill="#ED1556"/>
</svg>
