<svg width="75" height="75" viewBox="0 0 75 75" fill="none" xmlns="http://www.w3.org/2000/svg">
<circle cx="37.5" cy="37.5" r="37.5" fill="white"/>
<path d="M53 45.334H37V60.0007C45.8235 60.0007 53 53.4222 53 45.334Z" fill="#7B307A"/>
<path d="M53 45.334C44.1765 45.334 37 51.9124 37 60.0007C45.8235 60.0007 53 53.4222 53 45.334Z" fill="#5F1F5C"/>
<path d="M37 60.0007V45.334H21C21 53.4222 28.1765 60.0007 37 60.0007Z" fill="#3E2C66"/>
<path d="M21 45.334C21 53.4222 28.1765 60.0007 37 60.0007C37 51.9124 29.8235 45.334 21 45.334Z" fill="#371E53"/>
<path d="M37 30.666V45.3327H53C53 37.2444 45.8235 30.666 37 30.666Z" fill="#AD316D"/>
<path d="M21 45.3327H37V30.666C28.1765 30.666 21 37.2444 21 45.3327Z" fill="#CE428E"/>
<path d="M37 30.666C37 38.7542 44.1765 45.3327 53 45.3327C53 37.2444 45.8235 30.666 37 30.666Z" fill="#9E1D55"/>
<path d="M37 30.666C28.1765 30.666 21 37.2444 21 45.3327C29.8235 45.3327 37 38.7542 37 30.666Z" fill="#C12279"/>
<path d="M37 30.6667C37 22.5784 29.8235 16 21 16V45.3333C21 37.2451 28.1765 30.6667 37 30.6667Z" fill="#326D39"/>
<path d="M21 16V30.6667H37C37 22.5784 29.8235 16 21 16Z" fill="#61AC4C"/>
<path d="M21 16C21 24.0882 28.1765 30.6667 37 30.6667C37 22.5784 29.8235 16 21 16Z" fill="#BBDA86"/>
</svg>
