<svg width="80" height="80" viewBox="0 0 80 80" fill="none" xmlns="http://www.w3.org/2000/svg">
<circle cx="40" cy="40" r="38.75" fill="#003852" stroke="#0099E0" stroke-width="2.5"/>
<path fill-rule="evenodd" clip-rule="evenodd" d="M24.6405 30.8632C24.4531 30.9608 24.2697 31.1468 24.1689 31.3416C24.006 31.6562 24.0039 31.8003 24.0039 42.4221C24.0039 53.0482 24.006 53.1878 24.169 53.5029C24.2753 53.7084 24.4496 53.8802 24.658 53.985C24.9773 54.1455 25.1212 54.1478 35.0781 54.1478C45.035 54.1478 45.1789 54.1455 45.4982 53.985C45.7066 53.8802 45.8808 53.7084 45.9872 53.5029C46.1502 53.1878 46.1523 53.0482 46.1523 42.4221C46.1523 31.796 46.1502 31.6564 45.9872 31.3412C45.8808 31.1358 45.7066 30.964 45.4982 30.8592C45.1788 30.6986 45.0388 30.6965 35.0609 30.7C25.1535 30.7034 24.941 30.7068 24.6405 30.8632ZM43.6914 36.7614V40.4004H42.4609H41.2304V38.4564C41.2304 36.6676 41.2172 36.4869 41.0653 36.1932C40.7717 35.626 40.4955 35.5484 38.7695 35.5484C37.0435 35.5484 36.7673 35.626 36.4737 36.1932C36.2645 36.5974 36.2645 36.9254 36.4737 37.3296C36.7236 37.8124 37.1142 37.9744 38.0279 37.9744H38.7695V39.1874V40.4004H37.6178C36.6254 40.4004 36.4213 40.423 36.1424 40.5632C35.7784 40.7463 35.4882 41.2122 35.4882 41.6134C35.4882 42.0147 35.7784 42.4805 36.1424 42.6636C36.4523 42.8195 36.6199 42.8264 40.0787 42.8264H43.6914V47.2741V51.7218H41.6406H39.5898V50.5864C39.5898 49.2451 39.4815 48.9244 38.9357 48.6499C38.5257 48.4437 38.193 48.4437 37.783 48.6499C37.2372 48.9244 37.1289 49.2451 37.1289 50.5864V51.7218H31.7969H26.4648V47.2741V42.8264H28.5156H30.5664V44.3661C30.5664 45.7497 30.5831 45.9382 30.7315 46.2249C31.0251 46.7922 31.3013 46.8698 33.0273 46.8698C34.7533 46.8698 35.0295 46.7922 35.3231 46.2249C35.5323 45.8208 35.5323 45.4928 35.3231 45.0886C35.0733 44.6058 34.6826 44.4438 33.7689 44.4438H33.0273V40.8824C33.0273 37.4727 33.0203 37.3074 32.8622 37.0019C32.6765 36.6431 32.2039 36.3571 31.7969 36.3571C31.3898 36.3571 30.9172 36.6431 30.7315 37.0019C30.5831 37.2887 30.5664 37.4772 30.5664 38.8607V40.4004H28.5156H26.4648V36.7614V33.1224H35.0781H43.6914V36.7614Z" fill="#ED1556"/>
<path fill-rule="evenodd" clip-rule="evenodd" d="M54.0272 21.0451C52.6924 21.2436 51.3989 21.8964 50.4294 22.8607C49.7548 23.5318 49.0418 24.7896 48.8932 25.5707L48.841 25.8446H34.4094C20.1076 25.8446 19.9749 25.8461 19.6541 26.0074C19.4457 26.1122 19.2714 26.284 19.1651 26.4895C19.0013 26.8061 19 26.9334 19 42.4223C19 57.9112 19.0013 58.0386 19.1651 58.3552C19.2714 58.5606 19.4457 58.7324 19.6541 58.8372C19.9756 58.9989 20.1002 59 37.7032 59C53.5935 59 55.4941 58.9867 56.0608 58.8713C58.4755 58.3796 60.3705 56.5114 60.8693 54.131C60.9857 53.5757 60.9999 52.0375 60.9999 39.9963C60.9999 25.2354 61.0201 25.8976 60.5333 24.7573C59.9126 23.3036 58.5385 21.9654 57.0942 21.4082C56.2253 21.0729 54.8973 20.9158 54.0272 21.0451ZM55.6023 23.5088C57.0074 23.8001 58.1436 24.9207 58.4459 26.3136C58.5126 26.6208 58.539 29.7647 58.539 37.4164V48.0908L58.1816 47.8484C57.2168 47.194 56.2126 46.9175 54.8065 46.9188C53.8199 46.9199 53.6819 46.9395 52.9608 47.1825C52.5322 47.327 51.9509 47.5873 51.6689 47.7611L51.1562 48.0772V37.4096C51.1562 29.8771 51.1831 26.6162 51.2476 26.3136C51.397 25.6134 51.7213 25.0332 52.2577 24.5064C53.1687 23.6117 54.3701 23.2533 55.6023 23.5088ZM48.6952 40.7274C48.6952 53.0522 48.697 53.1874 48.8604 53.5032C49.0461 53.862 49.5187 54.148 49.9257 54.148C50.565 54.148 51.1562 53.5493 51.1562 52.9018C51.1562 51.9965 51.5678 51.0581 52.2599 50.3852C53.7384 48.9478 55.9856 48.9463 57.4351 50.3819C58.604 51.5394 58.8526 53.1878 58.0776 54.6416C57.5849 55.5659 56.6458 56.2646 55.6023 56.483C55.2883 56.5488 50.4883 56.574 38.3143 56.574H21.4609V42.4223V28.2706H35.0781H48.6952V40.7274Z" fill="white"/>
</svg>
