<svg width="42" height="45" viewBox="0 0 42 45" fill="none" xmlns="http://www.w3.org/2000/svg">
<path fill-rule="evenodd" clip-rule="evenodd" d="M20.3891 10.9596C20.3891 4.90723 25.2273 0 31.1945 0C37.1618 0 42 4.90723 42 10.9596C42 16.114 38.478 20.4172 33.7527 21.6088V38.6102H39.9764V43.8769H22.4127V38.6102H28.5982V21.6079C23.9087 20.4149 20.3891 16.112 20.3891 10.9596ZM31.1945 1.1618C25.8599 1.1618 21.5345 5.54887 21.5345 10.9596C21.5345 15.7096 24.8859 19.661 29.2859 20.5755L29.7436 20.6707V39.7719H23.5582V42.7152H38.8309V39.7719H32.6073V20.6699L33.0659 20.5753C37.5045 19.6603 40.8545 15.7085 40.8545 10.9596C40.8545 5.54887 36.5291 1.1618 31.1945 1.1618ZM31.1945 5.30551C28.1127 5.30551 25.5818 7.87246 25.5818 10.9983C25.5818 14.1241 28.1127 16.6911 31.1945 16.6911C34.2764 16.6911 36.8073 14.1241 36.8073 10.9983C36.8073 7.87012 34.3123 5.30551 31.1945 5.30551ZM24.4364 10.9983C24.4364 7.23082 27.4801 4.14372 31.1945 4.14372C34.9495 4.14372 37.9527 7.23315 37.9527 10.9983C37.9527 14.7657 34.909 17.8528 31.1945 17.8528C27.4801 17.8528 24.4364 14.7657 24.4364 10.9983ZM0 34.0405C0 27.9881 4.83824 23.0809 10.8055 23.0809C16.7727 23.0809 21.6109 27.9881 21.6109 34.0405C21.6109 40.0928 16.7727 45 10.8055 45C4.83824 45 0 40.0928 0 34.0405ZM10.8055 24.2427C5.47085 24.2427 1.14545 28.6298 1.14545 34.0405C1.14545 39.4511 5.47085 43.8382 10.8055 43.8382C16.1401 43.8382 20.4655 39.4511 20.4655 34.0405C20.4655 28.6298 16.1401 24.2427 10.8055 24.2427ZM10.8055 28.3477C7.72358 28.3477 5.19273 30.9146 5.19273 34.0405C5.19273 37.1663 7.72358 39.7332 10.8055 39.7332C13.8873 39.7332 16.4182 37.1663 16.4182 34.0405C16.4182 30.9123 13.9232 28.3477 10.8055 28.3477ZM4.04727 34.0405C4.04727 30.273 7.09096 27.1859 10.8055 27.1859C14.5604 27.1859 17.5636 30.2753 17.5636 34.0405C17.5636 37.8079 14.5199 40.895 10.8055 40.895C7.09096 40.895 4.04727 37.8079 4.04727 34.0405Z" fill="#00557B"/>
</svg>
