<svg width="48" height="48" viewBox="0 0 48 48" fill="none" xmlns="http://www.w3.org/2000/svg">
<path fill-rule="evenodd" clip-rule="evenodd" d="M22.758 1.36447C22.1146 2.13053 20.7516 3.68943 19.7293 4.82876C16.7456 8.15411 14.9881 10.1564 14.0083 11.3465C8.38244 18.1797 6.31247 23.0294 6.71573 28.4313C7.04704 32.8685 8.5488 36.6605 11.3952 40.2467C12.2779 41.3588 14.3942 43.4144 15.6714 44.4003C17.4093 45.7415 19.3958 47.016 20.391 47.428C20.784 47.5906 20.7687 47.5664 19.9327 46.7004C16.4725 43.116 14.3634 38.957 13.7863 34.5803C13.6076 33.2242 13.5855 30.9008 13.7415 29.858C14.3754 25.6207 16.8504 21.3114 20.9901 17.2374C22.5414 15.7107 22.9961 15.439 23.9988 15.439C24.9944 15.439 25.4633 15.7158 26.9591 17.1861C30.2588 20.4299 32.4227 23.6616 33.5439 27.02C34.1399 28.8057 34.2728 29.5439 34.3347 31.4143C34.4481 34.8442 33.8486 37.5728 32.2829 40.752C31.1645 43.0229 29.9169 44.7825 28.0672 46.6976L27.2047 47.5906L27.8072 47.3258C29.2141 46.7071 31.9252 44.8305 33.7611 43.2044C37.5228 39.8728 40.0055 35.7049 40.9101 31.2028C42.3783 23.896 40.166 18.3469 32.1236 9.16502C31.3162 8.24304 29.6193 6.33319 28.3527 4.92092C27.0862 3.50855 25.609 1.83011 25.0701 1.19097C24.5311 0.551827 24.0536 0.0160607 24.009 0.000296941C23.9644 -0.0154668 23.4014 0.598411 22.758 1.36447Z" fill="white"/>
<path fill-rule="evenodd" clip-rule="evenodd" d="M21.9166 18.7983C21.0186 19.7015 19.9877 20.8189 19.6257 21.2816C17.5088 23.9874 16.1665 26.6562 15.5933 29.2988C15.3082 30.6129 15.336 33.7009 15.6465 35.2341C16.5774 39.8297 19.31 44.1942 23.2681 47.4068L23.9981 47.9994L24.7315 47.4068C25.7161 46.6114 27.2733 45.0487 28.1086 44.0179C30.252 41.3728 31.7237 38.3233 32.3511 35.2274C32.6603 33.7011 32.6874 30.6099 32.403 29.2988C31.8322 26.6669 30.4789 23.9764 28.3706 21.2816C28.0086 20.8189 26.9777 19.7015 26.0797 18.7983C24.4598 17.1692 24.4434 17.1562 23.9981 17.1562C23.5529 17.1562 23.5364 17.1692 21.9166 18.7983Z" fill="#ED1556"/>
</svg>
