<svg width="48" height="48" viewBox="0 0 48 48" fill="none" xmlns="http://www.w3.org/2000/svg">
<rect x="16" y="20" width="16" height="19" fill="#ED1556"/>
<path fill-rule="evenodd" clip-rule="evenodd" d="M26.6524 2.33746C25.0996 3.04113 23.894 3.89596 22.6275 5.1914C20.3017 7.57017 19.2139 10.1487 19.0244 13.732C18.9515 15.1116 18.8727 15.4289 18.4886 15.8903C18.0159 16.4582 17.0161 16.6802 16.2987 16.3765C16.1113 16.2973 15.4512 15.7022 14.602 14.8474C13.8374 14.0777 13.1983 13.4646 13.1816 13.4849C12.9753 13.7357 10.003 17.9709 9.66998 18.4883C7.29509 22.1793 6.44727 26.8899 7.35766 31.337C8.56648 37.2423 12.8464 42.1398 18.4908 44.0766C26.5904 46.8559 35.3757 43.187 39.2281 35.4163C40.7318 32.3834 41.3539 28.4943 40.8007 25.586C40.4492 23.7384 39.4834 21.4619 38.2799 19.6444C37.6124 18.6364 37.3299 18.2802 35.418 16.0368C31.7441 11.7259 28.816 6.74998 27.7736 3.04609C27.6149 2.48231 27.4751 2.01185 27.463 2.00059C27.4508 1.98932 27.086 2.1409 26.6524 2.33746ZM21.1063 23.4681C21.5927 23.6846 22.1173 24.1601 22.3903 24.6319C23.1197 25.8927 22.9327 27.8409 21.9906 28.7953C20.7786 30.023 18.4273 29.904 17.4202 28.5638C16.9475 27.9347 16.8181 27.4663 16.8186 26.3846C16.819 25.5485 16.8413 25.4115 17.0513 24.9554C17.4106 24.1753 17.931 23.6838 18.7077 23.391C19.2886 23.172 20.5307 23.2119 21.1063 23.4681ZM29.2251 23.4333C29.2251 23.4733 21.9079 34.3391 21.6186 34.7286L21.4157 35.0018H20.0832C19.0071 35.0018 18.7588 34.9803 18.7932 34.8898C18.8165 34.8281 20.5616 32.2178 22.6711 29.0889L26.5066 23.4001H27.8659C28.6134 23.4001 29.2251 23.4151 29.2251 23.4333ZM19.5013 25.0845C19.074 25.3371 18.9493 27.0765 19.3221 27.5846C19.5333 27.8723 19.9977 27.9408 20.1926 27.7129C20.6303 27.2006 20.6187 25.6108 20.1739 25.1601C20.0006 24.9846 19.7231 24.9534 19.5013 25.0845ZM29.4955 28.9331C30.077 29.1959 30.6568 29.7868 30.9352 30.4003C31.1508 30.8756 31.1732 31.0106 31.1742 31.8492C31.1751 32.56 31.138 32.8759 31.014 33.2144C30.5186 34.5671 29.2101 35.2946 27.6661 35.0757C26.0128 34.8412 25.0616 33.5066 25.1799 31.5873C25.2629 30.2391 25.9571 29.2708 27.1569 28.83C27.6855 28.6358 28.962 28.692 29.4955 28.9331ZM27.8197 30.6247C27.3748 31.0753 27.3632 32.6652 27.801 33.1774C27.9958 33.4053 28.4602 33.3369 28.6715 33.0491C28.9126 32.7205 28.971 31.5335 28.772 31.0056C28.5656 30.4583 28.1486 30.2915 27.8197 30.6247Z" fill="white"/>
</svg>
