<svg width="48" height="48" viewBox="0 0 48 48" fill="none" xmlns="http://www.w3.org/2000/svg">
<path fill-rule="evenodd" clip-rule="evenodd" d="M12.9258 29.0002V30.2309H24H35.0742V29.0002V27.7695H24H12.9258V29.0002ZM12.9258 33.923V35.1537H24H35.0742V33.923V32.6923H24H12.9258V33.923ZM12.9258 38.8458V40.0765H24H35.0742V38.8458V37.6151H24H12.9258V38.8458ZM12.9258 43.7686V44.9993H24H35.0742V43.7686V42.5379H24H12.9258V43.7686Z" fill="#ED1556"/>
<path fill-rule="evenodd" clip-rule="evenodd" d="M23.4668 3.13078C23.3314 3.20339 18.7433 6.06797 13.2708 9.49653C4.26156 15.1408 3.30565 15.7599 3.16045 16.0447C3.0187 16.3225 3 16.5323 3 17.8426C3 19.1674 3.01764 19.3606 3.16513 19.6497C3.415 20.1395 3.80563 20.304 4.71937 20.304H5.46094V31.4213V42.5386H4.71937C4.1381 42.5386 3.90792 42.5743 3.65412 42.7038C3.29014 42.8895 3 43.3622 3 43.7693C3 44.1764 3.29014 44.6491 3.65412 44.8348C3.96239 44.9921 4.13252 45 7.22133 45H10.4648V35.6434C10.4648 26.6184 10.4703 26.2761 10.6205 25.9818C10.7118 25.8027 10.9113 25.6007 11.1033 25.4928L11.4305 25.3088H23.9939C36.4234 25.3088 36.5608 25.3105 36.881 25.474C37.0895 25.5803 37.2637 25.7546 37.37 25.963C37.5327 26.282 37.5352 26.4279 37.5352 35.6434V45H40.7787C43.8675 45 44.0376 44.9921 44.3459 44.8348C44.7099 44.6491 45 44.1764 45 43.7693C45 43.3622 44.7099 42.8895 44.3459 42.7038C44.0921 42.5743 43.8619 42.5386 43.2806 42.5386H42.5391V31.4213V20.304H43.2806C44.1944 20.304 44.585 20.1395 44.8349 19.6497C44.9827 19.3598 44.9998 19.169 44.9987 17.8253C44.9974 16.423 44.9853 16.3039 44.8141 16.0079C44.6529 15.7294 43.4278 14.9375 34.6594 9.44402C29.175 6.00815 24.5868 3.15088 24.4631 3.09451C24.1599 2.95635 23.765 2.9707 23.4668 3.13078ZM14.7326 18.0077C15.0966 18.1935 15.3867 18.6661 15.3867 19.0733C15.3867 19.4804 15.0966 19.953 14.7326 20.1388C14.4434 20.2864 14.2503 20.304 12.9197 20.304C11.529 20.304 11.4089 20.2918 11.1033 20.12C10.2777 19.656 10.2694 18.5329 11.0877 18.0374C11.3936 17.8522 11.4765 17.8434 12.9086 17.843C14.2508 17.8426 14.4429 17.86 14.7326 18.0077ZM22.1154 18.0077C22.4794 18.1935 22.7695 18.6661 22.7695 19.0733C22.7695 19.4804 22.4794 19.953 22.1154 20.1388C21.8262 20.2864 21.6332 20.304 20.3025 20.304C18.9118 20.304 18.7918 20.2918 18.4861 20.12C17.6605 19.656 17.6522 18.5329 18.4705 18.0374C18.7764 17.8522 18.8593 17.8434 20.2914 17.843C21.6336 17.8426 21.8258 17.86 22.1154 18.0077ZM29.4982 18.0077C29.8622 18.1935 30.1523 18.6661 30.1523 19.0733C30.1523 19.4804 29.8622 19.953 29.4982 20.1388C29.209 20.2864 29.016 20.304 27.6853 20.304C26.2946 20.304 26.1746 20.2918 25.8689 20.12C25.0434 19.656 25.035 18.5329 25.8533 18.0374C26.1592 17.8522 26.2421 17.8434 27.6742 17.843C29.0165 17.8426 29.2086 17.86 29.4982 18.0077ZM36.881 18.0077C37.245 18.1935 37.5352 18.6661 37.5352 19.0733C37.5352 19.4804 37.245 19.953 36.881 20.1388C36.5918 20.2864 36.3988 20.304 35.0681 20.304C33.6774 20.304 33.5574 20.2918 33.2517 20.12C32.4262 19.656 32.4178 18.5329 33.2361 18.0374C33.542 17.8522 33.6249 17.8434 35.057 17.843C36.3993 17.8426 36.5914 17.86 36.881 18.0077Z" fill="white"/>
</svg>
