<svg width="48" height="48" viewBox="0 0 48 48" fill="none" xmlns="http://www.w3.org/2000/svg">
<path fill-rule="evenodd" clip-rule="evenodd" d="M18.969 22.3126C18.8358 22.3889 18.6603 22.5537 18.5788 22.6789C18.4329 22.9031 18.431 23.0202 18.4496 30.6349L18.4684 38.3634L18.725 38.6123C18.8661 38.7492 19.1 38.8922 19.2448 38.9299C19.5984 39.0223 28.4024 39.0223 28.756 38.9299C28.9008 38.8922 29.1347 38.7492 29.2758 38.6123L29.5324 38.3634L29.5512 30.6349C29.5698 23.0202 29.5679 22.9031 29.422 22.6789C29.3405 22.5537 29.165 22.3889 29.0318 22.3126C28.797 22.1779 28.6488 22.1738 24.0004 22.1738C19.352 22.1738 19.2038 22.1779 18.969 22.3126Z" fill="white"/>
<path fill-rule="evenodd" clip-rule="evenodd" d="M17.0071 9.04631C16.7298 9.12598 16.5033 9.28586 16.3421 9.51577C16.2169 9.69423 16.2047 9.88106 16.2043 11.6234C16.2038 13.4594 16.2101 13.5448 16.3638 13.7785C16.4566 13.9198 16.6513 14.0764 16.8279 14.1518C17.1173 14.2753 17.4628 14.2816 24.0005 14.2816C30.5382 14.2816 30.8837 14.2753 31.1732 14.1518C31.3497 14.0764 31.5444 13.9198 31.6373 13.7785C31.7908 13.5449 31.7973 13.4587 31.7973 11.6341C31.7973 9.51179 31.7873 9.46438 31.2775 9.1657L31.0176 9.01343L24.1119 9.00128C20.3138 8.99458 17.1166 9.01483 17.0071 9.04631ZM21.2293 15.8664C21.2015 15.8925 21.1788 16.961 21.1788 18.2411V20.5683H24.0015H26.8242L26.8046 18.212L26.7851 15.8556L24.0324 15.8373C22.5183 15.8272 21.257 15.8403 21.2293 15.8664ZM5.5035 23.3799C4.9561 23.7237 4.9881 23.2542 5.00934 30.6345C5.02835 37.2314 5.02872 37.245 5.18473 37.4417C5.27064 37.5501 5.45442 37.7016 5.59313 37.7784C5.82822 37.9087 5.97873 37.9181 7.82612 37.9181C9.71977 37.9181 9.8163 37.9117 10.0166 37.772C10.132 37.6917 10.3015 37.5221 10.3933 37.3951L10.5604 37.1643L10.5601 30.5594C10.5599 24.0919 10.5568 23.9497 10.4123 23.7269C10.3311 23.6018 10.1559 23.437 10.0227 23.3607C9.79699 23.2312 9.64544 23.2219 7.76828 23.2217C5.79941 23.2214 5.75033 23.2248 5.5035 23.3799ZM37.9783 23.3607C37.8452 23.437 37.6699 23.6018 37.5888 23.7269C37.4443 23.9497 37.4412 24.0919 37.4409 30.5594L37.4406 37.1643L37.6077 37.3951C37.6996 37.5221 37.8691 37.6917 37.9844 37.772C38.1847 37.9117 38.2813 37.9181 40.1749 37.9181C42.0223 37.9181 42.1728 37.9087 42.4079 37.7784C42.5466 37.7016 42.7304 37.5501 42.8163 37.4417C42.9723 37.245 42.9727 37.2311 42.9921 30.6345C43.0107 24.3001 43.0057 24.0141 42.8731 23.7799C42.797 23.6455 42.6246 23.4649 42.49 23.3785C42.251 23.2251 42.198 23.2214 40.2328 23.2217C38.3556 23.2219 38.204 23.2312 37.9783 23.3607ZM12.2683 30.5523V36.3472H14.4959H16.7236V30.5523V24.7574H14.4959H12.2683V30.5523ZM31.2775 30.5523V36.3472H33.5051H35.7328V30.5523V24.7574H33.5051H31.2775V30.5523Z" fill="#ED1556"/>
</svg>
