<svg width="40" height="33" viewBox="0 0 40 33" fill="none" xmlns="http://www.w3.org/2000/svg">
<path fill-rule="evenodd" clip-rule="evenodd" d="M12.8026 0.272059C12.5171 0.357032 12.284 0.527574 12.1181 0.772812C11.9892 0.963164 11.9767 1.16245 11.9762 3.02091C11.9757 4.97932 11.9822 5.0704 12.1404 5.31973C12.2359 5.47047 12.4363 5.63743 12.6181 5.71786C12.916 5.84968 13.2716 5.85638 20.0004 5.85638C26.7293 5.85638 27.0849 5.84968 27.3828 5.71786C27.5645 5.63743 27.7649 5.47047 27.8605 5.31973C28.0185 5.07055 28.0252 4.97865 28.0252 3.03238C28.0252 0.768567 28.0149 0.718 27.4902 0.399407L27.2227 0.236982L20.1151 0.224024C16.2059 0.216875 12.9152 0.238472 12.8026 0.272059ZM17.1481 7.54683C17.1196 7.57461 17.0962 8.71442 17.0962 10.0798V12.5622H20.0014H22.9067L22.8865 10.0487L22.8664 7.53529L20.0332 7.51578C18.4749 7.50506 17.1766 7.51898 17.1481 7.54683ZM14.8219 14.4236C14.6848 14.505 14.5042 14.6808 14.4203 14.8143C14.2702 15.0534 14.2682 15.1783 14.2873 23.3008L14.3067 31.5444L14.5708 31.8099C14.716 31.956 14.9568 32.1085 15.1058 32.1488C15.4697 32.2473 24.5311 32.2473 24.8951 32.1488C25.0441 32.1085 25.2848 31.956 25.43 31.8099L25.6942 31.5444L25.7136 23.3008C25.7327 15.1783 25.7307 15.0534 25.5805 14.8143C25.4967 14.6808 25.316 14.505 25.179 14.4236C24.9372 14.28 24.7848 14.2756 20.0004 14.2756C15.2161 14.2756 15.0636 14.28 14.8219 14.4236ZM0.962562 15.5612C0.39915 15.928 0.43209 15.4271 0.453948 23.2994C0.473513 30.3361 0.473895 30.3507 0.634466 30.5605C0.722891 30.6761 0.912045 30.8377 1.05481 30.9197C1.29677 31.0586 1.45169 31.0686 3.35309 31.0686C5.30211 31.0686 5.40146 31.0618 5.60766 30.9128C5.72635 30.8271 5.90083 30.6462 5.99537 30.5108L6.16733 30.2646L6.16702 23.2194C6.16679 16.3207 6.16358 16.169 6.01485 15.9314C5.93132 15.7979 5.75096 15.6221 5.61392 15.5407C5.38159 15.4026 5.2256 15.3927 3.29355 15.3924C1.26712 15.3921 1.2166 15.3958 0.962562 15.5612ZM34.3869 15.5407C34.2499 15.6221 34.0695 15.7979 33.986 15.9314C33.8373 16.169 33.8341 16.3207 33.8338 23.2194L33.8335 30.2646L34.0055 30.5108C34.1001 30.6462 34.2745 30.8271 34.3932 30.9128C34.5994 31.0618 34.6987 31.0686 36.6478 31.0686C38.5492 31.0686 38.7041 31.0586 38.946 30.9197C39.0888 30.8377 39.278 30.6761 39.3664 30.5605C39.527 30.3507 39.5273 30.3358 39.5473 23.2994C39.5665 16.5427 39.5614 16.2377 39.4249 15.9879C39.3465 15.8446 39.1691 15.6519 39.0306 15.5597C38.7846 15.3961 38.73 15.3921 36.7073 15.3924C34.7752 15.3927 34.6193 15.4026 34.3869 15.5407ZM7.92512 23.2118V29.393H10.2179H12.5107V23.2118V17.0305H10.2179H7.92512V23.2118ZM27.4902 23.2118V29.393H29.783H32.0757V23.2118V17.0305H29.783H27.4902V23.2118Z" fill="white"/>
</svg>
