<svg width="48" height="48" viewBox="0 0 48 48" fill="none" xmlns="http://www.w3.org/2000/svg">
<path fill-rule="evenodd" clip-rule="evenodd" d="M18.7451 13.5804C17.894 13.7685 16.9449 14.1759 16.2059 14.6702C15.7704 14.9615 14.0885 16.5709 10.6386 19.9972L5.69531 24.9068L13.1428 32.2793C17.8134 36.9028 20.7763 39.7711 21.0889 39.9719C23.3229 41.4059 26.2594 41.3343 28.3891 39.7936C28.6675 39.5921 28.9976 39.4517 29.3782 39.3727C30.9161 39.0535 32.2685 37.8709 32.842 36.344C33.0614 35.7601 33.0798 35.739 33.507 35.59C34.4756 35.2519 35.2205 34.7265 35.8296 33.9516L36.1311 33.5678L32.447 29.9119C30.4208 27.9012 28.7391 26.256 28.7101 26.256C28.681 26.256 28.3249 26.4776 27.9188 26.7486C26.6395 27.6019 25.4018 28.0807 23.8854 28.3089C20.7986 28.7732 17.8102 27.8401 15.5733 25.7134C15.0113 25.1791 14.801 24.9063 14.5731 24.4158C14.0697 23.3323 14.108 22.0278 14.6763 20.8973C14.7857 20.6796 16.1731 19.2323 18.3242 17.0917C20.7445 14.6833 21.7613 13.6164 21.6825 13.5681C21.4564 13.4295 19.3886 13.4381 18.7451 13.5804ZM27.4062 13.5307C26.421 13.736 25.5273 14.1007 24.6762 14.6447C24.1415 14.9865 17.1828 21.7973 16.9813 22.1762C16.7889 22.5377 16.8227 23.1302 17.0552 23.4724C17.5724 24.2337 19.1458 25.193 20.5025 25.5741C21.4267 25.8337 23.2696 25.8528 24.1488 25.6119C25.581 25.2195 26.5844 24.6225 27.8346 23.4189C28.3055 22.9656 28.7264 22.5946 28.77 22.5946C28.8136 22.5946 30.7374 24.4676 33.0452 26.7569L37.2412 30.9192L40.2728 27.9124L43.3044 24.9056L38.3618 19.9947C35.6433 17.2938 33.2016 14.9354 32.9358 14.7539C31.6305 13.8626 30.5698 13.5248 28.9378 13.4805C28.3096 13.4635 27.6203 13.486 27.4062 13.5307Z" fill="white"/>
<path fill-rule="evenodd" clip-rule="evenodd" d="M11.1417 11.1424C10.7045 11.4293 2.3402 19.7711 2.17562 20.0846C1.8108 20.7793 1.97449 21.1898 3.04578 22.2679L3.80417 23.0311L8.72628 18.1637C11.4334 15.4867 13.7852 13.1872 13.9524 13.0537L14.2566 12.8109L13.4086 11.9925C12.9421 11.5423 12.4567 11.1349 12.3298 11.087C11.9799 10.955 11.3851 10.9828 11.1417 11.1424ZM36.3973 11.2519C36.2089 11.3905 35.7606 11.8008 35.4014 12.1638L34.748 12.8237L35.0059 13.0153C35.1478 13.1207 37.4985 15.4174 40.2298 18.119L45.1958 23.0311L45.9542 22.2679C47.0255 21.1898 47.1892 20.7793 46.8244 20.0846C46.6598 19.7711 38.2956 11.4293 37.8583 11.1424C37.7283 11.0572 37.4604 11 37.1906 11C36.8314 11 36.6705 11.0511 36.3973 11.2519Z" fill="#ED1556"/>
</svg>
