<svg width="48" height="48" viewBox="0 0 48 48" fill="none" xmlns="http://www.w3.org/2000/svg">
<rect x="15" y="15" width="19" height="19" fill="#ED1556"/>
<path fill-rule="evenodd" clip-rule="evenodd" d="M14.568 7.10214C10.8856 7.64779 7.77002 9.91274 6.15496 13.2184C4.93341 15.7185 4.67921 18.5708 5.40015 21.6878C6.113 24.7698 7.82988 27.5527 11.1802 31.0566C12.5562 32.4958 15.996 35.6296 21.0466 40.0454C23.3029 42.018 23.2756 42 23.9993 42C24.6976 42 24.7335 41.9784 26.3114 40.6087C31.3867 36.203 35.8132 32.0047 37.7882 29.7234C42.0924 24.752 43.6669 20.3361 42.7471 15.8157C42.1423 12.8436 40.1226 10.0391 37.478 8.49924C33.4868 6.17516 28.1436 6.60211 24.4679 9.53873L24.0069 9.90708L23.3876 9.4327C22.1224 8.46345 20.3443 7.62468 18.8381 7.28653C17.511 6.98858 15.8256 6.9158 14.568 7.10214ZM26.3015 18.6988V21.0103H28.6036H30.9058V23.3591V25.7078H28.6036H26.3015V28.0193V30.3308H23.9993H21.6972V28.0193V25.7078H19.395H17.0929V23.3591V21.0103H19.395H21.6972V18.6988V16.3873H23.9993H26.3015V18.6988Z" fill="white"/>
</svg>
