<svg width="80" height="80" viewBox="0 0 80 80" fill="none" xmlns="http://www.w3.org/2000/svg">
<circle cx="40" cy="40" r="38.75" fill="#003852" stroke="#0099E0" stroke-width="2.5"/>
<rect x="21" y="21" width="17.4167" height="6.33333" rx="1" fill="#ED1556"/>
<rect x="21" y="36.834" width="17.4167" height="6.33333" rx="1" fill="white"/>
<rect x="21" y="52.666" width="17.4167" height="6.33333" rx="1" fill="white"/>
<rect x="31.291" y="28.916" width="17.4167" height="6.33333" rx="1" fill="#ED1556"/>
<path d="M21 29.916C21 29.3637 21.4477 28.916 22 28.916H27.125C27.6773 28.916 28.125 29.3637 28.125 29.916V34.2493C28.125 34.8016 27.6773 35.2493 27.125 35.2493H22C21.4477 35.2493 21 34.8016 21 34.2493V29.916Z" fill="white"/>
<path d="M51.875 29.916C51.875 29.3637 52.3227 28.916 52.875 28.916H58C58.5523 28.916 59 29.3637 59 29.916V34.2493C59 34.8016 58.5523 35.2493 58 35.2493H52.875C52.3227 35.2493 51.875 34.8016 51.875 34.2493V29.916Z" fill="white"/>
<rect x="31.291" y="44.75" width="17.4167" height="6.33333" rx="1" fill="white"/>
<path d="M21 45.75C21 45.1977 21.4477 44.75 22 44.75H27.125C27.6773 44.75 28.125 45.1977 28.125 45.75V50.0833C28.125 50.6356 27.6773 51.0833 27.125 51.0833H22C21.4477 51.0833 21 50.6356 21 50.0833V45.75Z" fill="#ED1556"/>
<path d="M51.875 45.75C51.875 45.1977 52.3227 44.75 52.875 44.75H58C58.5523 44.75 59 45.1977 59 45.75V50.0833C59 50.6356 58.5523 51.0833 58 51.0833H52.875C52.3227 51.0833 51.875 50.6356 51.875 50.0833V45.75Z" fill="#ED1556"/>
<rect x="41.584" y="21" width="17.4167" height="6.33333" rx="1" fill="white"/>
<rect x="41.584" y="36.834" width="17.4167" height="6.33333" rx="1" fill="#ED1556"/>
<rect x="41.584" y="52.666" width="17.4167" height="6.33333" rx="1" fill="#ED1556"/>
</svg>
