<svg width="64" height="36" viewBox="0 0 64 36" fill="none" xmlns="http://www.w3.org/2000/svg">
<path d="M2.95181 0.000772981C1.98795 -0.0547764 0.843373 2.88934 0 7C1.68675 7 3.31325 7 5 7C5 6.11121 4.93976 4.83357 4.51807 3.27819C4.15663 1.88945 3.61446 0.0563224 2.95181 0.000772981Z" fill="#3200F0"/>
<path d="M61.9518 0.000772981C60.988 -0.0547764 59.8434 2.88934 59 7C60.6867 7 62.3133 7 64 7C64 6.11121 63.9398 4.83357 63.5181 3.27819C63.1566 1.88945 62.6145 0.0563224 61.9518 0.000772981Z" fill="#3200F0"/>
<path d="M62 0C61.9552 0 61.8657 0 61.8209 0C61.7762 0 61.6866 0 61.6419 0H3.40288C3.31335 0 3.26859 0 3.22382 0C3.13429 0 3.08953 0 3 0C3.26859 0.494382 3.44765 0.898876 3.53718 1.16854C4.34294 3.19101 4.522 4.89888 4.522 5.70787C4.522 6.06742 4.522 6.42697 4.522 6.74157V25.7079L32.5 36L60.478 25.7079C60.478 13.0787 60.478 19.3708 60.478 6.74157C60.478 6.38202 60.478 6.02247 60.478 5.70787C60.478 4.89888 60.6571 3.19101 61.4628 1.16854C61.5971 0.898876 61.7762 0.494382 62 0Z" fill="url(#paint0_linear_1252_47499)"/>
<defs>
<linearGradient id="paint0_linear_1252_47499" x1="32.5139" y1="-7.27915" x2="32.5139" y2="26.7003" gradientUnits="userSpaceOnUse">
<stop stop-color="#268EFB"/>
<stop offset="1" stop-color="#0034FB"/>
</linearGradient>
</defs>
</svg>
