<svg width="125" height="70" viewBox="0 0 125 70" fill="none" xmlns="http://www.w3.org/2000/svg">
<path d="M6.1496 0.00177577C4.14157 -0.125838 1.75703 6.63768 0 16.0811C3.51406 16.0811 6.90261 16.0811 10.4167 16.0811C10.4167 14.0393 10.2912 11.1042 9.41265 7.53097C8.65964 4.34064 7.53012 0.129389 6.1496 0.00177577Z" fill="#A60838"/>
<path d="M120.733 0.00177577C118.725 -0.125838 116.34 6.63768 114.583 16.0811C118.097 16.0811 121.486 16.0811 125 16.0811C125 14.0393 124.874 11.1042 123.996 7.53097C123.243 4.34064 122.113 0.129389 120.733 0.00177577Z" fill="#A60838"/>
<path d="M120.69 0C120.602 0 120.428 0 120.341 0C120.254 0 120.079 0 119.992 0H6.53196C6.35754 0 6.27033 0 6.18312 0C6.0087 0 5.92149 0 5.74707 0C6.27033 0.961298 6.61917 1.74782 6.79359 2.27216C8.36336 6.20474 8.7122 9.52559 8.7122 11.0986C8.7122 11.7978 8.7122 12.4969 8.7122 13.1086V49.9875L63.2183 70L117.724 49.9875C117.724 25.4307 117.724 37.6654 117.724 13.1086C117.724 12.4095 117.724 11.7104 117.724 11.0986C117.724 9.52559 118.073 6.20474 119.643 2.27216C119.905 1.74782 120.254 0.961298 120.69 0Z" fill="url(#paint0_linear_3717_27411)"/>
<defs>
<linearGradient id="paint0_linear_3717_27411" x1="63.1974" y1="-14.1483" x2="63.1974" y2="51.8966" gradientUnits="userSpaceOnUse">
<stop stop-color="#FE497F"/>
<stop offset="0.515625" stop-color="#ED1556"/>
<stop offset="1" stop-color="#D10945"/>
<stop offset="1" stop-color="#D10945"/>
</linearGradient>
</defs>
</svg>
