<svg width="125" height="70" viewBox="0 0 125 70" fill="none" xmlns="http://www.w3.org/2000/svg">
<path d="M6.1496 0.00177577C4.14157 -0.125838 1.75703 6.63768 0 16.0811C3.51406 16.0811 6.90261 16.0811 10.4167 16.0811C10.4167 14.0393 10.2912 11.1042 9.41265 7.53097C8.65964 4.34064 7.53012 0.129389 6.1496 0.00177577Z" fill="#003852"/>
<path d="M120.736 0.00177577C118.728 -0.125838 116.343 6.63768 114.586 16.0811C118.1 16.0811 121.489 16.0811 125.003 16.0811C125.003 14.0393 124.877 11.1042 123.999 7.53097C123.246 4.34064 122.116 0.129389 120.736 0.00177577Z" fill="#003852"/>
<path d="M120.693 0C120.605 0 120.431 0 120.344 0C120.256 0 120.082 0 119.995 0H6.53489C6.36047 0 6.27326 0 6.18605 0C6.01163 0 5.92442 0 5.75 0C6.27326 0.961298 6.6221 1.74782 6.79652 2.27216C8.36629 6.20474 8.71513 9.52559 8.71513 11.0986C8.71513 11.7978 8.71513 12.4969 8.71513 13.1086V49.9875L63.2213 70L117.727 49.9875C117.727 25.4307 117.727 37.6654 117.727 13.1086C117.727 12.4095 117.727 11.7104 117.727 11.0986C117.727 9.52559 118.076 6.20474 119.646 2.27216C119.908 1.74782 120.256 0.961298 120.693 0Z" fill="#00557B"/>
</svg>
