<svg width="87" height="49" viewBox="0 0 87 49" fill="none" xmlns="http://www.w3.org/2000/svg">
<path d="M4.13253 0.00121468C2.78313 -0.0860773 1.18072 4.5404 0 11C2.36145 11 4.63855 11 7 11C7 9.60333 6.91566 7.59561 6.3253 5.15144C5.81928 2.96914 5.06024 0.0885066 4.13253 0.00121468Z" fill="#003852"/>
<path d="M84.1325 0.00121468C82.7831 -0.0860773 81.1807 4.5404 80 11C82.3614 11 84.6386 11 87 11C87 9.60333 86.9157 7.59561 86.3253 5.15144C85.8193 2.96914 85.0602 0.0885066 84.1325 0.00121468Z" fill="#003852"/>
<path d="M84 0C83.9393 0 83.8179 0 83.7572 0C83.6965 0 83.5751 0 83.5144 0H4.54628C4.42489 0 4.36419 0 4.30349 0C4.18209 0 4.1214 0 4 0C4.36419 0.672909 4.60698 1.22347 4.72838 1.59051C5.82094 4.34332 6.06373 6.66792 6.06373 7.76904C6.06373 8.25843 6.06373 8.74782 6.06373 9.17603V34.9913L44 49L81.9363 34.9913C81.9363 17.8015 81.9363 26.3658 81.9363 9.17603C81.9363 8.68664 81.9363 8.19725 81.9363 7.76904C81.9363 6.66792 82.1791 4.34332 83.2716 1.59051C83.4537 1.22347 83.6965 0.672909 84 0Z" fill="#00557B"/>
</svg>

