<svg width="80" height="80" viewBox="0 0 80 80" fill="none" xmlns="http://www.w3.org/2000/svg">
<circle cx="40" cy="40" r="38.75" fill="#003852" stroke="#0099E0" stroke-width="2.5"/>
<path fill-rule="evenodd" clip-rule="evenodd" d="M31.7523 56.1114C31.0728 56.2764 30.5541 56.5735 30.0272 57.0994C29.2143 57.9108 28.9258 58.719 28.9258 60.1846V61.0008H39.9992H51.0725V60.1846C51.0725 58.7196 50.7842 57.9116 49.9711 57.0985C49.4288 56.5562 48.7913 56.2064 48.1095 56.077C47.4512 55.9522 32.2763 55.9841 31.7523 56.1114Z" fill="#ED1556"/>
<path fill-rule="evenodd" clip-rule="evenodd" d="M38.7679 21.6045L38.7676 24.209L38.2962 24.4532C37.6943 24.7649 37.0682 25.3911 36.7565 25.993L36.5123 26.4644L28.9865 26.4647L21.4607 26.4648V27.6953V28.9258H22.9782C23.8128 28.9258 24.4957 28.948 24.4957 28.9752C24.4957 29.0024 23.2591 32.0479 21.7478 35.7429C19.9209 40.2097 19 42.5585 19 42.7516C19 42.9114 19.0587 43.3265 19.1306 43.6742C19.6279 46.0824 21.5307 47.9853 23.9387 48.4827C24.8228 48.6654 27.936 48.6665 28.8168 48.4846C30.0457 48.2307 31.0738 47.6722 31.9535 46.7806C33.0073 45.7126 33.5807 44.5028 33.7288 43.0352L33.7825 42.502L31.0177 35.7754C29.4971 32.0758 28.2359 29.0211 28.215 28.9873C28.1942 28.9534 30.0525 28.9259 32.3447 28.9259L36.5123 28.9262L36.7565 29.3976C37.0682 29.9996 37.6943 30.6257 38.2962 30.9374L38.7676 31.1816L38.7679 39.964L38.768 48.7463L38.344 48.855C36.7551 49.2622 35.0283 50.7505 34.378 52.2731C34.2124 52.6611 34.0127 53.2927 34.0115 53.4326C34.0107 53.5137 35.2624 53.5352 39.9984 53.5352C44.7344 53.5352 45.9861 53.5137 45.9853 53.4326C45.982 53.0506 45.5611 52.0627 45.114 51.3877C44.3524 50.238 42.899 49.1744 41.6528 48.855L41.2288 48.7463L41.2289 39.964L41.2292 31.1816L41.7006 30.9374C42.3025 30.6257 42.9286 29.9996 43.2403 29.3976L43.4845 28.9262L47.6062 28.9259C49.8731 28.9259 51.728 28.948 51.728 28.9752C51.728 29.0024 50.4914 32.0479 48.9801 35.7429C47.1532 40.2097 46.2323 42.5585 46.2323 42.7516C46.2323 43.2059 46.4727 44.2571 46.7004 44.7987C47.3145 46.2587 48.5872 47.5306 50.0509 48.1467C50.9423 48.522 51.64 48.6133 53.6145 48.6133C56.0661 48.6133 56.8255 48.4532 58.0849 47.6711C59.7202 46.6554 60.8068 44.8837 60.9552 42.9906L61 42.4199L58.2254 35.6934L55.4508 28.9668L56.9934 28.9445L58.536 28.9223V27.6935V26.4648L51.0103 26.4647L43.4845 26.4644L43.2403 25.993C42.9286 25.3911 42.3025 24.7649 41.7006 24.4532L41.2292 24.209L41.2289 21.6045L41.2288 19H39.9984H38.768L38.7679 21.6045ZM28.4926 35.9609C29.6307 38.7013 30.585 41.008 30.6135 41.0869C30.6622 41.2224 30.4262 41.2305 26.3822 41.2305C22.3383 41.2305 22.1023 41.2224 22.151 41.0869C22.3493 40.5356 26.3498 30.9785 26.3822 30.9785C26.4048 30.9785 27.3544 33.2206 28.4926 35.9609ZM55.7249 35.9609C56.863 38.7013 57.8173 41.008 57.8458 41.0869C57.8945 41.2224 57.6585 41.2305 53.6145 41.2305C49.5706 41.2305 49.3346 41.2224 49.3833 41.0869C49.5816 40.5356 53.5821 30.9785 53.6145 30.9785C53.6371 30.9785 54.5867 33.2206 55.7249 35.9609Z" fill="white"/>
</svg>
