<svg width="40" height="31" viewBox="0 0 40 31" fill="none" xmlns="http://www.w3.org/2000/svg">
<path fill-rule="evenodd" clip-rule="evenodd" d="M18.5094 0.142458C17.8638 0.334181 17.4875 0.549977 16.9899 1.01382C16.4987 1.47159 16.1089 2.10059 15.9014 2.76987C15.7663 3.20566 15.7593 3.6685 15.7593 12.1483V21.0684L15.9338 21.5833C16.3568 22.8311 17.2246 23.7016 18.433 24.0905L18.9678 24.2625H27.6765C36.0141 24.2625 36.4031 24.2562 36.8053 24.1154C37.4822 23.8784 37.9026 23.6343 38.3416 23.2233C38.8663 22.7322 39.2278 22.118 39.4109 21.4065C39.5486 20.872 39.5555 20.4286 39.5555 12.1116C39.5555 4.62805 39.5392 3.31411 39.4417 2.93245C39.0803 1.5174 38.0628 0.479785 36.6752 0.111218C36.3003 0.0116564 35.0168 -0.00400231 27.6031 0.000749867C19.6192 0.00589157 18.9332 0.0165645 18.5094 0.142458ZM3.91867 1.13068C3.59118 1.30487 3.42602 1.47385 3.26109 1.80338C3.13267 2.05992 3.1164 2.27681 3.1164 3.73152V5.37063L2.44797 5.3711C1.65158 5.37157 1.29498 5.46061 0.968943 5.74044C0.681785 5.98686 0.446726 6.47687 0.444358 6.83383C0.440997 7.34629 0.825631 7.96929 1.30209 8.22311L1.51217 8.33498L1.51347 10.2612C1.51507 12.5015 1.58115 12.9498 2.05623 13.9401C2.64056 15.1581 3.949 16.2749 5.16348 16.5924L5.54575 16.6923L5.58234 20.2047C5.62176 23.9855 5.64384 24.2212 6.06575 25.3711C6.81264 27.4065 8.54353 29.1165 10.5656 29.8164C11.7761 30.2355 11.3185 30.2222 24.4905 30.2222H36.6807L37.0154 30.0569C37.4894 29.8229 37.7466 29.3982 37.7819 28.7913C37.8064 28.3685 37.7835 28.2722 37.5835 27.9547C37.4337 27.7169 37.2433 27.5395 37.0191 27.4288L36.6807 27.2618L24.6157 27.2605C11.2318 27.2589 11.9796 27.2874 10.9134 26.7389C10.1715 26.3573 9.43831 25.6226 9.05696 24.8785C8.55002 23.8895 8.54024 23.7981 8.54024 20.0554V16.6991L8.90311 16.6006C10.1745 16.2554 11.454 15.172 12.045 13.9401C12.52 12.9498 12.5861 12.5015 12.5877 10.2612L12.589 8.33498L12.7991 8.22311C13.2756 7.96929 13.6585 7.34902 13.6585 6.83087C13.6585 6.438 13.3586 5.9102 12.985 5.6454C12.6766 5.42688 12.601 5.40982 11.82 5.38255L10.9848 5.35341V3.76245C10.9848 1.79248 10.9029 1.51888 10.2048 1.15553C9.5655 0.82272 8.7504 1.04109 8.33123 1.65755L8.12009 1.96799L8.09564 3.66927L8.0712 5.37063H7.04525H6.0193V3.78247C6.0193 2.19937 6.01862 2.19306 5.80816 1.78211C5.65025 1.47385 5.51244 1.32435 5.26142 1.18895C4.86311 0.974167 4.26213 0.948069 3.91867 1.13068ZM29.2425 4.94403C31.9919 5.61073 34.0375 7.70629 34.7159 10.5513C34.912 11.3733 34.895 12.9253 34.6803 13.8105C34.0345 16.4728 32.1099 18.4982 29.5099 19.2519C28.9909 19.4023 28.7144 19.4293 27.6765 19.4307C26.3445 19.4326 25.8427 19.3339 24.7328 18.8522C23.1592 18.1694 21.697 16.6609 21.0288 15.0308C20.5549 13.8749 20.4974 13.5571 20.5007 12.1094C20.5035 10.89 20.5204 10.7294 20.7143 10.0839C21.5326 7.36031 23.7381 5.35201 26.4472 4.86371C27.1885 4.7301 28.5178 4.76827 29.2425 4.94403ZM23.6593 10.0415C23.3128 10.1485 23.0542 10.3687 22.8415 10.7376C22.6452 11.0782 22.6346 11.1486 22.6346 12.1094C22.6346 13.2733 22.7274 13.5621 23.2334 13.9741C23.5233 14.21 23.5389 14.2131 24.553 14.2383C25.472 14.2613 25.6141 14.2467 25.9127 14.0993C26.1072 14.0032 26.3372 13.8007 26.4647 13.613C26.6719 13.3083 26.6848 13.2404 26.7106 12.3171C26.7411 11.2343 26.6734 10.8847 26.3599 10.5048C26.0124 10.0837 25.6544 9.96972 24.6972 9.97541C24.235 9.97814 23.7679 10.0079 23.6593 10.0415ZM29.6179 10.0415C29.2714 10.1485 29.0128 10.3687 28.8001 10.7376C28.6038 11.0782 28.5932 11.1486 28.5932 12.1094C28.5932 13.2733 28.686 13.5621 29.192 13.9741C29.4818 14.21 29.4975 14.2131 30.5115 14.2383C31.4306 14.2613 31.5727 14.2467 31.8713 14.0993C32.0656 14.0033 32.296 13.8005 32.4233 13.6133C32.631 13.308 32.6433 13.2429 32.6677 12.312C32.6962 11.2255 32.6299 10.8822 32.3184 10.5048C31.971 10.0837 31.613 9.96972 30.6558 9.97541C30.1936 9.97814 29.7265 10.0079 29.6179 10.0415Z" fill="white"/>
</svg>
