<svg width="48" height="48" viewBox="0 0 48 48" fill="none" xmlns="http://www.w3.org/2000/svg">
<path fill-rule="evenodd" clip-rule="evenodd" d="M6.73096 8.23415C6.37928 8.42435 6.20192 8.60886 6.02481 8.96868C5.88691 9.2488 5.86943 9.48562 5.86943 11.074V12.8638L5.15163 12.8643C4.29642 12.8648 3.91348 12.9621 3.56336 13.2676C3.25499 13.5367 3.00257 14.0717 3.00002 14.4615C2.99641 15.021 3.40946 15.7013 3.92111 15.9785L4.1467 16.1006L4.1481 18.2038C4.14982 20.65 4.22078 21.1396 4.73096 22.2209C5.35844 23.5508 6.76353 24.7703 8.06772 25.117L8.47822 25.226L8.51752 29.0613C8.55984 33.1896 8.58355 33.4469 9.03663 34.7025C9.83868 36.9251 11.6974 38.7922 13.8688 39.5565C15.1688 40.014 14.6774 39.9995 28.8223 39.9995H41.9129L42.2723 39.8191C42.7814 39.5635 43.0576 39.0998 43.0954 38.4371C43.1217 37.9755 43.0972 37.8703 42.8824 37.5236C42.7215 37.264 42.5171 37.0703 42.2763 36.9494L41.9129 36.767L28.9568 36.7656C14.5843 36.7639 15.3873 36.795 14.2423 36.1961C13.4457 35.7794 12.6583 34.9772 12.2488 34.1647C11.7044 33.0848 11.6939 32.985 11.6939 28.8983V25.2335L12.0836 25.1259C13.4489 24.749 14.8229 23.566 15.4575 22.2209C15.9677 21.1396 16.0386 20.65 16.0403 18.2038L16.0417 16.1006L16.2673 15.9785C16.7791 15.7013 17.1902 15.024 17.1902 14.4583C17.1902 14.0293 16.8682 13.453 16.4669 13.1638C16.1358 12.9252 16.0546 12.9066 15.2159 12.8768L14.319 12.845V11.1078C14.319 8.95677 14.2311 8.65802 13.4814 8.26128C12.7949 7.89788 11.9196 8.13632 11.4695 8.80944L11.2427 9.14842L11.2165 11.0061L11.1902 12.8638H10.0885H8.98675V11.1297C8.98675 9.40107 8.98602 9.39418 8.76001 8.94546C8.59044 8.60886 8.44245 8.44562 8.17289 8.29777C7.74516 8.06325 7.09979 8.03475 6.73096 8.23415Z" fill="white"/>
<path fill-rule="evenodd" clip-rule="evenodd" d="M22.3995 7.15555C21.7063 7.3649 21.3022 7.60053 20.7678 8.107C20.2403 8.60684 19.8217 9.29366 19.5989 10.0244C19.4538 10.5003 19.4463 11.0057 19.4463 20.2649V30.0048L19.6337 30.567C20.088 31.9295 21.0198 32.8801 22.3175 33.3047L22.8917 33.4925H32.2437C41.1972 33.4925 41.6149 33.4857 42.0469 33.3319C42.7737 33.0731 43.2251 32.8066 43.6966 32.3578C44.2601 31.8216 44.6483 31.1509 44.8449 30.374C44.9927 29.7904 45.0001 29.3062 45.0001 20.2247C45.0001 12.0534 44.9826 10.6187 44.878 10.202C44.4899 8.65686 43.3972 7.52388 41.9071 7.12144C41.5045 7.01273 40.1262 6.99563 32.165 7.00082C23.5913 7.00643 22.8546 7.01809 22.3995 7.15555ZM33.9254 12.3984C36.8779 13.1264 39.0746 15.4146 39.8031 18.5211C40.0136 19.4187 39.9954 21.1133 39.7648 22.0798C39.0714 24.9868 37.0046 27.1985 34.2125 28.0214C33.6552 28.1856 33.3583 28.2151 32.2437 28.2166C30.8133 28.2186 30.2745 28.1109 29.0826 27.585C27.3927 26.8394 25.8226 25.1923 25.105 23.4123C24.5961 22.1502 24.5344 21.8031 24.5379 20.2224C24.5409 18.8909 24.559 18.7155 24.7673 18.0107C25.6461 15.0368 28.0144 12.8439 30.9236 12.3107C31.7197 12.1649 33.1472 12.2065 33.9254 12.3984ZM27.9298 17.9644C27.5577 18.0813 27.28 18.3217 27.0516 18.7245C26.8408 19.0964 26.8294 19.1733 26.8294 20.2224C26.8294 21.4932 26.9291 21.8087 27.4725 22.2585C27.7837 22.5161 27.8005 22.5195 28.8895 22.547C29.8764 22.572 30.029 22.5561 30.3497 22.3952C30.5585 22.2903 30.8056 22.0691 30.9425 21.8642C31.1649 21.5315 31.1788 21.4573 31.2065 20.4492C31.2392 19.2669 31.1665 18.8851 30.8298 18.4703C30.4567 18.0105 30.0723 17.8861 29.0444 17.8923C28.548 17.8952 28.0465 17.9277 27.9298 17.9644ZM34.3285 17.9644C33.9564 18.0813 33.6787 18.3217 33.4504 18.7245C33.2395 19.0964 33.2281 19.1733 33.2281 20.2224C33.2281 21.4932 33.3278 21.8087 33.8712 22.2585C34.1824 22.5161 34.1992 22.5195 35.2882 22.547C36.2751 22.572 36.4277 22.5561 36.7484 22.3952C36.957 22.2904 37.2044 22.069 37.3412 21.8645C37.5642 21.5312 37.5774 21.4601 37.6036 20.4436C37.6342 19.2572 37.563 18.8824 37.2285 18.4703C36.8555 18.0105 36.471 17.8861 35.4431 17.8923C34.9467 17.8952 34.4452 17.9277 34.3285 17.9644Z" fill="#ED1556"/>
</svg>
