<svg width="26" height="24" viewBox="0 0 26 24" fill="none" xmlns="http://www.w3.org/2000/svg">
<path fill-rule="evenodd" clip-rule="evenodd" d="M13.2719 0.0854803C12.8156 0.203696 12.2339 0.493158 12.0663 0.685529L11.9407 0.829525V2.6802V4.53083L10.3868 7.78588C9.53215 9.57617 8.80095 11.0654 8.76191 11.0953C8.70184 11.1414 8.69092 12.0135 8.69092 16.7607V22.3716L9.03367 22.4998C9.50214 22.6751 10.0501 22.8164 10.5951 22.9026C10.9769 22.9629 11.9185 22.9749 16.3178 22.9751C19.9666 22.9752 21.6661 22.9586 21.8526 22.9211C22.4749 22.7958 23.2009 22.3084 23.5009 21.8144C23.8322 21.2685 23.9153 20.5303 23.7155 19.906C23.6136 19.5877 23.6128 19.5686 23.6983 19.521C24.6746 18.9777 25.1618 17.7349 24.7923 16.7305C24.7336 16.5711 24.6914 16.4379 24.6984 16.4346C24.8459 16.3655 25.1919 16.0977 25.3657 15.9184C26.169 15.0894 26.2106 13.7368 25.459 12.8811L25.3103 12.7118L25.4801 12.4837C26.5752 11.0125 25.8697 9.05827 24.0258 8.45533C23.6999 8.34878 23.6502 8.34721 20.1032 8.33167C18.1273 8.323 16.5107 8.30521 16.5107 8.29207C16.5107 8.27899 16.6021 7.9636 16.7139 7.5913C16.9569 6.78149 17.1907 5.73156 17.2751 5.07035C17.3502 4.48196 17.3123 3.50418 17.1989 3.10405C16.8401 1.83911 15.9325 0.696213 14.8886 0.194874C14.5528 0.0335771 14.4622 0.012012 14.0762 0.00152354C13.772 -0.00675941 13.5308 0.0183835 13.2719 0.0854803ZM2.10363 10.4987C1.13702 10.7248 0.311274 11.5203 0.0861254 12.4423C-0.0286323 12.9121 -0.0287338 21.5202 0.0859731 21.99C0.292435 22.8353 0.956252 23.558 1.81252 23.8698C2.10611 23.9767 2.17903 23.9804 4.24447 23.9943C6.26821 24.0079 6.39023 24.0037 6.70719 23.9086C6.89059 23.8535 7.15489 23.7478 7.29453 23.6735L7.54842 23.5385L7.56132 16.9834L7.57416 10.4283L4.97165 10.4325C3.05769 10.4355 2.29887 10.453 2.10363 10.4987Z" fill="#003852"/>
</svg>
