<svg width="139" height="35" viewBox="0 0 139 35" fill="none" xmlns="http://www.w3.org/2000/svg">
<path d="M47.6898 29.644H17.084V31.1715H47.6898V29.644Z" fill="#00557b"/>
<path d="M2.48597 9.33474C2.48597 9.44789 2.48597 9.50446 2.42939 9.6176C2.37282 9.73075 2.31626 9.78732 2.25968 9.84389C2.20311 9.90046 2.14654 10.0136 2.08997 10.0702C2.0334 10.1268 1.97681 10.1833 1.86367 10.2399C1.80709 10.2965 1.75052 10.353 1.63738 10.4096C1.58081 10.4662 1.46766 10.5228 1.41109 10.5793C1.35452 10.6359 1.29795 10.6925 1.24138 10.8056C1.18481 10.8622 1.12823 10.9754 1.12823 11.0319H2.48597V11.5411H0.5625V11.0885C0.5625 10.9754 0.562503 10.8622 0.619076 10.7491C0.675649 10.6359 0.732215 10.5228 0.788788 10.4662C0.84536 10.353 0.90193 10.2965 1.01508 10.2399C1.07165 10.1833 1.18481 10.0702 1.24138 10.0136C1.29795 9.95703 1.4111 9.90046 1.46767 9.84389C1.52424 9.78732 1.63738 9.73075 1.69396 9.67418C1.75053 9.61761 1.80709 9.56102 1.86367 9.50445C1.92024 9.44788 1.92024 9.39131 1.92024 9.33474C1.92024 9.27817 1.92024 9.22159 1.86367 9.22159C1.86367 9.16501 1.8071 9.16503 1.75053 9.10845C1.69396 9.05188 1.63738 9.05188 1.63738 9.05188C1.58081 9.05188 1.52424 9.05188 1.46767 9.05188C1.35452 9.05188 1.24138 9.05188 1.1848 9.10845C1.07166 9.16503 1.01509 9.22159 0.90194 9.27816L0.619076 8.82559C0.732222 8.71244 0.845357 8.65586 1.01508 8.59928C1.18479 8.54271 1.35453 8.54272 1.52424 8.54272C1.63739 8.54272 1.75052 8.54271 1.86367 8.59928C1.97681 8.65586 2.08996 8.65587 2.20311 8.76901C2.31625 8.82559 2.37282 8.93873 2.42939 9.05188C2.42939 9.05188 2.48597 9.16502 2.48597 9.33474Z" fill="#00557b"/>
<path d="M4.63502 9.3915C4.63502 9.33492 4.63502 9.27834 4.57845 9.22177C4.57845 9.16519 4.52187 9.10863 4.46529 9.10863C4.40872 9.05206 4.40873 9.05206 4.35216 9.05206C4.29559 9.05206 4.23901 9.05206 4.23901 9.05206C4.18243 9.05206 4.12585 9.05206 4.12585 9.05206C4.06928 9.05206 4.01272 9.10863 4.01272 9.10863C3.95615 9.16521 3.95614 9.16519 3.89957 9.22177C3.89957 9.27834 3.84299 9.33492 3.84299 9.3915V10.6361C3.84299 10.6927 3.84299 10.7492 3.89957 10.8058C3.89957 10.8624 3.95615 10.919 4.01272 10.919C4.06929 10.9755 4.06928 10.9755 4.12585 10.9755C4.18243 10.9755 4.23901 10.9755 4.23901 10.9755C4.29558 10.9755 4.35216 10.9755 4.35216 10.9755C4.40873 10.9755 4.46529 10.919 4.46529 10.919C4.52187 10.8624 4.52187 10.8624 4.57845 10.8058C4.57845 10.7492 4.63502 10.6927 4.63502 10.6361V9.3915ZM5.20075 10.8058C5.20075 10.919 5.14417 11.0887 5.0876 11.1452C5.03103 11.2584 4.97446 11.315 4.86131 11.4281C4.74816 11.5412 4.69159 11.5413 4.52187 11.5978C4.40872 11.6544 4.29558 11.6544 4.18243 11.6544C4.06928 11.6544 3.95614 11.6544 3.84299 11.5978C3.72984 11.5413 3.6167 11.5412 3.56013 11.4281C3.44698 11.3715 3.39041 11.2584 3.33384 11.1452C3.27727 11.0321 3.2207 10.919 3.2207 10.8058V9.33492C3.2207 9.22177 3.27727 9.05205 3.33384 8.99548C3.39041 8.88233 3.44698 8.82576 3.56013 8.71262C3.67327 8.65604 3.72985 8.59948 3.89957 8.5429C4.01271 8.48633 4.12586 8.48633 4.23901 8.48633C4.35215 8.48633 4.4653 8.48633 4.57845 8.5429C4.69159 8.59948 4.80474 8.65604 4.91789 8.71262C5.03103 8.76919 5.0876 8.88233 5.14417 8.99548C5.20075 9.10863 5.25731 9.22177 5.25731 9.33492V10.8058H5.20075Z" fill="#00557b"/>
<path d="M6.84887 11.5973V9.22128L6.566 9.50414L6.22656 9.10814L6.90544 8.48584H7.41459V11.5973H6.84887Z" fill="#00557b"/>
<path d="M10.6852 9.3345C10.6852 9.44764 10.6852 9.50421 10.6286 9.61736C10.572 9.73051 10.5155 9.78707 10.4589 9.84365C10.4023 9.90022 10.3458 10.0134 10.2892 10.0699C10.2326 10.1265 10.176 10.1831 10.0629 10.2397C10.0063 10.2962 9.94974 10.3528 9.8366 10.4094C9.78003 10.4659 9.66688 10.5225 9.61031 10.5791C9.55374 10.6357 9.49717 10.6922 9.4406 10.8054C9.38403 10.862 9.32745 10.9751 9.32745 11.0317H10.6852V11.5408H8.76172V11.0883C8.76172 10.9751 8.76172 10.862 8.81829 10.7488C8.87487 10.6357 8.93143 10.5225 8.98801 10.466C9.04458 10.3528 9.10115 10.2962 9.21429 10.2397C9.27087 10.1831 9.38403 10.0699 9.4406 10.0134C9.49717 9.95679 9.61031 9.90022 9.66689 9.84365C9.72346 9.78707 9.8366 9.73051 9.89317 9.67394C9.94975 9.61736 10.0063 9.56078 10.0629 9.50421C10.1195 9.44763 10.1195 9.39107 10.1195 9.3345C10.1195 9.27792 10.1195 9.22134 10.0629 9.22134C10.0629 9.16477 10.0063 9.16478 9.94975 9.10821C9.89318 9.05164 9.8366 9.05163 9.8366 9.05163C9.78003 9.05163 9.72346 9.05163 9.66689 9.05163C9.55374 9.05163 9.4406 9.05164 9.38402 9.10821C9.27088 9.16478 9.2143 9.22135 9.10116 9.27792L8.81829 8.82534C8.93144 8.7122 9.04458 8.65561 9.21429 8.59904C9.38401 8.54247 9.55374 8.54248 9.72346 8.54248C9.83661 8.54248 9.94974 8.54247 10.0629 8.59904C10.176 8.65561 10.2892 8.65562 10.4023 8.76877C10.5155 8.82534 10.572 8.93849 10.6286 9.05163C10.6852 9.05163 10.6852 9.16478 10.6852 9.3345Z" fill="#00557b"/>
<path d="M38.2423 6.5625H36.7148V28.0602H38.2423V6.5625Z" fill="#00557b"/>
<path d="M27.043 18.3865H17.3125V19.9139H27.043V18.3865Z" fill="#00557b"/>
<path d="M40.2762 18.3865H37.6738V19.9139H40.2762V18.3865Z" fill="#00557b"/>
<path d="M47.7526 18.3865H45.0371V19.9139H47.7526V18.3865Z" fill="#00557b"/>
<path d="M31.0627 16.7453H33.9479V11.8234L33.269 11.4274H31.685L31.0061 11.8234V16.7453H31.0627ZM35.4754 18.2727H29.5918V10.9748L31.3456 9.95654H33.7216L35.4754 10.9748V18.2727Z" fill="#00557b"/>
<path d="M31.0627 29.6441H33.9479V23.1382H31.0627V29.6441ZM35.4754 31.115H29.5918V21.5542H35.4754V31.115Z" fill="#00557b"/>
<path d="M28.2306 6.5625H26.7031V28.0602H28.2306V6.5625Z" fill="#00557b"/>
<path d="M20.9865 18.3293H23.8717V14.8784H20.9865V18.3293ZM25.3992 19.8568H19.5156V13.4075H25.3992V19.8568Z" fill="#00557b"/>
<path d="M41.1329 26.5324H44.0181V14.8784H41.1329V26.5324ZM45.4891 28.0598H39.6055V13.4075H45.4891V28.0598Z" fill="#00557b"/>
<path d="M20.9865 26.5327H23.8717V23.0817H20.9865V26.5327ZM25.3992 28.0602H19.5156V21.6108H25.3992V28.0602Z" fill="#00557b"/>
<path d="M39.3165 34.2832H16.5742V10.8621H18.0451V32.8123H39.3165V34.2832Z" fill="#ED1556"/>
<path d="M48.4838 34.2832H38.2441V32.8123H47.0129V10.8621H48.4838V34.2832Z" fill="#ED1556"/>
<path d="M33.2657 9.44775H31.7383V10.7489H33.2657V9.44775Z" fill="#00557b"/>
<path d="M23.1368 12.8416H21.6094V14.1427H23.1368V12.8416Z" fill="#00557b"/>
<path d="M23.1974 21.1016H21.6699V22.4027H23.1974V21.1016Z" fill="#00557b"/>
<path d="M43.2794 12.8416H41.752V14.1427H43.2794V12.8416Z" fill="#00557b"/>
<path d="M36.3763 23.3078C34.2831 21.2146 30.8321 21.2146 28.7389 23.3078L27.6641 22.2329C30.3796 19.5174 34.7357 19.5174 37.4512 22.2329L36.3763 23.3078Z" fill="#ED1556"/>
<path d="M46.2227 0.791992H39.7168V2.31946H46.2227V0.791992Z" fill="#00557b"/>
<path d="M11.3783 20.1396C10.0771 20.1396 9.05879 21.1579 9.05879 22.4591C9.05879 23.7602 10.0771 24.7786 11.3783 24.7786C12.6794 24.7786 13.6978 23.7602 13.6978 22.4591C13.6978 21.1579 12.6794 20.1396 11.3783 20.1396ZM11.3783 26.2495C9.28508 26.2495 7.58789 24.5523 7.58789 22.4591C7.58789 20.3659 9.28508 18.6687 11.3783 18.6687C13.4715 18.6687 15.1686 20.3659 15.1686 22.4591C15.1686 24.5523 13.4715 26.2495 11.3783 26.2495Z" fill="#ED1556"/>
<path d="M14.4251 34.2829H10.6348V25.5142H12.1057V32.812H14.4251V34.2829Z" fill="#ED1556"/>
<path d="M3.79038 28.5696C2.48921 28.5696 1.4709 29.5879 1.4709 30.8891C1.4709 32.1903 2.48921 33.2086 3.79038 33.2086C5.09156 33.2086 6.10985 32.1903 6.10985 30.8891C6.10985 29.5879 5.03498 28.5696 3.79038 28.5696ZM3.79038 34.736C1.69719 34.736 0 33.0388 0 30.9456C0 28.8524 1.69719 27.1553 3.79038 27.1553C5.88358 27.1553 7.58075 28.8524 7.58075 30.9456C7.58075 33.0388 5.88358 34.736 3.79038 34.736Z" fill="#ED1556"/>
<path d="M11.3713 32.812H8.31641V34.3395H11.3713V32.812Z" fill="#ED1556"/>
<path d="M49.6116 11.9367H44.9727V10.4658H48.1407V9.22119H49.6116V11.9367Z" fill="#00557b"/>
<path d="M20.1977 11.9367H15.6719V9.22119H17.1428V10.4658H20.1977V11.9367Z" fill="#00557b"/>
<path d="M29.5361 7.46762H23.7656V4.69556H25.2365V5.94016H29.5361V7.46762Z" fill="#00557b"/>
<path d="M46.1642 7.01491H44.6368V4.63885H41.299V4.69542H39.8281V3.16797H46.1642V7.01491Z" fill="#ED1556"/>
<path d="M41.2997 7.41106H35.5293V5.88359H39.8288V4.69556H41.2997V7.41106Z" fill="#00557b"/>
<path d="M14.6515 10.466L13.9727 9.10822L32.6982 0L51.3107 9.10822L50.6884 10.466L32.6982 1.64061L14.6515 10.466Z" fill="#ED1556"/>
<path d="M17.7628 11.654L17.084 10.2962L32.6981 2.82861L48.1424 10.2962L47.5201 11.654L32.6981 4.46922L17.7628 11.654Z" fill="#00557b"/>
<path d="M59.4652 24.8922L59.4087 25.7974C59.4087 25.9671 59.4087 26.1368 59.3521 26.3065C59.3521 26.4762 59.3521 26.5894 59.2955 26.7025C59.2955 26.8157 59.2389 26.9288 59.1824 27.042C59.1258 27.1551 59.1258 27.2117 59.0127 27.3248H60.5401V24.9488H59.4652V24.8922ZM58.3904 27.2683C58.4469 27.2117 58.5035 27.1551 58.5601 27.042C58.6167 26.9854 58.6732 26.8722 58.6732 26.7591C58.7298 26.646 58.7298 26.4762 58.7864 26.3065C58.7864 26.1368 58.8429 25.9671 58.8429 25.7408L58.8995 24.3831H61.1059C61.1059 24.8922 61.1059 25.3448 61.1059 25.8539C61.1059 26.3065 61.1059 26.8157 61.1059 27.2683H61.3887V28.5129H60.8795V27.7774H58.6732V28.5129H58.1641V27.2683H58.3904Z" fill="#00557b"/>
<path d="M64.2163 25.5709C64.2163 25.4578 64.2163 25.3446 64.1597 25.2315C64.1032 25.1183 64.0466 25.0618 63.99 25.0052C63.9334 24.9486 63.8203 24.892 63.7637 24.892C63.6506 24.892 63.594 24.8355 63.4809 24.8355C63.3677 24.8355 63.3111 24.8355 63.198 24.892C63.0848 24.892 63.0283 24.9486 62.9717 25.0052C62.9151 25.0618 62.8585 25.1183 62.802 25.2315C62.7454 25.3446 62.7454 25.4012 62.7454 25.5709V26.5892C62.7454 26.7024 62.7454 26.8155 62.802 26.9287C62.8585 27.0418 62.9151 27.0984 62.9717 27.155C63.0283 27.2115 63.0848 27.2681 63.198 27.2681C63.3111 27.2681 63.3677 27.3247 63.4809 27.3247C63.594 27.3247 63.6506 27.3247 63.7637 27.2681C63.8769 27.2681 63.9334 27.2115 63.99 27.155C64.0466 27.0984 64.1032 27.0418 64.1597 26.9287C64.2163 26.8155 64.2163 26.7589 64.2163 26.5892V25.5709ZM64.782 26.7024C64.782 26.8721 64.7254 27.0418 64.6689 27.155C64.6123 27.2681 64.4992 27.4378 64.386 27.4944C64.2729 27.551 64.1597 27.6641 63.99 27.7207C63.8203 27.7773 63.6506 27.7773 63.4809 27.7773C63.3111 27.7773 63.1414 27.7773 62.9717 27.7207C62.802 27.6641 62.6888 27.6075 62.5757 27.4944C62.4625 27.3813 62.3494 27.2681 62.2928 27.155C62.2362 27.0418 62.1797 26.8721 62.1797 26.7024V25.5143C62.1797 25.3446 62.2362 25.1749 62.2928 25.0618C62.3494 24.9486 62.4625 24.7789 62.5757 24.7223C62.6888 24.6092 62.802 24.5526 62.9717 24.496C63.1414 24.4395 63.3111 24.4395 63.4809 24.4395C63.6506 24.4395 63.8203 24.4395 63.99 24.496C64.1597 24.5526 64.2729 24.6092 64.386 24.7223C64.4992 24.8355 64.6123 24.9486 64.6689 25.0618C64.7254 25.1749 64.782 25.3446 64.782 25.5143V26.7024Z" fill="#00557b"/>
<path d="M68.3387 25.7403L67.9992 26.3626L67.5467 27.3243H67.1506L66.6981 26.4192L66.3021 25.7403V27.7769H65.7363V24.3826H66.2455L66.9243 25.6837L67.3204 26.5889H67.3769L67.7729 25.6837L68.3953 24.3826H68.9044V27.7769H68.3387V25.7403Z" fill="#00557b"/>
<path d="M71.8413 25.5707C71.8413 25.4575 71.8413 25.3444 71.7847 25.2312C71.7282 25.1181 71.6716 25.0615 71.615 25.0049C71.5584 24.9484 71.4453 24.8918 71.3887 24.8918C71.2756 24.8918 71.219 24.8352 71.1059 24.8352C70.9927 24.8352 70.9361 24.8352 70.823 24.8918C70.7098 24.8918 70.6533 24.9484 70.5967 25.0049C70.5401 25.0615 70.4835 25.1181 70.427 25.2312C70.3704 25.3444 70.3704 25.4009 70.3704 25.5707V26.589C70.3704 26.7021 70.3704 26.8153 70.427 26.9284C70.4835 27.0416 70.5401 27.0981 70.5967 27.1547C70.6533 27.2113 70.7098 27.2678 70.823 27.2678C70.9361 27.2678 70.9927 27.3244 71.1059 27.3244C71.219 27.3244 71.2756 27.3244 71.3887 27.2678C71.5019 27.2678 71.5584 27.2113 71.615 27.1547C71.6716 27.0981 71.7282 27.0416 71.7847 26.9284C71.8413 26.8153 71.8413 26.7587 71.8413 26.589V25.5707ZM72.407 26.7021C72.407 26.8718 72.3504 27.0416 72.2939 27.1547C72.2373 27.2679 72.1242 27.4376 72.011 27.4942C71.8979 27.5507 71.7847 27.6639 71.615 27.7204C71.4453 27.777 71.2756 27.777 71.1059 27.777C70.9361 27.777 70.7664 27.777 70.5967 27.7204C70.427 27.6639 70.3138 27.6073 70.2007 27.4942C70.0875 27.381 69.9744 27.2679 69.9178 27.1547C69.8612 27.0416 69.8047 26.8718 69.8047 26.7021V25.5141C69.8047 25.3444 69.8612 25.1747 69.9178 25.0615C69.9744 24.9484 70.0875 24.7786 70.2007 24.7221C70.3138 24.6089 70.427 24.5524 70.5967 24.4958C70.7664 24.4392 70.9361 24.4392 71.1059 24.4392C71.2756 24.4392 71.4453 24.4392 71.615 24.4958C71.7847 24.5524 71.8979 24.6089 72.011 24.7221C72.1242 24.8352 72.2373 24.9484 72.2939 25.0615C72.3504 25.1747 72.407 25.3444 72.407 25.5141V26.7021Z" fill="#00557b"/>
<path d="M75.2925 25.1182C75.1794 25.0616 75.0663 24.9485 74.9531 24.9485C74.84 24.8919 74.7268 24.8919 74.5571 24.8919C74.444 24.8919 74.3874 24.8919 74.3308 24.9485C74.2743 24.9485 74.1611 25.0051 74.1045 25.0616C74.048 25.1182 73.9914 25.1748 73.9348 25.2879C73.8782 25.4011 73.8782 25.4577 73.8782 25.6274V26.6457C73.8782 26.7588 73.8782 26.872 73.9348 26.9851C73.9914 27.0983 74.048 27.1548 74.1045 27.2114C74.1611 27.268 74.2177 27.3246 74.3308 27.3246C74.3874 27.3246 74.5005 27.3811 74.5571 27.3811C74.6703 27.3811 74.7834 27.3811 74.9531 27.3246C75.0663 27.268 75.1794 27.2114 75.2925 27.1548L75.5754 27.6074C75.4623 27.7206 75.2926 27.7771 75.1228 27.8337C74.9531 27.8903 74.7834 27.9469 74.5571 27.9469C74.3874 27.9469 74.2177 27.9469 74.1045 27.8903C73.9348 27.8337 73.8217 27.7771 73.7085 27.664C73.5954 27.5508 73.4822 27.4377 73.4257 27.3246C73.3691 27.2114 73.3125 27.0417 73.3125 26.872V25.6274C73.3125 25.4577 73.3691 25.2879 73.4257 25.1748C73.4822 25.0616 73.5954 24.9485 73.7085 24.8354C73.8217 24.7222 73.9348 24.6656 74.1045 24.6091C74.2743 24.5525 74.3874 24.5525 74.5571 24.5525C74.7268 24.5525 74.8965 24.5525 75.1228 24.6091C75.2926 24.6656 75.4623 24.7222 75.5754 24.8354L75.2925 25.1182Z" fill="#00557b"/>
<path d="M77.7365 24.8917V27.7769H77.1707V24.8917H76.209V24.3826H78.6416V24.8917H77.7365Z" fill="#00557b"/>
<path d="M79.933 25.967H80.725C80.8947 25.967 81.0079 25.9105 81.121 25.7973C81.2342 25.6842 81.2907 25.571 81.2907 25.4013C81.2907 25.2316 81.2342 25.1184 81.121 25.0053C81.0079 24.8921 80.8947 24.8356 80.725 24.8356H79.933V25.967ZM80.8381 24.383C81.0079 24.383 81.121 24.4396 81.2907 24.4961C81.4039 24.5527 81.517 24.6658 81.5736 24.7224C81.6302 24.8356 81.6867 24.9487 81.7433 25.0619C81.7999 25.175 81.7999 25.2881 81.7999 25.4013C81.7999 25.5144 81.7999 25.6276 81.7433 25.7407C81.6867 25.8539 81.6302 25.967 81.5736 26.0802C81.517 26.1933 81.4039 26.2499 81.2907 26.3065C81.1776 26.363 81.0079 26.4196 80.8947 26.4196H79.9896V27.7208H79.4238V24.3264H80.8381V24.383Z" fill="#00557b"/>
<path d="M84.5171 25.5712C84.5171 25.458 84.5171 25.3449 84.4605 25.2317C84.4039 25.1186 84.3474 25.062 84.2908 25.0054C84.2342 24.9489 84.1211 24.8923 84.0645 24.8923C83.9514 24.8923 83.8948 24.8357 83.7816 24.8357C83.6685 24.8357 83.6119 24.8357 83.4988 24.8923C83.3856 24.8923 83.3291 24.9489 83.2725 25.0054C83.2159 25.062 83.1594 25.1186 83.1028 25.2317C83.0462 25.3449 83.0462 25.4014 83.0462 25.5712V26.5895C83.0462 26.7026 83.0462 26.8158 83.1028 26.9289C83.1594 27.0421 83.2159 27.0986 83.2725 27.1552C83.3291 27.2118 83.3856 27.2683 83.4988 27.2683C83.6119 27.2683 83.6685 27.3249 83.7816 27.3249C83.8948 27.3249 83.9514 27.3249 84.0645 27.2683C84.1776 27.2683 84.2342 27.2118 84.2908 27.1552C84.3474 27.0986 84.4039 27.0421 84.4605 26.9289C84.5171 26.8158 84.5171 26.7592 84.5171 26.5895V25.5712ZM85.0828 26.7026C85.0828 26.8723 85.0263 27.0421 84.9697 27.1552C84.9131 27.2683 84.8 27.4381 84.6868 27.4946C84.5737 27.5512 84.4605 27.6644 84.2908 27.7209C84.1211 27.7775 83.9514 27.7775 83.7816 27.7775C83.6119 27.7775 83.4422 27.7775 83.2725 27.7209C83.1028 27.6644 82.9896 27.6078 82.8765 27.4946C82.7633 27.3815 82.6502 27.2683 82.5936 27.1552C82.537 27.0421 82.4805 26.8723 82.4805 26.7026V25.5146C82.4805 25.3449 82.537 25.1751 82.5936 25.062C82.6502 24.9489 82.7633 24.7791 82.8765 24.7226C82.9896 24.6094 83.1028 24.5528 83.2725 24.4963C83.4422 24.4397 83.6119 24.4397 83.7816 24.4397C83.9514 24.4397 84.1211 24.4397 84.2908 24.4963C84.4605 24.5528 84.5737 24.6094 84.6868 24.7226C84.8 24.8357 84.9131 24.9489 84.9697 25.062C85.0263 25.1751 85.0828 25.3449 85.0828 25.5146V26.7026Z" fill="#00557b"/>
<path d="M88.0776 25.4013C88.021 25.5144 87.9644 25.6276 87.8513 25.7407C87.7947 25.8538 87.7381 25.967 87.625 26.0801C87.625 26.1367 87.5684 26.1933 87.5118 26.2499C87.4553 26.363 87.3987 26.4196 87.2855 26.5893C87.229 26.7024 87.1158 26.8156 87.0593 26.9853C86.9461 27.0984 86.8895 27.2682 86.833 27.3813C86.7764 27.4945 86.6632 27.6076 86.6067 27.7207C86.5501 27.8339 86.4935 27.8905 86.4935 27.8905H85.9844V24.4961H86.5501V26.9287L88.0776 24.4961H88.5867V27.8905H88.021L88.0776 25.4013Z" fill="#00557b"/>
<path d="M90.965 24.8917V27.7769H90.3992V24.8917H89.4375V24.3826H91.8702V24.8917H90.965Z" fill="#00557b"/>
<path d="M92.666 24.3826H94.9289V24.8917H93.2317V25.8534H94.7027V26.3626H93.2317V27.2678H94.9289V27.7769H92.666V24.3826Z" fill="#00557b"/>
<path d="M96.7368 24.8922V25.8539C96.7368 26.1368 96.7368 26.4197 96.6802 26.646C96.6237 26.8723 96.5671 27.042 96.5105 27.2117C96.4539 27.3814 96.3408 27.4945 96.1711 27.6077C96.0579 27.7208 95.8882 27.7774 95.6619 27.834L95.4922 27.3814C95.6053 27.3248 95.7185 27.2683 95.8316 27.2117C95.9448 27.1551 96.0013 27.042 96.0579 26.9288C96.1145 26.8157 96.1711 26.646 96.1711 26.4762C96.1711 26.3065 96.2276 26.0802 96.2276 25.8539V24.3831H98.3774V27.7774H97.8117V24.8922H96.7368Z" fill="#00557b"/>
<path d="M99.9017 27.2683H100.694C100.863 27.2683 100.977 27.2117 101.09 27.0985C101.203 26.9854 101.259 26.8722 101.259 26.7025C101.259 26.5328 101.203 26.4197 101.09 26.3065C100.977 26.1934 100.863 26.1934 100.694 26.1934H99.9017V27.2683ZM99.3359 27.7774V24.3831H99.9017V25.7408H100.75C100.92 25.7408 101.033 25.7408 101.203 25.7974C101.316 25.8539 101.429 25.9105 101.542 26.0237C101.655 26.1368 101.712 26.25 101.769 26.3631C101.825 26.4762 101.825 26.5894 101.825 26.7591C101.825 26.8722 101.825 26.9854 101.769 27.0985C101.712 27.2117 101.655 27.3248 101.599 27.438C101.542 27.5511 101.429 27.6077 101.316 27.6643C101.203 27.7208 101.033 27.7774 100.863 27.7774H99.3359Z" fill="#00557b"/>
<path d="M104.548 27.7769V26.306H103.134V27.7769H102.568V24.3826H103.134V25.8534H104.548V24.3826H105.114V27.7769H104.548Z" fill="#00557b"/>
<path d="M106.87 26.5889H107.832L107.605 25.9666L107.322 25.118L107.096 25.9666L106.87 26.5889ZM107.945 27.0415H106.7L106.474 27.7769H105.852L107.04 24.3826H107.605L108.793 27.7769H108.171L107.945 27.0415Z" fill="#00557b"/>
<path d="M111.39 24.8921H110.598C110.428 24.8921 110.259 24.9487 110.202 25.0053C110.089 25.1184 110.089 25.2316 110.089 25.4013C110.089 25.571 110.146 25.6842 110.259 25.7407C110.372 25.7973 110.485 25.8539 110.655 25.8539H111.447V24.8921H111.39ZM111.956 24.383V27.7774H111.39V26.363H110.881C110.824 26.363 110.768 26.363 110.711 26.363C110.655 26.363 110.598 26.4196 110.542 26.4196C110.485 26.4762 110.428 26.5328 110.428 26.5893C110.372 26.6459 110.372 26.759 110.315 26.8156L110.032 27.7208H109.41L109.693 26.759C109.75 26.6459 109.806 26.5327 109.806 26.4196C109.863 26.3065 109.919 26.2499 110.032 26.1933C109.806 26.1367 109.693 26.0236 109.58 25.8539C109.467 25.6842 109.467 25.5144 109.467 25.3447C109.467 25.2316 109.467 25.0619 109.523 24.9487C109.58 24.8356 109.636 24.7224 109.693 24.6093C109.75 24.4961 109.863 24.4396 109.976 24.383C110.089 24.3264 110.259 24.3264 110.428 24.3264H111.956V24.383Z" fill="#00557b"/>
<path d="M58.3848 33.7174V30.323H58.9505V31.7373H59.4031C59.4596 31.7373 59.5162 31.7373 59.5728 31.7373C59.6294 31.7373 59.6859 31.6807 59.7425 31.6807C59.7991 31.6242 59.8557 31.6242 59.9122 31.5676C59.9688 31.511 59.9688 31.4544 60.0254 31.3413L60.3082 30.3796H60.8739L60.5911 31.3413C60.5345 31.511 60.478 31.6242 60.3648 31.7373C60.3082 31.8505 60.1951 31.907 60.0819 31.9636C60.1951 32.0202 60.3082 32.0767 60.4214 32.1899C60.4779 32.303 60.5911 32.4727 60.5911 32.6425L60.9305 33.7174H60.3082L60.0254 32.699C59.9688 32.5859 59.9688 32.5293 59.9122 32.4728C59.8557 32.4162 59.7991 32.3596 59.7425 32.303C59.6859 32.2465 59.6294 32.2465 59.5728 32.2465C59.5162 32.2465 59.4596 32.2465 59.4031 32.2465H58.9505V33.7174H58.3848Z" fill="#00557b"/>
<path d="M63.646 31.511C63.646 31.3979 63.646 31.2847 63.5894 31.1716C63.5328 31.0584 63.4762 31.0019 63.4197 30.9453C63.3631 30.8887 63.25 30.8321 63.1934 30.8321C63.0803 30.8321 63.0237 30.7756 62.9105 30.7756C62.7974 30.7756 62.7408 30.7756 62.6277 30.8321C62.5145 30.8321 62.4579 30.8887 62.4014 30.9453C62.3448 31.0019 62.2882 31.0584 62.2317 31.1716C62.1751 31.2847 62.1751 31.3413 62.1751 31.511V32.5293C62.1751 32.6425 62.1751 32.7556 62.2317 32.8688C62.2882 32.9819 62.3448 33.0385 62.4014 33.0951C62.4579 33.1516 62.5145 33.2082 62.6277 33.2082C62.7408 33.2082 62.7974 33.2648 62.9105 33.2648C63.0237 33.2648 63.0803 33.2648 63.1934 33.2082C63.3066 33.2082 63.3631 33.1516 63.4197 33.0951C63.4762 33.0385 63.5328 32.9819 63.5894 32.8688C63.646 32.7556 63.646 32.6991 63.646 32.5293V31.511ZM64.2117 32.5859C64.2117 32.7556 64.1551 32.9253 64.0986 33.0385C64.042 33.1516 63.9288 33.3214 63.8157 33.3779C63.7025 33.4345 63.5894 33.5476 63.4197 33.6042C63.25 33.6608 63.0803 33.6608 62.9105 33.6608C62.7408 33.6608 62.5711 33.6608 62.4014 33.6042C62.2317 33.5476 62.1185 33.4911 62.0054 33.3779C61.8922 33.2648 61.7791 33.1516 61.7225 33.0385C61.6659 32.9253 61.6094 32.7556 61.6094 32.5859V31.3979C61.6094 31.2282 61.6659 31.0584 61.7225 30.9453C61.7791 30.8321 61.8922 30.6624 62.0054 30.6059C62.1185 30.4927 62.2317 30.4361 62.4014 30.3796C62.5711 30.323 62.7408 30.323 62.9105 30.323C63.0803 30.323 63.25 30.323 63.4197 30.3796C63.5894 30.4361 63.7025 30.4927 63.8157 30.6059C63.9288 30.719 64.042 30.8321 64.0986 30.9453C64.1551 31.0584 64.2117 31.2282 64.2117 31.3979V32.5859Z" fill="#00557b"/>
<path d="M67.7762 31.6239L67.4367 32.2462L66.9842 33.208H66.5316L66.079 32.3028L65.7396 31.6239V33.7171H65.1738V30.3228H65.683L66.3053 31.6239L66.7579 32.4725L67.2104 31.5673L67.8328 30.3228H68.3419V33.7171H67.7762V31.6239Z" fill="#00557b"/>
<path d="M71.2808 33.7171V30.8319H69.8665V33.7171H69.3008V30.3228H71.8466V33.7171H71.2808Z" fill="#00557b"/>
<path d="M73.5458 32.4725H74.5075L74.2812 31.8502L73.9984 31.0016L73.7721 31.8502L73.5458 32.4725ZM74.6772 32.9817H73.4326L73.2064 33.7171H72.6406L73.8286 30.3228H74.3944L75.5824 33.7171H74.9601L74.6772 32.9817Z" fill="#00557b"/>
<path d="M78.189 33.7171V32.2462H76.7747V33.7171H76.209V30.3228H76.7747V31.7371H78.189V30.3228H78.7548V33.7171H78.189Z" fill="#00557b"/>
<path d="M81.8021 31.2853C81.7456 31.3984 81.689 31.5116 81.5759 31.6247C81.5193 31.7379 81.4627 31.851 81.3496 31.9642C81.3496 32.0207 81.293 32.0773 81.2364 32.1339C81.1798 32.1905 81.1233 32.3036 81.0102 32.4733C80.9536 32.5865 80.8404 32.6996 80.7838 32.8693C80.6707 32.9825 80.6141 33.1522 80.5576 33.2653C80.501 33.3785 80.3878 33.4916 80.3313 33.6048C80.2747 33.7179 80.2181 33.7745 80.2181 33.7745H79.709V30.3801H80.2747V32.8128L81.8021 30.3801H82.3113V33.7745H81.7456L81.8021 31.2853Z" fill="#00557b"/>
<path d="M85.2535 30.8326H84.4615C84.2917 30.8326 84.122 30.8891 84.0654 30.9457C83.9523 31.0589 83.9523 31.172 83.9523 31.3417C83.9523 31.5114 84.0089 31.6246 84.122 31.6812C84.2352 31.7377 84.3483 31.7943 84.518 31.7943H85.31V30.8326H85.2535ZM85.8192 30.3234V33.7178H85.2535V32.3035H84.7443C84.6877 32.3035 84.6312 32.3035 84.5746 32.3035C84.518 32.3035 84.4615 32.36 84.4049 32.36C84.3483 32.4166 84.2917 32.4732 84.2917 32.5298C84.2352 32.5863 84.2352 32.6995 84.1786 32.756L83.8957 33.6612H83.2734L83.5563 32.6995C83.6129 32.5863 83.6695 32.4732 83.6695 32.36C83.726 32.2469 83.7826 32.1903 83.8957 32.1337C83.6694 32.0772 83.5563 31.964 83.4431 31.7943C83.33 31.6246 83.33 31.4549 83.33 31.2851C83.33 31.172 83.33 31.0023 83.3866 30.8891C83.4432 30.776 83.4997 30.6629 83.5563 30.5497C83.6129 30.4366 83.726 30.38 83.8392 30.3234C83.9523 30.2668 84.122 30.2668 84.2917 30.2668H85.8192V30.3234Z" fill="#00557b"/>
<path d="M58.3262 18.1601V8.31641H67.2647V18.1601H64.2663V10.9188H61.3811V18.1601H58.3262Z" fill="#00557b"/>
<path d="M74.8511 15.5575C75.4734 15.5575 75.9826 15.3312 76.4351 14.8786C76.8311 14.426 77.0575 13.8603 77.0575 13.1814C77.0575 12.5025 76.8311 11.9368 76.4351 11.4842C76.0391 11.0316 75.53 10.8053 74.8511 10.8053C74.2288 10.8053 73.7197 11.0316 73.2671 11.4842C72.8711 11.9368 72.6448 12.5025 72.6448 13.1814C72.6448 13.8603 72.8711 14.426 73.2671 14.8786C73.7197 15.3312 74.2288 15.5575 74.8511 15.5575ZM71.0607 9.61732C72.079 8.59901 73.3236 8.08984 74.8511 8.08984C76.3786 8.08984 77.6232 8.59901 78.6415 9.61732C79.6598 10.6356 80.1124 11.8237 80.1124 13.238C80.1124 14.6523 79.6032 15.8403 78.6415 16.8586C77.6232 17.8769 76.3786 18.3295 74.8511 18.3295C73.3236 18.3295 72.079 17.8204 71.0607 16.802C70.0424 15.7837 69.5898 14.5957 69.5898 13.1814C69.5898 11.7671 70.099 10.5791 71.0607 9.61732Z" fill="#00557b"/>
<path d="M86.5068 12.5023C87.1291 12.5023 87.5251 12.1629 87.5251 11.5971C87.5251 11.088 87.0725 10.7486 86.5068 10.7486H85.4319V12.5023H86.5068ZM86.9028 8.31592C88.0342 8.31592 88.9394 8.59879 89.6183 9.22109C90.2972 9.84339 90.6366 10.5788 90.6366 11.5406C90.6366 12.4457 90.2972 13.2378 89.6183 13.8601C88.9394 14.4824 88.0342 14.7652 86.9028 14.7652H85.3753V18.2162H82.377V8.37249H86.9028V8.31592Z" fill="#00557b"/>
<path d="M95.5475 14.5959H97.6972L96.5658 11.7107L95.5475 14.5959ZM91.1348 18.16L95.208 8.25977H98.0932L102.166 18.16H98.9418L98.4327 16.9154H94.7554L94.2463 18.16H91.1348Z" fill="#00557b"/>
<path d="M110.094 15.5572V10.9183H108.283C108.283 11.7103 108.227 12.5023 108.114 13.4075C108 14.3126 107.831 14.9915 107.548 15.5572H110.094ZM103.475 19.9699V15.5572H104.493C105.115 14.4258 105.455 12.6155 105.455 10.2394V8.31592H113.092V15.5572H114.337V19.9699H111.508V18.1596H106.303V19.9699H103.475Z" fill="#00557b"/>
<path d="M121.406 15.5575C122.028 15.5575 122.537 15.3312 122.99 14.8786C123.386 14.426 123.612 13.8603 123.612 13.1814C123.612 12.5025 123.386 11.9368 122.99 11.4842C122.594 11.0316 122.085 10.8053 121.406 10.8053C120.783 10.8053 120.274 11.0316 119.822 11.4842C119.426 11.9368 119.199 12.5025 119.199 13.1814C119.199 13.8603 119.426 14.426 119.822 14.8786C120.218 15.3312 120.783 15.5575 121.406 15.5575ZM117.615 9.61732C118.634 8.59901 119.878 8.08984 121.406 8.08984C122.933 8.08984 124.178 8.59901 125.196 9.61732C126.214 10.6356 126.667 11.8237 126.667 13.238C126.667 14.6523 126.158 15.8403 125.196 16.8586C124.178 17.8769 122.933 18.3295 121.406 18.3295C119.878 18.3295 118.634 17.8204 117.615 16.802C116.597 15.7837 116.145 14.5957 116.145 13.1814C116.145 11.7671 116.597 10.5791 117.615 9.61732Z" fill="#00557b"/>
<path d="M128.703 18.1601V8.31641H131.701L133.851 11.7673L136.001 8.31641H138.999V18.1601H136.058V12.6159L134.7 14.992H133.059L131.588 12.6159V18.1601H128.703Z" fill="#00557b"/>
</svg>
