<svg width="202" height="50" viewBox="0 0 202 50" fill="none" xmlns="http://www.w3.org/2000/svg">
<path d="M69.4344 42.6738H24.915V44.837H69.4344V42.6738Z" fill="#00557B"/>
<path d="M3.62294 13.471C3.62294 13.6184 3.57331 13.7659 3.52367 13.8643C3.47404 14.0118 3.42441 14.1101 3.32515 14.2084C3.22589 14.3067 3.12662 14.4051 3.02736 14.5034C2.97773 14.6509 2.87847 14.7492 2.7792 14.7984C2.67994 14.8476 2.58068 14.9459 2.48141 15.0442C2.38215 15.1425 2.23326 15.1917 2.13399 15.29C2.03473 15.3884 1.93547 15.4867 1.83621 15.585C1.73694 15.6833 1.68731 15.8308 1.68731 15.9292H3.62294V16.7158H0.843577V16.0767C0.843577 15.88 0.893208 15.7325 0.94284 15.585C0.992471 15.4375 1.09173 15.29 1.14137 15.1425C1.24063 14.995 1.33989 14.8967 1.43915 14.7984C1.53842 14.7001 1.68731 14.6017 1.78657 14.5034C1.88584 14.4051 2.03473 14.3559 2.13399 14.2576C2.23326 14.1593 2.33252 14.1101 2.43178 14.0118C2.53105 13.9134 2.58068 13.8643 2.63031 13.7659C2.67994 13.6676 2.72957 13.5693 2.72957 13.5201C2.72957 13.471 2.72957 13.3726 2.67994 13.3235C2.63031 13.2743 2.58068 13.2251 2.53105 13.176C2.48141 13.1268 2.38215 13.1268 2.33252 13.0776C2.23326 13.0776 2.18363 13.0285 2.08436 13.0285C1.93547 13.0285 1.78657 13.0776 1.63768 13.1268C1.48879 13.176 1.33989 13.2743 1.24063 13.3726L0.793945 12.7335C0.94284 12.586 1.14137 12.4877 1.38952 12.3893C1.63768 12.291 1.88584 12.291 2.13399 12.291C2.28289 12.291 2.48141 12.291 2.63031 12.3402C2.7792 12.3893 2.97773 12.4385 3.07699 12.5368C3.22589 12.6352 3.32515 12.7827 3.42441 12.9302C3.62294 13.0285 3.62294 13.2251 3.62294 13.471Z" fill="#00557B"/>
<path d="M6.79954 13.6188C6.79954 13.5205 6.79954 13.4221 6.74991 13.373C6.70027 13.3238 6.65064 13.2255 6.60101 13.1763C6.55138 13.1271 6.50175 13.078 6.40249 13.078C6.35285 13.078 6.25359 13.0288 6.20396 13.0288C6.15433 13.0288 6.05507 13.0288 6.00543 13.078C5.9558 13.078 5.85654 13.1271 5.80691 13.1763C5.75728 13.2255 5.70765 13.2746 5.65801 13.373C5.60838 13.4221 5.60838 13.5205 5.60838 13.6188V15.4379C5.60838 15.5362 5.60838 15.6345 5.65801 15.6837C5.70765 15.7328 5.75728 15.8312 5.80691 15.8803C5.85654 15.9295 5.90617 15.9787 6.00543 15.9787C6.05507 15.9787 6.15433 16.0278 6.20396 16.0278C6.25359 16.0278 6.35285 16.0278 6.40249 15.9787C6.45212 15.9787 6.55138 15.9295 6.60101 15.8803C6.65064 15.8312 6.70027 15.782 6.74991 15.6837C6.79954 15.6345 6.79954 15.5362 6.79954 15.4379V13.6188ZM7.64327 15.5854C7.64327 15.782 7.59364 15.9787 7.49438 16.1262C7.39511 16.2737 7.29585 16.372 7.14696 16.4703C6.99806 16.5686 6.84917 16.6178 6.70027 16.667C6.55138 16.7161 6.35285 16.7161 6.20396 16.7161C6.05507 16.7161 5.85654 16.7161 5.70765 16.667C5.55875 16.6178 5.40986 16.5686 5.26096 16.4703C5.11207 16.372 5.01281 16.2737 4.91354 16.1262C4.81428 15.9787 4.76465 15.782 4.76465 15.5854V13.4713C4.76465 13.2746 4.81428 13.078 4.91354 12.9305C5.01281 12.783 5.11207 12.6355 5.26096 12.5372C5.40986 12.4388 5.55875 12.3405 5.70765 12.2914C5.85654 12.2422 6.05507 12.2422 6.20396 12.2422C6.35285 12.2422 6.55138 12.2914 6.70027 12.2914C6.84917 12.3405 6.99806 12.4388 7.14696 12.5372C7.29585 12.6355 7.39511 12.783 7.49438 12.9305C7.59364 13.078 7.64327 13.2746 7.64327 13.4713V15.5854Z" fill="#00557B"/>
<path d="M9.97589 16.7158V13.3235L9.5292 13.7168L9.08252 13.1268L10.0751 12.291H10.8196V16.7158H9.97589Z" fill="#00557B"/>
<path d="M15.5842 13.471C15.5842 13.6184 15.5346 13.7659 15.4849 13.8643C15.4353 14.0118 15.3857 14.1101 15.2864 14.2084C15.1871 14.3067 15.0879 14.4051 14.9886 14.5034C14.8894 14.6017 14.7901 14.7001 14.6908 14.7492C14.5916 14.7984 14.4923 14.8967 14.393 14.995C14.2938 15.0934 14.1449 15.1425 14.0456 15.2409C13.9464 15.3392 13.8471 15.4375 13.7478 15.5359C13.6486 15.6342 13.5989 15.7817 13.5989 15.88H15.5346V16.7158H12.7552V16.0767C12.7552 15.88 12.8048 15.7325 12.8545 15.585C12.9041 15.4375 13.0034 15.29 13.053 15.1425C13.1522 14.995 13.2515 14.8967 13.3508 14.7984C13.45 14.7001 13.5989 14.6017 13.6982 14.5034C13.7975 14.4051 13.9464 14.3559 14.0456 14.2576C14.1449 14.1593 14.2441 14.1101 14.3434 14.0118C14.4427 13.9134 14.4923 13.8643 14.5419 13.7659C14.5916 13.6676 14.6412 13.5693 14.6412 13.5201C14.6412 13.471 14.6412 13.3726 14.5916 13.3235C14.5419 13.2743 14.4923 13.2251 14.4427 13.176C14.393 13.1268 14.2938 13.1268 14.2441 13.0776C14.1449 13.0776 14.0952 13.0285 13.996 13.0285C13.8471 13.0285 13.6982 13.0776 13.5493 13.1268C13.4004 13.176 13.2515 13.2743 13.1522 13.3726L12.7056 12.7335C12.8545 12.586 13.053 12.4877 13.3011 12.3893C13.5493 12.291 13.7975 12.291 14.0456 12.291C14.1945 12.291 14.393 12.291 14.5419 12.3402C14.6908 12.3893 14.8894 12.4385 14.9886 12.5368C15.1375 12.6352 15.2368 12.7827 15.336 12.9302C15.5346 13.0285 15.5842 13.2251 15.5842 13.471Z" fill="#00557B"/>
<path d="M55.6369 9.48828H53.4531V40.4126H55.6369V9.48828Z" fill="#00557B"/>
<path d="M39.3579 26.5H25.2129V28.6632H39.3579V26.5Z" fill="#00557B"/>
<path d="M58.565 26.5H54.793V28.6632H58.565V26.5Z" fill="#00557B"/>
<path d="M69.4344 26.5H65.4639V28.6632H69.4344V26.5Z" fill="#00557B"/>
<path d="M45.1647 24.1391H49.3834V17.1087L48.4404 16.5679H46.1574L45.1647 17.1087V24.1391ZM51.5672 26.3024H42.981V15.8304L45.5618 14.3555H49.036L51.5672 15.8304V26.3024Z" fill="#00557B"/>
<path d="M45.1647 42.6747H49.3834V33.2843H45.1647V42.6747ZM51.5672 44.8379H42.981V31.1211H51.5672V44.8379Z" fill="#00557B"/>
<path d="M40.9958 9.48828H38.812V40.4126H40.9958V9.48828Z" fill="#00557B"/>
<path d="M30.5729 26.4511H34.742V21.4855H30.5233V26.4511H30.5729ZM36.9258 28.6143H28.3892V19.3223H36.9754V28.6143H36.9258Z" fill="#00557B"/>
<path d="M59.8057 38.2505H64.0243V21.4855H59.8057V38.2505ZM66.1585 40.4137H57.5723V19.3223H66.1585V40.4137Z" fill="#00557B"/>
<path d="M30.5729 38.2499H34.742V33.2843H30.5233V38.2499H30.5729ZM36.9258 40.4131H28.3892V31.1211H36.9754V40.4131H36.9258Z" fill="#00557B"/>
<path d="M57.2253 49.4102H24.1211V15.6836H26.3049V47.247H57.2253V49.4102Z" fill="#00557B"/>
<path d="M70.5262 49.4102H55.6367V47.247H68.3424V15.6836H70.5262V49.4102Z" fill="#00557B"/>
<path d="M48.3908 13.6191H46.207V15.4874H48.3908V13.6191Z" fill="#00557B"/>
<path d="M33.6501 18.584H31.4663V20.4522H33.6501V18.584Z" fill="#00557B"/>
<path d="M33.6999 30.4336H31.5161V32.3018H33.6999V30.4336Z" fill="#00557B"/>
<path d="M62.883 18.584H60.6992V20.4522H62.883V18.584Z" fill="#00557B"/>
<path d="M52.9568 33.5796C49.8797 30.5315 44.8669 30.5315 41.8394 33.5796L40.3008 32.0556C44.2217 28.1716 50.6241 28.1716 54.545 32.0556L52.9568 33.5796Z" fill="#00557B"/>
<path d="M67.1512 1.17969H57.7212V3.34291H67.1512V1.17969Z" fill="#00557B"/>
<path d="M16.5768 29.0073C14.7404 29.0073 13.2018 30.4822 13.2018 32.3505C13.2018 34.1696 14.6908 35.6936 16.5768 35.6936C18.4132 35.6936 19.9517 34.2187 19.9517 32.3505C19.9517 30.4822 18.4628 29.0073 16.5768 29.0073ZM16.5768 37.8077C13.4996 37.8077 11.0181 35.3495 11.0181 32.3013C11.0181 29.2531 13.4996 26.7949 16.5768 26.7949C19.6539 26.7949 22.1355 29.2531 22.1355 32.3013C22.1355 35.3495 19.6539 37.8077 16.5768 37.8077Z" fill="#00557B"/>
<path d="M21.0436 49.4109H15.4849V36.7266H17.6686V47.2477H21.0436V49.4109Z" fill="#00557B"/>
<path d="M5.55872 41.2003C3.72236 41.2003 2.18378 42.6753 2.18378 44.5435C2.18378 46.3626 3.67273 47.8867 5.55872 47.8867C7.39508 47.8867 8.93366 46.4117 8.93366 44.5435C8.88403 42.6753 7.39508 41.2003 5.55872 41.2003ZM5.55872 50.0007C2.48157 50.0007 0 47.5425 0 44.5435C0 41.4953 2.48157 39.0371 5.55872 39.0371C8.63587 39.0371 11.1174 41.4953 11.1174 44.5435C11.0678 47.5425 8.58624 50.0007 5.55872 50.0007Z" fill="#00557B"/>
<path d="M16.6265 47.2461H12.1597V49.4093H16.6265V47.2461Z" fill="#00557B"/>
<path d="M72.1641 17.2574H65.4639V15.0941H69.9803V13.3242H72.1641V17.2574Z" fill="#00557B"/>
<path d="M29.4316 17.2574H22.8306V13.3242H25.0144V15.0941H29.4316V17.2574Z" fill="#00557B"/>
<path d="M42.9808 10.7671H34.5435V6.83398H36.7272V8.6039H42.9808V10.7671Z" fill="#00557B"/>
<path d="M67.1016 10.177H64.9178V6.73549H60.0539V6.78465H57.8701V4.57227H67.1016V10.177Z" fill="#ED1556"/>
<path d="M60.0542 10.6691H51.6665V8.5059H57.8704V6.78516H60.0542V10.6691Z" fill="#00557B"/>
<path d="M21.2921 15.0934L20.3491 13.1268L47.5472 0L74.6459 13.1268L73.7029 15.0934L47.5472 2.40905L21.2921 15.0934Z" fill="#ED1556"/>
<path d="M25.8082 16.8136L24.8652 14.847L47.5468 4.08008L70.0299 14.847L69.0869 16.8136L47.5468 6.48912L25.8082 16.8136Z" fill="#00557B"/>
<path d="M86.4083 35.8895L86.3587 37.1677C86.3587 37.4136 86.3091 37.6594 86.3091 37.856C86.3091 38.0527 86.2594 38.2494 86.2594 38.446C86.2098 38.6427 86.1602 38.7902 86.1105 38.9377C86.0609 39.0851 86.0113 39.2326 85.912 39.331H88.0958V35.8895H86.4083ZM84.9194 39.331C85.0186 39.2326 85.1179 39.1343 85.2172 39.036C85.3164 38.9377 85.3661 38.7902 85.4157 38.5935C85.4653 38.446 85.5149 38.2002 85.5646 38.0035C85.6142 37.7577 85.6142 37.4627 85.6142 37.1677L85.7135 35.2012H88.9395C88.9395 35.8895 88.9395 36.5778 88.9395 37.2661C88.9395 37.9544 88.9395 38.6427 88.9395 39.331H89.3366V41.1009H88.5921V40.0193H85.3661V41.1009H84.6216V39.331H84.9194Z" fill="#00557B"/>
<path d="M93.4061 36.8728C93.4061 36.6761 93.3565 36.5286 93.3068 36.4303C93.2572 36.2828 93.158 36.1845 93.0587 36.1353C92.9594 36.037 92.8602 35.9878 92.7113 35.9386C92.5624 35.8895 92.4631 35.8895 92.3142 35.8895C92.1653 35.8895 92.0661 35.8895 91.9172 35.9386C91.7683 35.9878 91.669 36.037 91.5697 36.1353C91.4705 36.2336 91.4209 36.3319 91.3216 36.4303C91.272 36.5778 91.2223 36.7253 91.2223 36.8728V38.3477C91.2223 38.5443 91.272 38.6918 91.3216 38.7902C91.3712 38.9377 91.4705 39.036 91.5697 39.0851C91.669 39.1835 91.7683 39.2326 91.9172 39.2818C92.0661 39.331 92.1653 39.331 92.3142 39.331C92.4631 39.331 92.5624 39.331 92.7113 39.2818C92.8602 39.2326 92.9594 39.1835 93.0587 39.0851C93.158 38.9868 93.2076 38.8885 93.3068 38.7902C93.3565 38.6427 93.4061 38.4952 93.4061 38.3477V36.8728ZM94.2002 38.4952C94.2002 38.741 94.1506 38.9868 94.0513 39.1835C93.9521 39.3801 93.8032 39.5768 93.6543 39.6751C93.5054 39.8226 93.3068 39.9209 93.0587 39.9701C92.8105 40.0193 92.612 40.0684 92.3142 40.0684C92.0661 40.0684 91.8179 40.0193 91.5697 39.9701C91.3216 39.9209 91.1727 39.7734 90.9742 39.6751C90.8253 39.5276 90.6764 39.3801 90.5771 39.1835C90.4779 38.9868 90.4282 38.741 90.4282 38.4952V36.7744C90.4282 36.5286 90.4779 36.2828 90.5771 36.0861C90.6764 35.8895 90.8253 35.742 90.9742 35.5945C91.1231 35.447 91.3216 35.3487 91.5697 35.2995C91.8179 35.2503 92.0164 35.2012 92.3142 35.2012C92.5624 35.2012 92.8105 35.2503 93.0091 35.2995C93.2572 35.3978 93.4557 35.4962 93.6046 35.6437C93.7535 35.7911 93.9024 35.9386 94.0017 36.1353C94.1009 36.332 94.1506 36.5778 94.1506 36.8236V38.4952H94.2002Z" fill="#00557B"/>
<path d="M99.3623 37.0694L98.9156 38.0035L98.2208 39.3801H97.6252L96.9304 38.1019L96.4341 37.0694H96.3844V40.0684H95.5903V35.2012H96.3348L97.2778 37.0203L97.923 38.2985L98.5682 37.0203L99.4616 35.2012H100.206V40.0684H99.412V37.0694H99.3623Z" fill="#00557B"/>
<path d="M104.474 36.8728C104.474 36.6761 104.424 36.5286 104.375 36.4303C104.325 36.2828 104.226 36.1845 104.127 36.1353C104.027 36.037 103.928 35.9878 103.779 35.9386C103.63 35.8895 103.531 35.8895 103.382 35.8895C103.233 35.8895 103.134 35.8895 102.985 35.9386C102.886 35.9878 102.737 36.037 102.638 36.1353C102.538 36.2336 102.489 36.3319 102.389 36.4303C102.34 36.5778 102.29 36.7253 102.29 36.8728V38.3477C102.29 38.5443 102.34 38.6918 102.389 38.7902C102.439 38.9377 102.538 39.036 102.638 39.0851C102.737 39.1835 102.836 39.2326 102.985 39.2818C103.134 39.331 103.233 39.331 103.382 39.331C103.531 39.331 103.63 39.331 103.779 39.2818C103.928 39.2326 104.027 39.1835 104.127 39.0851C104.226 38.9868 104.275 38.8885 104.375 38.7902C104.424 38.6427 104.474 38.4952 104.474 38.3477V36.8728ZM105.268 38.4952C105.268 38.741 105.218 38.9868 105.119 39.1835C105.02 39.3801 104.871 39.5768 104.722 39.6751C104.573 39.8226 104.375 39.9209 104.127 39.9701C103.878 40.0193 103.68 40.0684 103.382 40.0684C103.134 40.0684 102.886 40.0193 102.638 39.9701C102.389 39.9209 102.241 39.7734 102.042 39.6751C101.893 39.5276 101.744 39.3801 101.645 39.1835C101.546 38.9868 101.496 38.741 101.496 38.4952V36.7744C101.496 36.5286 101.546 36.2828 101.645 36.0861C101.744 35.8895 101.893 35.742 102.042 35.5945C102.191 35.447 102.389 35.3487 102.638 35.2995C102.886 35.2503 103.084 35.2012 103.382 35.2012C103.63 35.2012 103.878 35.2503 104.077 35.2995C104.325 35.3978 104.524 35.4962 104.673 35.6437C104.821 35.7911 104.97 35.9386 105.07 36.1353C105.169 36.332 105.218 36.5778 105.218 36.8236V38.4952H105.268Z" fill="#00557B"/>
<path d="M109.487 36.234C109.338 36.1356 109.189 36.0373 108.99 35.9881C108.792 35.939 108.643 35.8898 108.444 35.8898C108.345 35.8898 108.196 35.8898 108.097 35.939C107.998 35.9881 107.849 36.0373 107.749 36.1356C107.65 36.234 107.601 36.3323 107.501 36.4306C107.452 36.5781 107.402 36.7256 107.402 36.8731V38.348C107.402 38.5447 107.452 38.6922 107.501 38.7905C107.551 38.938 107.65 39.0363 107.749 39.0855C107.849 39.1838 107.948 39.233 108.097 39.2821C108.196 39.3313 108.345 39.3313 108.444 39.3313C108.643 39.3313 108.792 39.2821 108.99 39.233C109.189 39.1838 109.338 39.0855 109.487 38.9872L109.884 39.6263C109.735 39.7738 109.487 39.8721 109.238 39.9704C108.99 40.0688 108.692 40.1179 108.444 40.1179C108.196 40.1179 107.998 40.0688 107.749 40.0196C107.551 39.9704 107.352 39.8721 107.154 39.7246C107.005 39.5771 106.856 39.4296 106.757 39.233C106.658 39.0363 106.608 38.7905 106.608 38.5447V36.7256C106.608 36.4798 106.658 36.234 106.757 36.0373C106.856 35.8406 107.005 35.6932 107.154 35.5457C107.303 35.3982 107.501 35.2998 107.749 35.2507C107.948 35.2015 108.196 35.1523 108.444 35.1523C108.692 35.1523 108.99 35.2015 109.238 35.2507C109.487 35.349 109.685 35.4473 109.884 35.5948L109.487 36.234Z" fill="#00557B"/>
<path d="M112.961 35.8895V40.0684H112.167V35.8895H110.777V35.2012H114.351V35.8895H112.961Z" fill="#00557B"/>
<path d="M116.237 37.4136H117.379C117.627 37.4136 117.825 37.3644 117.924 37.2169C118.073 37.0694 118.123 36.8728 118.123 36.6761C118.123 36.4303 118.073 36.2828 117.924 36.1353C117.776 35.9878 117.577 35.9386 117.379 35.9386H116.237V37.4136ZM117.527 35.2012C117.776 35.2012 117.974 35.2503 118.173 35.3487C118.371 35.447 118.47 35.5453 118.619 35.6928C118.719 35.8403 118.818 35.9878 118.867 36.1845C118.917 36.3811 118.967 36.5286 118.967 36.7253C118.967 36.9219 118.917 37.0694 118.867 37.2661C118.818 37.4627 118.719 37.6102 118.57 37.7577C118.47 37.9052 118.322 38.0035 118.123 38.1019C117.974 38.2002 117.726 38.2494 117.527 38.2494H116.237V40.1668H115.443V35.2995H117.527V35.2012Z" fill="#00557B"/>
<path d="M122.888 36.8728C122.888 36.6761 122.838 36.5286 122.788 36.4303C122.739 36.2828 122.639 36.1845 122.54 36.1353C122.441 36.037 122.342 35.9878 122.193 35.9386C122.044 35.8895 121.945 35.8895 121.796 35.8895C121.647 35.8895 121.548 35.8895 121.399 35.9386C121.299 35.9878 121.15 36.037 121.051 36.1353C120.952 36.2336 120.902 36.3319 120.803 36.4303C120.753 36.5778 120.704 36.7253 120.704 36.8728V38.3477C120.704 38.5443 120.753 38.6918 120.803 38.7902C120.853 38.9377 120.952 39.036 121.051 39.0851C121.15 39.1835 121.25 39.2326 121.399 39.2818C121.548 39.331 121.647 39.331 121.796 39.331C121.945 39.331 122.044 39.331 122.193 39.2818C122.342 39.2326 122.441 39.1835 122.54 39.0851C122.639 38.9868 122.689 38.8885 122.788 38.7902C122.838 38.6427 122.888 38.4952 122.888 38.3477V36.8728ZM123.682 38.4952C123.682 38.741 123.632 38.9868 123.533 39.1835C123.434 39.3801 123.285 39.5768 123.136 39.6751C122.987 39.8226 122.788 39.9209 122.54 39.9701C122.292 40.0193 122.093 40.0684 121.796 40.0684C121.548 40.0684 121.299 40.0193 121.051 39.9701C120.803 39.9209 120.654 39.7734 120.456 39.6751C120.307 39.5276 120.158 39.3801 120.059 39.1835C119.959 38.9868 119.91 38.741 119.91 38.4952V36.7744C119.91 36.5286 119.959 36.2828 120.059 36.0861C120.158 35.8895 120.307 35.742 120.456 35.5945C120.605 35.447 120.803 35.3487 121.051 35.2995C121.299 35.2503 121.498 35.2012 121.796 35.2012C122.044 35.2012 122.292 35.2503 122.491 35.2995C122.739 35.3978 122.937 35.4962 123.086 35.6437C123.235 35.7911 123.384 35.9386 123.483 36.1353C123.582 36.332 123.632 36.5778 123.632 36.8236V38.4952H123.682Z" fill="#00557B"/>
<path d="M128.099 36.5781C128 36.7256 127.9 36.8731 127.801 37.0206C127.702 37.1681 127.603 37.3156 127.503 37.4631C127.454 37.5122 127.404 37.6106 127.305 37.758C127.205 37.9055 127.106 38.053 127.007 38.2005C126.908 38.3972 126.759 38.5447 126.66 38.7413C126.511 38.938 126.411 39.1346 126.312 39.2821C126.213 39.4296 126.114 39.6263 126.014 39.7246C125.915 39.8721 125.865 39.9704 125.816 40.0196H125.071V35.1523H125.865V38.643H125.915L128.148 35.1523H128.893V40.0196H128.099V36.5781Z" fill="#00557B"/>
<path d="M132.218 35.8895V40.0684H131.424V35.8895H130.034V35.2012H133.558V35.8895H132.218Z" fill="#00557B"/>
<path d="M134.7 35.2012H138.025V35.8895H135.494V37.2661H137.678V37.9544H135.494V39.331H138.025V40.0684H134.7V35.2012Z" fill="#00557B"/>
<path d="M140.656 35.8898V37.3156C140.656 37.758 140.606 38.1514 140.556 38.4463C140.507 38.7905 140.408 39.0363 140.308 39.2821C140.209 39.528 140.01 39.7246 139.812 39.8721C139.613 40.0196 139.365 40.1179 139.067 40.2163L138.819 39.528C139.018 39.4296 139.167 39.3805 139.266 39.233C139.415 39.1346 139.514 38.9872 139.564 38.8397C139.663 38.6922 139.713 38.4463 139.713 38.2005C139.762 37.9547 139.762 37.6597 139.762 37.3156V35.1523H142.889V40.0196H142.045V35.8898H140.656Z" fill="#00557B"/>
<path d="M145.222 39.331H146.363C146.612 39.331 146.81 39.2818 146.959 39.1343C147.108 38.9868 147.157 38.8393 147.157 38.5935C147.157 38.3477 147.058 38.2002 146.909 38.0527C146.76 37.9052 146.562 37.856 146.314 37.856H145.172V39.331H145.222ZM144.428 40.0684V35.2012H145.222V37.1186H146.463C146.711 37.1186 146.909 37.1677 147.058 37.2169C147.257 37.3152 147.406 37.4136 147.505 37.5119C147.654 37.6594 147.753 37.8069 147.803 38.0035C147.852 38.2002 147.902 38.3477 147.902 38.5443C147.902 38.741 147.852 38.8885 147.803 39.0851C147.753 39.2818 147.654 39.4293 147.555 39.5768C147.455 39.7243 147.306 39.8226 147.108 39.9209C146.909 40.0193 146.711 40.0684 146.463 40.0684H144.428Z" fill="#00557B"/>
<path d="M151.971 40.0684V37.9544H149.937V40.0684H149.093V35.2012H149.937V37.2169H151.971V35.2012H152.815V40.0684H151.971Z" fill="#00557B"/>
<path d="M155.297 38.2989H156.686L156.389 37.3647L155.992 36.1356H155.942L155.595 37.3156L155.297 38.2989ZM156.935 38.9872H155.098L154.751 40.0196H153.857L155.595 35.1523H156.438L158.175 40.0196H157.282L156.935 38.9872Z" fill="#00557B"/>
<path d="M161.947 35.8895H160.806C160.558 35.8895 160.309 35.9386 160.21 36.0861C160.061 36.2336 160.012 36.4303 160.012 36.6269C160.012 36.8728 160.061 37.0202 160.21 37.1186C160.359 37.2169 160.558 37.2661 160.806 37.2661H161.898V35.8895H161.947ZM162.741 35.2012V40.0684H161.947V38.0527H161.153C161.054 38.0527 160.955 38.0527 160.905 38.1019C160.806 38.1019 160.756 38.151 160.657 38.2002C160.607 38.2494 160.508 38.2985 160.458 38.3968C160.409 38.4952 160.359 38.5935 160.309 38.741L159.912 40.0684H159.019L159.416 38.6918C159.466 38.4952 159.565 38.3477 159.615 38.2002C159.664 38.0527 159.813 37.9544 159.962 37.856C159.664 37.7577 159.466 37.6102 159.317 37.4136C159.168 37.1677 159.118 36.9219 159.118 36.6761C159.118 36.4794 159.168 36.2828 159.218 36.1353C159.267 35.9386 159.366 35.7911 159.515 35.6437C159.615 35.4962 159.764 35.3978 159.962 35.2995C160.161 35.2012 160.359 35.2012 160.607 35.2012H162.741Z" fill="#00557B"/>
<path d="M84.8696 48.5743V43.707H85.6637V45.7228H86.3089C86.4082 45.7228 86.4578 45.7228 86.5571 45.7228C86.6564 45.7228 86.706 45.6736 86.8052 45.6244C86.9045 45.5753 86.9541 45.5261 87.0038 45.4278C87.0534 45.3295 87.103 45.2311 87.1527 45.0836L87.5994 43.707H88.3935L87.9468 45.1328C87.8475 45.3786 87.7979 45.5753 87.649 45.7228C87.5497 45.8703 87.4008 45.9686 87.2519 46.0177C87.4505 46.0669 87.5994 46.2144 87.7482 46.3619C87.8475 46.5094 87.9468 46.7552 88.046 46.9519L88.5423 48.5251H87.649L87.2519 47.0994C87.2023 46.9519 87.1527 46.8535 87.103 46.7552C87.0534 46.6569 86.9541 46.6077 86.9045 46.5586C86.8053 46.5094 86.7556 46.4602 86.6564 46.4602C86.5571 46.4602 86.4578 46.4602 86.3586 46.4602H85.6637V48.5743H84.8696Z" fill="#00557B"/>
<path d="M92.5624 45.379C92.5624 45.1823 92.5127 45.0348 92.4631 44.9365C92.4135 44.8381 92.3142 44.6907 92.2149 44.6415C92.1157 44.5432 92.0164 44.494 91.8675 44.4448C91.7186 44.3957 91.6194 44.3957 91.4705 44.3957C91.3216 44.3957 91.2223 44.3957 91.0734 44.4448C90.9245 44.494 90.8253 44.5432 90.726 44.6415C90.6267 44.7398 90.5771 44.8381 90.4778 44.9365C90.3786 45.0348 90.3786 45.2315 90.3786 45.379V46.8539C90.3786 47.0505 90.4282 47.198 90.4778 47.2964C90.5275 47.4438 90.6267 47.5422 90.726 47.5913C90.8253 47.6897 90.9245 47.7388 91.0734 47.788C91.1727 47.8372 91.3216 47.8372 91.4705 47.8372C91.6194 47.8372 91.7186 47.8372 91.8675 47.788C92.0164 47.7388 92.1157 47.6897 92.2149 47.5913C92.3142 47.493 92.3638 47.3947 92.4631 47.2964C92.5127 47.1489 92.5624 47.0014 92.5624 46.8539V45.379ZM93.3565 46.9522C93.3565 47.198 93.3068 47.4439 93.2076 47.6405C93.1083 47.8372 92.9594 48.0338 92.8105 48.1322C92.6616 48.2796 92.4631 48.378 92.2149 48.4271C91.9668 48.4763 91.7683 48.5255 91.4705 48.5255C91.2223 48.5255 90.9742 48.4763 90.726 48.4271C90.4778 48.378 90.3289 48.2305 90.1304 48.1322C89.9815 47.9847 89.8326 47.8372 89.7334 47.6405C89.6341 47.4439 89.5845 47.198 89.5845 46.9522V45.2315C89.5845 44.9856 89.6341 44.7398 89.7334 44.5432C89.8326 44.3465 89.9815 44.199 90.1304 44.0515C90.2793 43.904 90.4778 43.8057 90.726 43.7565C90.9245 43.7074 91.1727 43.6582 91.4705 43.6582C91.7186 43.6582 91.9668 43.7074 92.1653 43.7565C92.4135 43.8549 92.612 43.9532 92.7609 44.1007C92.9098 44.2482 93.0587 44.3957 93.1579 44.5923C93.2572 44.789 93.3068 45.0348 93.3068 45.2806V46.9522H93.3565Z" fill="#00557B"/>
<path d="M98.5186 45.5756L98.0719 46.5097L97.377 47.8372H96.7815L96.0866 46.5589L95.5903 45.5756H95.5407V48.5746H94.7466V43.6582H95.4911L96.4341 45.5264L97.0296 46.8047H97.0793L97.6748 45.5264L98.6178 43.6582H99.3623V48.5746H98.5186V45.5756Z" fill="#00557B"/>
<path d="M103.631 48.5746V44.3957H101.546V48.5746H100.752V43.6582H104.425V48.5746H103.631Z" fill="#00557B"/>
<path d="M106.956 46.8047H108.296L107.998 45.8706L107.601 44.6415H107.551L107.204 45.8214L106.956 46.8047ZM108.544 47.493H106.708L106.36 48.5255H105.517L107.254 43.6582H108.097L109.835 48.5255H108.941L108.544 47.493Z" fill="#00557B"/>
<path d="M113.656 48.5746V46.4606H111.621V48.5746H110.777V43.6582H111.621V45.7231H113.656V43.6582H114.5V48.5746H113.656Z" fill="#00557B"/>
<path d="M118.917 45.084C118.818 45.2315 118.719 45.379 118.619 45.5264C118.52 45.6739 118.421 45.8214 118.322 45.9689C118.272 46.0181 118.222 46.1164 118.123 46.2639C118.024 46.4114 117.925 46.5589 117.825 46.7064C117.726 46.903 117.577 47.0505 117.478 47.2472C117.329 47.4438 117.23 47.6405 117.13 47.788C117.031 47.9355 116.932 48.1321 116.833 48.2305C116.733 48.378 116.684 48.4763 116.634 48.5255H115.89V43.6582H116.684V47.1489H116.733L118.967 43.6582H119.711V48.5255H118.917V45.084Z" fill="#00557B"/>
<path d="M123.93 44.3957H122.838C122.59 44.3957 122.342 44.4448 122.242 44.5923C122.093 44.7398 122.044 44.9365 122.044 45.1331C122.044 45.379 122.093 45.5264 122.242 45.6248C122.391 45.7231 122.59 45.7723 122.838 45.7723H123.93V44.3957ZM124.724 43.6582V48.5255H123.93V46.5097H123.136C123.036 46.5097 122.937 46.5097 122.887 46.5589C122.788 46.5589 122.739 46.6081 122.639 46.6572C122.59 46.7064 122.49 46.7556 122.441 46.8539C122.391 46.9522 122.342 47.0505 122.292 47.198L121.895 48.5255H121.001L121.399 47.1489C121.448 46.9522 121.547 46.8047 121.597 46.6572C121.647 46.5097 121.796 46.4114 121.944 46.3131C121.647 46.2147 121.448 46.0673 121.299 45.8706C121.15 45.6248 121.101 45.379 121.101 45.1331C121.101 44.9365 121.15 44.7398 121.2 44.5923C121.25 44.3957 121.349 44.2482 121.498 44.1007C121.597 43.9532 121.746 43.8549 121.944 43.7565C122.143 43.6582 122.342 43.6582 122.59 43.6582H124.724Z" fill="#00557B"/>
<path d="M84.8203 26.1554V11.9961H97.8238V26.1554H93.4562V15.7326H89.2375V26.1554H84.8203Z" fill="#00557B"/>
<path d="M108.842 22.4681C109.785 22.4681 110.529 22.124 111.125 21.534C111.72 20.8949 112.018 20.0591 112.018 19.0758C112.018 18.0925 111.72 17.2567 111.125 16.6668C110.529 16.0276 109.785 15.6835 108.842 15.6835C107.899 15.6835 107.154 16.0276 106.559 16.6668C105.963 17.3059 105.665 18.0925 105.665 19.0758C105.665 20.0591 105.963 20.8949 106.559 21.534C107.154 22.124 107.899 22.4681 108.842 22.4681ZM103.333 13.8644C104.772 12.4386 106.608 11.7012 108.842 11.7012C111.026 11.7012 112.862 12.4386 114.301 13.8644C115.741 15.2902 116.485 17.0109 116.485 19.0758C116.485 21.1407 115.79 22.8614 114.301 24.2872C112.862 25.713 111.026 26.4504 108.842 26.4504C106.658 26.4504 104.822 25.713 103.333 24.2872C101.893 22.8614 101.149 21.0915 101.149 19.0758C101.199 17.0109 101.893 15.2902 103.333 13.8644Z" fill="#00557B"/>
<path d="M125.717 18.0433C126.61 18.0433 127.205 17.5025 127.205 16.765C127.205 16.0276 126.56 15.4868 125.717 15.4868H124.128V17.9941H125.717V18.0433ZM126.312 11.9961C127.95 11.9961 129.24 12.4386 130.233 13.2744C131.226 14.1593 131.722 15.2409 131.722 16.5684C131.722 17.8958 131.226 19.0266 130.233 19.9115C129.24 20.7965 127.95 21.1898 126.312 21.1898H124.128V26.1062H119.761V11.9961H126.312Z" fill="#00557B"/>
<path d="M138.919 21.043H142.045L140.408 16.9132L138.919 21.043ZM132.516 26.1561L138.422 11.8984H142.591L148.497 26.1561H143.782L143.088 24.337H137.777L137.082 26.1561H132.516Z" fill="#00557B"/>
<path d="M160.012 22.4189V15.7326H157.382C157.382 16.8633 157.282 18.0433 157.084 19.3707C156.885 20.649 156.637 21.6814 156.29 22.4189H160.012ZM150.433 28.7611V22.4189H151.872C152.815 20.7965 153.262 18.1908 153.262 14.7493V11.9961H164.38V22.4189H166.166V28.7611H162.047V26.1554H154.503V28.7611H150.433Z" fill="#00557B"/>
<path d="M176.44 22.4681C177.383 22.4681 178.128 22.124 178.723 21.534C179.319 20.8949 179.617 20.0591 179.617 19.0758C179.617 18.0925 179.319 17.2567 178.723 16.6668C178.128 16.0276 177.383 15.6835 176.44 15.6835C175.497 15.6835 174.753 16.0276 174.157 16.6668C173.561 17.3059 173.264 18.0925 173.264 19.0758C173.264 20.0591 173.561 20.8949 174.157 21.534C174.802 22.124 175.547 22.4681 176.44 22.4681ZM170.981 13.8644C172.42 12.4386 174.256 11.7012 176.49 11.7012C178.674 11.7012 180.51 12.4386 181.949 13.8644C183.389 15.2902 184.133 17.0109 184.133 19.0758C184.133 21.1407 183.438 22.8614 181.949 24.2872C180.51 25.713 178.674 26.4504 176.49 26.4504C174.306 26.4504 172.47 25.713 170.981 24.2872C169.541 22.8614 168.797 21.0915 168.797 19.0758C168.797 17.0109 169.492 15.2902 170.981 13.8644Z" fill="#00557B"/>
<path d="M187.061 26.1554V11.9961H191.429L194.555 17.0108L197.682 11.9961H202V26.1554H197.781V18.1908L195.796 21.5831H193.414L191.329 18.1908V26.1554H187.061Z" fill="#00557B"/>
</svg>
