<svg width="126" height="81" viewBox="0 0 126 81" fill="none" xmlns="http://www.w3.org/2000/svg">
<path d="M20.6163 66.2079L20.5308 67.5766C20.5308 67.8332 20.5308 68.0898 20.4452 68.3464C20.3597 68.6031 20.4452 68.7741 20.3597 68.9452C20.3597 69.1163 20.2742 69.2874 20.1886 69.4585C20.1031 69.6295 20.0175 69.7151 19.932 69.8861H22.3271V66.1224H20.6163V66.2079ZM19.0766 69.8861C19.1621 69.8006 19.3332 69.7151 19.4188 69.544C19.5043 69.4584 19.5898 69.2874 19.5898 69.1163C19.6754 68.9452 19.6754 68.6886 19.7609 68.432C19.7609 68.1754 19.8465 67.8332 19.8465 67.491L19.932 65.3525H23.3536C23.3536 66.1224 23.3536 66.8923 23.3536 67.6621C23.3536 68.432 23.3536 69.2018 23.3536 69.8861H23.7813V71.8536H22.9259V70.656H19.4188V71.8536H18.5634V69.8861H19.0766Z" fill="white"/>
<path d="M28.1422 67.2344C28.1422 67.0633 28.1422 66.8923 28.0566 66.7212C27.9711 66.5501 27.8856 66.4646 27.8 66.379C27.7145 66.2935 27.5434 66.2079 27.4579 66.2079C27.2868 66.2079 27.2012 66.1224 27.0302 66.1224C26.8591 66.1224 26.7735 66.1224 26.6025 66.2079C26.4314 66.2935 26.3458 66.2935 26.2603 66.379C26.1748 66.4646 26.0892 66.5501 26.0037 66.7212C25.9181 66.8923 25.9181 67.0633 25.9181 67.2344V68.8597C25.9181 69.0308 25.9181 69.2018 26.0037 69.3729C26.0892 69.544 26.1748 69.6295 26.2603 69.7151C26.3458 69.8006 26.5169 69.8861 26.6025 69.8861C26.688 69.8861 26.8591 69.9717 27.0302 69.9717C27.2012 69.9717 27.2868 69.9717 27.4579 69.8861C27.6289 69.8861 27.7145 69.8006 27.8 69.7151C27.8856 69.6295 27.9711 69.544 28.0566 69.3729C28.1422 69.2018 28.1422 69.0308 28.1422 68.8597V67.2344ZM28.9976 68.9452C28.9976 69.2018 28.912 69.4585 28.8265 69.7151C28.741 69.9717 28.5699 70.1428 28.3988 70.3138C28.2277 70.4849 27.9711 70.5705 27.8 70.656C27.5434 70.7415 27.2868 70.7415 27.0302 70.7415C26.7735 70.7415 26.5169 70.7415 26.2603 70.656C26.0037 70.5705 25.8326 70.4849 25.6615 70.3138C25.4904 70.1428 25.3194 69.9717 25.2338 69.7151C25.1483 69.4585 25.0627 69.2018 25.0627 68.9452V67.0633C25.0627 66.8067 25.1483 66.5501 25.2338 66.2935C25.3194 66.0369 25.4904 65.8658 25.6615 65.7802C25.8326 65.6092 26.0892 65.5236 26.2603 65.4381C26.5169 65.3525 26.7735 65.3525 27.0302 65.3525C27.2868 65.3525 27.5434 65.3525 27.8 65.4381C28.0566 65.5236 28.2277 65.6092 28.3988 65.7802C28.5699 65.9513 28.741 66.1224 28.8265 66.379C28.912 66.6356 28.9976 66.8067 28.9976 67.1489V68.9452Z" fill="white"/>
<path d="M34.5582 67.491L34.045 68.432L33.3607 69.9717H32.6763L31.992 68.5175L31.3932 67.491V70.7415H30.5378V65.3525H31.3077L32.3342 67.4055L33.0185 68.7741L33.7028 67.4055L34.6438 65.3525H35.4992V70.7415H34.5582V67.491Z" fill="white"/>
<path d="M40.03 67.2344C40.03 67.0633 40.03 66.8923 39.9445 66.7212C39.8589 66.5501 39.7734 66.4646 39.6878 66.379C39.6023 66.2935 39.4312 66.2079 39.3457 66.2079C39.1746 66.2079 39.0891 66.1224 38.918 66.1224C38.7469 66.1224 38.6614 66.1224 38.4903 66.2079C38.3192 66.2935 38.2337 66.2935 38.1481 66.379C38.0626 66.4646 37.977 66.5501 37.8915 66.7212C37.806 66.8923 37.806 67.0633 37.806 67.2344V68.8597C37.806 69.0308 37.806 69.2018 37.8915 69.3729C37.977 69.544 38.0626 69.6295 38.1481 69.7151C38.2337 69.8006 38.4047 69.8861 38.4903 69.8861C38.6614 69.8861 38.7469 69.9717 38.918 69.9717C39.0891 69.9717 39.1746 69.9717 39.3457 69.8861C39.5168 69.8861 39.6023 69.8006 39.6878 69.7151C39.7734 69.6295 39.8589 69.544 39.9445 69.3729C40.03 69.2018 40.03 69.0308 40.03 68.8597V67.2344ZM40.8854 68.9452C40.8854 69.2018 40.7999 69.4585 40.7143 69.7151C40.6288 69.9717 40.4577 70.1428 40.2866 70.3138C40.1155 70.4849 39.8589 70.5705 39.6878 70.656C39.4312 70.7415 39.1746 70.7415 38.918 70.7415C38.6614 70.7415 38.4047 70.7415 38.1481 70.656C37.8915 70.5705 37.7204 70.4849 37.5493 70.3138C37.3783 70.1428 37.2072 69.9717 37.1216 69.7151C37.0361 69.4585 36.9506 69.2018 36.9506 68.9452V67.0633C36.9506 66.8067 37.0361 66.5501 37.1216 66.2935C37.2072 66.0369 37.3783 65.8658 37.5493 65.7802C37.7204 65.6092 37.977 65.5236 38.1481 65.4381C38.4047 65.3525 38.6614 65.3525 38.918 65.3525C39.1746 65.3525 39.4312 65.3525 39.6878 65.4381C39.9445 65.5236 40.1155 65.6092 40.2866 65.7802C40.4577 65.9513 40.6288 66.1224 40.7143 66.379C40.7999 66.6356 40.8854 66.8067 40.8854 67.1489V68.9452Z" fill="white"/>
<path d="M45.4216 66.5499C45.2505 66.4644 45.0794 66.2933 44.9083 66.2933C44.7372 66.2078 44.4806 66.2078 44.3095 66.2078C44.1385 66.2078 44.0529 66.2078 43.8818 66.2933C43.7108 66.2933 43.6252 66.3788 43.5397 66.4644C43.4542 66.5499 43.3686 66.6355 43.2831 66.8065C43.1975 66.9776 43.1975 67.1487 43.1975 67.3198V68.945C43.1975 69.1161 43.1975 69.2872 43.2831 69.4583C43.3686 69.6294 43.4542 69.7149 43.5397 69.8004C43.6252 69.886 43.7963 69.9715 43.8818 69.9715C43.9674 69.9715 44.1385 70.0571 44.224 70.0571C44.3951 70.0571 44.5662 70.057 44.8228 69.9715C44.9939 69.886 45.1649 69.8004 45.336 69.7149L45.7637 70.3992C45.5926 70.5703 45.336 70.6558 45.0794 70.7414C44.8228 70.8269 44.4806 70.9125 44.224 70.9125C43.9674 70.9125 43.7108 70.9124 43.4541 70.8269C43.1975 70.7414 43.0264 70.6558 42.8554 70.4848C42.6843 70.3137 42.5132 70.1426 42.4277 69.9715C42.3421 69.7149 42.2566 69.5438 42.2566 69.2017V67.2342C42.2566 66.9776 42.3421 66.721 42.4277 66.4644C42.5132 66.2933 42.6843 66.0367 42.8554 65.9511C43.0264 65.7801 43.2831 65.6945 43.4541 65.609C43.7108 65.5234 43.9674 65.5234 44.224 65.5234C44.4806 65.5234 44.8228 65.5234 45.0794 65.609C45.336 65.6945 45.5926 65.7801 45.7637 65.9511L45.4216 66.5499Z" fill="white"/>
<path d="M49.1845 66.2079V70.7415H48.3291V66.2079H46.8749V65.3525H50.6386V66.2079H49.1845Z" fill="white"/>
<path d="M52.6931 67.8332H53.8907C54.1473 67.8332 54.3184 67.7477 54.4894 67.5766C54.6605 67.4055 54.7461 67.2344 54.7461 66.9778C54.7461 66.7212 54.6605 66.5501 54.4894 66.379C54.3184 66.2079 54.1473 66.1224 53.8907 66.1224H52.6931V67.8332ZM54.0617 65.3525C54.3184 65.3525 54.575 65.4381 54.7461 65.5236C54.9171 65.6092 55.0882 65.7802 55.1738 65.8658C55.2593 65.9513 55.4304 66.2079 55.4304 66.379C55.5159 66.5501 55.5159 66.8067 55.5159 66.9778C55.5159 67.1489 55.5159 67.32 55.4304 67.5766C55.3448 67.7477 55.2593 67.9187 55.0882 68.0898C54.9171 68.2609 54.8316 68.3464 54.575 68.432C54.4039 68.5175 54.1473 68.6031 53.8907 68.6031H52.522V70.656H51.6666V65.3525H54.0617Z" fill="white"/>
<path d="M59.8769 67.2344C59.8769 67.0633 59.8769 66.8923 59.7914 66.7212C59.7058 66.5501 59.6203 66.4646 59.5348 66.379C59.4492 66.2935 59.2781 66.2079 59.1926 66.2079C59.0215 66.2079 58.936 66.1224 58.7649 66.1224C58.5938 66.1224 58.5083 66.1224 58.3372 66.2079C58.1661 66.2935 58.0806 66.2935 57.995 66.379C57.9095 66.4646 57.824 66.5501 57.7384 66.7212C57.6529 66.8923 57.6529 67.0633 57.6529 67.2344V68.8597C57.6529 69.0308 57.6529 69.2018 57.7384 69.3729C57.824 69.544 57.9095 69.6295 57.995 69.7151C58.0806 69.8006 58.2517 69.8861 58.3372 69.8861C58.4227 69.8861 58.5938 69.9717 58.7649 69.9717C58.936 69.9717 59.0215 69.9717 59.1926 69.8861C59.3637 69.8861 59.4492 69.8006 59.5348 69.7151C59.6203 69.6295 59.7058 69.544 59.7914 69.3729C59.8769 69.2018 59.8769 69.0308 59.8769 68.8597V67.2344ZM60.7323 68.9452C60.7323 69.2018 60.6468 69.4585 60.5612 69.7151C60.4757 69.9717 60.3046 70.1428 60.1335 70.3138C59.9625 70.4849 59.7058 70.5705 59.5348 70.656C59.2781 70.7415 59.0215 70.7415 58.7649 70.7415C58.5083 70.7415 58.2517 70.7415 57.995 70.656C57.7384 70.5705 57.5673 70.4849 57.3963 70.3138C57.2252 70.1428 57.0541 69.9717 56.9686 69.7151C56.883 69.4585 56.7975 69.2018 56.7975 68.9452V67.0633C56.7975 66.8067 56.883 66.5501 56.9686 66.2935C57.0541 66.0369 57.2252 65.8658 57.3963 65.7802C57.5673 65.6092 57.824 65.5236 57.995 65.4381C58.2517 65.3525 58.5083 65.3525 58.7649 65.3525C59.0215 65.3525 59.2781 65.3525 59.5348 65.4381C59.7914 65.5236 59.9625 65.6092 60.1335 65.7802C60.3046 65.9513 60.4757 66.1224 60.5612 66.379C60.6468 66.6356 60.7323 66.8067 60.7323 67.1489V68.9452Z" fill="white"/>
<path d="M65.4381 66.8921C65.3526 67.0632 65.2671 67.2342 65.096 67.4053C65.0104 67.5764 64.9249 67.7475 64.7538 67.9186C64.7538 68.0041 64.6683 68.0896 64.5827 68.2607C64.4972 68.4318 64.4117 68.6029 64.2406 68.774C64.155 68.945 63.984 69.2017 63.8984 69.3727C63.7273 69.5438 63.6418 69.8004 63.4707 69.9715C63.3852 70.1426 63.2141 70.3137 63.1286 70.4848C63.043 70.6558 62.9575 70.7414 62.9575 70.8269H62.1876V65.5234H63.043V69.2872L65.4381 65.5234H66.2935V70.8269H65.4381V66.8921Z" fill="white"/>
<path d="M69.8856 66.2079V70.7415H69.0302V66.2079H67.576V65.3525H71.3398V66.2079H69.8856Z" fill="white"/>
<path d="M72.5343 65.3525H76.127V66.2079H73.3897V67.6621H75.7848V68.432H73.3897V69.8861H76.127V70.7415H72.5343V65.3525Z" fill="white"/>
<path d="M78.9521 66.2078V67.7476C78.9521 68.2608 78.9521 68.603 78.8665 69.0307C78.781 69.3728 78.6955 69.715 78.6099 69.9716C78.4388 70.2282 78.2677 70.3993 78.0967 70.5704C77.9256 70.7415 77.669 70.827 77.3268 70.9125L77.0702 70.1427C77.2413 70.0571 77.4123 69.9716 77.5834 69.8005C77.7545 69.715 77.84 69.5439 77.9256 69.3728C78.0111 69.2017 78.0967 68.9451 78.0967 68.6885C78.0967 68.4319 78.1822 68.0897 78.1822 67.7476V65.438H81.5183V70.7415H80.5773V66.2078H78.9521Z" fill="white"/>
<path d="M83.9147 69.8861H85.1123C85.3689 69.8861 85.54 69.8005 85.711 69.6294C85.8821 69.4584 85.9677 69.2873 85.9677 69.0307C85.9677 68.774 85.8821 68.603 85.711 68.4319C85.54 68.2608 85.3689 68.2608 85.1123 68.2608H83.9147V69.8861ZM82.9738 70.7415V65.438H83.8292V67.5765H85.1978C85.4544 67.5765 85.6255 67.662 85.8821 67.662C86.0532 67.7476 86.2243 67.8331 86.3954 68.0042C86.5664 68.1753 86.652 68.3463 86.7375 68.5174C86.8231 68.6885 86.8231 68.9451 86.8231 69.1162C86.8231 69.2873 86.8231 69.4584 86.7375 69.715C86.652 69.8861 86.5664 70.0571 86.4809 70.2282C86.3954 70.3993 86.2243 70.4848 85.9677 70.5704C85.7966 70.6559 85.54 70.7415 85.2833 70.7415H82.9738Z" fill="white"/>
<path d="M91.1859 70.7415V68.432H88.9618V70.7415H88.1064V65.3525H88.9618V67.5766H91.1859V65.3525H92.0413V70.7415H91.1859Z" fill="white"/>
<path d="M94.6932 68.7741H96.1474L95.8052 67.7477L95.3775 66.379L94.9498 67.6621L94.6932 68.7741ZM96.4895 69.544H94.5221L94.18 70.656H93.239L95.1209 65.3525H95.9763L97.8582 70.656H96.9172L96.4895 69.544Z" fill="white"/>
<path d="M101.878 66.2081H100.68C100.423 66.2081 100.167 66.2937 99.9958 66.4647C99.8247 66.6358 99.7392 66.8069 99.7392 67.0635C99.7392 67.3201 99.8247 67.4912 99.9958 67.6623C100.167 67.7478 100.338 67.8334 100.595 67.8334H101.792V66.2081H101.878ZM102.733 65.3527V70.6562H101.878V68.4322H101.022C100.937 68.4322 100.851 68.4322 100.766 68.4322C100.68 68.4322 100.595 68.5177 100.509 68.5177C100.423 68.6032 100.338 68.6888 100.338 68.7743C100.252 68.8599 100.252 69.0309 100.167 69.1165L99.7392 70.5707H98.7982L99.2259 69.0309C99.3115 68.8599 99.397 68.6888 99.4825 68.5177C99.5681 68.3466 99.6536 68.2611 99.8247 68.1755C99.4825 68.09 99.3115 67.9189 99.1404 67.6623C98.9693 67.4057 98.9693 67.1491 98.9693 66.8069C98.9693 66.6358 98.9693 66.3792 99.0548 66.2081C99.1404 66.037 99.2259 65.866 99.3115 65.6949C99.4825 65.5238 99.5681 65.4383 99.8247 65.3527C99.9958 65.2672 100.252 65.1816 100.509 65.1816H102.733V65.3527Z" fill="white"/>
<path d="M39.4336 79.9797V74.6763H40.289V76.9003H40.9733C41.0589 76.9003 41.1444 76.9003 41.2299 76.9003C41.3155 76.9003 41.401 76.8148 41.4866 76.8148C41.5721 76.7292 41.6576 76.7292 41.7432 76.5582C41.8287 76.4726 41.9143 76.3015 41.9143 76.216L42.4275 74.7618H43.2829L42.7697 76.3015C42.6841 76.5581 42.5986 76.8148 42.4275 76.9859C42.342 77.1569 42.1709 77.2425 41.9998 77.328C42.2564 77.4136 42.4275 77.4991 42.513 77.6702C42.5986 77.8412 42.7696 78.0979 42.8552 78.3545L43.3684 80.0653H42.4275L41.9998 78.5256C41.9143 78.3545 41.9143 78.2689 41.8287 78.0979C41.7432 78.0123 41.6576 77.9268 41.5721 77.8412C41.4866 77.7557 41.401 77.7557 41.3155 77.7557C41.2299 77.7557 41.1444 77.7557 41.0589 77.7557H40.289V80.0653H39.4336V79.9797Z" fill="white"/>
<path d="M47.645 76.5582C47.645 76.3871 47.645 76.216 47.5595 76.0449C47.4739 75.8738 47.3884 75.7883 47.3029 75.7028C47.2173 75.6172 47.0462 75.5317 46.9607 75.5317C46.7896 75.5317 46.7041 75.4461 46.533 75.4461C46.3619 75.4461 46.2764 75.4461 46.1053 75.5317C45.9342 75.5317 45.8487 75.6172 45.7631 75.7028C45.6776 75.7883 45.5921 75.8738 45.5065 76.0449C45.421 76.216 45.421 76.3871 45.421 76.5582V78.1834C45.421 78.3545 45.421 78.5256 45.5065 78.6966C45.5921 78.8677 45.6776 78.9533 45.7631 79.0388C45.8487 79.1243 46.0198 79.2099 46.1053 79.2099C46.1908 79.2099 46.3619 79.2954 46.533 79.2954C46.7041 79.2954 46.7896 79.2954 46.9607 79.2099C47.1318 79.1243 47.2173 79.1243 47.3029 79.0388C47.3884 78.9533 47.4739 78.8677 47.5595 78.6966C47.645 78.5256 47.645 78.3545 47.645 78.1834V76.5582ZM48.586 78.2689C48.586 78.5256 48.5004 78.7822 48.4149 79.0388C48.3293 79.2954 48.1583 79.4665 47.9872 79.6376C47.8161 79.8087 47.5595 79.8942 47.3884 79.9797C47.1318 80.0653 46.8752 80.0653 46.6185 80.0653C46.3619 80.0653 46.1053 80.0653 45.8487 79.9797C45.5921 79.8942 45.421 79.8087 45.2499 79.6376C45.0788 79.4665 44.9077 79.2954 44.8222 79.0388C44.7367 78.7822 44.6511 78.5256 44.6511 78.2689V76.3871C44.6511 76.1304 44.7367 75.8738 44.8222 75.6172C44.9077 75.3606 45.0788 75.1895 45.2499 75.104C45.421 74.9329 45.6776 74.8474 45.8487 74.7618C46.1053 74.6763 46.3619 74.6763 46.6185 74.6763C46.8752 74.6763 47.1318 74.6763 47.3884 74.7618C47.645 74.8474 47.8161 74.9329 47.9872 75.104C48.1583 75.275 48.3293 75.4461 48.4149 75.7028C48.5004 75.9594 48.586 76.1305 48.586 76.4726V78.2689Z" fill="white"/>
<path d="M54.0618 76.7292L53.6341 77.7557L52.8642 79.2099H52.1799L51.4956 77.8412L50.9823 76.7292H50.8968V79.9797H50.0414V74.6763H50.8968L51.8377 76.7292L52.522 78.0979H52.6076L53.2064 76.6437L54.2328 74.6763H55.0027V79.9797H54.1473V76.7292H54.0618Z" fill="white"/>
<path d="M59.6198 79.9797V75.4461H57.3958V79.9797H56.4548V74.6763H60.4752V79.9797H59.6198Z" fill="white"/>
<path d="M63.1275 78.0979H64.5817L64.2395 77.0714L63.8118 75.7028L63.3841 76.9859L63.1275 78.0979ZM64.9239 78.8677H62.9564L62.6143 79.9797H61.6733L63.5552 74.6763H64.4106L66.2925 79.9797H65.3516L64.9239 78.8677Z" fill="white"/>
<path d="M70.3979 79.9797V77.6702H68.1739V79.9797H67.3185V74.6763H68.1739V76.9003H70.3979V74.6763H71.3389V79.9797H70.3979Z" fill="white"/>
<path d="M76.0432 76.2158C75.9577 76.3869 75.8722 76.558 75.7011 76.729C75.6155 76.9001 75.53 77.0712 75.3589 77.2423C75.3589 77.3278 75.2734 77.4134 75.1878 77.5844C75.1023 77.7555 75.0168 77.9266 74.8457 78.0977C74.7601 78.2688 74.5891 78.5254 74.5035 78.6965C74.3324 78.8675 74.2469 79.1242 74.0758 79.2952C73.9903 79.4663 73.8192 79.6374 73.7337 79.8085C73.6481 79.9796 73.5626 80.0651 73.5626 80.1506H72.7927V74.8472H73.6481V78.6109L76.0432 74.8472H76.8986V80.1506H76.0432V76.2158Z" fill="white"/>
<path d="M81.4323 75.4463H80.2348C79.9782 75.4463 79.7215 75.5319 79.5505 75.7029C79.3794 75.874 79.2938 76.0451 79.2938 76.3017C79.2938 76.5583 79.3794 76.7294 79.5505 76.9005C79.7215 76.986 79.8926 77.0716 80.1492 77.0716H81.3468V75.4463H81.4323ZM82.2877 74.6764V79.9799H81.4323V77.7559H80.5769C80.4914 77.7559 80.4059 77.7559 80.3203 77.7559C80.2348 77.7559 80.1492 77.8414 80.0637 77.8414C79.9782 77.927 79.8926 78.0125 79.8926 78.098C79.8071 78.1836 79.8071 78.3547 79.7215 78.4402L79.2938 79.8944H78.3529L78.7806 78.3547C78.8661 78.1836 78.9517 77.927 79.0372 77.8414C79.1228 77.6703 79.2083 77.5848 79.3794 77.4993C79.0372 77.4137 78.8661 77.2426 78.6951 76.986C78.524 76.7294 78.524 76.4728 78.524 76.1306C78.524 75.9596 78.524 75.7029 78.6095 75.5318C78.6951 75.3608 78.7806 75.1897 78.8661 75.0186C79.0372 74.8475 79.1228 74.762 79.3794 74.6764C79.5505 74.5909 79.8071 74.5054 80.0637 74.5054H82.2877V74.6764Z" fill="white"/>
<path d="M0 55.0877V39.605H13.943V55.0877H9.23831V43.7109H4.70469V55.0877H0Z" fill="white"/>
<path d="M26.09 51.0672C27.1165 51.0672 27.8863 50.725 28.5707 50.0407C29.1694 49.3564 29.5116 48.4155 29.5116 47.389C29.5116 46.277 29.1694 45.4216 28.5707 44.7372C27.9719 44.0529 27.1165 43.7108 26.09 43.7108C25.0635 43.7108 24.2937 44.0529 23.6093 44.7372C23.0106 45.4216 22.6684 46.277 22.6684 47.389C22.6684 48.501 23.0106 49.3564 23.6093 50.0407C24.2937 50.725 25.0635 51.0672 26.09 51.0672ZM20.1878 41.6578C21.7275 40.1181 23.6949 39.2627 26.09 39.2627C28.4851 39.2627 30.4525 40.0326 31.9923 41.6578C33.532 43.1975 34.3018 45.0794 34.3018 47.3034C34.3018 49.5275 33.532 51.4094 31.9923 53.0346C30.4525 54.5743 28.4851 55.3442 26.09 55.3442C23.6949 55.3442 21.7275 54.5743 20.1878 52.9491C18.648 51.4094 17.8782 49.4419 17.8782 47.3034C17.8782 45.1649 18.648 43.2831 20.1878 41.6578Z" fill="white"/>
<path d="M44.5672 46.2771C45.5082 46.2771 46.1925 45.6783 46.1925 44.9085C46.1925 44.0531 45.5082 43.5398 44.5672 43.5398H42.8564V46.2771H44.5672ZM45.166 39.605C46.9623 39.605 48.331 40.0327 49.3575 41.0592C50.4695 42.0001 50.9827 43.1977 50.9827 44.6518C50.9827 46.106 50.4695 47.3036 49.3575 48.2445C48.331 49.1855 46.8768 49.6987 45.166 49.6987H42.8564V55.0877H38.1517V39.605H45.166Z" fill="white"/>
<path d="M58.7654 49.5272H62.1015L60.3907 44.9936L58.7654 49.5272ZM51.8367 55.0873L58.1666 39.519H62.7002L69.0302 55.0873H63.9833L63.2135 53.1199H57.4823L56.7124 55.0873H51.8367Z" fill="white"/>
<path d="M81.4337 50.9818V43.7109H78.6109C78.6109 44.9085 78.5253 46.1916 78.2687 47.6457C78.0976 49.0999 77.7555 50.1264 77.4133 50.9818H81.4337ZM71.0834 57.9961V50.9818H72.6231C73.6496 49.1855 74.0773 46.3626 74.0773 42.5989V39.605H86.0529V50.9818H88.0203V57.9105H83.5722V55.0877H75.4459V57.9105H71.0834V57.9961Z" fill="white"/>
<path d="M98.7978 51.0672C99.8242 51.0672 100.594 50.725 101.278 50.0407C101.877 49.3564 102.219 48.4155 102.219 47.389C102.219 46.277 101.877 45.4216 101.278 44.7372C100.68 44.0529 99.8242 43.7108 98.7978 43.7108C97.7713 43.7108 97.0014 44.0529 96.3171 44.7372C95.7183 45.4216 95.3762 46.277 95.3762 47.389C95.3762 48.501 95.7183 49.3564 96.3171 50.0407C97.0014 50.725 97.7713 51.0672 98.7978 51.0672ZM92.8955 41.6578C94.4352 40.1181 96.4026 39.2627 98.7978 39.2627C101.193 39.2627 103.16 40.0326 104.7 41.6578C106.24 43.1975 107.01 45.0794 107.01 47.3034C107.01 49.5275 106.24 51.4094 104.7 53.0346C103.16 54.5743 101.193 55.3442 98.7978 55.3442C96.4026 55.3442 94.4352 54.5743 92.8955 52.9491C91.3558 51.4094 90.5859 49.4419 90.5859 47.3034C90.5859 45.1649 91.3558 43.2831 92.8955 41.6578Z" fill="white"/>
<path d="M109.919 55.0877V39.605H114.538L117.959 45.1651L121.295 39.605H126V55.0877H121.466V46.4482L119.242 50.1264H116.762L114.452 46.4482V55.0877H109.919Z" fill="white"/>
<path d="M55.1732 1.53972C55.1732 1.7108 55.1732 1.88188 55.0876 2.05296C55.0021 2.22404 54.9166 2.30958 54.831 2.48066C54.7455 2.65174 54.6599 2.73728 54.4889 2.82282C54.4033 2.90836 54.2322 2.9939 54.1467 3.16498C54.0612 3.25052 53.8901 3.33606 53.8045 3.4216C53.6335 3.50714 53.5479 3.59268 53.3768 3.76376C53.2913 3.84929 53.1202 4.02038 53.0347 4.10592C52.9491 4.277 52.8636 4.36254 52.8636 4.53362H55.0876V5.38901H51.8371V4.61915C51.8371 4.44807 51.8371 4.19146 51.9227 4.02038C52.0082 3.8493 52.0937 3.67822 52.1793 3.50714C52.2648 3.33606 52.4359 3.25052 52.5214 3.07944C52.6925 2.9939 52.7781 2.82282 52.9491 2.73728C53.1202 2.65174 53.2058 2.5662 53.3768 2.48066C53.5479 2.39512 53.6335 2.30958 53.719 2.22404C53.8045 2.1385 53.8901 2.05296 53.9756 1.88188C54.0612 1.79634 54.0612 1.7108 54.0612 1.53972C54.0612 1.45418 54.0612 1.36864 53.9756 1.2831C53.9756 1.19756 53.8901 1.19756 53.8045 1.11202C53.719 1.02648 53.6335 1.02648 53.5479 1.02648C53.4624 1.02648 53.3768 1.02648 53.2913 1.02648C53.1202 1.02648 52.9491 1.02648 52.7781 1.11202C52.607 1.19756 52.4359 1.2831 52.2648 1.36864L51.7516 0.59878C51.9227 0.4277 52.1793 0.25662 52.4359 0.17108C52.6925 0.0855405 52.9491 0 53.2913 0C53.4624 0 53.719 3.25034e-07 53.8901 0.0855402C54.0612 0.17108 54.2322 0.256619 54.4033 0.342159C54.5744 0.427699 54.6599 0.598779 54.831 0.769859C55.1732 1.02648 55.1732 1.19756 55.1732 1.53972Z" fill="white"/>
<path d="M58.8503 1.62526C58.8503 1.53972 58.8503 1.36864 58.7648 1.2831C58.7648 1.19756 58.6793 1.11202 58.5937 1.11202C58.5082 1.02648 58.4226 1.02648 58.3371 1.02648C58.2516 1.02648 58.166 1.02648 58.0805 1.02648C57.995 1.02648 57.9094 1.02648 57.8239 1.02648C57.7383 1.02648 57.6528 1.11202 57.5672 1.11202C57.4817 1.19756 57.4817 1.19756 57.3962 1.2831C57.3962 1.36864 57.3106 1.45418 57.3106 1.62526V3.76376C57.3106 3.8493 57.3106 4.02038 57.3962 4.10592C57.3962 4.19146 57.4817 4.277 57.5672 4.277C57.6528 4.36253 57.7383 4.36254 57.8239 4.36254C57.9094 4.36254 57.995 4.36254 58.0805 4.36254C58.166 4.36254 58.2516 4.36254 58.3371 4.36254C58.4226 4.36254 58.5082 4.277 58.5937 4.277C58.6793 4.19146 58.6793 4.19146 58.7648 4.10592C58.7648 4.02038 58.8503 3.93484 58.8503 3.76376V1.62526ZM59.8768 3.93484C59.8768 4.19146 59.7913 4.36254 59.7057 4.53362C59.6202 4.7047 59.4491 4.87578 59.278 4.96132C59.107 5.04685 58.9359 5.13239 58.7648 5.21793C58.5937 5.30347 58.3371 5.30347 58.166 5.30347C57.995 5.30347 57.8239 5.30347 57.5672 5.21793C57.3962 5.13239 57.2251 5.04685 57.054 4.96132C56.8829 4.87578 56.7974 4.7047 56.6263 4.53362C56.6263 4.44808 56.5408 4.19146 56.5408 3.93484V1.36864C56.5408 1.11202 56.6263 0.940939 56.7118 0.769859C56.7974 0.598779 56.9685 0.427699 57.1395 0.342159C57.3106 0.256619 57.4817 0.17108 57.6528 0.0855402C57.8239 3.25034e-07 58.0805 0 58.2516 0C58.4226 0 58.5937 3.25034e-07 58.8503 0.0855402C59.0214 0.17108 59.1925 0.256619 59.3636 0.342159C59.5347 0.427699 59.6202 0.598779 59.7913 0.769859C59.8768 0.940939 59.9624 1.19756 59.9624 1.36864V3.93484H59.8768Z" fill="white"/>
<path d="M62.613 5.30338V1.36855L62.0998 1.79625L61.5865 1.11193L62.6986 0.0854492H63.554V5.30338H62.613Z" fill="white"/>
<path d="M69.1139 1.53972C69.1139 1.7108 69.1139 1.88188 69.0283 2.05296C68.9428 2.22404 68.8572 2.30958 68.7717 2.48066C68.6862 2.65174 68.6006 2.73728 68.4295 2.82282C68.344 2.90836 68.1729 2.9939 68.0874 3.16498C68.0018 3.25052 67.8308 3.33606 67.7452 3.4216C67.5741 3.50714 67.4886 3.59268 67.3175 3.76376C67.232 3.84929 67.0609 4.02038 66.9754 4.10592C66.8898 4.277 66.8043 4.36254 66.8043 4.53362H69.0283V5.38901H65.7778V4.61915C65.7778 4.44807 65.7778 4.19146 65.8633 4.02038C65.9489 3.8493 66.0344 3.67822 66.12 3.50714C66.2055 3.33606 66.3766 3.25052 66.4621 3.07944C66.6332 2.9939 66.7187 2.82282 66.8898 2.73728C67.0609 2.65174 67.1464 2.5662 67.3175 2.48066C67.4886 2.39512 67.5741 2.30958 67.6597 2.22404C67.7452 2.1385 67.8308 2.05296 67.9163 1.88188C68.0018 1.79634 68.0018 1.7108 68.0018 1.53972C68.0018 1.45418 68.0018 1.36864 67.9163 1.2831C67.9163 1.19756 67.8308 1.19756 67.7452 1.11202C67.6597 1.02648 67.5741 1.02648 67.4886 1.02648C67.4031 1.02648 67.3175 1.02648 67.232 1.02648C67.0609 1.02648 66.8898 1.02648 66.7187 1.11202C66.5477 1.19756 66.3766 1.2831 66.2055 1.36864L65.6923 0.59878C65.8633 0.4277 66.12 0.25662 66.3766 0.17108C66.6332 0.0855405 66.8898 0 67.232 0C67.4031 0 67.6597 3.20375e-07 67.8308 0.0855402C68.0018 0.17108 68.1729 0.256619 68.344 0.342159C68.5151 0.427699 68.6006 0.598779 68.7717 0.769859C69.1139 1.02648 69.1139 1.19756 69.1139 1.53972Z" fill="white"/>
<path d="M83.7441 13.4302H72.7095V15.9964H83.7441V13.4302Z" fill="white"/>
<path d="M89.5582 32.5049H81.6885V29.9387H86.992V27.8857H89.5582V32.5049Z" fill="white"/>
<path d="M39.6033 32.5049H31.9047V27.8857H34.4709V29.9387H39.6033V32.5049Z" fill="white"/>
<path d="M55.4275 24.8067H45.5905V20.1021H48.1567V22.2405H55.4275V24.8067Z" fill="white"/>
<path d="M83.6567 24.1223H81.0905V20.0164H75.4449H72.8787V17.4502H83.6567V24.1223Z" fill="#ED1556"/>
<path d="M75.4462 24.7213H65.6091V22.1551H72.88V20.0166H75.4462V24.7213Z" fill="white"/>
<path d="M30.1096 29.9384L28.9976 27.6288L60.7329 12.0605L92.4682 27.6288L91.2706 29.9384L60.7329 14.8834L30.1096 29.9384Z" fill="#ED1556"/>
<path d="M35.413 31.9916L34.301 29.6821L60.7329 16.8511L87.0791 29.6821L85.9671 31.9916L60.7329 19.7594L35.413 31.9916Z" fill="white"/>
<path d="M60.6475 28.9982C60.0487 28.9982 59.5354 29.5115 59.5354 30.1103C59.5354 30.709 60.0487 31.2223 60.6475 31.2223C61.2462 31.2223 61.7595 30.709 61.7595 30.1103C61.7595 29.5115 61.2462 28.9982 60.6475 28.9982ZM60.6475 33.874C58.5945 33.874 56.9692 32.2488 56.9692 30.1958C56.9692 28.1428 58.5945 26.5176 60.6475 26.5176C62.7004 26.5176 64.3257 28.1428 64.3257 30.1958C64.3257 32.1632 62.7004 33.874 60.6475 33.874Z" fill="white"/>
</svg>
