<svg width="202" height="50" viewBox="0 0 202 50" fill="none" xmlns="http://www.w3.org/2000/svg">
<path d="M69.4344 42.6746H24.915V44.8378H69.4344V42.6746Z" fill="#00557B"/>
<path d="M3.62306 13.471C3.62306 13.6185 3.57343 13.766 3.5238 13.8643C3.47417 14.0118 3.42453 14.1102 3.32527 14.2085C3.22601 14.3068 3.12675 14.4051 3.02748 14.5035C2.97785 14.651 2.87859 14.7493 2.77933 14.7985C2.68006 14.8476 2.5808 14.9459 2.48154 15.0443C2.38227 15.1426 2.23338 15.1918 2.13412 15.2901C2.03485 15.3884 1.93559 15.4868 1.83633 15.5851C1.73706 15.6834 1.68743 15.8309 1.68743 15.9292H3.62306V16.7159H0.843699V16.0767C0.843699 15.8801 0.89333 15.7326 0.942962 15.5851C0.992593 15.4376 1.09186 15.2901 1.14149 15.1426C1.24075 14.9951 1.34001 14.8968 1.43928 14.7985C1.53854 14.7001 1.68743 14.6018 1.7867 14.5035C1.88596 14.4051 2.03485 14.356 2.13412 14.2576C2.23338 14.1593 2.33264 14.1102 2.43191 14.0118C2.53117 13.9135 2.5808 13.8643 2.63043 13.766C2.68006 13.6677 2.72969 13.5693 2.72969 13.5202C2.72969 13.471 2.72969 13.3727 2.68006 13.3235C2.63043 13.2744 2.5808 13.2252 2.53117 13.176C2.48154 13.1269 2.38227 13.1269 2.33264 13.0777C2.23338 13.0777 2.18375 13.0285 2.08449 13.0285C1.93559 13.0285 1.7867 13.0777 1.6378 13.1269C1.48891 13.176 1.34001 13.2744 1.24075 13.3727L0.794067 12.7336C0.942962 12.5861 1.14149 12.4877 1.38964 12.3894C1.6378 12.2911 1.88596 12.2911 2.13412 12.2911C2.28301 12.2911 2.48154 12.2911 2.63043 12.3402C2.77933 12.3894 2.97785 12.4386 3.07711 12.5369C3.22601 12.6352 3.32527 12.7827 3.42453 12.9302C3.62306 13.0285 3.62306 13.2252 3.62306 13.471Z" fill="#00557B"/>
<path d="M6.79941 13.6185C6.79941 13.5202 6.79941 13.4218 6.74978 13.3727C6.70015 13.3235 6.65052 13.2252 6.60089 13.176C6.55126 13.1268 6.50163 13.0777 6.40236 13.0777C6.35273 13.0777 6.25347 13.0285 6.20384 13.0285C6.15421 13.0285 6.05494 13.0285 6.00531 13.0777C5.95568 13.0777 5.85642 13.1268 5.80679 13.176C5.75715 13.2252 5.70752 13.2743 5.65789 13.3727C5.60826 13.4218 5.60826 13.5202 5.60826 13.6185V15.4376C5.60826 15.5359 5.60826 15.6342 5.65789 15.6834C5.70752 15.7325 5.75715 15.8309 5.80679 15.88C5.85642 15.9292 5.90605 15.9784 6.00531 15.9784C6.05494 15.9784 6.15421 16.0275 6.20384 16.0275C6.25347 16.0275 6.35273 16.0275 6.40236 15.9784C6.45199 15.9784 6.55126 15.9292 6.60089 15.88C6.65052 15.8309 6.70015 15.7817 6.74978 15.6834C6.79941 15.6342 6.79941 15.5359 6.79941 15.4376V13.6185ZM7.64315 15.585C7.64315 15.7817 7.59352 15.9784 7.49426 16.1259C7.39499 16.2733 7.29573 16.3717 7.14683 16.47C6.99794 16.5683 6.84905 16.6175 6.70015 16.6667C6.55126 16.7158 6.35273 16.7158 6.20384 16.7158C6.05494 16.7158 5.85642 16.7158 5.70752 16.6667C5.55863 16.6175 5.40973 16.5683 5.26084 16.47C5.11195 16.3717 5.01268 16.2733 4.91342 16.1259C4.81416 15.9784 4.76453 15.7817 4.76453 15.585V13.471C4.76453 13.2743 4.81416 13.0777 4.91342 12.9302C5.01268 12.7827 5.11195 12.6352 5.26084 12.5369C5.40973 12.4385 5.55863 12.3402 5.70752 12.291C5.85642 12.2419 6.05494 12.2419 6.20384 12.2419C6.35273 12.2419 6.55126 12.291 6.70015 12.291C6.84905 12.3402 6.99794 12.4385 7.14683 12.5369C7.29573 12.6352 7.39499 12.7827 7.49426 12.9302C7.59352 13.0777 7.64315 13.2743 7.64315 13.471V15.585Z" fill="#00557B"/>
<path d="M9.97589 16.7159V13.3235L9.5292 13.7168L9.08252 13.1269L10.0751 12.2911H10.8196V16.7159H9.97589Z" fill="#00557B"/>
<path d="M15.5843 13.471C15.5843 13.6185 15.5347 13.766 15.4851 13.8643C15.4354 14.0118 15.3858 14.1102 15.2865 14.2085C15.1873 14.3068 15.088 14.4051 14.9887 14.5035C14.8895 14.6018 14.7902 14.7001 14.6909 14.7493C14.5917 14.7985 14.4924 14.8968 14.3932 14.9951C14.2939 15.0934 14.145 15.1426 14.0457 15.2409C13.9465 15.3393 13.8472 15.4376 13.7479 15.5359C13.6487 15.6342 13.5991 15.7817 13.5991 15.8801H15.5347V16.7159H12.7553V16.0767C12.7553 15.8801 12.805 15.7326 12.8546 15.5851C12.9042 15.4376 13.0035 15.2901 13.0531 15.1426C13.1524 14.9951 13.2516 14.8968 13.3509 14.7985C13.4502 14.7001 13.5991 14.6018 13.6983 14.5035C13.7976 14.4051 13.9465 14.356 14.0457 14.2576C14.145 14.1593 14.2443 14.1102 14.3435 14.0118C14.4428 13.9135 14.4924 13.8643 14.5421 13.766C14.5917 13.6677 14.6413 13.5693 14.6413 13.5202C14.6413 13.471 14.6413 13.3727 14.5917 13.3235C14.5421 13.2744 14.4924 13.2252 14.4428 13.176C14.3932 13.1269 14.2939 13.1269 14.2443 13.0777C14.145 13.0777 14.0954 13.0285 13.9961 13.0285C13.8472 13.0285 13.6983 13.0777 13.5494 13.1269C13.4005 13.176 13.2516 13.2744 13.1524 13.3727L12.7057 12.7336C12.8546 12.5861 13.0531 12.4877 13.3013 12.3894C13.5494 12.2911 13.7976 12.2911 14.0457 12.2911C14.1946 12.2911 14.3932 12.2911 14.5421 12.3402C14.6909 12.3894 14.8895 12.4386 14.9887 12.5369C15.1376 12.6352 15.2369 12.7827 15.3362 12.9302C15.5347 13.0285 15.5843 13.2252 15.5843 13.471Z" fill="#00557B"/>
<path d="M55.6368 9.48871H53.453V40.413H55.6368V9.48871Z" fill="#00557B"/>
<path d="M39.3577 26.4995H25.2128V28.6627H39.3577V26.4995Z" fill="#00557B"/>
<path d="M58.5651 26.4995H54.7931V28.6627H58.5651V26.4995Z" fill="#00557B"/>
<path d="M69.4344 26.4995H65.4639V28.6627H69.4344V26.4995Z" fill="#00557B"/>
<path d="M45.1646 24.1396H49.3833V17.1092L48.4403 16.5683H46.1572L45.1646 17.1092V24.1396ZM51.5671 26.3029H42.9808V15.8309L45.5617 14.356H49.0359L51.5671 15.8309V26.3029Z" fill="#00557B"/>
<path d="M45.1646 42.6746H49.3833V33.2842H45.1646V42.6746ZM51.5671 44.8378H42.9808V31.121H51.5671V44.8378Z" fill="#00557B"/>
<path d="M40.9956 9.48871H38.8118V40.413H40.9956V9.48871Z" fill="#00557B"/>
<path d="M30.5729 26.4503H34.742V21.4848H30.5233V26.4503H30.5729ZM36.9258 28.6136H28.3892V19.3215H36.9754V28.6136H36.9258Z" fill="#00557B"/>
<path d="M59.8059 38.2498H64.0246V21.4848H59.8059V38.2498ZM66.1587 40.413H57.5725V19.3215H66.1587V40.413Z" fill="#00557B"/>
<path d="M30.5729 38.2498H34.742V33.2842H30.5233V38.2498H30.5729ZM36.9258 40.413H28.3892V31.121H36.9754V40.413H36.9258Z" fill="#00557B"/>
<path d="M57.225 49.4101H24.1208V15.6834H26.3046V47.2468H57.225V49.4101Z" fill="#00557B"/>
<path d="M70.5263 49.4101H55.6368V47.2468H68.3425V15.6834H70.5263V49.4101Z" fill="#00557B"/>
<path d="M48.3907 13.6185H46.2069V15.4867H48.3907V13.6185Z" fill="#00557B"/>
<path d="M33.6501 18.584H31.4663V20.4523H33.6501V18.584Z" fill="#00557B"/>
<path d="M33.6998 30.4326H31.516V32.3009H33.6998V30.4326Z" fill="#00557B"/>
<path d="M62.883 18.584H60.6992V20.4523H62.883V18.584Z" fill="#00557B"/>
<path d="M52.9568 33.5792C49.8797 30.531 44.8669 30.531 41.8394 33.5792L40.3008 32.0551C44.2217 28.1711 50.6241 28.1711 54.545 32.0551L52.9568 33.5792Z" fill="#00557B"/>
<path d="M67.1513 1.17993H57.7213V3.34316H67.1513V1.17993Z" fill="#00557B"/>
<path d="M16.5769 29.0069C14.7405 29.0069 13.202 30.4818 13.202 32.35C13.202 34.1691 14.6909 35.6932 16.5769 35.6932C18.4133 35.6932 19.9518 34.2183 19.9518 32.35C19.9518 30.4818 18.4629 29.0069 16.5769 29.0069ZM16.5769 37.8073C13.4998 37.8073 11.0182 35.3491 11.0182 32.3009C11.0182 29.2527 13.4998 26.7945 16.5769 26.7945C19.6541 26.7945 22.1356 29.2527 22.1356 32.3009C22.1356 35.3491 19.6541 37.8073 16.5769 37.8073Z" fill="#00557B"/>
<path d="M21.0437 49.41H15.485V36.7256H17.6688V47.2468H21.0437V49.41Z" fill="#00557B"/>
<path d="M5.55872 41.1996C3.72236 41.1996 2.18378 42.6745 2.18378 44.5428C2.18378 46.3618 3.67273 47.8859 5.55872 47.8859C7.39508 47.8859 8.93366 46.411 8.93366 44.5428C8.88403 42.6745 7.39508 41.1996 5.55872 41.1996ZM5.55872 50C2.48157 50 0 47.5418 0 44.5428C0 41.4946 2.48157 39.0364 5.55872 39.0364C8.63587 39.0364 11.1174 41.4946 11.1174 44.5428C11.0678 47.5418 8.58624 50 5.55872 50Z" fill="#00557B"/>
<path d="M16.6265 47.2468H12.1597V49.4101H16.6265V47.2468Z" fill="#00557B"/>
<path d="M72.1641 17.2566H65.4639V15.0934H69.9803V13.3235H72.1641V17.2566Z" fill="#00557B"/>
<path d="M29.4314 17.2566H22.8304V13.3235H25.0142V15.0934H29.4314V17.2566Z" fill="#00557B"/>
<path d="M42.9808 10.7669H34.5435V6.8338H36.7272V8.60371H42.9808V10.7669Z" fill="#00557B"/>
<path d="M67.1017 10.177H64.9179V6.73549H60.054V6.78465H57.8702V4.57227H67.1017V10.177Z" fill="#ED1556"/>
<path d="M60.0541 10.6686H51.6664V8.50541H57.8703V6.78467H60.0541V10.6686Z" fill="#00557B"/>
<path d="M21.2919 15.0934L20.3489 13.1268L47.5469 0L74.6457 13.1268L73.7027 15.0934L47.5469 2.40905L21.2919 15.0934Z" fill="#ED1556"/>
<path d="M25.8084 16.8142L24.8654 14.8476L47.5469 4.08063L70.03 14.8476L69.087 16.8142L47.5469 6.48967L25.8084 16.8142Z" fill="#00557B"/>
<path d="M86.4083 35.8899L86.3587 37.1682C86.3587 37.414 86.3091 37.6598 86.3091 37.8565C86.3091 38.0531 86.2594 38.2498 86.2594 38.4464C86.2098 38.6431 86.1602 38.7906 86.1105 38.9381C86.0609 39.0856 86.0113 39.2331 85.912 39.3314H88.0958V35.8899H86.4083ZM84.9194 39.3314C85.0186 39.2331 85.1179 39.1347 85.2172 39.0364C85.3164 38.9381 85.3661 38.7906 85.4157 38.5939C85.4653 38.4464 85.5149 38.2006 85.5646 38.004C85.6142 37.7581 85.6142 37.4632 85.6142 37.1682L85.7135 35.2016H88.9395C88.9395 35.8899 88.9395 36.5782 88.9395 37.2665C88.9395 37.9548 88.9395 38.6431 88.9395 39.3314H89.3366V41.1013H88.5921V40.0197H85.3661V41.1013H84.6216V39.3314H84.9194Z" fill="#00557B"/>
<path d="M93.4063 36.8732C93.4063 36.6765 93.3567 36.529 93.3071 36.4307C93.2575 36.2832 93.1582 36.1849 93.0589 36.1357C92.9597 36.0374 92.8604 35.9882 92.7115 35.9391C92.5626 35.8899 92.4634 35.8899 92.3145 35.8899C92.1656 35.8899 92.0663 35.8899 91.9174 35.9391C91.7685 35.9882 91.6693 36.0374 91.57 36.1357C91.4707 36.234 91.4211 36.3324 91.3218 36.4307C91.2722 36.5782 91.2226 36.7257 91.2226 36.8732V38.3481C91.2226 38.5448 91.2722 38.6923 91.3218 38.7906C91.3715 38.9381 91.4707 39.0364 91.57 39.0856C91.6693 39.1839 91.7685 39.2331 91.9174 39.2822C92.0663 39.3314 92.1656 39.3314 92.3145 39.3314C92.4634 39.3314 92.5626 39.3314 92.7115 39.2822C92.8604 39.2331 92.9597 39.1839 93.0589 39.0856C93.1582 38.9872 93.2078 38.8889 93.3071 38.7906C93.3567 38.6431 93.4063 38.4956 93.4063 38.3481V36.8732ZM94.2005 38.4956C94.2005 38.7414 94.1508 38.9872 94.0516 39.1839C93.9523 39.3806 93.8034 39.5772 93.6545 39.6755C93.5056 39.823 93.3071 39.9214 93.0589 39.9705C92.8108 40.0197 92.6122 40.0689 92.3145 40.0689C92.0663 40.0689 91.8181 40.0197 91.57 39.9705C91.3218 39.9214 91.1729 39.7739 90.9744 39.6755C90.8255 39.5281 90.6766 39.3806 90.5774 39.1839C90.4781 38.9872 90.4285 38.7414 90.4285 38.4956V36.7749C90.4285 36.529 90.4781 36.2832 90.5774 36.0866C90.6766 35.8899 90.8255 35.7424 90.9744 35.5949C91.1233 35.4474 91.3218 35.3491 91.57 35.2999C91.8181 35.2508 92.0167 35.2016 92.3145 35.2016C92.5626 35.2016 92.8108 35.2508 93.0093 35.2999C93.2575 35.3983 93.456 35.4966 93.6049 35.6441C93.7538 35.7916 93.9027 35.9391 94.0019 36.1357C94.1012 36.3324 94.1508 36.5782 94.1508 36.824V38.4956H94.2005Z" fill="#00557B"/>
<path d="M99.3622 37.0698L98.9155 38.004L98.2207 39.3806H97.6251L96.9303 38.1023L96.4339 37.0698H96.3843V40.0689H95.5902V35.2016H96.3347L97.2777 37.0207L97.9229 38.2989L98.5681 37.0207L99.4615 35.2016H100.206V40.0689H99.4118V37.0698H99.3622Z" fill="#00557B"/>
<path d="M104.474 36.8731C104.474 36.6765 104.425 36.529 104.375 36.4306C104.325 36.2832 104.226 36.1848 104.127 36.1357C104.028 36.0373 103.928 35.9882 103.779 35.939C103.63 35.8898 103.531 35.8898 103.382 35.8898C103.233 35.8898 103.134 35.8898 102.985 35.939C102.886 35.9882 102.737 36.0373 102.638 36.1357C102.539 36.234 102.489 36.3323 102.39 36.4306C102.34 36.5781 102.29 36.7256 102.29 36.8731V38.348C102.29 38.5447 102.34 38.6922 102.39 38.7905C102.439 38.938 102.539 39.0363 102.638 39.0855C102.737 39.1838 102.836 39.233 102.985 39.2822C103.134 39.3313 103.233 39.3313 103.382 39.3313C103.531 39.3313 103.63 39.3313 103.779 39.2822C103.928 39.233 104.028 39.1838 104.127 39.0855C104.226 38.9872 104.276 38.8889 104.375 38.7905C104.425 38.643 104.474 38.4955 104.474 38.348V36.8731ZM105.268 38.4955C105.268 38.7414 105.219 38.9872 105.119 39.1838C105.02 39.3805 104.871 39.5772 104.722 39.6755C104.573 39.823 104.375 39.9213 104.127 39.9705C103.879 40.0196 103.68 40.0688 103.382 40.0688C103.134 40.0688 102.886 40.0196 102.638 39.9705C102.39 39.9213 102.241 39.7738 102.042 39.6755C101.893 39.528 101.744 39.3805 101.645 39.1838C101.546 38.9872 101.496 38.7414 101.496 38.4955V36.7748C101.496 36.529 101.546 36.2832 101.645 36.0865C101.744 35.8898 101.893 35.7423 102.042 35.5949C102.191 35.4474 102.39 35.349 102.638 35.2999C102.886 35.2507 103.085 35.2015 103.382 35.2015C103.63 35.2015 103.879 35.2507 104.077 35.2999C104.325 35.3982 104.524 35.4965 104.673 35.644C104.822 35.7915 104.971 35.939 105.07 36.1357C105.169 36.3323 105.219 36.5781 105.219 36.824V38.4955H105.268Z" fill="#00557B"/>
<path d="M109.487 36.234C109.338 36.1357 109.189 36.0374 108.991 35.9882C108.792 35.939 108.643 35.8899 108.445 35.8899C108.346 35.8899 108.197 35.8899 108.097 35.939C107.998 35.9882 107.849 36.0374 107.75 36.1357C107.651 36.234 107.601 36.3323 107.502 36.4307C107.452 36.5782 107.403 36.7257 107.403 36.8732V38.3481C107.403 38.5447 107.452 38.6922 107.502 38.7906C107.551 38.938 107.651 39.0364 107.75 39.0855C107.849 39.1839 107.948 39.233 108.097 39.2822C108.197 39.3314 108.346 39.3314 108.445 39.3314C108.643 39.3314 108.792 39.2822 108.991 39.233C109.189 39.1839 109.338 39.0855 109.487 38.9872L109.884 39.6263C109.735 39.7738 109.487 39.8722 109.239 39.9705C108.991 40.0688 108.693 40.118 108.445 40.118C108.197 40.118 107.998 40.0688 107.75 40.0197C107.551 39.9705 107.353 39.8722 107.154 39.7247C107.005 39.5772 106.857 39.4297 106.757 39.233C106.658 39.0364 106.608 38.7906 106.608 38.5447V36.7257C106.608 36.4798 106.658 36.234 106.757 36.0374C106.857 35.8407 107.005 35.6932 107.154 35.5457C107.303 35.3982 107.502 35.2999 107.75 35.2507C107.948 35.2016 108.197 35.1524 108.445 35.1524C108.693 35.1524 108.991 35.2016 109.239 35.2507C109.487 35.3491 109.686 35.4474 109.884 35.5949L109.487 36.234Z" fill="#00557B"/>
<path d="M112.961 35.8899V40.0689H112.167V35.8899H110.777V35.2016H114.351V35.8899H112.961Z" fill="#00557B"/>
<path d="M116.237 37.4139H117.378C117.627 37.4139 117.825 37.3648 117.924 37.2173C118.073 37.0698 118.123 36.8731 118.123 36.6765C118.123 36.4306 118.073 36.2832 117.924 36.1357C117.775 35.9882 117.577 35.939 117.378 35.939H116.237V37.4139ZM117.527 35.2015C117.775 35.2015 117.974 35.2507 118.172 35.349C118.371 35.4474 118.47 35.5457 118.619 35.6932C118.718 35.8407 118.818 35.9882 118.867 36.1848C118.917 36.3815 118.967 36.529 118.967 36.7256C118.967 36.9223 118.917 37.0698 118.867 37.2664C118.818 37.4631 118.718 37.6106 118.57 37.7581C118.47 37.9056 118.321 38.0039 118.123 38.1022C117.974 38.2006 117.726 38.2497 117.527 38.2497H116.237V40.1671H115.443V35.2999H117.527V35.2015Z" fill="#00557B"/>
<path d="M122.888 36.8731C122.888 36.6765 122.838 36.529 122.788 36.4306C122.739 36.2832 122.639 36.1848 122.54 36.1357C122.441 36.0373 122.342 35.9882 122.193 35.939C122.044 35.8898 121.944 35.8898 121.796 35.8898C121.647 35.8898 121.547 35.8898 121.399 35.939C121.299 35.9882 121.15 36.0373 121.051 36.1357C120.952 36.234 120.902 36.3323 120.803 36.4306C120.753 36.5781 120.704 36.7256 120.704 36.8731V38.348C120.704 38.5447 120.753 38.6922 120.803 38.7905C120.853 38.938 120.952 39.0363 121.051 39.0855C121.15 39.1838 121.25 39.233 121.399 39.2822C121.547 39.3313 121.647 39.3313 121.796 39.3313C121.944 39.3313 122.044 39.3313 122.193 39.2822C122.342 39.233 122.441 39.1838 122.54 39.0855C122.639 38.9872 122.689 38.8889 122.788 38.7905C122.838 38.643 122.888 38.4955 122.888 38.348V36.8731ZM123.682 38.4955C123.682 38.7414 123.632 38.9872 123.533 39.1838C123.433 39.3805 123.285 39.5772 123.136 39.6755C122.987 39.823 122.788 39.9213 122.54 39.9705C122.292 40.0196 122.093 40.0688 121.796 40.0688C121.547 40.0688 121.299 40.0196 121.051 39.9705C120.803 39.9213 120.654 39.7738 120.456 39.6755C120.307 39.528 120.158 39.3805 120.058 39.1838C119.959 38.9872 119.91 38.7414 119.91 38.4955V36.7748C119.91 36.529 119.959 36.2832 120.058 36.0865C120.158 35.8898 120.307 35.7423 120.456 35.5949C120.604 35.4474 120.803 35.349 121.051 35.2999C121.299 35.2507 121.498 35.2015 121.796 35.2015C122.044 35.2015 122.292 35.2507 122.49 35.2999C122.739 35.3982 122.937 35.4965 123.086 35.644C123.235 35.7915 123.384 35.939 123.483 36.1357C123.582 36.3323 123.632 36.5781 123.632 36.824V38.4955H123.682Z" fill="#00557B"/>
<path d="M128.099 36.5782C128 36.7257 127.9 36.8732 127.801 37.0206C127.702 37.1681 127.602 37.3156 127.503 37.4631C127.454 37.5123 127.404 37.6106 127.305 37.7581C127.205 37.9056 127.106 38.0531 127.007 38.2006C126.908 38.3972 126.759 38.5447 126.659 38.7414C126.511 38.938 126.411 39.1347 126.312 39.2822C126.213 39.4297 126.113 39.6263 126.014 39.7247C125.915 39.8722 125.865 39.9705 125.816 40.0197H125.071V35.1524H125.865V38.6431H125.915L128.148 35.1524H128.893V40.0197H128.099V36.5782Z" fill="#00557B"/>
<path d="M132.218 35.8899V40.0689H131.424V35.8899H130.034V35.2016H133.558V35.8899H132.218Z" fill="#00557B"/>
<path d="M134.7 35.2016H138.025V35.8899H135.494V37.2665H137.678V37.9548H135.494V39.3314H138.025V40.0689H134.7V35.2016Z" fill="#00557B"/>
<path d="M140.656 35.8899V37.3156C140.656 37.7581 140.606 38.1514 140.556 38.4464C140.507 38.7906 140.407 39.0364 140.308 39.2822C140.209 39.528 140.01 39.7247 139.812 39.8722C139.613 40.0197 139.365 40.118 139.067 40.2163L138.819 39.528C139.018 39.4297 139.167 39.3805 139.266 39.233C139.415 39.1347 139.514 38.9872 139.564 38.8397C139.663 38.6922 139.713 38.4464 139.713 38.2006C139.762 37.9548 139.762 37.6598 139.762 37.3156V35.1524H142.889V40.0197H142.045V35.8899H140.656Z" fill="#00557B"/>
<path d="M145.222 39.3313H146.363C146.611 39.3313 146.81 39.2822 146.959 39.1347C147.108 38.9872 147.157 38.8397 147.157 38.5939C147.157 38.348 147.058 38.2006 146.909 38.0531C146.76 37.9056 146.562 37.8564 146.314 37.8564H145.172V39.3313H145.222ZM144.428 40.0688V35.2015H145.222V37.1189H146.462C146.711 37.1189 146.909 37.1681 147.058 37.2173C147.257 37.3156 147.405 37.4139 147.505 37.5123C147.654 37.6598 147.753 37.8072 147.802 38.0039C147.852 38.2006 147.902 38.3481 147.902 38.5447C147.902 38.7414 147.852 38.8889 147.802 39.0855C147.753 39.2822 147.654 39.4297 147.554 39.5772C147.455 39.7246 147.306 39.823 147.108 39.9213C146.909 40.0196 146.711 40.0688 146.462 40.0688H144.428Z" fill="#00557B"/>
<path d="M151.972 40.0689V37.9548H149.937V40.0689H149.093V35.2016H149.937V37.2173H151.972V35.2016H152.815V40.0689H151.972Z" fill="#00557B"/>
<path d="M155.297 38.2989H156.686L156.389 37.3648L155.992 36.1357H155.942L155.595 37.3156L155.297 38.2989ZM156.935 38.9872H155.098L154.751 40.0197H153.857L155.595 35.1524H156.438L158.175 40.0197H157.282L156.935 38.9872Z" fill="#00557B"/>
<path d="M161.947 35.8899H160.806C160.558 35.8899 160.31 35.9391 160.21 36.0866C160.061 36.234 160.012 36.4307 160.012 36.6274C160.012 36.8732 160.061 37.0207 160.21 37.119C160.359 37.2173 160.558 37.2665 160.806 37.2665H161.898V35.8899H161.947ZM162.742 35.2016V40.0689H161.947V38.0531H161.153C161.054 38.0531 160.955 38.0531 160.905 38.1023C160.806 38.1023 160.756 38.1515 160.657 38.2006C160.607 38.2498 160.508 38.2989 160.458 38.3973C160.409 38.4956 160.359 38.5939 160.31 38.7414L159.913 40.0689H159.019L159.416 38.6923C159.466 38.4956 159.565 38.3481 159.615 38.2006C159.664 38.0531 159.813 37.9548 159.962 37.8565C159.664 37.7581 159.466 37.6106 159.317 37.414C159.168 37.1682 159.118 36.9223 159.118 36.6765C159.118 36.4799 159.168 36.2832 159.218 36.1357C159.267 35.9391 159.367 35.7916 159.515 35.6441C159.615 35.4966 159.764 35.3983 159.962 35.2999C160.161 35.2016 160.359 35.2016 160.607 35.2016H162.742Z" fill="#00557B"/>
<path d="M84.8698 48.5743V43.707H85.6639V45.7228H86.3091C86.4083 45.7228 86.4579 45.7228 86.5572 45.7228C86.6565 45.7228 86.7061 45.6736 86.8054 45.6244C86.9046 45.5753 86.9543 45.5261 87.0039 45.4278C87.0535 45.3295 87.1032 45.2311 87.1528 45.0836L87.5995 43.707H88.3936L87.9469 45.1328C87.8476 45.3786 87.798 45.5753 87.6491 45.7228C87.5498 45.8703 87.4009 45.9686 87.2521 46.0177C87.4506 46.0669 87.5995 46.2144 87.7484 46.3619C87.8476 46.5094 87.9469 46.7552 88.0462 46.9519L88.5425 48.5251H87.6491L87.2521 47.0994C87.2024 46.9519 87.1528 46.8535 87.1032 46.7552C87.0535 46.6569 86.9543 46.6077 86.9046 46.5586C86.8054 46.5094 86.7557 46.4602 86.6565 46.4602C86.5572 46.4602 86.458 46.4602 86.3587 46.4602H85.6639V48.5743H84.8698Z" fill="#00557B"/>
<path d="M92.5626 45.3786C92.5626 45.1819 92.513 45.0344 92.4633 44.9361C92.4137 44.8378 92.3144 44.6903 92.2152 44.6411C92.1159 44.5428 92.0167 44.4936 91.8678 44.4445C91.7189 44.3953 91.6196 44.3953 91.4707 44.3953C91.3218 44.3953 91.2226 44.3953 91.0737 44.4445C90.9248 44.4936 90.8255 44.5428 90.7262 44.6411C90.627 44.7395 90.5773 44.8378 90.4781 44.9361C90.3788 45.0344 90.3788 45.2311 90.3788 45.3786V46.8535C90.3788 47.0502 90.4285 47.1977 90.4781 47.296C90.5277 47.4435 90.627 47.5418 90.7262 47.591C90.8255 47.6893 90.9248 47.7385 91.0737 47.7876C91.1729 47.8368 91.3218 47.8368 91.4707 47.8368C91.6196 47.8368 91.7189 47.8368 91.8678 47.7876C92.0167 47.7385 92.1159 47.6893 92.2152 47.591C92.3144 47.4927 92.3641 47.3943 92.4633 47.296C92.513 47.1485 92.5626 47.001 92.5626 46.8535V45.3786ZM93.3567 46.9518C93.3567 47.1977 93.3071 47.4435 93.2078 47.6401C93.1086 47.8368 92.9597 48.0335 92.8108 48.1318C92.6619 48.2793 92.4633 48.3776 92.2152 48.4268C91.967 48.4759 91.7685 48.5251 91.4707 48.5251C91.2226 48.5251 90.9744 48.4759 90.7262 48.4268C90.4781 48.3776 90.3292 48.2301 90.1307 48.1318C89.9818 47.9843 89.8329 47.8368 89.7336 47.6401C89.6343 47.4435 89.5847 47.1977 89.5847 46.9518V45.2311C89.5847 44.9853 89.6343 44.7394 89.7336 44.5428C89.8329 44.3461 89.9818 44.1986 90.1307 44.0511C90.2796 43.9037 90.4781 43.8053 90.7262 43.7562C90.9248 43.707 91.1729 43.6578 91.4707 43.6578C91.7189 43.6578 91.967 43.707 92.1656 43.7562C92.4137 43.8545 92.6122 43.9528 92.7611 44.1003C92.91 44.2478 93.0589 44.3953 93.1582 44.592C93.2574 44.7886 93.3071 45.0344 93.3071 45.2803V46.9518H93.3567Z" fill="#00557B"/>
<path d="M98.5184 45.5752L98.0718 46.5094L97.3769 47.8368H96.7813L96.0865 46.5585L95.5902 45.5752H95.5406V48.5743H94.7465V43.6578H95.4909L96.4339 45.5261L97.0295 46.8043H97.0791L97.6747 45.5261L98.6177 43.6578H99.3622V48.5743H98.5184V45.5752Z" fill="#00557B"/>
<path d="M103.63 48.5743V44.3953H101.546V48.5743H100.752V43.6578H104.425V48.5743H103.63Z" fill="#00557B"/>
<path d="M106.956 46.8043H108.296L107.998 45.8702L107.601 44.6411H107.551L107.204 45.8211L106.956 46.8043ZM108.544 47.4926H106.708L106.36 48.5251H105.516L107.254 43.6578H108.097L109.834 48.5251H108.941L108.544 47.4926Z" fill="#00557B"/>
<path d="M113.656 48.5743V46.4602H111.621V48.5743H110.777V43.6578H111.621V45.7227H113.656V43.6578H114.5V48.5743H113.656Z" fill="#00557B"/>
<path d="M118.917 45.0836C118.818 45.2311 118.718 45.3786 118.619 45.5261C118.52 45.6736 118.421 45.8211 118.321 45.9686C118.272 46.0177 118.222 46.116 118.123 46.2635C118.024 46.411 117.924 46.5585 117.825 46.706C117.726 46.9027 117.577 47.0502 117.478 47.2468C117.329 47.4435 117.229 47.6401 117.13 47.7876C117.031 47.9351 116.932 48.1318 116.832 48.2301C116.733 48.3776 116.684 48.4759 116.634 48.5251H115.889V43.6578H116.684V47.1485H116.733L118.967 43.6578H119.711V48.5251H118.917V45.0836Z" fill="#00557B"/>
<path d="M123.93 44.3953H122.838C122.59 44.3953 122.342 44.4445 122.242 44.592C122.093 44.7394 122.044 44.9361 122.044 45.1328C122.044 45.3786 122.093 45.5261 122.242 45.6244C122.391 45.7227 122.59 45.7719 122.838 45.7719H123.93V44.3953ZM124.724 43.6578V48.5251H123.93V46.5094H123.136C123.036 46.5094 122.937 46.5094 122.887 46.5585C122.788 46.5585 122.739 46.6077 122.639 46.6569C122.59 46.706 122.49 46.7552 122.441 46.8535C122.391 46.9518 122.342 47.0502 122.292 47.1977L121.895 48.5251H121.001L121.399 47.1485C121.448 46.9518 121.547 46.8043 121.597 46.6569C121.647 46.5094 121.796 46.411 121.944 46.3127C121.647 46.2144 121.448 46.0669 121.299 45.8702C121.15 45.6244 121.101 45.3786 121.101 45.1328C121.101 44.9361 121.15 44.7394 121.2 44.592C121.25 44.3953 121.349 44.2478 121.498 44.1003C121.597 43.9528 121.746 43.8545 121.944 43.7562C122.143 43.6578 122.342 43.6578 122.59 43.6578H124.724Z" fill="#00557B"/>
<path d="M84.8202 26.1554V11.9961H97.8236V26.1554H93.4561V15.7326H89.2374V26.1554H84.8202Z" fill="#00557B"/>
<path d="M108.842 22.4681C109.785 22.4681 110.529 22.1239 111.125 21.534C111.72 20.8948 112.018 20.059 112.018 19.0757C112.018 18.0925 111.72 17.2567 111.125 16.6667C110.529 16.0276 109.785 15.6834 108.842 15.6834C107.899 15.6834 107.154 16.0276 106.559 16.6667C105.963 17.3058 105.665 18.0925 105.665 19.0757C105.665 20.059 105.963 20.8948 106.559 21.534C107.154 22.1239 107.899 22.4681 108.842 22.4681ZM103.333 13.8643C104.772 12.4386 106.608 11.7011 108.842 11.7011C111.026 11.7011 112.862 12.4386 114.301 13.8643C115.741 15.2901 116.485 17.0108 116.485 19.0757C116.485 21.1406 115.79 22.8614 114.301 24.2871C112.862 25.7129 111.026 26.4504 108.842 26.4504C106.658 26.4504 104.822 25.7129 103.333 24.2871C101.893 22.8614 101.149 21.0915 101.149 19.0757C101.199 17.0108 101.893 15.2901 103.333 13.8643Z" fill="#00557B"/>
<path d="M125.717 18.0433C126.61 18.0433 127.205 17.5025 127.205 16.765C127.205 16.0276 126.56 15.4868 125.717 15.4868H124.128V17.9941H125.717V18.0433ZM126.312 11.9961C127.95 11.9961 129.24 12.4386 130.233 13.2744C131.226 14.1593 131.722 15.2409 131.722 16.5684C131.722 17.8958 131.226 19.0266 130.233 19.9115C129.24 20.7965 127.95 21.1898 126.312 21.1898H124.128V26.1062H119.761V11.9961H126.312Z" fill="#00557B"/>
<path d="M138.918 21.0423H142.045L140.407 16.9125L138.918 21.0423ZM132.516 26.1554L138.422 11.8978H142.591L148.497 26.1554H143.782L143.087 24.3363H137.777L137.082 26.1554H132.516Z" fill="#00557B"/>
<path d="M160.012 22.4189V15.7326H157.381C157.381 16.8633 157.282 18.0433 157.084 19.3707C156.885 20.649 156.637 21.6814 156.289 22.4189H160.012ZM150.433 28.7611V22.4189H151.872C152.815 20.7965 153.262 18.1908 153.262 14.7493V11.9961H164.379V22.4189H166.166V28.7611H162.047V26.1554H154.503V28.7611H150.433Z" fill="#00557B"/>
<path d="M176.44 22.4681C177.383 22.4681 178.127 22.1239 178.723 21.534C179.318 20.8948 179.616 20.059 179.616 19.0757C179.616 18.0925 179.318 17.2567 178.723 16.6667C178.127 16.0276 177.383 15.6834 176.44 15.6834C175.497 15.6834 174.752 16.0276 174.157 16.6667C173.561 17.3058 173.263 18.0925 173.263 19.0757C173.263 20.059 173.561 20.8948 174.157 21.534C174.802 22.1239 175.546 22.4681 176.44 22.4681ZM170.98 13.8643C172.42 12.4386 174.256 11.7011 176.489 11.7011C178.673 11.7011 180.51 12.4386 181.949 13.8643C183.388 15.2901 184.133 17.0108 184.133 19.0757C184.133 21.1406 183.438 22.8614 181.949 24.2871C180.51 25.7129 178.673 26.4504 176.489 26.4504C174.306 26.4504 172.469 25.7129 170.98 24.2871C169.541 22.8614 168.797 21.0915 168.797 19.0757C168.797 17.0108 169.491 15.2901 170.98 13.8643Z" fill="#00557B"/>
<path d="M187.061 26.1554V11.9961H191.428L194.555 17.0108L197.682 11.9961H202V26.1554H197.781V18.1908L195.796 21.5831H193.414L191.329 18.1908V26.1554H187.061Z" fill="#00557B"/>
</svg>
