<svg width="60" height="60" viewBox="0 0 60 60" fill="none" xmlns="http://www.w3.org/2000/svg">
<circle opacity="0.8" cx="30" cy="30" r="30" fill="#0099E0"/>
<g clip-path="url(#clip0_4103_34488)">
<path d="M29.5835 23.334H27.0835V27.084H23.3335V29.584H27.0835V33.334H29.5835V29.584H33.3335V27.084H29.5835V23.334Z" fill="white"/>
<path d="M28.3119 18.334C22.8101 18.334 18.3335 22.8103 18.3335 28.3119C18.3335 33.8135 22.8101 38.2898 28.3119 38.2898C30.5259 38.2893 32.676 37.5482 34.42 36.1845L39.9031 41.6673L41.6668 39.9037L36.1837 34.4209C37.5482 32.6768 38.2898 30.5263 38.2904 28.3119C38.2904 22.8103 33.8138 18.334 28.3119 18.334ZM28.3119 35.7953C24.1846 35.7953 20.8281 32.439 20.8281 28.3119C20.8281 24.1848 24.1846 20.8285 28.3119 20.8285C32.4393 20.8285 35.7958 24.1848 35.7958 28.3119C35.7958 32.439 32.4393 35.7953 28.3119 35.7953Z" fill="white"/>
</g>
<defs>
<clipPath id="clip0_4103_34488">
<rect width="23.3333" height="23.3333" fill="white" transform="translate(18.3335 18.334)"/>
</clipPath>
</defs>
</svg>
