<svg width="48" height="48" viewBox="0 0 48 48" fill="none" xmlns="http://www.w3.org/2000/svg">
<path fill-rule="evenodd" clip-rule="evenodd" d="M22.899 8.96106C20.6009 9.25269 18.6485 10.2313 17.021 11.9073C15.1024 13.8829 14.1575 16.2236 14.1572 19.0012C14.1571 20.3523 14.2601 21.0451 14.6326 22.1994C15.1171 23.7003 15.8591 24.9508 16.9317 26.0743C18.3926 27.6044 20.1999 28.6079 22.2381 29.0203C23.0552 29.1857 25.1055 29.1626 25.9317 28.9787C28.9047 28.3169 31.3511 26.4152 32.6896 23.7256C33.4735 22.1503 33.7854 20.8448 33.7854 19.1393C33.7854 16.2835 32.8454 13.9257 30.9182 11.9472C29.4576 10.4477 27.9321 9.58315 25.9705 9.14307C25.2902 8.99045 23.5023 8.88451 22.899 8.96106ZM24.3719 12.9109C24.4549 12.9964 24.8221 13.6765 25.188 14.4224C26.156 16.3956 26.3945 16.5686 28.6319 16.92C30.1892 17.1645 30.364 17.2399 30.364 17.6662C30.364 17.8695 30.1921 18.0865 29.2799 19.0351C27.6494 20.7306 27.5683 20.9878 27.9435 23.2702C28.0725 24.0547 28.1571 24.7574 28.1316 24.8316C28.0491 25.0722 27.8557 25.247 27.6721 25.247C27.5734 25.247 26.9121 24.9376 26.2024 24.5596C24.2003 23.493 23.8915 23.4945 21.8404 24.5807C20.6458 25.2134 20.4868 25.2772 20.2865 25.2048C19.9053 25.0666 19.8874 24.8426 20.1336 23.2818C20.4987 20.9671 20.3656 20.5316 18.8446 19.0647C17.8518 18.1072 17.6472 17.8231 17.7237 17.509C17.7947 17.218 18.1336 17.1047 19.5677 16.8923C21.6627 16.5821 21.9675 16.355 22.9154 14.3989C23.2574 13.6932 23.6096 13.0347 23.6982 12.9357C23.8961 12.7143 24.1712 12.7043 24.3719 12.9109Z" fill="#ED1556"/>
<path fill-rule="evenodd" clip-rule="evenodd" d="M23.279 3.17159C22.6963 3.42431 22.373 3.63186 21.5154 4.30359C20.3517 5.21515 20.1896 5.30972 19.792 5.30867C19.5974 5.30819 18.9834 5.19833 18.4274 5.06469C16.9836 4.71749 16.4962 4.68843 16.0568 4.92312C15.5515 5.19305 15.2674 5.64106 14.8414 6.83976C14.1665 8.73886 13.9276 8.99109 12.2666 9.55737C11.0838 9.9607 10.7826 10.1087 10.3773 10.4857C9.83782 10.9876 9.79871 11.4783 10.1514 13.317C10.4982 15.1246 10.446 15.326 9.21699 16.9203C8.4121 17.9644 8.11654 18.5196 8.06358 19.0869C8.01242 19.6354 8.25526 20.1093 9.16901 21.2444C10.3772 22.7451 10.4663 23.0855 10.1045 24.8197C9.83363 26.1182 9.82041 26.8587 10.0604 27.2984C10.2818 27.7041 10.7996 28.06 11.5724 28.3378C11.9079 28.4584 12.2001 28.6045 12.2217 28.6627C12.2433 28.7207 11.1115 30.8109 9.70664 33.3076C8.30168 35.8042 7.10598 37.9836 7.04944 38.1506C6.92495 38.5187 7.03957 38.8426 7.34796 38.9949C7.46577 39.053 8.32268 39.1255 9.52453 39.179C12.5798 39.3151 12.6147 39.3357 14.2191 41.9551C15.5162 44.0727 15.748 44.2759 16.2845 43.7649C16.4116 43.6438 17.6761 41.4728 19.0944 38.9405C20.5127 36.4082 21.7378 34.2663 21.8169 34.1808C21.9588 34.0273 21.9649 34.0288 22.2825 34.2916C22.7756 34.6997 23.5024 35.0422 23.9578 35.0811C24.4379 35.1221 24.9516 34.9076 25.618 34.3879C25.8521 34.2053 26.0671 34.056 26.0959 34.056C26.1246 34.056 27.3327 36.1547 28.7807 38.7198C30.2286 41.2849 31.5131 43.5009 31.6352 43.6443C31.8844 43.9371 32.2296 43.9923 32.5168 43.7852C32.6082 43.7192 33.1497 42.901 33.72 41.9669C34.2903 41.0328 34.8686 40.1532 35.0051 40.0122C35.1416 39.8712 35.4864 39.6377 35.7712 39.4933L36.2891 39.2307L38.3952 39.125C40.6463 39.0121 40.774 38.9845 40.9564 38.5725C41.0281 38.4103 41.0154 38.3027 40.8882 37.9962C40.8022 37.7889 39.6068 35.6306 38.2319 33.2002C36.857 30.7696 35.7226 28.7397 35.7111 28.6891C35.6993 28.6377 36.0088 28.4816 36.4118 28.3357C37.1351 28.0737 37.5633 27.7917 37.8609 27.3812C38.1167 27.0284 38.1204 26.1887 37.8714 24.9655C37.4914 23.0987 37.5781 22.7326 38.7398 21.2998C40.24 19.4495 40.2418 19.0424 38.7589 17.0004C37.7991 15.6787 37.5974 15.2652 37.5961 14.6168C37.5956 14.3408 37.6826 13.6984 37.7895 13.1891C37.9025 12.651 37.9839 12.0042 37.9839 11.6447C37.9839 11.1031 37.9565 10.9817 37.7636 10.6685C37.491 10.2257 36.9409 9.90993 35.8338 9.56049C33.9921 8.97916 33.7952 8.7869 33.1295 6.91959C32.7071 5.73475 32.4775 5.3102 32.098 5.01208C31.6658 4.67265 30.9342 4.66424 29.6392 4.98374C28.4342 5.28105 27.7894 5.30179 27.2884 5.05925C27.0949 4.96564 26.5275 4.55054 26.0275 4.1368C24.6324 2.98246 24.1254 2.80446 23.279 3.17159ZM25.757 7.19216C27.7403 7.52335 29.4291 8.25842 31.0033 9.47554C33.2266 11.1946 34.7565 13.7075 35.3895 16.6801C35.6103 17.7166 35.5924 20.5171 35.3586 21.5287C34.7879 23.9977 33.8321 25.7811 32.161 27.4953C30.4271 29.2738 28.6293 30.2849 26.2422 30.8239C25.296 31.0375 22.6074 31.0371 21.6544 30.8231C17.4859 29.887 14.266 26.9472 12.961 22.8858C12.4928 21.4287 12.3708 20.6343 12.3708 19.0422C12.3708 16.5286 12.9566 14.5154 14.3048 12.3961C16.022 9.69694 18.8442 7.81297 22.0391 7.23308C23.0723 7.04563 24.7677 7.02689 25.757 7.19216Z" fill="white"/>
</svg>
