<svg width="22" height="22" viewBox="0 0 22 22" fill="none" xmlns="http://www.w3.org/2000/svg">
<path d="M9.26518 12.7274C10.5261 14.0336 12.0519 15.0421 13.7352 15.682L16.0125 13.8315C16.08 13.784 16.1601 13.7586 16.2421 13.7586C16.3241 13.7586 16.4041 13.784 16.4716 13.8315L20.7 16.6135C20.8606 16.712 20.9965 16.8473 21.097 17.0087C21.1975 17.1701 21.2599 17.3532 21.2792 17.5434C21.2985 17.7337 21.2743 17.9259 21.2084 18.1049C21.1425 18.284 21.0367 18.4449 20.8994 18.575L18.9181 20.5735C18.6343 20.8598 18.2856 21.0699 17.903 21.1851C17.5204 21.3003 17.1158 21.3169 16.7253 21.2336C12.8305 20.4121 9.2405 18.4883 6.36569 15.682C3.55469 12.8478 1.60949 9.24154 0.766053 5.30066C0.682733 4.90813 0.700123 4.50027 0.816538 4.11662C0.932953 3.73297 1.14445 3.38653 1.43052 3.11088L3.48432 1.08766C3.61142 0.95429 3.76641 0.852011 3.9377 0.788478C4.10899 0.724946 4.29213 0.701807 4.47342 0.720794C4.6547 0.73978 4.82944 0.800401 4.98453 0.898117C5.13962 0.995832 5.27106 1.12811 5.36899 1.28505L8.18391 5.54739C8.23246 5.61432 8.25867 5.69541 8.25867 5.77871C8.25867 5.862 8.23246 5.94309 8.18391 6.01002L6.32945 8.28615C6.97312 9.97069 7.97595 11.4878 9.26518 12.7274V12.7274Z" fill="white"/>
</svg>
