<svg width="288" height="61" viewBox="0 0 288 61" fill="none" xmlns="http://www.w3.org/2000/svg">
<path d="M110.835 50.0771C108.721 50.0771 106.94 51.8575 106.94 53.9718C106.94 56.0861 108.721 57.8666 110.835 57.8666C112.949 57.8666 114.73 56.0861 114.73 53.9718C114.73 51.8575 112.949 50.0771 110.835 50.0771ZM110.835 60.5373C107.274 60.5373 104.381 57.644 104.381 54.0831C104.381 50.5221 107.274 47.6289 110.835 47.6289C114.396 47.6289 117.289 50.5221 117.289 54.0831C117.289 57.644 114.396 60.5373 110.835 60.5373Z" fill="white"/>
<path d="M6.45417 50.0771C4.33987 50.0771 2.55941 51.8575 2.55941 53.9718C2.55941 56.0861 4.33987 57.8666 6.45417 57.8666C8.56847 57.8666 10.3489 56.0861 10.3489 53.9718C10.3489 51.8575 8.56847 50.0771 6.45417 50.0771ZM6.45417 60.5373C2.89325 60.5373 0 57.644 0 54.0831C0 50.5221 2.89325 47.6289 6.45417 47.6289C10.0151 47.6289 12.9084 50.5221 12.9084 54.0831C12.9084 57.644 10.0151 60.5373 6.45417 60.5373Z" fill="white"/>
<path d="M19.3624 35.7215C17.2481 35.7215 15.4676 37.502 15.4676 39.6163C15.4676 41.7306 17.2481 43.511 19.3624 43.511C21.4767 43.511 23.2571 41.7306 23.2571 39.6163C23.2571 37.502 21.4767 35.7215 19.3624 35.7215ZM19.3624 46.0705C15.8015 46.0705 12.9082 43.1772 12.9082 39.6163C12.9082 36.0553 15.8015 33.1621 19.3624 33.1621C22.9233 33.1621 25.8166 36.0553 25.8166 39.6163C25.8166 43.1772 22.9233 46.0705 19.3624 46.0705Z" fill="white"/>
<path d="M24.5908 59.7571H18.0254V44.8457H20.5848V57.1977H24.5908V59.7571Z" fill="white"/>
<path d="M19.361 57.1973H14.1309V59.7567H19.361V57.1973Z" fill="white"/>
<path d="M97.1456 35.7215C95.0313 35.7215 93.2508 37.502 93.2508 39.6163C93.2508 41.7306 95.0313 43.511 97.1456 43.511C99.2599 43.511 101.04 41.7306 101.04 39.6163C101.04 37.502 99.2599 35.7215 97.1456 35.7215ZM97.1456 46.0705C93.5847 46.0705 90.6914 43.1772 90.6914 39.6163C90.6914 36.0553 93.5847 33.1621 97.1456 33.1621C100.707 33.1621 103.6 36.0553 103.6 39.6163C103.6 43.1772 100.707 46.0705 97.1456 46.0705Z" fill="white"/>
<path d="M102.376 59.7571H95.8105V44.8457H98.37V57.1977H102.376V59.7571Z" fill="white"/>
<path d="M97.1461 57.1973H91.916V59.7567H97.1461V57.1973Z" fill="white"/>
<path d="M217.329 35.7215C215.215 35.7215 213.434 37.502 213.434 39.6163C213.434 41.7306 215.215 43.511 217.329 43.511C219.443 43.511 221.224 41.7306 221.224 39.6163C221.224 37.502 219.555 35.7215 217.329 35.7215ZM217.329 46.0705C213.768 46.0705 210.875 43.1772 210.875 39.6163C210.875 36.0553 213.768 33.1621 217.329 33.1621C220.89 33.1621 223.783 36.0553 223.783 39.6163C223.783 43.1772 220.89 46.0705 217.329 46.0705Z" fill="white"/>
<path d="M222.557 59.7571H216.103V44.8457H218.662V57.1977H222.557V59.7571Z" fill="white"/>
<path d="M217.328 57.1973H212.098V59.7567H217.328V57.1973Z" fill="white"/>
<path d="M84.5708 51.7441H32.6035V54.3035H84.5708V51.7441Z" fill="white"/>
<path d="M68.4354 12.6855H65.876V49.185H68.4354V12.6855Z" fill="white"/>
<path d="M49.4068 32.7168H32.9375V35.2762H49.4068V32.7168Z" fill="white"/>
<path d="M71.7744 32.7168H67.4346V35.2762H71.7744V32.7168Z" fill="white"/>
<path d="M84.5702 32.7168H79.8965V35.2762H84.5702V32.7168Z" fill="white"/>
<path d="M56.1942 29.9343H61.0905V21.5884L59.9777 20.9207H57.307L56.1942 21.5884V29.9343ZM63.6499 32.4937H53.6348V20.1418L56.6393 18.3613H60.6453L63.6499 20.1418V32.4937Z" fill="white"/>
<path d="M56.1942 51.744H61.0905V40.6161H56.1942V51.744ZM63.6499 54.3034H53.6348V38.168H63.6499V54.3034Z" fill="white"/>
<path d="M51.4119 12.6855H48.8525V49.185H51.4119V12.6855Z" fill="white"/>
<path d="M39.1707 32.6037H44.067V26.706H39.1707V32.6037ZM46.6264 35.1631H36.6113V24.2578H46.6264V35.1631Z" fill="white"/>
<path d="M73.3319 46.5136H78.2281V26.706H73.3319V46.5136ZM80.7876 49.073H70.7725V24.2578H80.7876V49.073Z" fill="white"/>
<path d="M39.1707 46.5139H44.067V40.6161H39.1707V46.5139ZM46.6264 49.0733H36.6113V38.168H46.6264V49.0733Z" fill="white"/>
<path d="M70.3296 59.7578H31.6045V19.9199H34.1639V57.1984H70.3296V59.7578Z" fill="white"/>
<path d="M85.7951 59.7578H68.4355V57.1984H83.2356V19.9199H85.7951V59.7578Z" fill="white"/>
<path d="M59.9784 17.4707H57.4189V19.6963H59.9784V17.4707Z" fill="white"/>
<path d="M42.952 23.3691H40.3926V25.5947H42.952V23.3691Z" fill="white"/>
<path d="M42.952 37.2793H40.3926V39.5049H42.952V37.2793Z" fill="white"/>
<path d="M77.1161 23.3691H74.5566V25.5947H77.1161V23.3691Z" fill="white"/>
<path d="M65.3206 41.0617C61.7597 37.5007 55.8619 37.5007 52.301 41.0617L50.5205 39.2812C55.0829 34.7188 62.5386 34.7188 67.1011 39.2812L65.3206 41.0617Z" fill="white"/>
<path d="M81.8994 2.89258H70.8828V5.45201H81.8994V2.89258Z" fill="white"/>
<path d="M87.7973 21.8104H79.8965V19.251H85.2379V17.1367H87.7973V21.8104Z" fill="white"/>
<path d="M37.8355 21.8104H30.1572V17.1367H32.7166V19.251H37.8355V21.8104Z" fill="white"/>
<path d="M53.6363 14.1328H43.8438V9.57031H46.4032V11.5734H53.6363V14.1328Z" fill="white"/>
<path d="M81.9025 13.4639H79.343V9.34659H73.6678V9.45787H71.1084V6.89844H81.9025V13.4639Z" fill="white"/>
<path d="M73.6665 14.0214H63.7627V11.462H71.1071V9.45898H73.6665V14.0214Z" fill="white"/>
<path d="M28.3765 19.2519L27.2637 16.915L58.9782 1.44727L90.6927 16.915L89.5799 19.2519L58.9782 4.34052L28.3765 19.2519Z" fill="white"/>
<path d="M33.606 21.2551L32.4932 19.0295L58.9776 6.23242L85.2394 19.0295L84.1266 21.2551L58.9776 9.12568L33.606 21.2551Z" fill="white"/>
<path d="M269.739 51.744H274.635V40.6161H269.739V51.744ZM277.195 54.3034H267.18V38.168H277.195V54.3034Z" fill="white"/>
<path d="M280.2 41.5071L272.299 38.1687L264.509 41.5071L263.508 39.1702L272.299 35.3867L281.201 39.1702L280.2 41.5071Z" fill="white"/>
<path d="M280.978 51.7441H229.011V54.3035H280.978V51.7441Z" fill="white"/>
<path d="M264.843 12.6855H262.283V49.185H264.843V12.6855Z" fill="white"/>
<path d="M245.815 32.7168H229.346V35.2762H245.815V32.7168Z" fill="white"/>
<path d="M268.183 32.7168H263.843V35.2762H268.183V32.7168Z" fill="white"/>
<path d="M280.977 32.7168H276.304V35.2762H280.977V32.7168Z" fill="white"/>
<path d="M247.819 12.6855H245.26V49.185H247.819V12.6855Z" fill="white"/>
<path d="M235.577 32.6037H240.473V26.706H235.577V32.6037ZM243.033 35.1631H233.018V24.2578H243.033V35.1631Z" fill="white"/>
<path d="M269.739 32.7169H274.635V26.8191H269.739V32.7169ZM277.195 35.165H267.18V24.1484H277.195V35.165Z" fill="white"/>
<path d="M235.577 46.5139H240.473V40.6161H235.577V46.5139ZM243.033 49.0733H233.018V38.168H243.033V49.0733Z" fill="white"/>
<path d="M266.735 59.7578H228.121V19.9199H230.569V57.1984H266.735V59.7578Z" fill="white"/>
<path d="M282.204 59.7578H264.845V57.1984H279.645V19.9199H282.204V59.7578Z" fill="white"/>
<path d="M239.359 23.3691H236.8V25.5947H239.359V23.3691Z" fill="white"/>
<path d="M239.359 37.2793H236.8V39.5049H239.359V37.2793Z" fill="white"/>
<path d="M273.523 23.3691H270.964V25.5947H273.523V23.3691Z" fill="white"/>
<path d="M251.045 32.7168H246.705V35.2762H251.045V32.7168Z" fill="white"/>
<path d="M263.843 32.7168H259.169V35.2762H263.843V32.7168Z" fill="white"/>
<path d="M252.492 46.5136H257.388V26.706H252.492V46.5136ZM259.948 49.073H249.933V24.2578H259.948V49.073Z" fill="white"/>
<path d="M256.387 23.3691H253.827V25.5947H256.387V23.3691Z" fill="white"/>
<path d="M242.81 2.89258H231.793V5.45201H242.81V2.89258Z" fill="white"/>
<path d="M284.204 21.8104H276.304V19.251H281.645V17.1367H284.204V21.8104Z" fill="white"/>
<path d="M234.242 21.8104H226.563V17.1367H229.123V19.251H234.242V21.8104Z" fill="white"/>
<path d="M250.045 14.1328H240.253V9.57031H242.812V11.5734H250.045V14.1328Z" fill="white"/>
<path d="M234.465 13.4639H231.905V6.89844H242.699V9.45787H240.14V9.34659H234.465V13.4639Z" fill="white"/>
<path d="M270.073 14.0214H260.169V11.462H267.513V9.45898H270.073V14.0214Z" fill="white"/>
<path d="M224.784 19.2519L223.671 16.915L255.385 1.44727L287.1 16.915L285.987 19.2519L255.385 4.34052L224.784 19.2519Z" fill="white"/>
<path d="M230.013 21.2551L228.9 19.0295L255.385 6.23242L281.647 19.0295L280.534 21.2551L255.385 9.12568L230.013 21.2551Z" fill="white"/>
<path d="M255.049 15.9129C254.381 15.9129 253.714 16.4693 253.714 17.2482C253.714 17.9159 254.27 18.5836 255.049 18.5836C255.717 18.5836 256.384 18.0272 256.384 17.2482C256.384 16.4693 255.828 15.9129 255.049 15.9129ZM255.049 21.0317C252.935 21.0317 251.154 19.2512 251.154 17.137C251.154 15.0227 252.935 13.2422 255.049 13.2422C257.163 13.2422 258.944 15.0227 258.944 17.137C258.944 19.2512 257.163 21.0317 255.049 21.0317Z" fill="white"/>
<path d="M175.262 51.7441H123.295V54.3035H175.262V51.7441Z" fill="white"/>
<path d="M159.127 12.6855H156.567V36.2767H159.127V12.6855Z" fill="white"/>
<path d="M142.103 37.3906H139.544V39.505H142.103V37.3906Z" fill="white"/>
<path d="M159.127 37.3906H156.567V39.505H159.127V37.3906Z" fill="white"/>
<path d="M142.103 48.6289H139.544V50.7432H142.103V48.6289Z" fill="white"/>
<path d="M159.127 48.6289H156.567V50.7432H159.127V48.6289Z" fill="white"/>
<path d="M142.103 40.3945H139.544V47.6277H142.103V40.3945Z" fill="white"/>
<path d="M159.127 40.3945H156.567V47.6277H159.127V40.3945Z" fill="white"/>
<path d="M157.905 32.7168H123.631V35.2762H157.905V32.7168Z" fill="white"/>
<path d="M162.467 32.7168H158.127V35.2762H162.467V32.7168Z" fill="white"/>
<path d="M175.264 32.7168H170.59V35.2762H175.264V32.7168Z" fill="white"/>
<path d="M146.888 32.7165H151.784V21.366H146.888V32.7165ZM154.343 35.1646H144.328V18.8066H154.343V35.1646Z" fill="white"/>
<path d="M146.888 51.744H151.784V40.6161H146.888V51.744ZM154.343 54.3034H144.328V38.168H154.343V54.3034Z" fill="white"/>
<path d="M142.103 12.6855H139.544V36.2767H142.103V12.6855Z" fill="white"/>
<path d="M129.863 32.6037H134.759V26.706H129.863V32.6037ZM137.319 35.1631H127.304V24.2578H137.319V35.1631Z" fill="white"/>
<path d="M164.025 46.5136H168.922V26.706H164.025V46.5136ZM171.481 49.073H161.466V24.2578H171.481V49.073Z" fill="white"/>
<path d="M129.863 46.5139H134.759V40.6161H129.863V46.5139ZM137.319 49.0733H127.304V38.168H137.319V49.0733Z" fill="white"/>
<path d="M161.021 59.7578H122.296V19.9199H124.855V57.1984H161.021V59.7578Z" fill="white"/>
<path d="M176.488 59.7578H159.129V57.1984H173.929V19.9199H176.488V59.7578Z" fill="white"/>
<path d="M150.672 17.4707H148.112V19.6963H150.672V17.4707Z" fill="white"/>
<path d="M133.643 23.3691H131.084V25.5947H133.643V23.3691Z" fill="white"/>
<path d="M133.643 37.2793H131.084V39.5049H133.643V37.2793Z" fill="white"/>
<path d="M167.809 23.3691H165.25V25.5947H167.809V23.3691Z" fill="white"/>
<path d="M132.534 4.00586H122.964V6.56529H132.534V4.00586Z" fill="white"/>
<path d="M178.491 21.8104H170.59V19.251H175.931V17.1367H178.491V21.8104Z" fill="white"/>
<path d="M128.526 21.8104H120.848V17.1367H123.407V19.251H128.526V21.8104Z" fill="white"/>
<path d="M144.33 14.1328H134.537V9.57031H137.097V11.5734H144.33V14.1328Z" fill="white"/>
<path d="M125.634 14.5772H123.074V8.01172H132.755V11.5727H130.196V10.5712H125.634V14.5772Z" fill="white"/>
<path d="M142.104 0H134.537V2.5594H142.104V0Z" fill="white"/>
<path d="M136.982 9.56981H134.423V4.00586H142.101V7.67808H139.542V6.56529H136.982V9.56981Z" fill="white"/>
<path d="M164.358 14.0214H154.454V11.462H161.799V9.45898H164.358V14.0214Z" fill="white"/>
<path d="M119.068 19.2519L117.955 16.915L149.67 1.44727L181.384 16.915L180.271 19.2519L149.67 4.34052L119.068 19.2519Z" fill="white"/>
<path d="M124.297 21.2551L123.185 19.0295L149.669 6.23242L175.931 19.0295L174.818 21.2551L149.669 9.12568L124.297 21.2551Z" fill="white"/>
<path d="M198.968 58.1988H196.408V46.5145H181.274V58.1988H178.715V43.9551H198.968V58.1988Z" fill="white"/>
<path d="M205.975 41.2836H175.151V38.7242H203.416V37.7227L174.817 31.491L175.374 28.9316L205.975 35.7196V41.2836Z" fill="white"/>
<path d="M176.376 57.0856H201.525V41.284H176.376V57.0856ZM204.084 59.645H173.816V38.7246H204.084V59.645Z" fill="white"/>
<path d="M158.128 26.8184H140.769V29.3778H158.128V26.8184Z" fill="white"/>
</svg>
