<svg width="1499" height="167" viewBox="0 0 1499 167" fill="none" xmlns="http://www.w3.org/2000/svg">
<path d="M298.84 137.4C293.139 137.4 288.338 142.281 288.338 148.077C288.338 153.873 293.139 158.753 298.84 158.753C304.541 158.753 309.341 153.873 309.341 148.077C309.341 142.281 304.541 137.4 298.84 137.4ZM298.84 166.074C289.239 166.074 281.438 158.143 281.438 148.382C281.438 138.62 289.239 130.689 298.84 130.689C308.441 130.689 316.242 138.62 316.242 148.382C316.242 158.143 308.441 166.074 298.84 166.074Z" fill="white"/>
<path d="M795.406 137.4C789.705 137.4 784.905 142.281 784.905 148.077C784.905 153.873 789.705 158.753 795.406 158.753C801.107 158.753 805.908 153.873 805.908 148.077C805.908 142.281 801.407 137.4 795.406 137.4ZM795.406 166.074C785.805 166.074 778.004 158.143 778.004 148.382C778.004 138.62 785.805 130.689 795.406 130.689C805.007 130.689 812.808 138.62 812.808 148.382C813.108 158.143 805.007 166.074 795.406 166.074Z" fill="white"/>
<path d="M17.4023 137.4C11.7015 137.4 6.9009 142.281 6.9009 148.077C6.9009 153.873 11.7015 158.753 17.4023 158.753C23.1031 158.753 27.9037 153.873 27.9037 148.077C27.9037 142.281 23.1031 137.4 17.4023 137.4ZM17.4023 166.074C7.80102 166.074 0 158.143 0 148.382C0 138.62 7.80102 130.689 17.4023 130.689C27.0036 130.689 34.8046 138.62 34.8046 148.382C34.8046 158.143 27.0036 166.074 17.4023 166.074Z" fill="white"/>
<path d="M52.207 98.0491C46.5063 98.0491 41.7056 102.93 41.7056 108.726C41.7056 114.521 46.5063 119.402 52.207 119.402C57.9078 119.402 62.7084 114.521 62.7084 108.726C62.7084 102.93 57.9078 98.0491 52.207 98.0491ZM52.207 126.418C42.6057 126.418 34.8047 118.487 34.8047 108.726C34.8047 98.9642 42.6057 91.0332 52.207 91.0332C61.8083 91.0332 69.6093 98.9642 69.6093 108.726C69.6093 118.487 61.8083 126.418 52.207 126.418Z" fill="white"/>
<path d="M66.3098 163.94H48.6074V123.064H55.5083V156.924H66.3098V163.94Z" fill="white"/>
<path d="M52.2074 156.92H38.1055V163.936H52.2074V156.92Z" fill="white"/>
<path d="M261.937 98.0491C256.237 98.0491 251.436 102.93 251.436 108.726C251.436 114.521 256.237 119.402 261.937 119.402C267.638 119.402 272.439 114.521 272.439 108.726C272.439 102.93 267.638 98.0491 261.937 98.0491ZM261.937 126.418C252.336 126.418 244.535 118.487 244.535 108.726C244.535 98.9642 252.336 91.0332 261.937 91.0332C271.539 91.0332 279.34 98.9642 279.34 108.726C279.34 118.487 271.539 126.418 261.937 126.418Z" fill="white"/>
<path d="M276.038 163.94H258.336V123.064H265.237V156.924H276.038V163.94Z" fill="white"/>
<path d="M261.936 156.92H247.834V163.936H261.936V156.92Z" fill="white"/>
<path d="M1153.65 137.4C1147.95 137.4 1143.15 142.281 1143.15 148.077C1143.15 153.873 1147.95 158.753 1153.65 158.753C1159.35 158.753 1164.15 153.873 1164.15 148.077C1164.15 142.281 1159.65 137.4 1153.65 137.4ZM1153.65 166.074C1144.05 166.074 1136.25 158.143 1136.25 148.382C1136.25 138.62 1144.05 130.689 1153.65 130.689C1163.25 130.689 1171.05 138.62 1171.05 148.382C1171.35 158.143 1163.25 166.074 1153.65 166.074Z" fill="white"/>
<path d="M1116.75 98.0491C1111.05 98.0491 1106.25 102.93 1106.25 108.726C1106.25 114.521 1111.05 119.402 1116.75 119.402C1122.45 119.402 1127.25 114.521 1127.25 108.726C1127.25 102.93 1122.75 98.0491 1116.75 98.0491ZM1116.75 126.418C1107.15 126.418 1099.35 118.487 1099.35 108.726C1099.35 98.9642 1107.15 91.0332 1116.75 91.0332C1126.35 91.0332 1134.15 98.9642 1134.15 108.726C1134.45 118.487 1126.65 126.418 1116.75 126.418Z" fill="white"/>
<path d="M1130.85 163.94H1113.45V123.064H1120.35V156.924H1130.85V163.94Z" fill="white"/>
<path d="M1117.05 156.92H1102.95V163.936H1117.05V156.92Z" fill="white"/>
<path d="M1481.6 137.4C1475.9 137.4 1471.1 142.281 1471.1 148.077C1471.1 153.873 1475.9 158.753 1481.6 158.753C1487.3 158.753 1492.1 153.873 1492.1 148.077C1492.1 142.281 1487.3 137.4 1481.6 137.4ZM1481.6 166.074C1472 166.074 1464.2 158.143 1464.2 148.382C1464.2 138.62 1472 130.689 1481.6 130.689C1491.2 130.689 1499 138.62 1499 148.382C1499 158.143 1491.2 166.074 1481.6 166.074Z" fill="white"/>
<path d="M1444.69 98.0491C1438.99 98.0491 1434.19 102.93 1434.19 108.726C1434.19 114.521 1438.99 119.402 1444.69 119.402C1450.39 119.402 1455.19 114.521 1455.19 108.726C1455.19 102.93 1450.39 98.0491 1444.69 98.0491ZM1444.69 126.418C1435.09 126.418 1427.29 118.487 1427.29 108.726C1427.29 98.9642 1435.09 91.0332 1444.69 91.0332C1454.29 91.0332 1462.1 98.9642 1462.1 108.726C1462.1 118.487 1454.29 126.418 1444.69 126.418Z" fill="white"/>
<path d="M1458.49 163.94H1441.09V123.064H1447.99V156.924H1458.49V163.94Z" fill="white"/>
<path d="M1444.69 156.92H1430.59V163.936H1444.69V156.92Z" fill="white"/>
<path d="M832.01 98.0491C826.309 98.0491 821.508 102.93 821.508 108.726C821.508 114.521 826.309 119.402 832.01 119.402C837.711 119.402 842.511 114.521 842.511 108.726C842.511 102.93 837.711 98.0491 832.01 98.0491ZM832.01 126.418C822.409 126.418 814.607 118.487 814.607 108.726C814.607 98.9642 822.409 91.0332 832.01 91.0332C841.611 91.0332 849.412 98.9642 849.412 108.726C849.412 118.487 841.611 126.418 832.01 126.418Z" fill="white"/>
<path d="M845.812 163.94H828.41V123.064H835.311V156.924H845.812V163.94Z" fill="white"/>
<path d="M832.012 156.92H817.91V163.936H832.012V156.92Z" fill="white"/>
<path d="M585.979 98.0491C580.278 98.0491 575.477 102.93 575.477 108.726C575.477 114.521 580.278 119.402 585.979 119.402C591.679 119.402 596.48 114.521 596.48 108.726C596.48 102.93 591.979 98.0491 585.979 98.0491ZM585.979 126.418C576.377 126.418 568.576 118.487 568.576 108.726C568.576 98.9642 576.377 91.0332 585.979 91.0332C595.58 91.0332 603.381 98.9642 603.381 108.726C603.381 118.487 595.58 126.418 585.979 126.418Z" fill="white"/>
<path d="M600.08 163.94H582.678V123.064H589.579V156.924H600.08V163.94Z" fill="white"/>
<path d="M585.977 156.92H571.875V163.936H585.977V156.92Z" fill="white"/>
<path d="M228.031 141.977H87.9121V148.992H228.031V141.977Z" fill="white"/>
<path d="M184.526 34.9062H177.625V134.96H184.526V34.9062Z" fill="white"/>
<path d="M133.218 89.8125H88.8125V96.8284H133.218V89.8125Z" fill="white"/>
<path d="M193.526 89.8125H181.824V96.8284H193.526V89.8125Z" fill="white"/>
<path d="M228.031 89.8125H215.43V96.8284H228.031V89.8125Z" fill="white"/>
<path d="M151.52 82.189H164.722V59.311L161.721 57.4807H154.52L151.52 59.311V82.189ZM171.623 89.2049H144.619V55.3454L152.72 50.4648H163.522L171.623 55.3454V89.2049Z" fill="white"/>
<path d="M151.52 141.977H164.722V111.473H151.52V141.977ZM171.623 148.993H144.619V104.762H171.623V148.993Z" fill="white"/>
<path d="M138.618 34.9062H131.717V134.96H138.618V34.9062Z" fill="white"/>
<path d="M105.614 89.5089H118.816V73.3418H105.614V89.5089ZM125.716 96.5248H98.7129V66.6309H125.716V96.5248Z" fill="white"/>
<path d="M197.727 127.639H210.929V73.3418H197.727V127.639ZM217.83 134.655H190.826V66.6309H217.83V134.655Z" fill="white"/>
<path d="M105.614 127.64H118.816V111.473H105.614V127.64ZM125.716 134.656H98.7129V104.762H125.716V134.656Z" fill="white"/>
<path d="M189.625 163.937H85.2109V54.7324H92.1118V156.921H189.625V163.937Z" fill="white"/>
<path d="M231.33 163.937H184.523V156.921H224.429V54.7324H231.33V163.937Z" fill="white"/>
<path d="M161.721 48.0254H154.82V54.1262H161.721V48.0254Z" fill="white"/>
<path d="M115.815 64.1934H108.914V70.2942H115.815V64.1934Z" fill="white"/>
<path d="M115.815 102.322H108.914V108.423H115.815V102.322Z" fill="white"/>
<path d="M207.928 64.1934H201.027V70.2942H207.928V64.1934Z" fill="white"/>
<path d="M176.122 112.69C166.521 102.929 150.619 102.929 141.017 112.69L136.217 107.81C148.518 95.303 168.621 95.303 180.923 107.81L176.122 112.69Z" fill="white"/>
<path d="M220.829 8.06445H191.125V15.0804H220.829V8.06445Z" fill="white"/>
<path d="M236.733 59.9191H215.43V52.9032H229.832V47.1074H236.733V59.9191Z" fill="white"/>
<path d="M102.013 59.9191H81.3105V47.1074H88.2115V52.9032H102.013V59.9191Z" fill="white"/>
<path d="M144.618 38.8739H118.215V26.3672H125.116V31.858H144.618V38.8739Z" fill="white"/>
<path d="M220.828 37.0423H213.928V25.7559H198.626V26.0609H191.725V19.0449H220.828V37.0423Z" fill="white"/>
<path d="M198.627 38.5671H171.924V31.5512H191.726V26.0605H198.627V38.5671Z" fill="white"/>
<path d="M76.5102 52.9022L73.5098 46.4963L159.021 4.0957L244.532 46.4963L241.532 52.9022L159.021 12.0268L76.5102 52.9022Z" fill="white"/>
<path d="M90.6117 58.3934L87.6113 52.2926L159.021 17.2129L229.83 52.2926L226.83 58.3934L159.021 25.144L90.6117 58.3934Z" fill="white"/>
<path d="M727.297 141.977H740.499V111.473H727.297V141.977ZM747.4 148.993H720.396V104.762H747.4V148.993Z" fill="white"/>
<path d="M755.502 113.914L734.199 104.763L713.196 113.914L710.496 107.508L734.199 97.1367L758.202 107.508L755.502 113.914Z" fill="white"/>
<path d="M757.601 141.977H617.482V148.992H757.601V141.977Z" fill="white"/>
<path d="M714.096 34.9062H707.195V134.96H714.096V34.9062Z" fill="white"/>
<path d="M662.789 89.8125H618.383V96.8284H662.789V89.8125Z" fill="white"/>
<path d="M723.096 89.8125H711.395V96.8284H723.096V89.8125Z" fill="white"/>
<path d="M757.602 89.8125H745V96.8284H757.602V89.8125Z" fill="white"/>
<path d="M668.19 34.9062H661.289V134.96H668.19V34.9062Z" fill="white"/>
<path d="M635.184 89.5089H648.386V73.3418H635.184V89.5089ZM655.287 96.5248H628.283V66.6309H655.287V96.5248Z" fill="white"/>
<path d="M727.297 89.8163H740.499V73.6491H727.297V89.8163ZM747.4 96.5271H720.396V66.3281H747.4V96.5271Z" fill="white"/>
<path d="M635.184 127.64H648.386V111.473H635.184V127.64ZM655.287 134.656H628.283V104.762H655.287V134.656Z" fill="white"/>
<path d="M719.194 163.937H615.08V54.7324H621.681V156.921H719.194V163.937Z" fill="white"/>
<path d="M760.902 163.937H714.096V156.921H754.001V54.7324H760.902V163.937Z" fill="white"/>
<path d="M645.385 64.1934H638.484V70.2942H645.385V64.1934Z" fill="white"/>
<path d="M645.385 102.322H638.484V108.423H645.385V102.322Z" fill="white"/>
<path d="M737.499 64.1934H730.598V70.2942H737.499V64.1934Z" fill="white"/>
<path d="M676.891 89.8125H665.189V96.8284H676.891V89.8125Z" fill="white"/>
<path d="M711.395 89.8125H698.793V96.8284H711.395V89.8125Z" fill="white"/>
<path d="M680.79 127.639H693.991V73.3418H680.79V127.639ZM700.892 134.655H673.889V66.6309H700.892V134.655Z" fill="white"/>
<path d="M691.292 64.1934H684.391V70.2942H691.292V64.1934Z" fill="white"/>
<path d="M654.686 8.06445H624.982V15.0804H654.686V8.06445Z" fill="white"/>
<path d="M766.303 59.9191H745V52.9032H759.402V47.1074H766.303V59.9191Z" fill="white"/>
<path d="M631.584 59.9191H610.881V47.1074H617.782V52.9032H631.584V59.9191Z" fill="white"/>
<path d="M674.189 38.8739H647.785V26.3672H654.686V31.858H674.189V38.8739Z" fill="white"/>
<path d="M632.182 37.0423H625.281V19.0449H654.385V26.0609H647.484V25.7559H632.182V37.0423Z" fill="white"/>
<path d="M728.198 38.5671H701.494V31.5512H721.297V26.0605H728.198V38.5671Z" fill="white"/>
<path d="M606.08 52.9022L603.08 46.4963L688.591 4.0957L774.103 46.4963L771.102 52.9022L688.591 12.0268L606.08 52.9022Z" fill="white"/>
<path d="M620.182 58.3934L617.182 52.2926L688.591 17.2129L759.401 52.2926L756.4 58.3934L688.591 25.144L620.182 58.3934Z" fill="white"/>
<path d="M687.691 43.7545C685.891 43.7545 684.09 45.2798 684.09 47.4151C684.09 49.2453 685.591 51.0755 687.691 51.0755C689.491 51.0755 691.291 49.5504 691.291 47.4151C691.291 45.2798 689.791 43.7545 687.691 43.7545ZM687.691 57.7864C681.99 57.7864 677.189 52.9058 677.189 47.11C677.189 41.3142 681.99 36.4336 687.691 36.4336C693.392 36.4336 698.192 41.3142 698.192 47.11C698.192 52.9058 693.392 57.7864 687.691 57.7864Z" fill="white"/>
<path d="M1327.38 141.977H1187.26V148.992H1327.38V141.977Z" fill="white"/>
<path d="M1278.17 97.7461H1237.66V104.762H1278.17V97.7461Z" fill="white"/>
<path d="M1284.17 34.9062H1277.27V134.96H1284.17V34.9062Z" fill="white"/>
<path d="M1200.76 89.8125H1188.46V96.8284H1200.76V89.8125Z" fill="white"/>
<path d="M1234.66 89.8125H1222.36V96.8284H1234.66V89.8125Z" fill="white"/>
<path d="M1293.17 89.8125H1281.47V96.8284H1293.17V89.8125Z" fill="white"/>
<path d="M1327.68 89.8125H1315.08V96.8284H1327.68V89.8125Z" fill="white"/>
<path d="M1251.17 82.189H1264.37V57.4807H1251.17V82.189ZM1271.27 89.2049H1244.27V50.4648H1271.27V89.2049Z" fill="white"/>
<path d="M1251.17 141.977H1264.37V111.473H1251.17V141.977ZM1271.27 148.993H1244.27V104.762H1271.27V148.993Z" fill="white"/>
<path d="M1238.26 34.9062H1231.36V134.96H1238.26V34.9062Z" fill="white"/>
<path d="M1288.97 163.937H1184.86V54.7324H1191.76V156.921H1288.97V163.937Z" fill="white"/>
<path d="M1330.98 163.937H1284.17V156.921H1324.08V54.7324H1330.98V163.937Z" fill="white"/>
<path d="M1261.37 48.0254H1254.47V54.1262H1261.37V48.0254Z" fill="white"/>
<path d="M1297.37 89.5089H1310.58V73.3418H1297.37V89.5089ZM1317.48 96.5248H1290.47V66.6309H1317.48V96.5248Z" fill="white"/>
<path d="M1307.57 64.1934H1300.67V70.2942H1307.57V64.1934Z" fill="white"/>
<path d="M1297.37 127.64H1310.58V111.473H1297.37V127.64ZM1317.48 134.656H1290.47V104.762H1317.48V134.656Z" fill="white"/>
<path d="M1307.57 102.322H1300.67V108.423H1307.57V102.322Z" fill="white"/>
<path d="M1204.66 127.639H1217.86V73.3418H1204.66V127.639ZM1224.76 134.655H1197.76V66.6309H1224.76V134.655Z" fill="white"/>
<path d="M1214.86 64.1934H1207.96V70.2942H1214.86V64.1934Z" fill="white"/>
<path d="M1204.96 8.06445H1184.86V15.0804H1204.96V8.06445Z" fill="white"/>
<path d="M1336.08 59.9191H1315.08V52.9032H1329.18V47.1074H1336.08V59.9191Z" fill="white"/>
<path d="M1201.66 59.9191H1180.66V47.1074H1187.56V52.9032H1201.66V59.9191Z" fill="white"/>
<path d="M1244.26 38.8739H1217.86V26.3672H1224.76V31.858H1244.26V38.8739Z" fill="white"/>
<path d="M1191.76 43.1433H1184.86V20.5703H1204.96V35.8223H1198.06V27.5863H1191.76V43.1433Z" fill="white"/>
<path d="M1297.97 38.5671H1271.57V31.5512H1291.07V26.0605H1297.97V38.5671Z" fill="white"/>
<path d="M1176.16 52.9022L1172.86 46.4963L1258.67 4.0957L1343.88 46.4963L1340.88 52.9022L1258.67 12.0268L1176.16 52.9022Z" fill="white"/>
<path d="M1190.26 58.3934L1187.26 52.2926L1258.67 17.2129L1329.48 52.2926L1326.48 58.3934L1258.67 25.144L1190.26 58.3934Z" fill="white"/>
<path d="M1391.88 159.67H1384.98V127.641H1344.18V159.67H1337.28V120.625H1391.88V159.67Z" fill="white"/>
<path d="M1410.79 113.303H1327.68V106.287H1403.89V103.542L1327.08 86.4593L1328.28 79.4434L1410.79 98.0508V113.303Z" fill="white"/>
<path d="M1330.98 156.617H1398.79V113.301H1330.98V156.617ZM1405.69 163.633H1324.08V106.285H1405.69V163.633Z" fill="white"/>
<path d="M472.564 141.977H332.445V148.992H472.564V141.977Z" fill="white"/>
<path d="M429.057 34.9062H422.156V99.5748H429.057V34.9062Z" fill="white"/>
<path d="M383.151 102.623H376.25V108.419H383.151V102.623Z" fill="white"/>
<path d="M429.057 102.623H422.156V108.419H429.057V102.623Z" fill="white"/>
<path d="M383.151 133.436H376.25V139.231H383.151V133.436Z" fill="white"/>
<path d="M429.057 133.436H422.156V139.231H429.057V133.436Z" fill="white"/>
<path d="M383.151 110.863H376.25V130.691H383.151V110.863Z" fill="white"/>
<path d="M429.057 110.863H422.156V130.691H429.057V110.863Z" fill="white"/>
<path d="M425.756 89.8125H333.344V96.8284H425.756V89.8125Z" fill="white"/>
<path d="M438.057 89.8125H426.355V96.8284H438.057V89.8125Z" fill="white"/>
<path d="M472.563 89.8125H459.961V96.8284H472.563V89.8125Z" fill="white"/>
<path d="M396.053 89.51H409.255V57.4807H396.053V89.51ZM416.156 96.5259H389.152V50.4648H416.156V96.5259Z" fill="white"/>
<path d="M396.053 141.977H409.255V111.473H396.053V141.977ZM416.156 148.993H389.152V104.762H416.156V148.993Z" fill="white"/>
<path d="M383.151 34.9062H376.25V99.5748H383.151V34.9062Z" fill="white"/>
<path d="M350.147 89.5089H363.349V73.3418H350.147V89.5089ZM370.25 96.5248H343.246V66.6309H370.25V96.5248Z" fill="white"/>
<path d="M442.258 127.639H455.46V73.3418H442.258V127.639ZM462.361 134.655H435.357V66.6309H462.361V134.655Z" fill="white"/>
<path d="M350.147 127.64H363.349V111.473H350.147V127.64ZM370.25 134.656H343.246V104.762H370.25V134.656Z" fill="white"/>
<path d="M434.156 163.937H329.742V54.7324H336.643V156.921H434.156V163.937Z" fill="white"/>
<path d="M475.863 163.937H429.057V156.921H468.962V54.7324H475.863V163.937Z" fill="white"/>
<path d="M406.252 48.0254H399.352V54.1262H406.252V48.0254Z" fill="white"/>
<path d="M360.348 64.1934H353.447V70.2942H360.348V64.1934Z" fill="white"/>
<path d="M360.348 102.322H353.447V108.423H360.348V102.322Z" fill="white"/>
<path d="M452.46 64.1934H445.559V70.2942H452.46V64.1934Z" fill="white"/>
<path d="M357.348 11.1113H331.545V18.1273H357.348V11.1113Z" fill="white"/>
<path d="M481.264 59.9191H459.961V52.9032H474.363V47.1074H481.264V59.9191Z" fill="white"/>
<path d="M346.546 59.9191H325.844V47.1074H332.745V52.9032H346.546V59.9191Z" fill="white"/>
<path d="M389.152 38.8739H362.748V26.3672H369.649V31.858H389.152V38.8739Z" fill="white"/>
<path d="M338.745 40.095H331.844V22.0977H357.947V31.859H351.046V29.1136H338.745V40.095Z" fill="white"/>
<path d="M383.151 0.132812H362.748V7.14871H383.151V0.132812Z" fill="white"/>
<path d="M369.35 26.3634H362.449V11.1113H383.152V21.1777H376.251V18.1273H369.35V26.3634Z" fill="white"/>
<path d="M443.159 38.5671H416.455V31.5512H436.258V26.0605H443.159V38.5671Z" fill="white"/>
<path d="M321.043 52.9022L318.043 46.4963L403.554 4.0957L489.066 46.4963L486.065 52.9022L403.554 12.0268L321.043 52.9022Z" fill="white"/>
<path d="M335.145 58.3934L332.145 52.2926L403.554 17.2129L474.363 52.2926L471.363 58.3934L403.554 25.144L335.145 58.3934Z" fill="white"/>
<path d="M536.471 159.67H529.57V127.641H488.764V159.67H481.863V120.625H536.471V159.67Z" fill="white"/>
<path d="M555.374 113.303H472.263V106.287H548.474V103.542L471.363 86.4593L472.863 79.4434L555.374 98.0508V113.303Z" fill="white"/>
<path d="M475.563 156.617H543.372V113.301H475.563V156.617ZM550.273 163.633H468.662V106.285H550.273V163.633Z" fill="white"/>
<path d="M426.357 73.6465H379.551V80.6625H426.357V73.6465Z" fill="white"/>
<path d="M1081.34 93.168H874.316V100.184H1081.34V93.168Z" fill="white"/>
<path d="M964.928 144.721H874.316V151.737H964.928V144.721Z" fill="white"/>
<path d="M1083.44 144.721H992.832V151.737H1083.44V144.721Z" fill="white"/>
<path d="M877.918 157.23H1078.05V87.0707H877.918V157.23ZM1084.95 164.246H871.018V80.0547H1084.95V164.246Z" fill="white"/>
<path d="M968.527 157.227H987.73V116.657H968.527V157.227ZM994.331 164.243H961.326V109.641H994.331V164.243Z" fill="white"/>
<path d="M994.333 109.947H987.432C987.432 104.456 983.231 100.186 977.83 100.186C972.43 100.186 968.229 104.456 968.229 109.947H961.328C961.328 100.796 968.829 93.1699 977.83 93.1699C987.132 93.1699 994.333 100.796 994.333 109.947Z" fill="white"/>
<path d="M930.424 131.911H942.426V115.744H930.424V131.911ZM949.327 138.927H923.523V109.033H949.327V138.927Z" fill="white"/>
<path d="M940.026 106.592H933.125V112.693H940.026V106.592Z" fill="white"/>
<path d="M894.418 131.911H906.42V115.744H894.418V131.911ZM913.321 138.927H887.518V109.033H913.321V138.927Z" fill="white"/>
<path d="M904.018 106.592H897.117V112.693H904.018V106.592Z" fill="white"/>
<path d="M1047.14 131.911H1059.14V115.744H1047.14V131.911ZM1066.04 138.927H1040.24V109.033H1066.04V138.927Z" fill="white"/>
<path d="M1056.74 106.592H1049.84V112.693H1056.74V106.592Z" fill="white"/>
<path d="M1011.14 131.911H1023.14V115.744H1011.14V131.911ZM1030.04 138.927H1004.23V109.033H1030.04V138.927Z" fill="white"/>
<path d="M1020.74 106.592H1013.84V112.693H1020.74V106.592Z" fill="white"/>
<path d="M1096.95 87.0702H858.715V70.293H865.616V80.0542H1090.05V70.293H1096.95V87.0702Z" fill="white"/>
<path d="M1097.85 73.9508L1007.54 45.8871H947.528L858.116 73.9508L856.016 67.2399L946.628 38.8711H1008.44L1099.95 67.2399L1097.85 73.9508Z" fill="white"/>
<path d="M1096.95 66.9355H859.016V73.9514H1096.95V66.9355Z" fill="white"/>
</svg>
