<svg width="108" height="122" viewBox="0 0 108 122" fill="none" xmlns="http://www.w3.org/2000/svg">
<path fill-rule="evenodd" clip-rule="evenodd" d="M54.1426 0L108 34.1923L106.643 36.3741V38.9491H102.766V42.9905H99.5355V122H7.77855V43.0309H5.23423V38.9491H1.35718V36.3741L0 34.1914L11.0902 27.1779V15.9939H26.1945V17.6428L54.1426 0ZM54.1407 1.43467L24.983 19.8412V17.2063H12.3018V27.8459L1.66431 34.5731L2.56875 36.0277V37.7366H6.44581V41.8185H8.99013V120.788H98.3239V41.778H101.555V37.7366H105.432V36.0277L106.337 34.5722L54.1407 1.43467ZM54.1017 5.05174L100.816 34.6652H51.7589V32.8577L30.9154 19.7126L54.1017 5.05174ZM33.1856 19.7113L52.9704 32.1887V33.4527H96.6395L54.1008 6.48645L33.1856 19.7113ZM15.3711 20.2778H21.9136V21.7847L15.3711 25.9014V20.2778ZM16.5827 21.4902V23.7069L20.1056 21.4902H16.5827ZM32.0913 24.0062L48.9218 34.6652H45.0952V37.7366H51.0723V41.8185H95.3353V45.9407H90.2467V49.0122H95.3353V52.7707H90.2467V55.8421H95.3353V59.6006H90.2467V62.6721H95.3353V66.4306H90.2467V69.5021H95.3353V73.8668H12.0998V69.5021H17.4308V66.4306H12.0998V62.6721H17.4308V59.6006H12.0998V55.8421H17.4308V52.7707H12.0998V49.0122H17.4308V45.9407H12.0998V41.778H12.1402V37.7366H19.0462V34.6652H15.2148L32.0913 24.0062ZM13.3114 42.9905V44.7283H18.6424V50.2246H13.3114V51.5583H18.6424V57.0546H13.3114V58.3882H18.6424V63.8845H13.3114V65.2182H18.6424V70.7145H13.3114V72.6544H94.1237V70.7145H89.0351V65.2182H94.1237V63.8845H89.0351V58.3882H94.1237V57.0546H89.0351V51.5583H94.1237V50.2246H89.0351V44.7283H94.1237V43.0309H49.8607V38.9491H43.8836V33.4527H44.7418L32.0905 25.4404L19.4045 33.4527H20.2578V38.9491H13.3518V42.9905H13.3114ZM25.3061 36.3184C25.308 32.5527 28.3222 29.5326 32.0505 29.5326C35.7827 29.5326 38.795 32.5977 38.795 36.3221C38.795 40.0517 35.7775 43.0713 32.0505 43.0713C28.3288 43.0713 25.2635 40.0157 25.3061 36.3184ZM32.0505 30.745C28.9952 30.745 26.5176 33.2192 26.5176 36.3221V36.3258L26.5176 36.3294C26.4813 39.3393 28.9886 41.8589 32.0505 41.8589C35.1084 41.8589 37.5834 39.3821 37.5834 36.3221C37.5834 33.257 35.1032 30.745 32.0505 30.745ZM12.3018 31.4578V34.6652H7.27759L12.3018 31.4578ZM32.0505 34.9885C31.335 34.9885 30.7582 35.5658 30.7582 36.2817C30.7582 36.9977 31.335 37.575 32.0505 37.575C32.766 37.575 33.3429 36.9977 33.3429 36.2817C33.3429 35.5658 32.766 34.9885 32.0505 34.9885ZM29.5466 36.2817C29.5466 34.8962 30.6659 33.7761 32.0505 33.7761C33.4351 33.7761 34.5544 34.8962 34.5544 36.2817C34.5544 37.6673 33.4351 38.7874 32.0505 38.7874C30.6659 38.7874 29.5466 37.6673 29.5466 36.2817ZM45.2567 44.7283H52.93V50.2246H45.2567V44.7283ZM46.4683 45.9407V49.0122H51.7185V45.9407H46.4683ZM23.4079 45.9811H41.3393V63.8441H23.4079V45.9811ZM24.6195 47.1935V62.6317H40.1277V47.1935H24.6195ZM56.7263 45.9811H84.1888V63.8441H56.7263V45.9811ZM57.9379 47.1935V62.6317H82.9772V47.1935H57.9379ZM27.6484 50.265H37.0584V59.6006H27.6484V50.265ZM28.86 51.4774V58.3882H35.8468V51.4774H28.86ZM61.0072 50.265H79.9483V59.6006H61.0072V50.265ZM62.2188 51.4774V58.3882H78.7367V51.4774H62.2188ZM45.2567 51.5583H52.93V57.0546H45.2567V51.5583ZM46.4683 52.7707V55.8421H51.7185V52.7707H46.4683ZM45.2567 58.3882H52.93V63.8441H45.2567V58.3882ZM46.4683 59.6006V62.6317H51.7185V59.6006H46.4683ZM23.2868 65.1778H41.4201V70.6741H23.2868V65.1778ZM24.4983 66.3902V69.4617H40.2085V66.3902H24.4983ZM45.2567 65.1778H52.93V70.6741H45.2567V65.1778ZM46.4683 66.3902V69.4617H51.7185V66.3902H46.4683ZM56.686 65.1778H84.5927V70.6741H56.686V65.1778ZM57.8975 66.3902V69.4617H83.3811V66.3902H57.8975ZM12.0998 76.7766H95.3353V80.8989H90.2467V83.9703H95.3353V87.7289H90.2467V90.8003H95.3353V94.5588H90.2467V97.6303H95.3353V101.389H90.2467V104.46H95.3353V108.785H40.1277V81.8284H24.6195V108.704H12.0998V104.379H17.4308V101.308H12.0998V97.5495H17.4308V94.478H12.0998V90.7195H17.4308V87.648H12.0998V83.8895H17.4308V80.818H12.0998V76.7766ZM13.3114 77.9891V79.6056H18.6424V85.1019H13.3114V86.4356H18.6424V91.9319H13.3114V93.2656H18.6424V98.7619H13.3114V100.096H18.6424V105.592H13.3114V107.491H23.4079V80.616H41.3393V107.572H94.1237V105.673H89.0351V100.176H94.1237V98.8427H89.0351V93.3464H94.1237V92.0127H89.0351V86.5164H94.1237V85.1828H89.0351V79.6864H94.1237V77.9891H13.3114ZM45.2567 79.6864H52.93V85.1828H45.2567V79.6864ZM46.4683 80.8989V83.9703H51.7185V80.8989H46.4683ZM56.7263 80.616H84.1888V98.7619H56.7263V80.616ZM57.9379 81.8284V97.5495H82.9772V81.8284H57.9379ZM27.6888 84.8595H37.0988V108.704H27.6888V84.8595ZM28.9004 86.0719V107.491H35.8872V86.0719H28.9004ZM61.0072 84.8999H79.9483V94.5184H61.0072V84.8999ZM62.2188 86.1123V93.306H78.7367V86.1123H62.2188ZM45.2567 86.476H52.93V91.9723H45.2567V86.476ZM46.4683 87.6884V90.7599H51.7185V87.6884H46.4683ZM45.2567 93.306H52.93V98.8023H45.2567V93.306ZM46.4683 94.5184V97.5899H51.7185V94.5184H46.4683ZM45.2567 100.096H52.93V105.592H45.2567V100.096ZM46.4683 101.308V104.379H51.7185V101.308H46.4683ZM56.686 100.096H84.5927V105.592H56.686V100.096ZM57.8975 101.308V104.379H83.3811V101.308H57.8975ZM12.0998 111.775H95.3353V117.716H12.0998V111.775ZM13.3114 112.988V116.504H94.1237V112.988H13.3114Z" fill="#00557B"/>
</svg>
