<svg width="100" height="113" viewBox="0 0 100 113" fill="none" xmlns="http://www.w3.org/2000/svg">
<path opacity="0.69" fill-rule="evenodd" clip-rule="evenodd" d="M50.132 0L100 31.6699L98.7439 33.6908V36.0758H95.154V39.819H92.1625V113H7.20236V39.8565H4.84651V36.0758H1.25664V33.6908L0 31.6691L10.2687 25.1729V14.814H24.2542V16.3413L50.132 0ZM50.1303 1.32883L23.1324 18.3775V15.937H11.3905V25.7917L1.54103 32.0226L2.37848 33.3699V34.9528H5.96834V38.7335H8.32419V111.877H91.0406V38.6961H94.0322V34.9528H97.622V33.3699L98.46 32.0218L50.1303 1.32883ZM50.0941 4.67907L93.3482 32.1079H47.9249V30.4338L28.6253 18.2584L50.0941 4.67907ZM30.7274 18.2572L49.0467 29.8141V30.9849H89.481L50.0934 6.00794L30.7274 18.2572ZM14.2325 18.7819H20.2904V20.1776L14.2325 23.9906V18.7819ZM15.3543 19.9048V21.958L18.6163 19.9048H15.3543ZM29.7142 22.2352L45.2979 32.1079H41.7548V34.9528H47.2892V38.7335H88.2734V42.5516H83.5617V45.3965H88.2734V48.8778H83.5617V51.7226H88.2734V55.2039H83.5617V58.0488H88.2734V61.53H83.5617V64.3749H88.2734V68.4176H11.2036V64.3749H16.1396V61.53H11.2036V58.0488H16.1396V55.2039H11.2036V51.7226H16.1396V48.8778H11.2036V45.3965H16.1396V42.5516H11.2036V38.6961H11.241V34.9528H17.6354V32.1079H14.0878L29.7142 22.2352ZM12.3254 39.819V41.4286H17.2615V46.5195H12.3254V47.7548H17.2615V52.8456H12.3254V54.0809H17.2615V59.1718H12.3254V60.407H17.2615V65.4979H12.3254V67.2947H87.1516V65.4979H82.4399V60.407H87.1516V59.1718H82.4399V54.0809H87.1516V52.8456H82.4399V47.7548H87.1516V46.5195H82.4399V41.4286H87.1516V39.8565H46.1673V36.0758H40.633V30.9849H41.4276L29.7134 23.5637L17.9671 30.9849H18.7572V36.0758H12.3628V39.819H12.3254ZM23.4315 33.6392C23.4334 30.1513 26.2242 27.3539 29.6764 27.3539C33.1321 27.3539 35.9213 30.193 35.9213 33.6426C35.9213 37.0971 33.1273 39.8939 29.6764 39.8939C26.2304 39.8939 23.3922 37.0637 23.4315 33.6392ZM29.6764 28.4769C26.8474 28.4769 24.5534 30.7686 24.5534 33.6426V33.646L24.5533 33.6494C24.5198 36.4372 26.8413 38.7709 29.6764 38.7709C32.5077 38.7709 34.7994 36.4769 34.7994 33.6426C34.7994 30.8036 32.503 28.4769 29.6764 28.4769ZM11.3905 29.1372V32.1079H6.73851L11.3905 29.1372ZM29.6764 32.4074C29.0139 32.4074 28.4798 32.9421 28.4798 33.6052C28.4798 34.2684 29.0139 34.8031 29.6764 34.8031C30.3389 34.8031 30.873 34.2684 30.873 33.6052C30.873 32.9421 30.3389 32.4074 29.6764 32.4074ZM27.3579 33.6052C27.3579 32.3219 28.3944 31.2844 29.6764 31.2844C30.9584 31.2844 31.9949 32.3219 31.9949 33.6052C31.9949 34.8886 30.9584 35.926 29.6764 35.926C28.3944 35.926 27.3579 34.8886 27.3579 33.6052ZM41.9044 41.4286H49.0093V46.5195H41.9044V41.4286ZM43.0262 42.5516V45.3965H47.8875V42.5516H43.0262ZM21.674 42.5891H38.2771V59.1343H21.674V42.5891ZM22.7958 43.712V58.0113H37.1553V43.712H22.7958ZM52.5244 42.5891H77.9526V59.1343H52.5244V42.5891ZM53.6462 43.712V58.0113H76.8307V43.712H53.6462ZM25.6004 46.5569H34.3133V55.2039H25.6004V46.5569ZM26.7222 47.6799V54.0809H33.1915V47.6799H26.7222ZM56.4882 46.5569H74.0262V55.2039H56.4882V46.5569ZM57.61 47.6799V54.0809H72.9043V47.6799H57.61ZM41.9044 47.7548H49.0093V52.8456H41.9044V47.7548ZM43.0262 48.8778V51.7226H47.8875V48.8778H43.0262ZM41.9044 54.0809H49.0093V59.1343H41.9044V54.0809ZM43.0262 55.2039V58.0113H47.8875V55.2039H43.0262ZM21.5618 60.3696H38.3519V65.4604H21.5618V60.3696ZM22.6836 61.4926V64.3375H37.2301V61.4926H22.6836ZM41.9044 60.3696H49.0093V65.4604H41.9044V60.3696ZM43.0262 61.4926V64.3375H47.8875V61.4926H43.0262ZM52.487 60.3696H78.3265V65.4604H52.487V60.3696ZM53.6088 61.4926V64.3375H77.2047V61.4926H53.6088ZM11.2036 71.1128H88.2734V74.9309H83.5617V77.7758H88.2734V81.2571H83.5617V84.1019H88.2734V87.5832H83.5617V90.4281H88.2734V93.9093H83.5617V96.7542H88.2734V100.76H37.1553V75.7919H22.7958V100.685H11.2036V96.6793H16.1396V93.8344H11.2036V90.3532H16.1396V87.5083H11.2036V84.0271H16.1396V81.1822H11.2036V77.701H16.1396V74.8561H11.2036V71.1128ZM12.3254 72.2358V73.7331H17.2615V78.8239H12.3254V80.0592H17.2615V85.1501H12.3254V86.3853H17.2615V91.4762H12.3254V92.7115H17.2615V97.8023H12.3254V99.5617H21.674V74.6689H38.2771V99.6365H87.1516V97.8772H82.4399V92.7863H87.1516V91.5511H82.4399V86.4602H87.1516V85.2249H82.4399V80.1341H87.1516V78.8988H82.4399V73.8079H87.1516V72.2358H12.3254ZM41.9044 73.8079H49.0093V78.8988H41.9044V73.8079ZM43.0262 74.9309V77.7758H47.8875V74.9309H43.0262ZM52.5244 74.6689H77.9526V91.4762H52.5244V74.6689ZM53.6462 75.7919V90.3532H76.8307V75.7919H53.6462ZM25.6378 78.5993H34.3507V100.685H25.6378V78.5993ZM26.7596 79.7223V99.5617H33.2289V79.7223H26.7596ZM56.4882 78.6368H74.0262V87.5457H56.4882V78.6368ZM57.61 79.7597V86.4228H72.9043V79.7597H57.61ZM41.9044 80.0966H49.0093V85.1875H41.9044V80.0966ZM43.0262 81.2196V84.0645H47.8875V81.2196H43.0262ZM41.9044 86.4228H49.0093V91.5136H41.9044V86.4228ZM43.0262 87.5457V90.3906H47.8875V87.5457H43.0262ZM41.9044 92.7115H49.0093V97.8023H41.9044V92.7115ZM43.0262 93.8344V96.6793H47.8875V93.8344H43.0262ZM52.487 92.7115H78.3265V97.8023H52.487V92.7115ZM53.6088 93.8344V96.6793H77.2047V93.8344H53.6088ZM11.2036 103.53H88.2734V109.032H11.2036V103.53ZM12.3254 104.653V107.909H87.1516V104.653H12.3254Z" fill="#847A54"/>
</svg>
