<svg width="139" height="95" viewBox="0 0 139 95" fill="none" xmlns="http://www.w3.org/2000/svg">
<path fill-rule="evenodd" clip-rule="evenodd" d="M26.1395 0H39.2089V5.29661H26.1395V0ZM27.4043 1.27119V4.02542H37.9441V1.27119H27.4043ZM50.509 2.25928L100.767 26.9551L98.4349 31.698L96.0397 30.5129V35.5085H92.962V45.972L139 56.1415V66.1441H136.007V94.9576H92.962V95H7.08349V35.4661H4.68041V30.4705L2.27983 31.6583L0 26.9079L8.2218 22.9067V12.6271H24.5796V14.9109L26.0552 14.1807V6.22881H39.2089V7.75735L50.509 2.25928ZM91.6972 93.7288V93.6864H134.742V64.8729H137.735V57.1636L91.6972 46.9941V34.2373H94.7749V28.4702L97.8604 29.9969L99.07 27.5364L50.5062 3.67291L37.9441 9.78503V7.5H27.32V14.9718L23.3148 16.9536V13.8983H9.48658V23.7035L1.68784 27.4989L2.86508 29.9518L5.9452 28.4278V34.1949H8.34827V93.7288H91.6972ZM8.17962 6.3983H24.4531V11.6949H8.17962V6.3983ZM9.44442 7.66949V10.4237H23.1884V7.66949H9.44442ZM50.4662 6.70817L69.9852 16.2981V19.322H67.1839L50.4641 11.1719L33.3242 19.4492H30.1446V16.6361L50.4662 6.70817ZM31.4094 17.4317V18.178H33.0361L50.4667 9.76033L67.4744 18.0508H68.7204V17.0917L50.4647 8.12234L31.4094 17.4317ZM30.0603 10.2542H37.0429L30.0603 13.6394V10.2542ZM31.3251 11.5254V11.6149L31.5096 11.5254H31.3251ZM50.4666 14.2091L60.9268 19.322H58.6022V22.0763H61.8484V43.3475H57.2109V30.1695H51.3929V28.7712H48.6526V30.1695H42.8346V43.3475H37.9441V22.2034H41.5277V18.5415L50.4666 14.2091ZM57.3374 18.9811V23.3475H60.5837V42.0763H58.4757V28.8983H52.6577V27.5H47.3878V28.8983H41.5698V42.0763H39.2089V23.4746H42.7924V19.3398L50.4642 15.6215L57.3374 18.9811ZM12.8593 17.2881V16.6525H20.6166V18.2784L12.2691 22.3734V17.2881H12.8593ZM13.5339 17.9237V20.3384L18.4561 17.9237H13.5339ZM72.7255 17.6262L94.3905 28.2627H92.0767V31.483H90.2946L90.6602 30.748L72.7255 22.0084V17.6262ZM90.8119 27.9205V29.4092L73.9903 21.212V19.6619L90.8119 27.9205ZM27.4464 17.9656V22.3065L8.7277 31.3497V28.2627H6.45381L27.4464 17.9656ZM9.99248 27.9415V29.3283L26.1817 21.5071V20.0005L9.99248 27.9415ZM64.5888 22.0339H66.5891L85.9767 31.483H83.8135V34.2373H89.0834V52.5847H83.8556V39.322H78.1641V37.9237H75.4238V39.322H69.4793V52.5424H64.5888V22.0339ZM82.5487 31.2251L66.2986 23.3051H65.8536V51.2712H68.2145V38.0508H74.159V36.6525H79.4289V38.0508H85.1204V51.3136H87.8186V35.5085H82.5487V31.2251ZM33.9634 22.2034H35.2038V52.5847H30.4819V39.3644H24.7904V37.9661H22.05V39.3644H16.1477V52.5847H11.0886V34.2373H16.8223V30.4903L33.9634 22.2034ZM33.939 23.6258V51.3136H31.7467V38.0932H26.0552V36.6949H20.7853V38.0932H14.883V51.3136H12.3534V35.5085H18.0871V31.2894L33.939 23.6258ZM45.5749 32.9237H54.4706V43.3475H45.5749V32.9237ZM46.8397 34.1949V42.0763H53.2058V34.1949H46.8397ZM18.9303 42.0763H27.8259V52.5424H18.9303V42.0763ZM20.195 43.3475V51.2712H26.5611V43.3475H20.195ZM72.2197 42.0763H81.1153V74.3644H72.2197V42.0763ZM73.4845 43.3475V73.0932H79.8505V43.3475H73.4845ZM37.9441 46.1017H42.8346V52.5847H37.9441V46.1017ZM39.2089 47.3729V51.3136H41.5698V47.3729H39.2089ZM45.5749 46.1017H54.4706V52.5424H45.5749V46.1017ZM46.8397 47.3729V51.2712H53.2058V47.3729H46.8397ZM57.1688 46.1017H61.8484V52.5847H57.1688V46.1017ZM58.4335 47.3729V51.3136H60.5837V47.3729H58.4335ZM91.7394 49.8454L135.079 59.404V62.161H91.7394V49.8454ZM93.0042 51.4258V60.8898H133.814V60.4265L93.0042 51.4258ZM11.1308 55.2966H35.2459V56.9492H37.9863V55.2966H61.8906V56.9492H64.631V55.2966H69.5214V77.0763H83.8556V55.2966H89.0412V62.161H88.7883V82.5424H57.2109V61.1441H42.8346V82.5424H11.1308V55.2966ZM87.7764 60.8898V56.5678H85.1204V78.3475H68.2567V56.5678H65.8958V58.2203H60.6258V56.5678H39.2511V58.2203H33.9811V56.5678H12.3956V81.2712H41.5698V59.8729H58.4757V81.2712H87.5235V60.8898H87.7764ZM20.7853 58.6441H26.0552V59.9153H31.7889V78.3898H14.883V59.9153H20.7853V58.6441ZM22.05 59.9153V61.1864H16.1477V77.1186H30.5241V61.1864H24.7904V59.9153H22.05ZM33.9811 58.6441H39.2511V63.178H33.9811V58.6441ZM35.2459 59.9153V61.9068H37.9863V59.9153H35.2459ZM60.5837 58.6441H65.8536V63.178H60.5837V58.6441ZM61.8484 59.9153V61.9068H64.5888V59.9153H61.8484ZM33.9811 63.3898H39.2511V76.0169H33.9811V63.3898ZM35.2459 64.661V74.7458H37.9863V64.661H35.2459ZM60.5837 63.3898H65.8536V76.0169H60.5837V63.3898ZM61.8484 64.661V74.7458H64.5888V64.661H61.8484ZM18.9303 63.8983H27.8259V74.3644H18.9303V63.8983ZM20.195 65.1695V73.0932H26.5611V65.1695H20.195ZM45.5749 63.8983H54.4706V82.5424H45.5749V63.8983ZM46.8397 65.1695V81.2712H53.2058V65.1695H46.8397ZM91.7816 64.9153H132.086V90.9746H126.732V70.2966H96.5034V90.9746H91.7816V64.9153ZM93.0463 66.1864V89.7034H95.2386V69.0254H127.996V89.7034H130.821V66.1864H93.0463ZM99.2016 73.0508H124.033V90.9746H99.2016V73.0508ZM100.466 74.322V89.7034H122.769V74.322H100.466ZM33.9811 76.3559H39.2511V80.8475H33.9811V76.3559ZM35.2459 77.6271V79.5763H37.9863V77.6271H35.2459ZM60.5837 76.3559H65.8536V80.8475H60.5837V76.3559ZM61.8484 77.6271V79.5763H64.5888V77.6271H61.8484ZM11.1308 85.2966H88.7883V91.017H11.1308V85.2966ZM12.3956 86.5678V89.7458H87.5235V86.5678H12.3956Z" fill="#00557B"/>
</svg>
