<svg width="48" height="48" viewBox="0 0 48 48" fill="none" xmlns="http://www.w3.org/2000/svg">
<path fill-rule="evenodd" clip-rule="evenodd" d="M15.7513 40.1114C15.0718 40.2764 14.5532 40.5735 14.0262 41.0994C13.2133 41.9108 12.9248 42.719 12.9248 44.1846V45.0008H23.9982H35.0716V44.1846C35.0716 42.7196 34.7832 41.9116 33.9701 41.0985C33.4278 40.5562 32.7904 40.2064 32.1085 40.077C31.4502 39.9522 16.2753 39.9841 15.7513 40.1114Z" fill="#ED1556"/>
<path fill-rule="evenodd" clip-rule="evenodd" d="M22.7679 5.60449L22.7676 8.20898L22.2962 8.45319C21.6943 8.76491 21.0682 9.39105 20.7565 9.993L20.5123 10.4644L12.9865 10.4647L5.46075 10.4648V11.6953V12.9258H6.97821C7.81282 12.9258 8.49568 12.948 8.49568 12.9752C8.49568 13.0024 7.25915 16.0479 5.74784 19.7429C3.92089 24.2097 3 26.5585 3 26.7516C3 26.9114 3.05873 27.3265 3.13058 27.6742C3.6279 30.0824 5.53072 31.9853 7.93872 32.4827C8.82279 32.6654 11.936 32.6665 12.8168 32.4846C14.0457 32.2307 15.0738 31.6722 15.9535 30.7806C17.0073 29.7126 17.5807 28.5028 17.7288 27.0352L17.7825 26.502L15.0177 19.7754C13.4971 16.0758 12.2359 13.0211 12.215 12.9873C12.1942 12.9534 14.0525 12.9259 16.3447 12.9259L20.5123 12.9262L20.7565 13.3976C21.0682 13.9996 21.6943 14.6257 22.2962 14.9374L22.7676 15.1816L22.7679 23.964L22.768 32.7463L22.344 32.855C20.7551 33.2622 19.0283 34.7505 18.378 36.2731C18.2124 36.6611 18.0127 37.2927 18.0115 37.4326C18.0107 37.5137 19.2624 37.5352 23.9984 37.5352C28.7344 37.5352 29.9861 37.5137 29.9853 37.4326C29.982 37.0506 29.5611 36.0627 29.114 35.3877C28.3524 34.238 26.899 33.1744 25.6528 32.855L25.2288 32.7463L25.2289 23.964L25.2292 15.1816L25.7006 14.9374C26.3025 14.6257 26.9286 13.9996 27.2403 13.3976L27.4845 12.9262L31.6062 12.9259C33.8731 12.9259 35.728 12.948 35.728 12.9752C35.728 13.0024 34.4914 16.0479 32.9801 19.7429C31.1532 24.2097 30.2323 26.5585 30.2323 26.7516C30.2323 27.2059 30.4727 28.2571 30.7004 28.7987C31.3145 30.2587 32.5872 31.5306 34.0509 32.1467C34.9423 32.522 35.64 32.6133 37.6145 32.6133C40.0661 32.6133 40.8255 32.4532 42.0849 31.6711C43.7202 30.6554 44.8068 28.8837 44.9552 26.9906L45 26.4199L42.2254 19.6934L39.4508 12.9668L40.9934 12.9445L42.536 12.9223V11.6935V10.4648L35.0103 10.4647L27.4845 10.4644L27.2403 9.993C26.9286 9.39105 26.3025 8.76491 25.7006 8.45319L25.2292 8.20898L25.2289 5.60449L25.2288 3H23.9984H22.768L22.7679 5.60449ZM12.4926 19.9609C13.6307 22.7013 14.585 25.008 14.6135 25.0869C14.6622 25.2224 14.4262 25.2305 10.3822 25.2305C6.33834 25.2305 6.10227 25.2224 6.15099 25.0869C6.34933 24.5356 10.3498 14.9785 10.3822 14.9785C10.4048 14.9785 11.3544 17.2206 12.4926 19.9609ZM39.7249 19.9609C40.863 22.7013 41.8173 25.008 41.8458 25.0869C41.8945 25.2224 41.6585 25.2305 37.6145 25.2305C33.5706 25.2305 33.3346 25.2224 33.3833 25.0869C33.5816 24.5356 37.5821 14.9785 37.6145 14.9785C37.6371 14.9785 38.5867 17.2206 39.7249 19.9609Z" fill="white"/>
</svg>
