<svg width="80" height="80" viewBox="0 0 80 80" fill="none" xmlns="http://www.w3.org/2000/svg">
<circle cx="40" cy="40" r="38.75" fill="#003852" stroke="#0099E0" stroke-width="2.5"/>
<path d="M60.0008 40H40.0008V60C51.0302 60 60.0008 51.0294 60.0008 40Z" fill="#ED1556"/>
<path d="M40.0008 60V40H20C20 51.0294 28.9714 60 40.0008 60Z" fill="#ED1556"/>
<path d="M40.0008 20V40H60.0008C60.0008 28.9706 51.0302 20 40.0008 20Z" fill="#ED1556"/>
<path d="M20 40H40.0008V20C28.9714 20 20 28.9706 20 40Z" fill="#ED1556"/>
<path d="M60.0008 40C48.9714 40 40.0008 48.9706 40.0008 60C51.0302 60 60.0008 51.0294 60.0008 40Z" fill="white"/>
<path d="M20 40C20 51.0294 28.9714 60 40.0008 60C40.0008 48.9706 31.0294 40 20 40Z" fill="white"/>
<path d="M40.0008 20C40.0008 31.0294 48.9714 40 60.0008 40C60.0008 28.9706 51.0302 20 40.0008 20Z" fill="white"/>
<path d="M40.0008 20C28.9714 20 20 28.9706 20 40C31.0294 40 40.0008 31.0294 40.0008 20Z" fill="white"/>
</svg>
