<svg width="139" height="122" viewBox="0 0 139 122" fill="none" xmlns="http://www.w3.org/2000/svg">
<path opacity="0.69" fill-rule="evenodd" clip-rule="evenodd" d="M70.3203 0L88.202 9.74753V5.2964H101.334V16.9051L139 37.4639L137.792 39.6998V42.1063H137.683V46.023H126.111V74.5642H137.756V79.7503H126.111V108.146H137.937V122H1.68208V108.146H13.6534V79.7503H1.68208V74.5642H13.6534V46.023H1.57325V42.1063H1.1742V39.6326L0 37.4588L41.6227 15.3055V4.82495H54.7549V8.30611L70.3203 0ZM2.26251 41.0183H2.66155V44.935H14.7417V75.6522H2.77038V78.6623H14.7417V109.234H2.77038V120.912H136.849V109.234H125.023V78.6623H136.668V75.6522H125.023V44.935H136.595V41.0183H136.704V38.9511H136.96L137.528 37.8998L100.246 17.5507V6.38438H89.2903V11.58L70.3148 1.23621L53.6666 10.1201V5.91292H42.711V15.9588L1.47777 37.9049L2.26251 39.3576V41.0183ZM70.3207 4.67828L131.362 38.0082H93.1356V34.1763L69.9157 19.7524L46.9917 33.7081V38.0082H7.77555L70.3207 4.67828ZM12.1308 36.9203H45.9034V33.0968L69.9214 18.475L94.2239 33.5715V36.9203H127.099L70.3144 5.91453L12.1308 36.9203ZM45.722 8.92299H50.6193V11.7155L45.722 14.3266V8.92299ZM46.8103 10.011V12.5133L49.531 11.0627V10.011H46.8103ZM92.3013 9.39445H97.1986V15.9013L92.3013 13.1969V9.39445ZM93.3896 10.4824V12.555L96.1103 14.0574V10.4824H93.3896ZM69.9185 27.7541L86.0169 37.9357H82.434V40.9458H87.2588V44.935H122.012V48.8517H117.115V51.8618H122.012V55.3796H117.115V58.3896H122.012V61.9074H117.115V64.9175H122.012V68.4353H117.115V71.4454H122.012V75.5434H78.6612V64.8812H89.2903V61.8712H78.6612V49.9397H61.72V61.8712H51.2723V64.8812H61.72V75.5434H17.7889V71.4454H22.9039V68.4353H17.7889V64.9175H22.9039V61.9074H17.7889V58.3896H22.9039V55.3796H17.7889V51.8618H22.9039V48.8517H17.7889V44.935H53.7754V40.9458H57.4031V37.9357H53.8202L69.9185 27.7541ZM57.576 36.8477H58.4914V42.0337H54.8637V46.023H18.8772V47.7637H23.9922V52.9498H18.8772V54.2916H23.9922V59.4776H18.8772V60.8195H23.9922V66.0055H18.8772V67.3473H23.9922V72.5333H18.8772V74.4554H60.6317V65.9692H50.184V60.7832H60.6317V48.8517H79.7495V60.7832H90.3786V65.9692H79.7495V74.4554H120.924V72.5333H116.026V67.3473H120.924V66.0055H116.026V60.8195H120.924V59.4776H116.026V54.2916H120.924V52.9498H116.026V47.7637H120.924V46.023H86.1705V42.0337H81.3457V36.8477H82.2611L69.9185 29.0415L57.576 36.8477ZM63.4613 39.5314C63.4613 35.967 66.3531 33.0761 69.9185 33.0761C73.484 33.0761 76.3758 35.967 76.3758 39.5314C76.3758 43.0914 73.4883 46.023 69.9185 46.023C66.3488 46.023 63.4613 43.0914 63.4613 39.5314ZM69.9185 34.164C66.9542 34.164 64.5496 36.5679 64.5496 39.5314C64.5496 42.4992 66.9585 44.935 69.9185 44.935C72.8786 44.935 75.2875 42.4992 75.2875 39.5314C75.2875 36.5679 72.8829 34.164 69.9185 34.164ZM53.0193 33.5553L53.5971 34.4772L50.0389 36.7538V35.3827L53.0193 33.5553ZM88.9275 35.0697L90.1247 35.8675V37.972H88.9275V35.0697ZM69.9185 38.2984C69.2325 38.2984 68.6489 38.8597 68.6489 39.5677C68.6489 40.2535 69.2104 40.837 69.9185 40.837C70.5975 40.837 71.1882 40.2464 71.1882 39.5677C71.1882 38.8889 70.5975 38.2984 69.9185 38.2984ZM67.5606 39.5677C67.5606 38.2447 68.6456 37.2104 69.9185 37.2104C71.1985 37.2104 72.2765 38.288 72.2765 39.5677C72.2765 40.8473 71.1985 41.9249 69.9185 41.9249C68.5952 41.9249 67.5606 40.8402 67.5606 39.5677ZM1.71835 47.7637H9.00997V52.9498H1.71835V47.7637ZM2.80666 48.8517V51.8618H7.92167V48.8517H2.80666ZM50.1477 47.7637H57.4394V52.9498H50.1477V47.7637ZM51.236 48.8517V51.8618H56.3511V48.8517H51.236ZM83.0507 47.7637H90.3423V52.9498H83.0507V47.7637ZM84.139 48.8517V51.8618H89.254V48.8517H84.139ZM130.464 47.7637H137.756V52.9498H130.464V47.7637ZM131.553 48.8517V51.8618H136.668V48.8517H131.553ZM27.6925 48.9605H46.8103V66.078H27.6925V48.9605ZM28.7808 50.0485V64.99H45.722V50.0485H28.7808ZM93.716 48.9605H112.834V66.078H93.716V48.9605ZM94.8044 50.0485V64.99H111.746V50.0485H94.8044ZM64.731 53.0223H75.6503V61.9437H64.731V53.0223ZM65.8193 54.1103V60.8557H74.562V54.1103H65.8193ZM31.7917 53.0586H42.711V61.9437H31.7917V53.0586ZM32.88 54.1465V60.8557H41.6227V54.1465H32.88ZM97.8153 53.0586H108.735V61.9437H97.8153V53.0586ZM98.9036 54.1465V60.8557H107.646V54.1465H98.9036ZM1.71835 54.3279H9.00997V59.5139H1.71835V54.3279ZM2.80666 55.4158V58.4259H7.92167V55.4158H2.80666ZM50.1477 54.3279H57.4394V59.5139H50.1477V54.3279ZM51.236 55.4158V58.4259H56.3511V55.4158H51.236ZM83.0507 54.3279H90.3423V59.5139H83.0507V54.3279ZM84.139 55.4158V58.4259H89.254V55.4158H84.139ZM130.464 54.3279H137.756V59.5139H130.464V54.3279ZM131.553 55.4158V58.4259H136.668V55.4158H131.553ZM130.464 60.8557H137.756V66.0418H130.464V60.8557ZM131.553 61.9437V64.9538H136.668V61.9437H131.553ZM1.71835 60.892H9.00997V66.078H1.71835V60.892ZM2.80666 61.98V64.99H7.92167V61.98H2.80666ZM64.6947 64.99H75.614V75.6522H64.6947V64.99ZM65.783 66.078V74.5642H74.5257V66.078H65.783ZM1.71835 67.4199H9.00997V72.6059H1.71835V67.4199ZM2.80666 68.5078V71.5179H7.92167V68.5078H2.80666ZM27.5836 67.4199H46.9191V72.6059H27.5836V67.4199ZM28.6719 68.5078V71.5179H45.8308V68.5078H28.6719ZM50.1477 67.4199H57.4394V72.6059H50.1477V67.4199ZM51.236 68.5078V71.5179H56.3511V68.5078H51.236ZM83.0507 67.4199H90.3423V72.6059H83.0507V67.4199ZM84.139 68.5078V71.5179H89.254V68.5078H84.139ZM93.6072 67.4199H112.943V72.6059H93.6072V67.4199ZM94.6955 68.5078V71.5179H111.854V68.5078H94.6955ZM130.464 67.4199H137.756V72.6059H130.464V67.4199ZM131.553 68.5078V71.5179H136.668V68.5078H131.553ZM17.7889 78.6985H122.012V82.4702H117.115V85.4803H122.012V88.998H117.115V92.0081H122.012V95.5259H117.115V98.536H122.012V102.054H117.115V105.064H122.012V109.162H78.6612V83.3043H61.72V109.162H17.7889V105.064H22.9039V102.054H17.7889V98.536H22.9039V95.5622H17.7889V92.0444H22.9039V89.0343H17.7889V85.5165H22.9039V82.5065H17.7889V78.6985ZM18.8772 79.7865V81.4185H23.9922V86.6045H18.8772V87.9463H23.9922V93.1324H18.8772V94.4742H23.9922V99.624H18.8772V100.966H23.9922V106.152H18.8772V108.074H60.6317V82.2163H79.7495V108.074H120.924V106.152H116.026V100.966H120.924V99.624H116.026V94.4379H120.924V93.0961H116.026V87.9101H120.924V86.5682H116.026V81.3822H120.924V79.7865H18.8772ZM1.71835 81.3822H9.00997V86.5682H1.71835V81.3822ZM2.80666 82.4702V85.4803H7.92167V82.4702H2.80666ZM50.184 81.3822H57.4756V86.5682H50.184V81.3822ZM51.2723 82.4702V85.4803H56.3873V82.4702H51.2723ZM83.087 81.3822H90.3786V86.5682H83.087V81.3822ZM84.1753 82.4702V85.4803H89.2903V82.4702H84.1753ZM130.464 81.3822H137.756V86.5682H130.464V81.3822ZM131.553 82.4702V85.4803H136.668V82.4702H131.553ZM27.6925 82.6153H46.8103V99.7327H27.6925V82.6153ZM28.7808 83.7032V98.6448H45.722V83.7032H28.7808ZM93.716 82.6153H112.834V99.7327H93.716V82.6153ZM94.8044 83.7032V98.6448H111.746V83.7032H94.8044ZM64.731 86.3869H75.6503V109.234H64.731V86.3869ZM65.8193 87.4749V108.146H74.562V87.4749H65.8193ZM31.7917 86.7133H42.711V95.5984H31.7917V86.7133ZM32.88 87.8013V94.5105H41.6227V87.8013H32.88ZM97.8153 86.7133H108.735V95.5984H97.8153V86.7133ZM98.9036 87.8013V94.5105H107.646V87.8013H98.9036ZM50.184 87.9101H57.4756V93.0961H50.184V87.9101ZM51.2723 88.998V92.0081H56.3873V88.998H51.2723ZM83.087 87.9101H90.3786V93.0961H83.087V87.9101ZM84.1753 88.998V92.0081H89.2903V88.998H84.1753ZM130.464 87.9101H137.756V93.0961H130.464V87.9101ZM131.553 88.998V92.0081H136.668V88.998H131.553ZM1.71835 87.9463H9.00997V93.1324H1.71835V87.9463ZM2.80666 89.0343V92.0444H7.92167V89.0343H2.80666ZM1.71835 94.4742H9.00997V99.6602H1.71835V94.4742ZM2.80666 95.5622V98.5722H7.92167V95.5622H2.80666ZM50.184 94.4742H57.4756V99.6602H50.184V94.4742ZM51.2723 95.5622V98.5722H56.3873V95.5622H51.2723ZM83.087 94.4742H90.3786V99.6602H83.087V94.4742ZM84.1753 95.5622V98.5722H89.2903V95.5622H84.1753ZM130.464 94.4742H137.756V99.6602H130.464V94.4742ZM131.553 95.5622V98.5722H136.668V95.5622H131.553ZM1.71835 101.038H9.00997V106.224H1.71835V101.038ZM2.80666 102.126V105.136H7.92167V102.126H2.80666ZM50.184 101.038H57.4756V106.224H50.184V101.038ZM51.2723 102.126V105.136H56.3873V102.126H51.2723ZM83.087 101.038H90.3786V106.224H83.087V101.038ZM84.1753 102.126V105.136H89.2903V102.126H84.1753ZM130.464 101.038H137.756V106.224H130.464V101.038ZM131.553 102.126V105.136H136.668V102.126H131.553ZM27.5836 101.075H46.9191V106.261H27.5836V101.075ZM28.6719 102.163V105.173H45.8308V102.163H28.6719ZM93.6072 101.075H112.943V106.261H93.6072V101.075ZM94.6955 102.163V105.173H111.854V102.163H94.6955ZM5.81762 112.244H14.778V117.902H5.81762V112.244ZM6.90592 113.332V116.814H13.6897V113.332H6.90592ZM17.7889 112.244H122.012V117.902H17.7889V112.244ZM18.8772 113.332V116.814H120.924V113.332H18.8772ZM125.023 112.244H133.838V117.902H125.023V112.244ZM126.111 113.332V116.814H132.75V113.332H126.111Z" fill="#847A54"/>
</svg>
