<svg width="36" height="36" viewBox="0 0 36 36" fill="none" xmlns="http://www.w3.org/2000/svg">
<path fill-rule="evenodd" clip-rule="evenodd" d="M17.4411 0.417631C17.2713 0.528174 13.8614 3.89926 9.86343 7.90885C3.47755 14.3135 2.58414 15.235 2.50865 15.4946C2.39358 15.8904 2.50657 16.2641 2.82608 16.5449C3.28491 16.9482 3.82547 16.8966 4.36602 16.3977L4.667 16.1199V18.8183C4.667 21.3746 4.67429 21.5318 4.80589 21.8039C4.89443 21.9869 5.0427 22.1462 5.21464 22.243L5.48451 22.3948H18.011C30.0792 22.3948 30.5462 22.3901 30.7777 22.2659C30.9194 22.1897 31.0827 22.0141 31.1759 21.8377C31.3324 21.5414 31.3339 21.5138 31.3339 18.8293V16.1199L31.6396 16.4021C32.0292 16.7616 32.4119 16.8857 32.7858 16.7735C33.1162 16.6744 33.4636 16.2967 33.5249 15.9699C33.6304 15.4065 33.8757 15.6737 26.066 7.84218C21.9164 3.68095 18.6177 0.426877 18.472 0.350957C18.1079 0.161156 17.8049 0.180762 17.4411 0.417631ZM23.1706 0.313136C22.8797 0.441756 22.6108 0.780755 22.5524 1.0925L22.5037 1.35252L25.7553 4.6084C27.5437 6.39914 29.0316 7.86429 29.0617 7.86429C29.0919 7.86429 29.1076 6.30229 29.0967 4.39309C29.0774 1.01164 29.0732 0.916953 28.9337 0.730003C28.855 0.624465 28.7043 0.473598 28.5989 0.394757C28.4145 0.256891 28.3109 0.250773 25.8948 0.235408C23.9118 0.222824 23.3378 0.239162 23.1706 0.313136ZM18.4736 9.28279C18.9199 9.51389 19.9931 10.859 20.4823 11.8005C21.1228 13.0328 21.3962 14.3743 21.1994 15.3186C20.9258 16.6312 19.8433 17.6634 18.5039 17.8888C16.8238 18.1716 15.1542 17.0125 14.8016 15.3186C14.6156 14.4253 14.8565 13.1161 15.412 12.001C15.9191 10.9831 16.9588 9.63097 17.4783 9.3138C17.7281 9.16119 18.2097 9.14624 18.4736 9.28279ZM17.719 12.1454C17.4381 12.5541 16.9992 13.5065 16.8983 13.9263C16.734 14.6099 16.8164 15.1068 17.1542 15.4683C17.5267 15.8672 18.0281 15.9604 18.5167 15.7216C19.2694 15.3536 19.3786 14.3588 18.8033 13.1094C18.5357 12.528 18.0991 11.8272 18.0046 11.8272C17.9678 11.8272 17.8393 11.9704 17.719 12.1454ZM14.7365 25.7667V27.0529H14.0421H13.3476V30.3206V33.5882H18.0004H22.6532V30.3206V27.0529H21.9588H21.2644V25.7667V24.4805H18.0004H14.7365V25.7667ZM5.51944 24.8241C5.16311 24.9122 4.94193 25.0951 4.79797 25.4209C4.6695 25.7116 4.66492 25.9117 4.6829 30.4157C4.70144 35.0312 4.70408 35.1107 4.84492 35.2995C4.92367 35.4051 5.07436 35.556 5.17985 35.6349C5.36555 35.7737 5.45402 35.7782 7.96564 35.7782C10.4942 35.7782 10.5646 35.7745 10.7557 35.6319C10.8636 35.5514 11.0143 35.3794 11.0907 35.2495C11.2259 35.0197 11.2296 34.8884 11.2296 30.2858V25.5582L11.0666 25.2958C10.7561 24.7958 10.751 24.7949 8.10453 24.7811C6.8059 24.7743 5.64263 24.7936 5.51944 24.8241ZM25.5953 24.8228C25.2772 24.9018 24.9769 25.1398 24.8673 25.3999C24.7888 25.5862 24.7713 26.4833 24.7713 30.3206C24.7713 34.8884 24.775 35.0197 24.9102 35.2495C24.9866 35.3794 25.1373 35.5514 25.2451 35.6319C25.4363 35.7745 25.5067 35.7782 28.0352 35.7782C30.5469 35.7782 30.6353 35.7737 30.821 35.6349C30.9265 35.556 31.0772 35.4051 31.156 35.2995C31.2969 35.1107 31.2994 35.0314 31.3179 30.4024L31.3366 25.6972L31.179 25.386C30.8804 24.7963 30.8751 24.7952 28.1741 24.7811C26.8755 24.7743 25.715 24.7931 25.5953 24.8228ZM0.701552 27.2108C0.229187 27.5267 0.222729 27.5684 0.222659 30.3111C0.222521 32.7101 0.226201 32.7763 0.374188 33.0399C0.612385 33.4642 0.944262 33.5882 1.8417 33.5882H2.58365V30.3206V27.0529H1.76059C1.02051 27.0529 0.913706 27.0689 0.701552 27.2108ZM33.4172 30.3206V33.5882H34.1592C35.0895 33.5882 35.416 33.4594 35.6353 33.0059C35.7714 32.7244 35.7784 32.5916 35.7782 30.2812C35.7781 27.5717 35.7711 27.5263 35.2993 27.2108C35.0872 27.0689 34.9804 27.0529 34.2403 27.0529H33.4172V30.3206Z" fill="white"/>
</svg>
