<svg width="48" height="48" viewBox="0 0 48 48" fill="none" xmlns="http://www.w3.org/2000/svg">
<path fill-rule="evenodd" clip-rule="evenodd" d="M11.363 30.9082C11.0022 30.9974 10.7783 31.1826 10.6325 31.5125C10.5024 31.8068 10.4978 32.0094 10.516 36.5697C10.5348 41.2429 10.5374 41.3234 10.68 41.5146C10.7598 41.6215 10.9124 41.7743 11.0192 41.8541C11.2072 41.9947 11.2968 41.9993 13.8398 41.9993C16.3999 41.9993 16.4712 41.9955 16.6647 41.8511C16.7739 41.7697 16.9265 41.5954 17.0039 41.4639C17.1408 41.2313 17.1445 41.0984 17.1445 36.4382V31.6515L16.9795 31.3858C16.6651 30.8795 16.66 30.8786 13.9804 30.8647C12.6655 30.8578 11.4877 30.8774 11.363 30.9082ZM31.6898 30.9069C31.3678 30.9869 31.0637 31.2279 30.9527 31.4913C30.8732 31.6798 30.8555 32.5882 30.8555 36.4734C30.8555 41.0984 30.8592 41.2313 30.9961 41.4639C31.0735 41.5954 31.2261 41.7697 31.3353 41.8511C31.5288 41.9955 31.6001 41.9993 34.1602 41.9993C36.7032 41.9993 36.7928 41.9947 36.9808 41.8541C37.0877 41.7743 37.2402 41.6215 37.32 41.5146C37.4626 41.3234 37.4652 41.2431 37.4839 36.5563L37.5028 31.7923L37.3433 31.4771C37.041 30.88 37.0356 30.879 34.3009 30.8647C32.986 30.8578 31.811 30.8768 31.6898 30.9069ZM6.48488 33.3247C6.00661 33.6446 6.00007 33.6868 6 36.4638C5.99986 38.8928 6.00359 38.9598 6.15343 39.2268C6.3946 39.6564 6.73063 39.7819 7.63928 39.7819H8.39051V36.4734V33.1649H7.55716C6.80783 33.1649 6.69969 33.1811 6.48488 33.3247ZM39.6095 36.4734V39.7819H40.3607C41.3026 39.7819 41.6332 39.6514 41.8553 39.1923C41.9931 38.9073 42.0001 38.7729 42 36.4336C41.9999 33.6901 41.9928 33.6442 41.5151 33.3247C41.3003 33.1811 41.1922 33.1649 40.4428 33.1649H39.6095V36.4734Z" fill="#ED1556"/>
<path fill-rule="evenodd" clip-rule="evenodd" d="M23.4336 6.19741C23.2617 6.30934 19.8091 9.72256 15.7612 13.7823C9.29547 20.267 8.3909 21.2 8.31447 21.4628C8.19796 21.8635 8.31236 22.2419 8.63587 22.5263C9.10043 22.9346 9.64774 22.8823 10.1951 22.3772L10.4998 22.096V24.8281C10.4998 27.4163 10.5072 27.5755 10.6404 27.851C10.7301 28.0363 10.8802 28.1976 11.0543 28.2956L11.3275 28.4493H24.0106C36.2297 28.4493 36.7025 28.4445 36.9369 28.3187C37.0803 28.2417 37.2457 28.0638 37.34 27.8853C37.4985 27.5852 37.5 27.5573 37.5 24.8392V22.096L37.8095 22.3816C38.204 22.7457 38.5915 22.8713 38.97 22.7578C39.3047 22.6574 39.6564 22.2749 39.7184 21.9441C39.8253 21.3736 40.0736 21.6442 32.1663 13.7148C27.9648 9.50152 24.6248 6.20677 24.4773 6.1299C24.1087 5.93773 23.802 5.95758 23.4336 6.19741ZM29.2347 6.09161C28.9402 6.22184 28.6679 6.56508 28.6088 6.88072L28.5594 7.14399L31.8517 10.4406C33.6625 12.2537 35.1689 13.7372 35.1994 13.7372C35.23 13.7372 35.2459 12.1556 35.2349 10.2226C35.2153 6.79885 35.2111 6.70298 35.0698 6.51369C34.9901 6.40683 34.8375 6.25408 34.7308 6.17425C34.5442 6.03466 34.4393 6.02847 31.9929 6.01291C29.9852 6.00017 29.4039 6.01671 29.2347 6.09161ZM24.4789 15.1734C24.9308 15.4074 26.0175 16.7693 26.5128 17.7225C27.1612 18.9702 27.4381 20.3286 27.2388 21.2846C26.9618 22.6137 25.8658 23.6588 24.5097 23.887C22.8086 24.1733 21.1181 22.9998 20.7611 21.2846C20.5728 20.3802 20.8167 19.0547 21.3791 17.9255C21.8925 16.8949 22.9452 15.5259 23.4712 15.2048C23.7242 15.0503 24.2118 15.0351 24.4789 15.1734ZM23.7149 18.0717C23.4305 18.4856 22.9861 19.4499 22.884 19.8749C22.7176 20.5671 22.8011 21.0701 23.1431 21.4363C23.5202 21.8401 24.0279 21.9344 24.5226 21.6926C25.2847 21.32 25.3953 20.3129 24.8128 19.0478C24.5418 18.4592 24.0998 17.7496 24.0041 17.7496C23.9669 17.7496 23.8367 17.8946 23.7149 18.0717ZM20.6952 31.8634V33.1657H19.9921H19.2889V36.4741V39.7826H23.9999H28.7109V36.4741V33.1657H28.0077H27.3046V31.8634V30.5611H23.9999H20.6952V31.8634Z" fill="white"/>
</svg>
