<svg width="48" height="48" viewBox="0 0 48 48" fill="none" xmlns="http://www.w3.org/2000/svg">
<path d="M31.501 29.4902C31.501 35.8415 28.3523 42.001 22.001 42.001C14.501 42.001 7.00098 35.501 7.00098 26.001C7.00098 19.6497 13.6497 17.9902 20.001 17.9902C26.3523 17.9902 31.501 23.139 31.501 29.4902Z" fill="#ED1556"/>
<path fill-rule="evenodd" clip-rule="evenodd" d="M33.4648 6.02481C27.9464 6.46366 23.5586 7.64157 19.3317 9.81865C16.631 11.2097 14.7268 12.5362 12.3576 14.677C9.14632 17.5785 7.41441 21.0266 7.0497 25.2447C6.76747 28.5088 7.69772 32.1019 9.57248 34.9885C10.183 35.9285 11.2571 37.2255 11.3419 37.1249C11.3743 37.0864 11.5604 36.5995 11.7554 36.0428C12.4575 34.0387 13.6489 31.5654 14.6751 29.9821C16.5902 27.0273 20.1874 23.4674 23.0847 21.6597C23.7605 21.2381 25.1039 20.5379 25.1488 20.5839C25.1659 20.6014 24.4489 21.7412 23.5556 23.1168C20.5623 27.7261 20.0824 28.5548 17.8532 32.9642C16.6809 35.2829 14.723 39.6336 14.723 39.9197C14.723 40.0017 15.67 40.4925 16.4942 40.8374C18.3871 41.6299 20.2463 41.9994 22.3433 42C27.0576 42.0012 30.8401 40.1303 33.9613 36.2537C35.7463 34.0366 36.9031 31.6461 37.3695 29.2107C37.5914 28.0525 37.6878 26.9469 37.8324 23.9069C37.9742 20.9268 38.113 19.4345 38.4098 17.6973C38.9573 14.4933 40.1431 10.7413 41.6334 7.49717C41.9376 6.83496 42.0468 6.51427 41.9821 6.47336C41.8809 6.40934 41.5971 6.36523 40.0553 6.17376C39.1117 6.05661 34.4031 5.95024 33.4648 6.02481Z" fill="white"/>
</svg>
