<svg width="14" height="14" viewBox="0 0 14 14" fill="none" xmlns="http://www.w3.org/2000/svg">
<circle cx="7" cy="7" r="7" fill="#00557B"/>
<path d="M7.00781 7.35547L4.81641 4.25C4.79557 4.20833 4.80208 4.15755 4.83594 4.09766C4.89844 3.98828 4.95182 3.93359 4.99609 3.93359H9.04688L8.91406 5.12109C8.81771 5.13932 8.70964 5.13281 8.58984 5.10156L8.36328 4.39062L5.69922 4.34375L7.84375 7.34375L5.77734 10.2695L8.51953 10.207L8.85156 9.29688C8.9401 9.27083 9.04167 9.27083 9.15625 9.29688L9.19141 10.7031L4.87891 10.6992C4.83724 10.6706 4.79036 10.5898 4.73828 10.457L7.00781 7.35547Z" fill="white"/>
</svg>
