<svg width="18" height="10" viewBox="0 0 18 10" fill="none" xmlns="http://www.w3.org/2000/svg">
<path d="M17.5873 0.677197C17.7131 0.286507 17.5873 0 16.9926 0H15.0227C14.5215 0 14.2924 0.247858 14.1667 0.520081C14.1667 0.520081 13.1651 2.80457 11.7458 4.28583C11.2877 4.71685 11.0784 4.85297 10.8287 4.85297C10.7038 4.85297 10.5224 4.71685 10.5224 4.32616V0.677197C10.5224 0.208368 10.3778 0 9.96005 0H6.8646C6.55201 0 6.36337 0.21677 6.36337 0.423458C6.36337 0.867081 7.073 0.969585 7.14576 2.21979V4.93194C7.14576 5.52596 7.03168 5.63435 6.78017 5.63435C6.11275 5.63435 4.48867 3.34146 3.52482 0.716686C3.33709 0.206688 3.14755 0.000840535 2.64452 0.000840535H0.675502C0.112284 0.000840535 0 0.248698 0 0.520921C0 1.00991 0.667417 3.42968 3.10892 6.62998C4.7366 8.81532 7.02809 10 9.11568 10C10.367 10 10.5215 9.73702 10.5215 9.28331V7.63149C10.5215 7.10553 10.6409 6.99966 11.0371 6.99966C11.3281 6.99966 11.8294 7.13746 12.998 8.19022C14.3328 9.43875 14.5538 9.99916 15.3039 9.99916H17.2729C17.8352 9.99916 18.1164 9.73618 17.9547 9.21694C17.7777 8.70022 17.14 7.94824 16.2938 7.05848C15.8339 6.551 15.1467 6.00487 14.9374 5.73181C14.6454 5.37977 14.7299 5.22433 14.9374 4.91178C14.9383 4.91262 17.3376 1.75181 17.5873 0.677197Z" fill="#FFFFFF"/>
</svg>
