<svg width="48" height="48" viewBox="0 0 48 48" fill="none" xmlns="http://www.w3.org/2000/svg">
<path fill-rule="evenodd" clip-rule="evenodd" d="M34.1949 23.5737C32.3439 23.8896 30.6775 25.3631 30.0898 27.2037C29.1786 30.0574 30.8392 33.1106 33.7572 33.9468C34.3596 34.1194 34.4324 34.1223 38.1409 34.1223H41.912L42.4072 33.885C43.2216 33.4948 43.7557 32.8427 43.9296 32.0264C43.992 31.7335 44.0114 30.689 43.9939 28.5586L43.9689 25.51L43.7655 25.0759C43.5061 24.5221 42.9757 23.9915 42.4221 23.732L41.9882 23.5285L38.2932 23.5166C36.261 23.5101 34.4168 23.5358 34.1949 23.5737ZM35.8388 27.1908C36.6523 27.5308 37.1059 28.5387 36.8122 29.3536C36.6299 29.8591 36.3611 30.1622 35.8912 30.3922C35.008 30.8245 34.0209 30.4719 33.5545 29.5576C33.2517 28.9636 33.4165 27.9899 33.8943 27.5504C34.399 27.0862 35.2235 26.9337 35.8388 27.1908Z" fill="#ED1556"/>
<path fill-rule="evenodd" clip-rule="evenodd" d="M30.0272 4.08246C29.8177 4.13718 29.4578 4.27818 29.2273 4.39586C28.9969 4.51346 24.9292 6.86871 20.188 9.62982L11.5677 14.6499H9.78367C7.832 14.6499 7.51378 14.6988 6.79117 15.1091C5.96222 15.5799 5.25378 16.5835 5.07696 17.5374C4.97548 18.0848 4.97381 39.4396 5.07521 40.0589C5.30841 41.4837 6.51828 42.6941 7.94254 42.9274C8.21993 42.9729 14.2184 43.0005 23.6659 43C40.4391 42.999 39.5514 43.0235 40.3973 42.5393C41.1849 42.0885 41.7607 41.3788 42.0754 40.471C42.1954 40.1249 42.2154 39.8164 42.216 38.3014C42.2167 36.6272 42.2084 36.5243 42.057 36.3199C41.7552 35.9126 41.7897 35.9162 38.0937 35.9149C35.3674 35.914 34.5193 35.8899 33.9937 35.7982C31.519 35.3665 29.5674 33.8088 28.5999 31.4933C28.1848 30.4997 28.1227 30.1474 28.1227 28.7877C28.1227 27.7482 28.1481 27.4806 28.2947 26.9747C29.0182 24.4768 30.8406 22.673 33.3793 21.9419C33.8719 21.8001 34.2078 21.7849 37.7735 21.744C41.5385 21.7008 41.6397 21.6958 41.8494 21.54C42.225 21.2609 42.2722 20.9654 42.2311 19.1466C42.1833 17.0303 42.0494 16.585 41.2061 15.7358C40.6933 15.2196 40.1986 14.9374 39.4733 14.7473L38.9483 14.6098L36.3761 10.1141C33.7871 5.58884 33.4331 5.04612 32.7768 4.5944C32.0405 4.08757 30.8534 3.86655 30.0272 4.08246ZM31.5496 5.92777C31.8574 6.07395 32.3758 6.57841 32.295 6.65326C32.2629 6.68298 29.1662 8.49445 25.4135 10.6787L18.5904 14.6499H16.8847C15.8495 14.6499 15.2074 14.6225 15.2514 14.5801C15.4134 14.4237 30.0334 5.95162 30.3232 5.84614C30.6821 5.71551 31.171 5.74806 31.5496 5.92777ZM35.9256 12.9055C36.4316 13.7904 36.8457 14.545 36.8457 14.5822C36.8457 14.6208 35.2004 14.6499 33.0238 14.6499C30.9218 14.6499 29.2226 14.6293 29.2479 14.604C29.3288 14.5229 34.8905 11.2965 34.9492 11.2965C34.9802 11.2965 35.4196 12.0205 35.9256 12.9055Z" fill="white"/>
</svg>
