<svg width="80" height="80" viewBox="0 0 80 80" fill="none" xmlns="http://www.w3.org/2000/svg">
<circle cx="40" cy="40" r="38.75" fill="#003852" stroke="#0099E0" stroke-width="2.5"/>
<path fill-rule="evenodd" clip-rule="evenodd" d="M32.5 57.3333V59.6667H31.25H30V60.8333V62H40H50V60.8333V59.6667H48.75H47.5V57.3333V55H40H32.5V57.3333Z" fill="#ED1556"/>
<path fill-rule="evenodd" clip-rule="evenodd" d="M27.3132 21.8367V23.6735H24.1566H21L21.029 28.6327L21.058 33.5918L21.2859 34.4063C21.5636 35.3988 22.1906 36.6676 22.7688 37.4072C23.9891 38.9679 25.7616 40.1339 27.6151 40.5951L28.3402 40.7755L28.7016 41.4732C29.7196 43.4393 31.2811 45.1287 33.1859 46.3254C33.8644 46.7517 35.3017 47.4333 35.8653 47.5961L36.2225 47.6993V49.8496V52H40.0047H43.787V49.8517V47.7033L44.232 47.567C44.4767 47.4921 45.0346 47.2622 45.4717 47.0561C47.9733 45.8765 50.0628 43.8777 51.3079 41.4732L51.6693 40.7755L52.4139 40.5931C55.1888 39.9131 57.598 37.7064 58.5394 34.9824C58.9571 33.7742 58.999 33.158 58.9995 28.2245L59 23.6735H55.8481H52.6963V21.8367V20H40.0047H27.3132V21.8367ZM56.4756 29.4082C56.4724 32.9557 56.4288 33.4464 56.0252 34.4791C55.6022 35.5616 54.8811 36.496 53.9364 37.1857C53.4149 37.5664 52.6252 37.9989 52.5625 37.9381C52.5444 37.9205 52.5685 37.413 52.6162 36.8102C52.6637 36.2074 52.6918 34.1163 52.6784 32.1633L52.6542 28.6122H40.0047H27.3553L27.331 32.1633C27.3177 34.1163 27.3458 36.2074 27.3933 36.8102C27.441 37.413 27.464 37.9216 27.4445 37.9405C27.3748 38.0082 26.4105 37.4553 25.9044 37.0577C24.6759 36.0922 23.8747 34.7201 23.6185 33.1429C23.5702 32.8462 23.532 31.1817 23.5317 29.3673L23.531 26.1224H40.0047H56.4785L56.4756 29.4082ZM41.6386 31.3052C44.0829 31.9384 45.7123 33.6411 46.1888 36.06C46.7297 38.8054 45.3209 41.53 42.7362 42.7374C41.7877 43.1805 41.1979 43.3025 40.0047 43.3025C38.7768 43.3025 38.1999 43.1775 37.1869 42.6918C34.2359 41.2767 32.9605 37.9936 34.1598 34.8992C34.9031 32.9811 36.6073 31.6243 38.786 31.2158C39.5101 31.0801 40.9427 31.125 41.6386 31.3052Z" fill="white"/>
<path fill-rule="evenodd" clip-rule="evenodd" d="M38.9519 33.6618C38.0746 33.9435 37.1731 34.6257 36.7488 35.329C36.0988 36.4062 36.0618 37.8378 36.6547 38.9666C36.8691 39.3748 37.5082 40.0437 37.9344 40.3059C39.04 40.9865 40.603 41.039 41.8286 40.4367C42.3401 40.1854 43.0933 39.4557 43.3543 38.9588C43.9395 37.8448 43.9003 36.3965 43.2562 35.329C42.9363 34.7988 42.1764 34.1477 41.5372 33.8561C41.035 33.6269 40.8717 33.5943 40.1286 33.5753C39.5988 33.5618 39.1638 33.5937 38.9519 33.6618Z" fill="#ED1556"/>
</svg>
