<svg width="48" height="48" viewBox="0 0 48 48" fill="none" xmlns="http://www.w3.org/2000/svg">
<path fill-rule="evenodd" clip-rule="evenodd" d="M21.7188 5.20243C21.4693 5.33435 21.2469 5.54922 21.0795 5.81983C20.861 6.17313 20.8228 6.3227 20.8228 6.82609C20.8228 7.32948 20.861 7.47904 21.0795 7.83235C21.2469 8.10296 21.4693 8.31783 21.7188 8.44974C22.0892 8.64565 22.1698 8.65217 24.2152 8.65217H26.3288V11.4348V14.2174H24.4663C22.1832 14.2174 21.8332 14.2803 21.3339 14.7803C20.8794 15.2355 20.7718 15.6602 20.7718 16.9991V17.9462L16.452 17.9763L12.1323 18.0063L11.3676 18.2433C8.84313 19.0259 7.0139 20.8583 6.25658 23.3634C6.0745 23.9655 6.06234 24.1876 6.03204 27.4565L6 30.913H9.6957H13.3913V28.1304V25.3478H17.0815H20.7718V26.3755C20.7718 27.6754 20.906 28.1699 21.3739 28.5932C21.5613 28.7628 21.8639 28.943 22.0463 28.9937C22.2652 29.0546 24.3897 29.0862 28.2887 29.0864L34.1991 29.087L34.6706 28.8478C35.0645 28.648 35.1812 28.5311 35.3808 28.1366C35.6057 27.6917 35.6195 27.5975 35.6195 26.5044V25.3443L37.4647 25.3678L39.3098 25.3913L39.3332 27.2391L39.3567 29.087H41.1783H43V21.6522V14.2174H41.1766H39.3532V16.087V17.9565H37.4864H35.6195L35.619 16.8913C35.6185 15.6233 35.5353 15.2736 35.1265 14.8204C34.6452 14.2869 34.285 14.2174 32.0003 14.2174H30.0625V11.4348V8.65217L32.1681 8.65026C34.023 8.64861 34.3155 8.6293 34.6246 8.4887C35.9563 7.88296 35.9563 5.76922 34.6246 5.16348C34.295 5.01348 33.9045 5.00374 28.1876 5.00191L22.1016 5L21.7188 5.20243ZM8.69925 33.833C7.59765 35.0543 6.81072 36.1278 6.37788 37C6.07233 37.6158 6.05427 37.6985 6.05427 38.4828C6.05427 39.2663 6.07259 39.3505 6.37779 39.9689C6.7733 40.7703 7.35089 41.3382 8.16222 41.723C8.70854 41.9823 8.80736 42 9.70291 42C10.6131 42 10.6888 41.9857 11.2512 41.7085C12.6127 41.0372 13.5073 39.5422 13.3663 38.1737C13.2538 37.0822 12.0703 35.249 10.3208 33.4565C9.98232 33.1097 9.68346 32.8261 9.65654 32.8261C9.62971 32.8261 9.19895 33.2792 8.69925 33.833Z" fill="white"/>
<path d="M21.0794 5.81983C21.2468 5.54922 21.4692 5.33435 21.7187 5.20243L22.1015 5L28.1875 5.00191C33.9044 5.00374 34.2949 5.01348 34.6245 5.16348C35.9562 5.76922 35.9562 7.88296 34.6245 8.4887C34.3154 8.6293 34.0229 8.64861 32.168 8.65026L30.0624 8.65217V11.4348V14.2174H26.3288V11.4348V8.65217H24.2151C22.1697 8.65217 22.0891 8.64565 21.7187 8.44974C21.4692 8.31783 21.2468 8.10296 21.0794 7.83235C20.8609 7.47904 20.8228 7.32948 20.8228 6.82609C20.8228 6.3227 20.8609 6.17313 21.0794 5.81983Z" fill="#ED1556"/>
</svg>
