<svg width="36" height="36" viewBox="0 0 36 36" fill="none" xmlns="http://www.w3.org/2000/svg">
<path fill-rule="evenodd" clip-rule="evenodd" d="M15.3278 0.417188C15.088 0.543951 14.8743 0.750433 14.7135 1.01048C14.5035 1.34999 14.4668 1.49372 14.4668 1.97745C14.4668 2.46119 14.5035 2.60492 14.7135 2.94443C14.8743 3.20448 15.088 3.41096 15.3278 3.53772C15.6837 3.72599 15.7612 3.73225 17.7267 3.73225H19.7579V6.40623V9.08021H17.968C15.7741 9.08021 15.4377 9.14062 14.9579 9.62119C14.5211 10.0586 14.4178 10.4667 14.4178 11.7534V12.6634L10.2667 12.6923L6.11555 12.7212L5.3807 12.949C2.95479 13.701 1.19698 15.4619 0.469219 17.8692C0.294247 18.4477 0.282566 18.6612 0.253445 21.8025L0.222656 25.1241H3.77408H7.32542V22.4501V19.7761H10.8716H14.4178V20.7637C14.4178 22.0128 14.5468 22.488 14.9964 22.8948C15.1765 23.0578 15.4673 23.2309 15.6426 23.2797C15.8529 23.3382 17.8944 23.3685 21.6412 23.3688L27.3209 23.3693L27.774 23.1395C28.1525 22.9475 28.2647 22.8352 28.4564 22.456C28.6726 22.0285 28.6859 21.938 28.6859 20.8876V19.7728L30.459 19.7953L32.232 19.8179L32.2546 21.5936L32.2771 23.3693H34.0277H35.7782V16.2247V9.08021H34.026H32.2738V10.8768V12.6734H30.4798H28.6859L28.6854 11.6497C28.6849 10.4312 28.6049 10.0952 28.2121 9.65971C27.7496 9.14698 27.4034 9.08021 25.208 9.08021H23.3458V6.40623V3.73225L25.3692 3.73041C27.1517 3.72883 27.4327 3.71028 27.7297 3.57516C29.0095 2.99307 29.0095 0.961844 27.7297 0.379753C27.413 0.235608 27.0378 0.226249 21.5441 0.224495L15.6956 0.222656L15.3278 0.417188ZM2.81653 27.9301C1.75794 29.1036 1.00173 30.1353 0.585784 30.9734C0.292161 31.5652 0.274806 31.6447 0.274806 32.3983C0.274806 33.1513 0.292412 33.2322 0.585701 33.8264C0.965766 34.5966 1.5208 35.1422 2.30046 35.5121C2.82546 35.7612 2.92041 35.7782 3.78101 35.7782C4.65562 35.7782 4.72838 35.7645 5.26881 35.4981C6.57722 34.853 7.4369 33.4163 7.30139 32.1013C7.19326 31.0524 6.05598 29.2907 4.37476 27.5683C4.04952 27.235 3.76232 26.9624 3.73645 26.9624C3.71067 26.9624 3.29673 27.3979 2.81653 27.9301Z" fill="white"/>
</svg>
