<svg width="47" height="15" viewBox="0 0 47 15" fill="none" xmlns="http://www.w3.org/2000/svg">
<path d="M16.0573 8.87843C17.0223 8.87843 17.8349 9.23561 18.4444 9.94997C19.0539 10.6643 19.257 11.4807 19.0031 12.3992C18.8507 13.0115 18.4952 13.5218 17.8857 13.93C17.327 14.3382 16.6668 14.4912 16.0065 14.4912C15.397 14.4912 14.8383 14.3382 14.3305 14.032C13.8226 13.7259 13.467 13.3177 13.2131 12.8584C13.0607 12.6033 13.1115 12.3482 13.2639 12.093C13.467 11.8379 13.721 11.7359 14.0257 11.7359C14.3812 11.7359 14.686 11.8889 14.8383 12.2461C15.0415 12.6543 15.4478 12.9095 15.9557 12.9095H16.0065C16.362 12.9095 16.7176 12.7564 16.9715 12.5012C17.2254 12.2461 17.327 11.94 17.2762 11.5828C17.2254 11.2766 17.0731 11.0725 16.8191 10.8684C16.5652 10.6643 16.3112 10.6133 15.9557 10.6133C15.0415 10.6133 14.3305 10.2561 13.7718 9.59279C13.2131 8.92946 13.0607 8.16407 13.3147 7.34766C13.467 6.78638 13.8226 6.37818 14.3305 6.021C14.8383 5.66382 15.397 5.51074 16.0573 5.51074C17.1747 5.51074 17.9873 5.96997 18.4952 6.83741C18.6475 7.09254 18.6475 7.39869 18.4952 7.65382C18.3428 7.90894 18.0381 8.06202 17.7333 8.06202C17.3778 8.06202 17.1239 7.90894 16.9207 7.60279C16.7175 7.29664 16.4636 7.14356 16.0573 7.14356C15.8033 7.14356 15.6002 7.19459 15.397 7.34766C15.1939 7.50074 15.0923 7.65382 15.0415 7.85792C14.9907 8.16407 15.0415 8.4192 15.2447 8.6233C15.4986 8.77638 15.7526 8.87843 16.0573 8.87843Z" fill="#EA175E"/>
<path d="M13.0051 9.18483C13.0051 9.49098 12.9035 9.74611 12.7511 10.0012C12.4464 10.5625 11.9893 10.8176 11.329 10.8176H7.26587C7.26587 11.3789 7.46903 11.8382 7.87534 12.2464C8.28166 12.6546 8.73876 12.8076 9.29744 12.8076H9.34823C10.0085 12.8076 10.5672 12.5525 10.9735 11.9912C11.2274 11.6851 11.5322 11.583 11.8877 11.7361C12.1416 11.8382 12.3448 11.9912 12.3956 12.2464C12.4972 12.5015 12.4464 12.7566 12.294 12.9607C11.583 13.9302 10.5672 14.4405 9.34823 14.4405H9.29744C8.28166 14.4405 7.46903 14.0833 6.75798 13.3689C6.04693 12.6546 5.69141 11.8382 5.69141 10.8176V9.18483C5.69141 8.16432 6.04693 7.34791 6.75798 6.63355C7.46903 5.91919 8.33245 5.56201 9.34823 5.56201H9.39902C10.4148 5.56201 11.2782 5.91919 11.9893 6.63355C12.3448 6.99073 12.5987 7.39893 12.7511 7.80714C12.8527 8.06227 12.9035 8.31739 12.9543 8.57252C13.0051 8.77662 13.0051 8.87868 13.0051 8.87868C13.0051 8.87868 13.0051 8.9297 13.0051 9.18483ZM7.31666 9.18483H11.3798C11.3798 8.62355 11.1766 8.16432 10.7703 7.75611C10.364 7.34791 9.90691 7.14381 9.34823 7.14381H9.29744C8.73876 7.14381 8.28166 7.34791 7.87534 7.75611C7.46903 8.16432 7.31666 8.62355 7.31666 9.18483Z" fill="#F9A11E"/>
<path d="M30.1729 2.04004C30.3761 2.04004 30.5792 2.14209 30.7316 2.29517C30.8839 2.44824 30.9855 2.65235 30.9855 2.85645V13.6229C30.9855 13.827 30.8839 14.0311 30.7316 14.2352C30.5792 14.3882 30.3761 14.4903 30.1729 14.4903C29.7666 14.4903 29.4618 14.2862 29.4111 13.878C28.8016 14.2862 28.1413 14.4903 27.3795 14.4903H27.3287C26.3129 14.4903 25.4495 14.1331 24.7384 13.4187C24.0274 12.7044 23.6719 11.837 23.6719 10.8164V9.1326C23.6719 8.11209 24.0274 7.24465 24.7384 6.53029C25.4495 5.81593 26.3129 5.45875 27.3287 5.45875H27.3795C28.0905 5.45875 28.7508 5.66286 29.3603 6.07106V2.85645C29.3603 2.65235 29.4618 2.44824 29.6142 2.29517C29.7158 2.14209 29.9189 2.04004 30.1729 2.04004ZM29.3603 9.1326C29.3603 8.57132 29.1571 8.11209 28.7508 7.70388C28.3445 7.29568 27.8874 7.09157 27.3287 7.09157H27.2779C26.7192 7.09157 26.2621 7.29568 25.8558 7.70388C25.4495 8.11209 25.2463 8.57132 25.2463 9.1326V10.8164C25.2463 11.3777 25.4495 11.837 25.8558 12.2452C26.2621 12.6534 26.7192 12.8064 27.2779 12.8064H27.3287C27.8874 12.8064 28.3445 12.6023 28.7508 12.2452C29.1571 11.837 29.3603 11.3777 29.3603 10.8164V9.1326Z" fill="#00A694"/>
<path d="M38.6525 9.18483C38.6525 9.49098 38.6017 9.74611 38.4493 10.0012C38.1446 10.5625 37.6875 10.8176 37.0273 10.8176H32.9641C32.9641 11.3789 33.1673 11.8382 33.5736 12.2464C33.9799 12.6546 34.437 12.8076 34.9957 12.8076H35.0465C35.7067 12.8076 36.2654 12.5525 36.6717 11.9912C36.9257 11.6851 37.2304 11.583 37.5859 11.7361C37.8399 11.8382 38.043 11.9912 38.0938 12.2464C38.1954 12.5015 38.1446 12.7566 37.9922 12.9607C37.2812 13.9302 36.2654 14.4405 35.0465 14.4405H34.9957C33.9799 14.4405 33.1673 14.0833 32.4562 13.3689C31.7452 12.6546 31.3896 11.8382 31.3896 10.8176V9.18483C31.3896 8.16432 31.7452 7.34791 32.4562 6.63355C33.1673 5.91919 34.0307 5.56201 35.0465 5.56201H35.0973C36.113 5.56201 36.9765 5.91919 37.6875 6.63355C38.043 6.99073 38.297 7.39893 38.4493 7.80714C38.5509 8.06227 38.6017 8.31739 38.6525 8.57252C38.7033 8.77662 38.7033 8.87868 38.7033 8.87868C38.7033 8.87868 38.6525 8.9297 38.6525 9.18483ZM32.9133 9.18483H36.9765C36.9765 8.62355 36.7733 8.16432 36.367 7.75611C36.0115 7.34791 35.5544 7.14381 34.9957 7.14381H34.9449C34.3862 7.14381 33.9291 7.34791 33.5228 7.75611C33.1165 8.16432 32.9133 8.62355 32.9133 9.18483Z" fill="#EA2127"/>
<path d="M45.461 5.51074C45.6641 5.51074 45.8673 5.61279 46.0197 5.76587C46.172 5.91895 46.2736 6.12305 46.2736 6.32715V13.6748C46.2736 13.8789 46.172 14.083 46.0197 14.2871C45.8673 14.4402 45.6641 14.5423 45.461 14.5423C45.0547 14.5423 44.7499 14.3382 44.6991 13.93C44.0897 14.3382 43.4294 14.5423 42.6676 14.5423H42.6168C41.601 14.5423 40.7376 14.1851 40.0265 13.4707C39.3155 12.7564 38.96 11.8889 38.96 10.8684V9.18458C38.96 8.16407 39.3155 7.29664 40.0265 6.58228C40.7376 5.86792 41.601 5.51074 42.6168 5.51074H42.6676C43.3786 5.51074 44.0897 5.71484 44.6991 6.12305C44.8007 5.71484 45.0547 5.51074 45.461 5.51074ZM44.6484 9.13356C44.6484 8.57228 44.4452 8.11305 44.0389 7.70484C43.6834 7.34766 43.2263 7.14356 42.6676 7.14356H42.6168C42.0581 7.14356 41.601 7.34766 41.1947 7.75587C40.7884 8.16407 40.5852 8.6233 40.5852 9.18458V10.8684C40.5852 11.4297 40.7884 11.8889 41.1947 12.2971C41.601 12.7054 42.0581 12.8584 42.6168 12.8584H42.6676C43.2263 12.8584 43.6834 12.6543 44.0897 12.2971C44.496 11.8889 44.6991 11.4297 44.6991 10.8684V9.13356H44.6484Z" fill="#7BBF43"/>
<path d="M22.4025 14.4409C22.9612 14.4409 23.4183 13.9817 23.4183 13.4204C23.4183 12.8591 22.9612 12.3999 22.4025 12.3999C21.8438 12.3999 21.3867 12.8591 21.3867 13.4204C21.3867 14.0327 21.8438 14.4409 22.4025 14.4409Z" fill="#29A9E1"/>
<path d="M22.9592 2.29517C23.1116 2.44824 23.2131 2.65235 23.2131 2.85645V10.2041C23.2131 10.4082 23.1116 10.6123 22.9592 10.7654C22.8068 10.9185 22.6037 11.0205 22.4005 11.0205C22.1974 11.0205 21.9942 10.9185 21.8418 10.7654C21.6895 10.6123 21.5879 10.4082 21.5879 10.2041V2.90747C21.5879 2.70337 21.6895 2.49927 21.8418 2.34619C21.9942 2.14209 22.1466 2.04004 22.4005 2.04004C22.6037 2.04004 22.8068 2.14209 22.9592 2.29517Z" fill="#29A9E1"/>
<path d="M3.91617 2.04102C4.47486 2.04102 4.93196 1.58179 4.93196 1.02051C4.93196 0.45923 4.47486 0 3.91617 0C3.35749 0 2.90039 0.45923 2.90039 1.02051C2.90039 1.58179 3.35749 2.04102 3.91617 2.04102Z" fill="#FFCC05"/>
<path d="M7.77533 1.88693C7.72454 1.68283 7.57217 1.47872 7.36902 1.37667C7.16586 1.27462 6.9627 1.22359 6.70876 1.32565C6.5056 1.37667 6.30244 1.52975 6.20086 1.73385L3.91535 6.12205L1.62983 1.78488C1.52826 1.58077 1.3251 1.4277 1.12194 1.37667C0.867996 1.27462 0.664839 1.27462 0.461683 1.4277C0.258526 1.52975 0.106158 1.68283 0.0553689 1.88693C-0.0462096 2.14206 0.00457966 2.34616 0.106158 2.55026L3.00114 8.16308V13.5718C3.00114 13.8269 3.10272 14.031 3.25509 14.1841C3.40746 14.3372 3.6614 14.4392 3.86456 14.4392C4.11851 14.4392 4.32166 14.3372 4.47403 14.1841C4.6264 14.031 4.72798 13.8269 4.72798 13.5718V8.16308L7.62296 2.55026C7.82612 2.34616 7.82612 2.14206 7.77533 1.88693Z" fill="#FFCC05"/>
</svg>
