<svg width="54" height="17" viewBox="0 0 54 17" fill="none" xmlns="http://www.w3.org/2000/svg">
<path d="M18.3902 10.1686C19.4955 10.1686 20.4262 10.5777 21.1242 11.3959C21.8223 12.214 22.055 13.1491 21.7641 14.201C21.5896 14.9023 21.1824 15.4867 20.4844 15.9543C19.8445 16.4218 19.0883 16.5971 18.3321 16.5971C17.634 16.5971 16.9942 16.4218 16.4125 16.0711C15.8308 15.7205 15.4236 15.253 15.1327 14.727C14.9582 14.4348 15.0164 14.1426 15.1909 13.8504C15.4236 13.5582 15.7144 13.4413 16.0634 13.4413C16.4706 13.4413 16.8196 13.6166 16.9942 14.0257C17.2268 14.4932 17.6922 14.7854 18.2739 14.7854H18.3321C18.7393 14.7854 19.1465 14.6101 19.4373 14.3179C19.7282 14.0257 19.8445 13.6751 19.7863 13.266C19.7282 12.9153 19.5536 12.6816 19.2628 12.4478C18.9719 12.214 18.6811 12.1556 18.2739 12.1556C17.2268 12.1556 16.4125 11.7465 15.7726 10.9868C15.1327 10.2271 14.9582 9.35045 15.2491 8.41539C15.4236 7.77254 15.8308 7.30502 16.4125 6.89593C16.9942 6.48685 17.634 6.31152 18.3902 6.31152C19.67 6.31152 20.6007 6.83749 21.1824 7.83099C21.3569 8.12319 21.3569 8.47383 21.1824 8.76604C21.0079 9.05824 20.6589 9.23357 20.3099 9.23357C19.9027 9.23357 19.6118 9.05824 19.3791 8.7076C19.1465 8.35695 18.8556 8.18163 18.3902 8.18163C18.0994 8.18163 17.8667 8.24007 17.634 8.41539C17.4013 8.59072 17.285 8.76604 17.2268 8.9998C17.1687 9.35045 17.2268 9.64265 17.4595 9.87642C17.7504 10.0517 18.0412 10.1686 18.3902 10.1686Z" fill="#C3CAD1"/>
<path d="M14.8921 10.5194C14.8921 10.8701 14.7758 11.1623 14.6013 11.4545C14.2523 12.0973 13.7287 12.3895 12.9725 12.3895H8.3189C8.3189 13.0324 8.55158 13.5583 9.01694 14.0259C9.4823 14.4934 10.0058 14.6687 10.6457 14.6687H10.7039C11.4601 14.6687 12.1 14.3765 12.5653 13.7337C12.8562 13.383 13.2052 13.2661 13.6124 13.4415C13.9032 13.5583 14.1359 13.7337 14.1941 14.0259C14.3104 14.3181 14.2523 14.6103 14.0777 14.844C13.2634 15.9544 12.1 16.5388 10.7039 16.5388H10.6457C9.4823 16.5388 8.55158 16.1297 7.7372 15.3116C6.92282 14.4934 6.51562 13.5583 6.51562 12.3895V10.5194C6.51562 9.3506 6.92282 8.41555 7.7372 7.59738C8.55158 6.7792 9.54047 6.37012 10.7039 6.37012H10.762C11.9254 6.37012 12.9143 6.7792 13.7287 7.59738C14.1359 8.00646 14.4268 8.47399 14.6013 8.94152C14.7176 9.23372 14.7758 9.52592 14.834 9.81813C14.8921 10.0519 14.8921 10.1688 14.8921 10.1688C14.8921 10.1688 14.8921 10.2272 14.8921 10.5194ZM8.37707 10.5194H13.0307C13.0307 9.87657 12.798 9.3506 12.3326 8.88307C11.8673 8.41555 11.3437 8.18178 10.7039 8.18178H10.6457C10.0058 8.18178 9.4823 8.41555 9.01694 8.88307C8.55158 9.3506 8.37707 9.87657 8.37707 10.5194Z" fill="#C3CAD1"/>
<path d="M34.5552 2.33691C34.7878 2.33691 35.0205 2.4538 35.195 2.62912C35.3695 2.80444 35.4859 3.0382 35.4859 3.27197V15.603C35.4859 15.8368 35.3695 16.0705 35.195 16.3043C35.0205 16.4796 34.7878 16.5965 34.5552 16.5965C34.0898 16.5965 33.7408 16.3627 33.6826 15.8952C32.9846 16.3627 32.2283 16.5965 31.3558 16.5965H31.2976C30.1342 16.5965 29.1453 16.1874 28.3309 15.3692C27.5166 14.5511 27.1094 13.5576 27.1094 12.3887V10.4602C27.1094 9.29138 27.5166 8.29788 28.3309 7.47971C29.1453 6.66154 30.1342 6.25245 31.2976 6.25245H31.3558C32.1702 6.25245 32.9264 6.48622 33.6244 6.95374V3.27197C33.6244 3.0382 33.7408 2.80444 33.9153 2.62912C34.0316 2.4538 34.2643 2.33691 34.5552 2.33691ZM33.6244 10.4602C33.6244 9.81735 33.3917 9.29138 32.9264 8.82385C32.461 8.35632 31.9375 8.12256 31.2976 8.12256H31.2395C30.5996 8.12256 30.0761 8.35632 29.6107 8.82385C29.1453 9.29138 28.9127 9.81735 28.9127 10.4602V12.3887C28.9127 13.0316 29.1453 13.5576 29.6107 14.0251C30.0761 14.4926 30.5996 14.6679 31.2395 14.6679H31.2976C31.9375 14.6679 32.461 14.4342 32.9264 14.0251C33.3917 13.5576 33.6244 13.0316 33.6244 12.3887V10.4602Z" fill="#C3CAD1"/>
<path d="M44.2715 10.5194C44.2715 10.8701 44.2133 11.1623 44.0388 11.4545C43.6898 12.0973 43.1662 12.3895 42.41 12.3895H37.7564C37.7564 13.0324 37.9891 13.5583 38.4544 14.0259C38.9198 14.4934 39.4433 14.6687 40.0832 14.6687H40.1414C40.8976 14.6687 41.5375 14.3765 42.0028 13.7337C42.2937 13.383 42.6427 13.2661 43.0499 13.4415C43.3407 13.5583 43.5734 13.7337 43.6316 14.0259C43.7479 14.3181 43.6898 14.6103 43.5152 14.844C42.7009 15.9544 41.5375 16.5388 40.1414 16.5388H40.0832C38.9198 16.5388 37.9891 16.1297 37.1747 15.3116C36.3603 14.4934 35.9531 13.5583 35.9531 12.3895V10.5194C35.9531 9.3506 36.3603 8.41555 37.1747 7.59738C37.9891 6.7792 38.978 6.37012 40.1414 6.37012H40.1995C41.3629 6.37012 42.3518 6.7792 43.1662 7.59738C43.5734 8.00646 43.8643 8.47399 44.0388 8.94152C44.1551 9.23372 44.2133 9.52592 44.2715 9.81813C44.3296 10.0519 44.3296 10.1688 44.3296 10.1688C44.3296 10.1688 44.2715 10.2272 44.2715 10.5194ZM37.6982 10.5194H42.3518C42.3518 9.87657 42.1192 9.3506 41.6538 8.88307C41.2466 8.41555 40.7231 8.18178 40.0832 8.18178H40.025C39.3852 8.18178 38.8616 8.41555 38.3963 8.88307C37.9309 9.3506 37.6982 9.87657 37.6982 10.5194Z" fill="#C3CAD1"/>
<path d="M52.0708 6.31152C52.3035 6.31152 52.5361 6.42841 52.7107 6.60373C52.8852 6.77905 53.0015 7.01281 53.0015 7.24658V15.6621C53.0015 15.8958 52.8852 16.1296 52.7107 16.3634C52.5361 16.5387 52.3035 16.6556 52.0708 16.6556C51.6054 16.6556 51.2564 16.4218 51.1982 15.9543C50.5002 16.4218 49.744 16.6556 48.8714 16.6556H48.8133C47.6499 16.6556 46.661 16.2465 45.8466 15.4283C45.0322 14.6101 44.625 13.6166 44.625 12.4478V10.5193C44.625 9.35045 45.0322 8.35695 45.8466 7.53878C46.661 6.72061 47.6499 6.31152 48.8133 6.31152H48.8714C49.6858 6.31152 50.5002 6.54529 51.1982 7.01281C51.3146 6.54529 51.6054 6.31152 52.0708 6.31152ZM51.1401 10.4608C51.1401 9.81798 50.9074 9.29201 50.442 8.82448C50.0348 8.41539 49.5113 8.18163 48.8714 8.18163H48.8133C48.1734 8.18163 47.6498 8.41539 47.1845 8.88292C46.7191 9.35045 46.4864 9.87642 46.4864 10.5193V12.4478C46.4864 13.0907 46.7191 13.6166 47.1845 14.0842C47.6498 14.5517 48.1734 14.727 48.8133 14.727H48.8714C49.5113 14.727 50.0348 14.4932 50.5002 14.0842C50.9655 13.6166 51.1982 13.0907 51.1982 12.4478V10.4608H51.1401Z" fill="#C3CAD1"/>
<path d="M25.6556 16.5398C26.2955 16.5398 26.819 16.0138 26.819 15.371C26.819 14.7281 26.2955 14.2021 25.6556 14.2021C25.0157 14.2021 24.4922 14.7281 24.4922 15.371C24.4922 16.0723 25.0157 16.5398 25.6556 16.5398Z" fill="#C3CAD1"/>
<path d="M26.2972 2.62912C26.4717 2.80444 26.588 3.0382 26.588 3.27197V11.6875C26.588 11.9212 26.4717 12.155 26.2972 12.3303C26.1226 12.5056 25.89 12.6225 25.6573 12.6225C25.4246 12.6225 25.1919 12.5056 25.0174 12.3303C24.8429 12.155 24.7266 11.9212 24.7266 11.6875V3.33041C24.7266 3.09665 24.8429 2.86288 25.0174 2.68756C25.1919 2.4538 25.3664 2.33691 25.6573 2.33691C25.89 2.33691 26.1226 2.4538 26.2972 2.62912Z" fill="#C3CAD1"/>
<path d="M4.48372 2.33763C5.12359 2.33763 5.64712 1.81167 5.64712 1.16882C5.64712 0.525968 5.12359 0 4.48372 0C3.84384 0 3.32031 0.525968 3.32031 1.16882C3.32031 1.81167 3.84384 2.33763 4.48372 2.33763Z" fill="#C3CAD1"/>
<path d="M8.90528 2.16066C8.84711 1.9269 8.67259 1.69313 8.43991 1.57625C8.20723 1.45937 7.97455 1.40093 7.6837 1.51781C7.45102 1.57625 7.21834 1.75158 7.102 1.98534L4.48434 7.01125L1.86669 2.04378C1.75035 1.81002 1.51767 1.63469 1.28499 1.57625C0.994137 1.45937 0.761457 1.45937 0.528776 1.63469C0.296096 1.75158 0.121585 1.9269 0.0634153 2.16066C-0.0529249 2.45287 0.00524519 2.68663 0.121585 2.92039L3.43728 9.34889V15.5436C3.43728 15.8358 3.55362 16.0696 3.72813 16.2449C3.90264 16.4202 4.19349 16.5371 4.42617 16.5371C4.71703 16.5371 4.94971 16.4202 5.12422 16.2449C5.29873 16.0696 5.41507 15.8358 5.41507 15.5436V9.34889L8.73076 2.92039C8.96344 2.68663 8.96344 2.45287 8.90528 2.16066Z" fill="#C3CAD1"/>
</svg>
