<svg width="16" height="12" viewBox="0 0 16 12" fill="none" xmlns="http://www.w3.org/2000/svg">
<path d="M15.6661 10.1255C15.575 10.4885 15.3964 10.8195 15.1482 11.0854C14.9 11.3513 14.5909 11.5428 14.2518 11.6408C13.0036 12 8 12 8 12C8 12 2.99643 12 1.74821 11.6427C1.40897 11.5451 1.09969 11.3537 0.851439 11.0877C0.603191 10.8217 0.424713 10.4905 0.333929 10.1274C-6.81196e-08 8.78981 0 6 0 6C0 6 -6.81196e-08 3.21019 0.333929 1.87452C0.517857 1.13694 1.06071 0.556051 1.74821 0.359235C2.99643 -3.97491e-07 8 -1.78814e-07 8 -1.78814e-07C8 -1.78814e-07 13.0036 -3.97491e-07 14.2518 0.359235C14.9411 0.556051 15.4821 1.13694 15.6661 1.87452C16 3.21019 16 6 16 6C16 6 16 8.78981 15.6661 10.1255ZM6.41071 3.43949V8.56051L10.5536 6.01911L6.41071 3.43949Z" fill="#007BFB"/>
</svg>
